G04 #@! TF.GenerationSoftware,KiCad,Pcbnew,5.1.9-73d0e3b20d~88~ubuntu20.04.1*
G04 #@! TF.CreationDate,2021-11-24T20:30:52+09:00*
G04 #@! TF.ProjectId,ES920LRB-ESP32,45533932-304c-4524-922d-45535033322e,v1.4*
G04 #@! TF.SameCoordinates,Original*
G04 #@! TF.FileFunction,Copper,L2,Bot*
G04 #@! TF.FilePolarity,Positive*
%FSLAX46Y46*%
G04 Gerber Fmt 4.6, Leading zero omitted, Abs format (unit mm)*
G04 Created by KiCad (PCBNEW 5.1.9-73d0e3b20d~88~ubuntu20.04.1) date 2021-11-24 20:30:52*
%MOMM*%
%LPD*%
G01*
G04 APERTURE LIST*
G04 #@! TA.AperFunction,ComponentPad*
%ADD10C,2.000000*%
G04 #@! TD*
G04 #@! TA.AperFunction,ComponentPad*
%ADD11R,2.000000X2.000000*%
G04 #@! TD*
G04 #@! TA.AperFunction,ComponentPad*
%ADD12O,2.000000X0.900000*%
G04 #@! TD*
G04 #@! TA.AperFunction,ComponentPad*
%ADD13O,1.600000X1.600000*%
G04 #@! TD*
G04 #@! TA.AperFunction,ComponentPad*
%ADD14C,1.600000*%
G04 #@! TD*
G04 #@! TA.AperFunction,ComponentPad*
%ADD15O,1.700000X1.700000*%
G04 #@! TD*
G04 #@! TA.AperFunction,ComponentPad*
%ADD16R,1.700000X1.700000*%
G04 #@! TD*
G04 #@! TA.AperFunction,ViaPad*
%ADD17C,0.800000*%
G04 #@! TD*
G04 #@! TA.AperFunction,Conductor*
%ADD18C,1.000000*%
G04 #@! TD*
G04 #@! TA.AperFunction,Conductor*
%ADD19C,0.750000*%
G04 #@! TD*
G04 #@! TA.AperFunction,Conductor*
%ADD20C,0.254000*%
G04 #@! TD*
G04 #@! TA.AperFunction,Conductor*
%ADD21C,0.100000*%
G04 #@! TD*
G04 APERTURE END LIST*
D10*
G04 #@! TO.P,U1,38*
G04 #@! TO.N,Net-(J2-Pad19)*
X138605000Y-139960000D03*
G04 #@! TO.P,U1,37*
G04 #@! TO.N,Net-(J2-Pad18)*
X138605000Y-137420000D03*
G04 #@! TO.P,U1,36*
G04 #@! TO.N,Net-(J2-Pad17)*
X138605000Y-134880000D03*
G04 #@! TO.P,U1,35*
G04 #@! TO.N,Net-(J2-Pad16)*
X138605000Y-132340000D03*
G04 #@! TO.P,U1,34*
G04 #@! TO.N,Net-(J2-Pad15)*
X138605000Y-129800000D03*
G04 #@! TO.P,U1,33*
G04 #@! TO.N,Net-(J2-Pad14)*
X138605000Y-127260000D03*
G04 #@! TO.P,U1,32*
G04 #@! TO.N,Net-(J2-Pad13)*
X138605000Y-124720000D03*
G04 #@! TO.P,U1,31*
G04 #@! TO.N,Host_RX-ES920_TX*
X138605000Y-122180000D03*
G04 #@! TO.P,U1,30*
G04 #@! TO.N,Host_TX-ES920RX*
X138605000Y-119640000D03*
G04 #@! TO.P,U1,29*
G04 #@! TO.N,Net-(J2-Pad10)*
X138605000Y-117100000D03*
G04 #@! TO.P,U1,28*
G04 #@! TO.N,Net-(J2-Pad9)*
X138605000Y-114560000D03*
G04 #@! TO.P,U1,27*
G04 #@! TO.N,Net-(J2-Pad8)*
X138605000Y-112020000D03*
G04 #@! TO.P,U1,26*
G04 #@! TO.N,GND*
X138605000Y-109480000D03*
G04 #@! TO.P,U1,25*
G04 #@! TO.N,Net-(J2-Pad6)*
X138605000Y-106940000D03*
G04 #@! TO.P,U1,24*
G04 #@! TO.N,Net-(J2-Pad5)*
X138605000Y-104400000D03*
G04 #@! TO.P,U1,23*
G04 #@! TO.N,Net-(J2-Pad4)*
X138605000Y-101860000D03*
G04 #@! TO.P,U1,22*
G04 #@! TO.N,Net-(J2-Pad3)*
X138605000Y-99320000D03*
G04 #@! TO.P,U1,21*
G04 #@! TO.N,Net-(J2-Pad2)*
X138605000Y-96780000D03*
G04 #@! TO.P,U1,20*
G04 #@! TO.N,GND*
X138605000Y-94240000D03*
G04 #@! TO.P,U1,18*
G04 #@! TO.N,Net-(J1-Pad18)*
X113205000Y-137420000D03*
G04 #@! TO.P,U1,17*
G04 #@! TO.N,Net-(J1-Pad17)*
X113205000Y-134880000D03*
G04 #@! TO.P,U1,16*
G04 #@! TO.N,Net-(J1-Pad16)*
X113205000Y-132340000D03*
G04 #@! TO.P,U1,15*
G04 #@! TO.N,Net-(J1-Pad15)*
X113205000Y-129800000D03*
G04 #@! TO.P,U1,14*
G04 #@! TO.N,GND*
X113205000Y-127260000D03*
G04 #@! TO.P,U1,13*
G04 #@! TO.N,Net-(J1-Pad13)*
X113205000Y-124720000D03*
G04 #@! TO.P,U1,12*
G04 #@! TO.N,Net-(J1-Pad12)*
X113205000Y-122180000D03*
G04 #@! TO.P,U1,11*
G04 #@! TO.N,Net-(J1-Pad11)*
X113205000Y-119640000D03*
G04 #@! TO.P,U1,10*
G04 #@! TO.N,Net-(J1-Pad10)*
X113205000Y-117100000D03*
G04 #@! TO.P,U1,9*
G04 #@! TO.N,Net-(J1-Pad9)*
X113205000Y-114560000D03*
G04 #@! TO.P,U1,8*
G04 #@! TO.N,Net-(J1-Pad8)*
X113205000Y-112020000D03*
G04 #@! TO.P,U1,7*
G04 #@! TO.N,Net-(J1-Pad7)*
X113205000Y-109480000D03*
G04 #@! TO.P,U1,6*
G04 #@! TO.N,Net-(J1-Pad6)*
X113205000Y-106940000D03*
G04 #@! TO.P,U1,5*
G04 #@! TO.N,Net-(J1-Pad5)*
X113205000Y-104400000D03*
G04 #@! TO.P,U1,4*
G04 #@! TO.N,Net-(J1-Pad4)*
X113205000Y-101860000D03*
G04 #@! TO.P,U1,3*
G04 #@! TO.N,Net-(J1-Pad3)*
X113205000Y-99320000D03*
G04 #@! TO.P,U1,19*
G04 #@! TO.N,Net-(J1-Pad19)*
X113205000Y-139960000D03*
G04 #@! TO.P,U1,2*
G04 #@! TO.N,Net-(J1-Pad2)*
X113205000Y-96780000D03*
D11*
G04 #@! TO.P,U1,1*
G04 #@! TO.N,+3V3*
X113205000Y-94240000D03*
G04 #@! TD*
D12*
G04 #@! TO.P,M1,26*
G04 #@! TO.N,GND*
X179050000Y-94380000D03*
G04 #@! TO.P,M1,1*
X159950000Y-94380000D03*
G04 #@! TO.P,M1,25*
G04 #@! TO.N,Net-(J4-Pad12)*
X179050000Y-95650000D03*
G04 #@! TO.P,M1,2*
G04 #@! TO.N,+3V3*
X159950000Y-95650000D03*
G04 #@! TO.P,M1,24*
G04 #@! TO.N,ES920_NRST*
X179050000Y-96920000D03*
G04 #@! TO.P,M1,3*
G04 #@! TO.N,Net-(J3-Pad3)*
X159950000Y-96920000D03*
G04 #@! TO.P,M1,23*
G04 #@! TO.N,Net-(J4-Pad10)*
X179050000Y-98190000D03*
G04 #@! TO.P,M1,4*
G04 #@! TO.N,Net-(J3-Pad4)*
X159950000Y-98190000D03*
G04 #@! TO.P,M1,22*
G04 #@! TO.N,Net-(J4-Pad9)*
X179050000Y-99460000D03*
G04 #@! TO.P,M1,5*
G04 #@! TO.N,Net-(J3-Pad5)*
X159950000Y-99460000D03*
G04 #@! TO.P,M1,21*
G04 #@! TO.N,Net-(J4-Pad8)*
X179050000Y-100730000D03*
G04 #@! TO.P,M1,6*
G04 #@! TO.N,Net-(J3-Pad6)*
X159950000Y-100730000D03*
G04 #@! TO.P,M1,20*
G04 #@! TO.N,Net-(J4-Pad7)*
X179050000Y-102000000D03*
G04 #@! TO.P,M1,7*
G04 #@! TO.N,Net-(J3-Pad7)*
X159950000Y-102000000D03*
G04 #@! TO.P,M1,19*
G04 #@! TO.N,Net-(J4-Pad6)*
X179050000Y-103270000D03*
G04 #@! TO.P,M1,8*
G04 #@! TO.N,Host_RX-ES920_TX*
X159950000Y-103270000D03*
G04 #@! TO.P,M1,18*
G04 #@! TO.N,Net-(J4-Pad5)*
X179050000Y-104540000D03*
G04 #@! TO.P,M1,9*
G04 #@! TO.N,Host_TX-ES920RX*
X159950000Y-104540000D03*
G04 #@! TO.P,M1,17*
G04 #@! TO.N,Net-(J4-Pad4)*
X179050000Y-105810000D03*
G04 #@! TO.P,M1,10*
G04 #@! TO.N,Net-(J3-Pad10)*
X159950000Y-105810000D03*
G04 #@! TO.P,M1,16*
G04 #@! TO.N,ES920_WKUP1*
X179050000Y-107080000D03*
G04 #@! TO.P,M1,11*
G04 #@! TO.N,Net-(J3-Pad11)*
X159950000Y-107080000D03*
G04 #@! TO.P,M1,15*
G04 #@! TO.N,Net-(J4-Pad2)*
X179050000Y-108350000D03*
G04 #@! TO.P,M1,12*
G04 #@! TO.N,Net-(J3-Pad12)*
X159950000Y-108350000D03*
G04 #@! TO.P,M1,14*
G04 #@! TO.N,Net-(J4-Pad1)*
X179050000Y-109620000D03*
G04 #@! TO.P,M1,13*
G04 #@! TO.N,+3V3*
X159950000Y-109620000D03*
G04 #@! TD*
D13*
G04 #@! TO.P,R6,2*
G04 #@! TO.N,Net-(J2-Pad6)*
X173500000Y-123620000D03*
D14*
G04 #@! TO.P,R6,1*
G04 #@! TO.N,ES920_NRST*
X173500000Y-116000000D03*
G04 #@! TD*
D13*
G04 #@! TO.P,R5,2*
G04 #@! TO.N,Net-(J2-Pad8)*
X178380000Y-123620000D03*
D14*
G04 #@! TO.P,R5,1*
G04 #@! TO.N,ES920_WKUP1*
X178380000Y-116000000D03*
G04 #@! TD*
D13*
G04 #@! TO.P,R4,2*
G04 #@! TO.N,Host_RX-ES920_TX*
X168500000Y-127880000D03*
D14*
G04 #@! TO.P,R4,1*
G04 #@! TO.N,+3V3*
X168500000Y-135500000D03*
G04 #@! TD*
D13*
G04 #@! TO.P,R3,2*
G04 #@! TO.N,Host_TX-ES920RX*
X163500000Y-127880000D03*
D14*
G04 #@! TO.P,R3,1*
G04 #@! TO.N,+3V3*
X163500000Y-135500000D03*
G04 #@! TD*
D13*
G04 #@! TO.P,R2,2*
G04 #@! TO.N,ES920_NRST*
X178500000Y-127880000D03*
D14*
G04 #@! TO.P,R2,1*
G04 #@! TO.N,+3V3*
X178500000Y-135500000D03*
G04 #@! TD*
D13*
G04 #@! TO.P,R1,2*
G04 #@! TO.N,ES920_WKUP1*
X173500000Y-127880000D03*
D14*
G04 #@! TO.P,R1,1*
G04 #@! TO.N,+3V3*
X173500000Y-135500000D03*
G04 #@! TD*
D15*
G04 #@! TO.P,J4,13*
G04 #@! TO.N,GND*
X186500000Y-94460000D03*
G04 #@! TO.P,J4,12*
G04 #@! TO.N,Net-(J4-Pad12)*
X186500000Y-97000000D03*
G04 #@! TO.P,J4,11*
G04 #@! TO.N,ES920_NRST*
X186500000Y-99540000D03*
G04 #@! TO.P,J4,10*
G04 #@! TO.N,Net-(J4-Pad10)*
X186500000Y-102080000D03*
G04 #@! TO.P,J4,9*
G04 #@! TO.N,Net-(J4-Pad9)*
X186500000Y-104620000D03*
G04 #@! TO.P,J4,8*
G04 #@! TO.N,Net-(J4-Pad8)*
X186500000Y-107160000D03*
G04 #@! TO.P,J4,7*
G04 #@! TO.N,Net-(J4-Pad7)*
X186500000Y-109700000D03*
G04 #@! TO.P,J4,6*
G04 #@! TO.N,Net-(J4-Pad6)*
X186500000Y-112240000D03*
G04 #@! TO.P,J4,5*
G04 #@! TO.N,Net-(J4-Pad5)*
X186500000Y-114780000D03*
G04 #@! TO.P,J4,4*
G04 #@! TO.N,Net-(J4-Pad4)*
X186500000Y-117320000D03*
G04 #@! TO.P,J4,3*
G04 #@! TO.N,ES920_WKUP1*
X186500000Y-119860000D03*
G04 #@! TO.P,J4,2*
G04 #@! TO.N,Net-(J4-Pad2)*
X186500000Y-122400000D03*
D16*
G04 #@! TO.P,J4,1*
G04 #@! TO.N,Net-(J4-Pad1)*
X186500000Y-124940000D03*
G04 #@! TD*
D15*
G04 #@! TO.P,J3,13*
G04 #@! TO.N,+3V3*
X152500000Y-125480000D03*
G04 #@! TO.P,J3,12*
G04 #@! TO.N,Net-(J3-Pad12)*
X152500000Y-122940000D03*
G04 #@! TO.P,J3,11*
G04 #@! TO.N,Net-(J3-Pad11)*
X152500000Y-120400000D03*
G04 #@! TO.P,J3,10*
G04 #@! TO.N,Net-(J3-Pad10)*
X152500000Y-117860000D03*
G04 #@! TO.P,J3,9*
G04 #@! TO.N,Host_TX-ES920RX*
X152500000Y-115320000D03*
G04 #@! TO.P,J3,8*
G04 #@! TO.N,Host_RX-ES920_TX*
X152500000Y-112780000D03*
G04 #@! TO.P,J3,7*
G04 #@! TO.N,Net-(J3-Pad7)*
X152500000Y-110240000D03*
G04 #@! TO.P,J3,6*
G04 #@! TO.N,Net-(J3-Pad6)*
X152500000Y-107700000D03*
G04 #@! TO.P,J3,5*
G04 #@! TO.N,Net-(J3-Pad5)*
X152500000Y-105160000D03*
G04 #@! TO.P,J3,4*
G04 #@! TO.N,Net-(J3-Pad4)*
X152500000Y-102620000D03*
G04 #@! TO.P,J3,3*
G04 #@! TO.N,Net-(J3-Pad3)*
X152500000Y-100080000D03*
G04 #@! TO.P,J3,2*
G04 #@! TO.N,+3V3*
X152500000Y-97540000D03*
D16*
G04 #@! TO.P,J3,1*
G04 #@! TO.N,GND*
X152500000Y-95000000D03*
G04 #@! TD*
D15*
G04 #@! TO.P,J2,19*
G04 #@! TO.N,Net-(J2-Pad19)*
X142000000Y-140100000D03*
G04 #@! TO.P,J2,18*
G04 #@! TO.N,Net-(J2-Pad18)*
X142000000Y-137560000D03*
G04 #@! TO.P,J2,17*
G04 #@! TO.N,Net-(J2-Pad17)*
X142000000Y-135020000D03*
G04 #@! TO.P,J2,16*
G04 #@! TO.N,Net-(J2-Pad16)*
X142000000Y-132480000D03*
G04 #@! TO.P,J2,15*
G04 #@! TO.N,Net-(J2-Pad15)*
X142000000Y-129940000D03*
G04 #@! TO.P,J2,14*
G04 #@! TO.N,Net-(J2-Pad14)*
X142000000Y-127400000D03*
G04 #@! TO.P,J2,13*
G04 #@! TO.N,Net-(J2-Pad13)*
X142000000Y-124860000D03*
G04 #@! TO.P,J2,12*
G04 #@! TO.N,Host_RX-ES920_TX*
X142000000Y-122320000D03*
G04 #@! TO.P,J2,11*
G04 #@! TO.N,Host_TX-ES920RX*
X142000000Y-119780000D03*
G04 #@! TO.P,J2,10*
G04 #@! TO.N,Net-(J2-Pad10)*
X142000000Y-117240000D03*
G04 #@! TO.P,J2,9*
G04 #@! TO.N,Net-(J2-Pad9)*
X142000000Y-114700000D03*
G04 #@! TO.P,J2,8*
G04 #@! TO.N,Net-(J2-Pad8)*
X142000000Y-112160000D03*
G04 #@! TO.P,J2,7*
G04 #@! TO.N,GND*
X142000000Y-109620000D03*
G04 #@! TO.P,J2,6*
G04 #@! TO.N,Net-(J2-Pad6)*
X142000000Y-107080000D03*
G04 #@! TO.P,J2,5*
G04 #@! TO.N,Net-(J2-Pad5)*
X142000000Y-104540000D03*
G04 #@! TO.P,J2,4*
G04 #@! TO.N,Net-(J2-Pad4)*
X142000000Y-102000000D03*
G04 #@! TO.P,J2,3*
G04 #@! TO.N,Net-(J2-Pad3)*
X142000000Y-99460000D03*
G04 #@! TO.P,J2,2*
G04 #@! TO.N,Net-(J2-Pad2)*
X142000000Y-96920000D03*
D16*
G04 #@! TO.P,J2,1*
G04 #@! TO.N,GND*
X142000000Y-94380000D03*
G04 #@! TD*
D15*
G04 #@! TO.P,J1,19*
G04 #@! TO.N,Net-(J1-Pad19)*
X109900000Y-140220000D03*
G04 #@! TO.P,J1,18*
G04 #@! TO.N,Net-(J1-Pad18)*
X109900000Y-137680000D03*
G04 #@! TO.P,J1,17*
G04 #@! TO.N,Net-(J1-Pad17)*
X109900000Y-135140000D03*
G04 #@! TO.P,J1,16*
G04 #@! TO.N,Net-(J1-Pad16)*
X109900000Y-132600000D03*
G04 #@! TO.P,J1,15*
G04 #@! TO.N,Net-(J1-Pad15)*
X109900000Y-130060000D03*
G04 #@! TO.P,J1,14*
G04 #@! TO.N,GND*
X109900000Y-127520000D03*
G04 #@! TO.P,J1,13*
G04 #@! TO.N,Net-(J1-Pad13)*
X109900000Y-124980000D03*
G04 #@! TO.P,J1,12*
G04 #@! TO.N,Net-(J1-Pad12)*
X109900000Y-122440000D03*
G04 #@! TO.P,J1,11*
G04 #@! TO.N,Net-(J1-Pad11)*
X109900000Y-119900000D03*
G04 #@! TO.P,J1,10*
G04 #@! TO.N,Net-(J1-Pad10)*
X109900000Y-117360000D03*
G04 #@! TO.P,J1,9*
G04 #@! TO.N,Net-(J1-Pad9)*
X109900000Y-114820000D03*
G04 #@! TO.P,J1,8*
G04 #@! TO.N,Net-(J1-Pad8)*
X109900000Y-112280000D03*
G04 #@! TO.P,J1,7*
G04 #@! TO.N,Net-(J1-Pad7)*
X109900000Y-109740000D03*
G04 #@! TO.P,J1,6*
G04 #@! TO.N,Net-(J1-Pad6)*
X109900000Y-107200000D03*
G04 #@! TO.P,J1,5*
G04 #@! TO.N,Net-(J1-Pad5)*
X109900000Y-104660000D03*
G04 #@! TO.P,J1,4*
G04 #@! TO.N,Net-(J1-Pad4)*
X109900000Y-102120000D03*
G04 #@! TO.P,J1,3*
G04 #@! TO.N,Net-(J1-Pad3)*
X109900000Y-99580000D03*
G04 #@! TO.P,J1,2*
G04 #@! TO.N,Net-(J1-Pad2)*
X109900000Y-97040000D03*
D16*
G04 #@! TO.P,J1,1*
G04 #@! TO.N,+3V3*
X109900000Y-94500000D03*
G04 #@! TD*
D14*
G04 #@! TO.P,C2,2*
G04 #@! TO.N,GND*
X147500000Y-94500000D03*
G04 #@! TO.P,C2,1*
G04 #@! TO.N,+3V3*
X147500000Y-97000000D03*
G04 #@! TD*
G04 #@! TO.P,C1,2*
G04 #@! TO.N,GND*
X105000000Y-106000000D03*
G04 #@! TO.P,C1,1*
G04 #@! TO.N,+3V3*
X105000000Y-103500000D03*
G04 #@! TD*
D17*
G04 #@! TO.N,GND*
X102000000Y-103000000D03*
X102000000Y-106000000D03*
X147000000Y-128000000D03*
X147000000Y-130000000D03*
X145000000Y-113000000D03*
X158500000Y-114500000D03*
X182000000Y-101500000D03*
X166000000Y-114000000D03*
X166000000Y-121000000D03*
X166000000Y-126000000D03*
G04 #@! TO.N,Host_RX-ES920_TX*
X144000000Y-118000000D03*
G04 #@! TO.N,Net-(J2-Pad8)*
X154500000Y-129500000D03*
X149500000Y-129500000D03*
G04 #@! TO.N,Net-(J2-Pad6)*
X150500000Y-128000000D03*
X154500000Y-128000000D03*
G04 #@! TD*
D18*
G04 #@! TO.N,GND*
X159950000Y-94380000D02*
X179050000Y-94380000D01*
G04 #@! TO.N,+3V3*
X152500000Y-97540000D02*
X156000000Y-101040000D01*
X159043641Y-109620000D02*
X159950000Y-109620000D01*
X156000000Y-106576359D02*
X159043641Y-109620000D01*
X156000000Y-101040000D02*
X156000000Y-106576359D01*
D19*
G04 #@! TO.N,Host_RX-ES920_TX*
X161773516Y-103270000D02*
X159950000Y-103270000D01*
X168500000Y-109996484D02*
X161773516Y-103270000D01*
X168500000Y-127880000D02*
X168500000Y-109996484D01*
D18*
X147280000Y-118000000D02*
X152500000Y-112780000D01*
X144000000Y-118000000D02*
X147280000Y-118000000D01*
D19*
G04 #@! TO.N,Host_TX-ES920RX*
X161700000Y-104540000D02*
X159950000Y-104540000D01*
X163500000Y-106340000D02*
X161700000Y-104540000D01*
X163500000Y-127880000D02*
X163500000Y-106340000D01*
D18*
X148040000Y-119780000D02*
X152500000Y-115320000D01*
X142000000Y-119780000D02*
X148040000Y-119780000D01*
D19*
G04 #@! TO.N,Net-(J2-Pad8)*
X154500000Y-129500000D02*
X149500000Y-129500000D01*
G04 #@! TO.N,Net-(J2-Pad6)*
X154500000Y-128000000D02*
X150500000Y-128000000D01*
G04 #@! TO.N,ES920_NRST*
X177004999Y-119504999D02*
X173500000Y-116000000D01*
X177004999Y-126384999D02*
X177004999Y-119504999D01*
X178500000Y-127880000D02*
X177004999Y-126384999D01*
X177300000Y-96920000D02*
X179050000Y-96920000D01*
X173500000Y-100720000D02*
X177300000Y-96920000D01*
X173500000Y-116000000D02*
X173500000Y-100720000D01*
G04 #@! TO.N,ES920_WKUP1*
X177920000Y-107080000D02*
X179050000Y-107080000D01*
X177474990Y-107525010D02*
X177920000Y-107080000D01*
X177474990Y-115094990D02*
X177474990Y-107525010D01*
X178380000Y-116000000D02*
X177474990Y-115094990D01*
G04 #@! TD*
D20*
G04 #@! TO.N,GND*
X108411928Y-95350000D02*
X108424188Y-95474482D01*
X108460498Y-95594180D01*
X108519463Y-95704494D01*
X108598815Y-95801185D01*
X108695506Y-95880537D01*
X108805820Y-95939502D01*
X108878380Y-95961513D01*
X108746525Y-96093368D01*
X108584010Y-96336589D01*
X108472068Y-96606842D01*
X108415000Y-96893740D01*
X108415000Y-97186260D01*
X108472068Y-97473158D01*
X108584010Y-97743411D01*
X108746525Y-97986632D01*
X108953368Y-98193475D01*
X109127760Y-98310000D01*
X108953368Y-98426525D01*
X108746525Y-98633368D01*
X108584010Y-98876589D01*
X108472068Y-99146842D01*
X108415000Y-99433740D01*
X108415000Y-99726260D01*
X108472068Y-100013158D01*
X108584010Y-100283411D01*
X108746525Y-100526632D01*
X108953368Y-100733475D01*
X109127760Y-100850000D01*
X108953368Y-100966525D01*
X108746525Y-101173368D01*
X108584010Y-101416589D01*
X108472068Y-101686842D01*
X108415000Y-101973740D01*
X108415000Y-102266260D01*
X108472068Y-102553158D01*
X108584010Y-102823411D01*
X108746525Y-103066632D01*
X108953368Y-103273475D01*
X109127760Y-103390000D01*
X108953368Y-103506525D01*
X108746525Y-103713368D01*
X108584010Y-103956589D01*
X108472068Y-104226842D01*
X108415000Y-104513740D01*
X108415000Y-104806260D01*
X108472068Y-105093158D01*
X108584010Y-105363411D01*
X108746525Y-105606632D01*
X108953368Y-105813475D01*
X109127760Y-105930000D01*
X108953368Y-106046525D01*
X108746525Y-106253368D01*
X108584010Y-106496589D01*
X108472068Y-106766842D01*
X108415000Y-107053740D01*
X108415000Y-107346260D01*
X108472068Y-107633158D01*
X108584010Y-107903411D01*
X108746525Y-108146632D01*
X108953368Y-108353475D01*
X109127760Y-108470000D01*
X108953368Y-108586525D01*
X108746525Y-108793368D01*
X108584010Y-109036589D01*
X108472068Y-109306842D01*
X108415000Y-109593740D01*
X108415000Y-109886260D01*
X108472068Y-110173158D01*
X108584010Y-110443411D01*
X108746525Y-110686632D01*
X108953368Y-110893475D01*
X109127760Y-111010000D01*
X108953368Y-111126525D01*
X108746525Y-111333368D01*
X108584010Y-111576589D01*
X108472068Y-111846842D01*
X108415000Y-112133740D01*
X108415000Y-112426260D01*
X108472068Y-112713158D01*
X108584010Y-112983411D01*
X108746525Y-113226632D01*
X108953368Y-113433475D01*
X109127760Y-113550000D01*
X108953368Y-113666525D01*
X108746525Y-113873368D01*
X108584010Y-114116589D01*
X108472068Y-114386842D01*
X108415000Y-114673740D01*
X108415000Y-114966260D01*
X108472068Y-115253158D01*
X108584010Y-115523411D01*
X108746525Y-115766632D01*
X108953368Y-115973475D01*
X109127760Y-116090000D01*
X108953368Y-116206525D01*
X108746525Y-116413368D01*
X108584010Y-116656589D01*
X108472068Y-116926842D01*
X108415000Y-117213740D01*
X108415000Y-117506260D01*
X108472068Y-117793158D01*
X108584010Y-118063411D01*
X108746525Y-118306632D01*
X108953368Y-118513475D01*
X109127760Y-118630000D01*
X108953368Y-118746525D01*
X108746525Y-118953368D01*
X108584010Y-119196589D01*
X108472068Y-119466842D01*
X108415000Y-119753740D01*
X108415000Y-120046260D01*
X108472068Y-120333158D01*
X108584010Y-120603411D01*
X108746525Y-120846632D01*
X108953368Y-121053475D01*
X109127760Y-121170000D01*
X108953368Y-121286525D01*
X108746525Y-121493368D01*
X108584010Y-121736589D01*
X108472068Y-122006842D01*
X108415000Y-122293740D01*
X108415000Y-122586260D01*
X108472068Y-122873158D01*
X108584010Y-123143411D01*
X108746525Y-123386632D01*
X108953368Y-123593475D01*
X109127760Y-123710000D01*
X108953368Y-123826525D01*
X108746525Y-124033368D01*
X108584010Y-124276589D01*
X108472068Y-124546842D01*
X108415000Y-124833740D01*
X108415000Y-125126260D01*
X108472068Y-125413158D01*
X108584010Y-125683411D01*
X108746525Y-125926632D01*
X108953368Y-126133475D01*
X109135534Y-126255195D01*
X109018645Y-126324822D01*
X108802412Y-126519731D01*
X108628359Y-126753080D01*
X108503175Y-127015901D01*
X108458524Y-127163110D01*
X108579845Y-127393000D01*
X109773000Y-127393000D01*
X109773000Y-127373000D01*
X110027000Y-127373000D01*
X110027000Y-127393000D01*
X111220155Y-127393000D01*
X111257310Y-127322595D01*
X111563282Y-127322595D01*
X111607039Y-127641675D01*
X111712205Y-127946088D01*
X111805186Y-128120044D01*
X112069587Y-128215808D01*
X113025395Y-127260000D01*
X113384605Y-127260000D01*
X114340413Y-128215808D01*
X114604814Y-128120044D01*
X114745704Y-127830429D01*
X114827384Y-127518892D01*
X114846718Y-127197405D01*
X114802961Y-126878325D01*
X114697795Y-126573912D01*
X114604814Y-126399956D01*
X114340413Y-126304192D01*
X113384605Y-127260000D01*
X113025395Y-127260000D01*
X112069587Y-126304192D01*
X111805186Y-126399956D01*
X111664296Y-126689571D01*
X111582616Y-127001108D01*
X111563282Y-127322595D01*
X111257310Y-127322595D01*
X111341476Y-127163110D01*
X111296825Y-127015901D01*
X111171641Y-126753080D01*
X110997588Y-126519731D01*
X110781355Y-126324822D01*
X110664466Y-126255195D01*
X110846632Y-126133475D01*
X111053475Y-125926632D01*
X111215990Y-125683411D01*
X111327932Y-125413158D01*
X111385000Y-125126260D01*
X111385000Y-124833740D01*
X111327932Y-124546842D01*
X111215990Y-124276589D01*
X111053475Y-124033368D01*
X110846632Y-123826525D01*
X110672240Y-123710000D01*
X110846632Y-123593475D01*
X111053475Y-123386632D01*
X111215990Y-123143411D01*
X111327932Y-122873158D01*
X111385000Y-122586260D01*
X111385000Y-122293740D01*
X111327932Y-122006842D01*
X111215990Y-121736589D01*
X111053475Y-121493368D01*
X110846632Y-121286525D01*
X110672240Y-121170000D01*
X110846632Y-121053475D01*
X111053475Y-120846632D01*
X111215990Y-120603411D01*
X111327932Y-120333158D01*
X111385000Y-120046260D01*
X111385000Y-119753740D01*
X111327932Y-119466842D01*
X111215990Y-119196589D01*
X111053475Y-118953368D01*
X110846632Y-118746525D01*
X110672240Y-118630000D01*
X110846632Y-118513475D01*
X111053475Y-118306632D01*
X111215990Y-118063411D01*
X111327932Y-117793158D01*
X111385000Y-117506260D01*
X111385000Y-117213740D01*
X111327932Y-116926842D01*
X111215990Y-116656589D01*
X111053475Y-116413368D01*
X110846632Y-116206525D01*
X110672240Y-116090000D01*
X110846632Y-115973475D01*
X111053475Y-115766632D01*
X111215990Y-115523411D01*
X111327932Y-115253158D01*
X111385000Y-114966260D01*
X111385000Y-114673740D01*
X111327932Y-114386842D01*
X111215990Y-114116589D01*
X111053475Y-113873368D01*
X110846632Y-113666525D01*
X110672240Y-113550000D01*
X110846632Y-113433475D01*
X111053475Y-113226632D01*
X111215990Y-112983411D01*
X111327932Y-112713158D01*
X111385000Y-112426260D01*
X111385000Y-112133740D01*
X111327932Y-111846842D01*
X111215990Y-111576589D01*
X111053475Y-111333368D01*
X110846632Y-111126525D01*
X110672240Y-111010000D01*
X110846632Y-110893475D01*
X111053475Y-110686632D01*
X111215990Y-110443411D01*
X111327932Y-110173158D01*
X111385000Y-109886260D01*
X111385000Y-109593740D01*
X111327932Y-109306842D01*
X111215990Y-109036589D01*
X111053475Y-108793368D01*
X110846632Y-108586525D01*
X110672240Y-108470000D01*
X110846632Y-108353475D01*
X111053475Y-108146632D01*
X111215990Y-107903411D01*
X111327932Y-107633158D01*
X111385000Y-107346260D01*
X111385000Y-107053740D01*
X111327932Y-106766842D01*
X111215990Y-106496589D01*
X111053475Y-106253368D01*
X110846632Y-106046525D01*
X110672240Y-105930000D01*
X110846632Y-105813475D01*
X111053475Y-105606632D01*
X111215990Y-105363411D01*
X111327932Y-105093158D01*
X111385000Y-104806260D01*
X111385000Y-104513740D01*
X111327932Y-104226842D01*
X111215990Y-103956589D01*
X111053475Y-103713368D01*
X110846632Y-103506525D01*
X110672240Y-103390000D01*
X110846632Y-103273475D01*
X111053475Y-103066632D01*
X111215990Y-102823411D01*
X111327932Y-102553158D01*
X111385000Y-102266260D01*
X111385000Y-101973740D01*
X111327932Y-101686842D01*
X111215990Y-101416589D01*
X111053475Y-101173368D01*
X110846632Y-100966525D01*
X110672240Y-100850000D01*
X110846632Y-100733475D01*
X111053475Y-100526632D01*
X111215990Y-100283411D01*
X111327932Y-100013158D01*
X111385000Y-99726260D01*
X111385000Y-99433740D01*
X111327932Y-99146842D01*
X111215990Y-98876589D01*
X111053475Y-98633368D01*
X110846632Y-98426525D01*
X110672240Y-98310000D01*
X110846632Y-98193475D01*
X111053475Y-97986632D01*
X111215990Y-97743411D01*
X111327932Y-97473158D01*
X111385000Y-97186260D01*
X111385000Y-96893740D01*
X111327932Y-96606842D01*
X111215990Y-96336589D01*
X111053475Y-96093368D01*
X110921620Y-95961513D01*
X110994180Y-95939502D01*
X111104494Y-95880537D01*
X111201185Y-95801185D01*
X111280537Y-95704494D01*
X111339502Y-95594180D01*
X111375812Y-95474482D01*
X111388072Y-95350000D01*
X111388072Y-93660000D01*
X111566928Y-93660000D01*
X111566928Y-95240000D01*
X111579188Y-95364482D01*
X111615498Y-95484180D01*
X111674463Y-95594494D01*
X111753815Y-95691185D01*
X111850506Y-95770537D01*
X111896630Y-95795191D01*
X111756082Y-96005537D01*
X111632832Y-96303088D01*
X111570000Y-96618967D01*
X111570000Y-96941033D01*
X111632832Y-97256912D01*
X111756082Y-97554463D01*
X111935013Y-97822252D01*
X112162748Y-98049987D01*
X112162767Y-98050000D01*
X112162748Y-98050013D01*
X111935013Y-98277748D01*
X111756082Y-98545537D01*
X111632832Y-98843088D01*
X111570000Y-99158967D01*
X111570000Y-99481033D01*
X111632832Y-99796912D01*
X111756082Y-100094463D01*
X111935013Y-100362252D01*
X112162748Y-100589987D01*
X112162767Y-100590000D01*
X112162748Y-100590013D01*
X111935013Y-100817748D01*
X111756082Y-101085537D01*
X111632832Y-101383088D01*
X111570000Y-101698967D01*
X111570000Y-102021033D01*
X111632832Y-102336912D01*
X111756082Y-102634463D01*
X111935013Y-102902252D01*
X112162748Y-103129987D01*
X112162767Y-103130000D01*
X112162748Y-103130013D01*
X111935013Y-103357748D01*
X111756082Y-103625537D01*
X111632832Y-103923088D01*
X111570000Y-104238967D01*
X111570000Y-104561033D01*
X111632832Y-104876912D01*
X111756082Y-105174463D01*
X111935013Y-105442252D01*
X112162748Y-105669987D01*
X112162767Y-105670000D01*
X112162748Y-105670013D01*
X111935013Y-105897748D01*
X111756082Y-106165537D01*
X111632832Y-106463088D01*
X111570000Y-106778967D01*
X111570000Y-107101033D01*
X111632832Y-107416912D01*
X111756082Y-107714463D01*
X111935013Y-107982252D01*
X112162748Y-108209987D01*
X112162767Y-108210000D01*
X112162748Y-108210013D01*
X111935013Y-108437748D01*
X111756082Y-108705537D01*
X111632832Y-109003088D01*
X111570000Y-109318967D01*
X111570000Y-109641033D01*
X111632832Y-109956912D01*
X111756082Y-110254463D01*
X111935013Y-110522252D01*
X112162748Y-110749987D01*
X112162767Y-110750000D01*
X112162748Y-110750013D01*
X111935013Y-110977748D01*
X111756082Y-111245537D01*
X111632832Y-111543088D01*
X111570000Y-111858967D01*
X111570000Y-112181033D01*
X111632832Y-112496912D01*
X111756082Y-112794463D01*
X111935013Y-113062252D01*
X112162748Y-113289987D01*
X112162767Y-113290000D01*
X112162748Y-113290013D01*
X111935013Y-113517748D01*
X111756082Y-113785537D01*
X111632832Y-114083088D01*
X111570000Y-114398967D01*
X111570000Y-114721033D01*
X111632832Y-115036912D01*
X111756082Y-115334463D01*
X111935013Y-115602252D01*
X112162748Y-115829987D01*
X112162767Y-115830000D01*
X112162748Y-115830013D01*
X111935013Y-116057748D01*
X111756082Y-116325537D01*
X111632832Y-116623088D01*
X111570000Y-116938967D01*
X111570000Y-117261033D01*
X111632832Y-117576912D01*
X111756082Y-117874463D01*
X111935013Y-118142252D01*
X112162748Y-118369987D01*
X112162767Y-118370000D01*
X112162748Y-118370013D01*
X111935013Y-118597748D01*
X111756082Y-118865537D01*
X111632832Y-119163088D01*
X111570000Y-119478967D01*
X111570000Y-119801033D01*
X111632832Y-120116912D01*
X111756082Y-120414463D01*
X111935013Y-120682252D01*
X112162748Y-120909987D01*
X112162767Y-120910000D01*
X112162748Y-120910013D01*
X111935013Y-121137748D01*
X111756082Y-121405537D01*
X111632832Y-121703088D01*
X111570000Y-122018967D01*
X111570000Y-122341033D01*
X111632832Y-122656912D01*
X111756082Y-122954463D01*
X111935013Y-123222252D01*
X112162748Y-123449987D01*
X112162767Y-123450000D01*
X112162748Y-123450013D01*
X111935013Y-123677748D01*
X111756082Y-123945537D01*
X111632832Y-124243088D01*
X111570000Y-124558967D01*
X111570000Y-124881033D01*
X111632832Y-125196912D01*
X111756082Y-125494463D01*
X111935013Y-125762252D01*
X112162748Y-125989987D01*
X112271600Y-126062720D01*
X112249192Y-126124587D01*
X113205000Y-127080395D01*
X114160808Y-126124587D01*
X114138400Y-126062720D01*
X114247252Y-125989987D01*
X114474987Y-125762252D01*
X114653918Y-125494463D01*
X114777168Y-125196912D01*
X114840000Y-124881033D01*
X114840000Y-124558967D01*
X114777168Y-124243088D01*
X114653918Y-123945537D01*
X114474987Y-123677748D01*
X114247252Y-123450013D01*
X114247233Y-123450000D01*
X114247252Y-123449987D01*
X114474987Y-123222252D01*
X114653918Y-122954463D01*
X114777168Y-122656912D01*
X114840000Y-122341033D01*
X114840000Y-122018967D01*
X114777168Y-121703088D01*
X114653918Y-121405537D01*
X114474987Y-121137748D01*
X114247252Y-120910013D01*
X114247233Y-120910000D01*
X114247252Y-120909987D01*
X114474987Y-120682252D01*
X114653918Y-120414463D01*
X114777168Y-120116912D01*
X114840000Y-119801033D01*
X114840000Y-119478967D01*
X114777168Y-119163088D01*
X114653918Y-118865537D01*
X114474987Y-118597748D01*
X114247252Y-118370013D01*
X114247233Y-118370000D01*
X114247252Y-118369987D01*
X114474987Y-118142252D01*
X114653918Y-117874463D01*
X114777168Y-117576912D01*
X114840000Y-117261033D01*
X114840000Y-116938967D01*
X114777168Y-116623088D01*
X114653918Y-116325537D01*
X114474987Y-116057748D01*
X114247252Y-115830013D01*
X114247233Y-115830000D01*
X114247252Y-115829987D01*
X114474987Y-115602252D01*
X114653918Y-115334463D01*
X114777168Y-115036912D01*
X114840000Y-114721033D01*
X114840000Y-114398967D01*
X114777168Y-114083088D01*
X114653918Y-113785537D01*
X114474987Y-113517748D01*
X114247252Y-113290013D01*
X114247233Y-113290000D01*
X114247252Y-113289987D01*
X114474987Y-113062252D01*
X114653918Y-112794463D01*
X114777168Y-112496912D01*
X114840000Y-112181033D01*
X114840000Y-111858967D01*
X136970000Y-111858967D01*
X136970000Y-112181033D01*
X137032832Y-112496912D01*
X137156082Y-112794463D01*
X137335013Y-113062252D01*
X137562748Y-113289987D01*
X137562767Y-113290000D01*
X137562748Y-113290013D01*
X137335013Y-113517748D01*
X137156082Y-113785537D01*
X137032832Y-114083088D01*
X136970000Y-114398967D01*
X136970000Y-114721033D01*
X137032832Y-115036912D01*
X137156082Y-115334463D01*
X137335013Y-115602252D01*
X137562748Y-115829987D01*
X137562767Y-115830000D01*
X137562748Y-115830013D01*
X137335013Y-116057748D01*
X137156082Y-116325537D01*
X137032832Y-116623088D01*
X136970000Y-116938967D01*
X136970000Y-117261033D01*
X137032832Y-117576912D01*
X137156082Y-117874463D01*
X137335013Y-118142252D01*
X137562748Y-118369987D01*
X137562767Y-118370000D01*
X137562748Y-118370013D01*
X137335013Y-118597748D01*
X137156082Y-118865537D01*
X137032832Y-119163088D01*
X136970000Y-119478967D01*
X136970000Y-119801033D01*
X137032832Y-120116912D01*
X137156082Y-120414463D01*
X137335013Y-120682252D01*
X137562748Y-120909987D01*
X137562767Y-120910000D01*
X137562748Y-120910013D01*
X137335013Y-121137748D01*
X137156082Y-121405537D01*
X137032832Y-121703088D01*
X136970000Y-122018967D01*
X136970000Y-122341033D01*
X137032832Y-122656912D01*
X137156082Y-122954463D01*
X137335013Y-123222252D01*
X137562748Y-123449987D01*
X137562767Y-123450000D01*
X137562748Y-123450013D01*
X137335013Y-123677748D01*
X137156082Y-123945537D01*
X137032832Y-124243088D01*
X136970000Y-124558967D01*
X136970000Y-124881033D01*
X137032832Y-125196912D01*
X137156082Y-125494463D01*
X137335013Y-125762252D01*
X137562748Y-125989987D01*
X137562767Y-125990000D01*
X137562748Y-125990013D01*
X137335013Y-126217748D01*
X137156082Y-126485537D01*
X137032832Y-126783088D01*
X136970000Y-127098967D01*
X136970000Y-127421033D01*
X137032832Y-127736912D01*
X137156082Y-128034463D01*
X137335013Y-128302252D01*
X137562748Y-128529987D01*
X137562767Y-128530000D01*
X137562748Y-128530013D01*
X137335013Y-128757748D01*
X137156082Y-129025537D01*
X137032832Y-129323088D01*
X136970000Y-129638967D01*
X136970000Y-129961033D01*
X137032832Y-130276912D01*
X137156082Y-130574463D01*
X137335013Y-130842252D01*
X137562748Y-131069987D01*
X137562767Y-131070000D01*
X137562748Y-131070013D01*
X137335013Y-131297748D01*
X137156082Y-131565537D01*
X137032832Y-131863088D01*
X136970000Y-132178967D01*
X136970000Y-132501033D01*
X137032832Y-132816912D01*
X137156082Y-133114463D01*
X137335013Y-133382252D01*
X137562748Y-133609987D01*
X137562767Y-133610000D01*
X137562748Y-133610013D01*
X137335013Y-133837748D01*
X137156082Y-134105537D01*
X137032832Y-134403088D01*
X136970000Y-134718967D01*
X136970000Y-135041033D01*
X137032832Y-135356912D01*
X137156082Y-135654463D01*
X137335013Y-135922252D01*
X137562748Y-136149987D01*
X137562767Y-136150000D01*
X137562748Y-136150013D01*
X137335013Y-136377748D01*
X137156082Y-136645537D01*
X137032832Y-136943088D01*
X136970000Y-137258967D01*
X136970000Y-137581033D01*
X137032832Y-137896912D01*
X137156082Y-138194463D01*
X137335013Y-138462252D01*
X137562748Y-138689987D01*
X137562767Y-138690000D01*
X137562748Y-138690013D01*
X137335013Y-138917748D01*
X137156082Y-139185537D01*
X137032832Y-139483088D01*
X136970000Y-139798967D01*
X136970000Y-140121033D01*
X137032832Y-140436912D01*
X137156082Y-140734463D01*
X137335013Y-141002252D01*
X137562748Y-141229987D01*
X137830537Y-141408918D01*
X138128088Y-141532168D01*
X138443967Y-141595000D01*
X138766033Y-141595000D01*
X139081912Y-141532168D01*
X139379463Y-141408918D01*
X139647252Y-141229987D01*
X139874987Y-141002252D01*
X140053918Y-140734463D01*
X140177168Y-140436912D01*
X140240000Y-140121033D01*
X140240000Y-139798967D01*
X140177168Y-139483088D01*
X140053918Y-139185537D01*
X139874987Y-138917748D01*
X139647252Y-138690013D01*
X139647233Y-138690000D01*
X139647252Y-138689987D01*
X139874987Y-138462252D01*
X140053918Y-138194463D01*
X140177168Y-137896912D01*
X140240000Y-137581033D01*
X140240000Y-137258967D01*
X140177168Y-136943088D01*
X140053918Y-136645537D01*
X139874987Y-136377748D01*
X139647252Y-136150013D01*
X139647233Y-136150000D01*
X139647252Y-136149987D01*
X139874987Y-135922252D01*
X140053918Y-135654463D01*
X140177168Y-135356912D01*
X140240000Y-135041033D01*
X140240000Y-134718967D01*
X140177168Y-134403088D01*
X140053918Y-134105537D01*
X139874987Y-133837748D01*
X139647252Y-133610013D01*
X139647233Y-133610000D01*
X139647252Y-133609987D01*
X139874987Y-133382252D01*
X140053918Y-133114463D01*
X140177168Y-132816912D01*
X140240000Y-132501033D01*
X140240000Y-132178967D01*
X140177168Y-131863088D01*
X140053918Y-131565537D01*
X139874987Y-131297748D01*
X139647252Y-131070013D01*
X139647233Y-131070000D01*
X139647252Y-131069987D01*
X139874987Y-130842252D01*
X140053918Y-130574463D01*
X140177168Y-130276912D01*
X140240000Y-129961033D01*
X140240000Y-129638967D01*
X140177168Y-129323088D01*
X140053918Y-129025537D01*
X139874987Y-128757748D01*
X139647252Y-128530013D01*
X139647233Y-128530000D01*
X139647252Y-128529987D01*
X139874987Y-128302252D01*
X140053918Y-128034463D01*
X140177168Y-127736912D01*
X140240000Y-127421033D01*
X140240000Y-127098967D01*
X140177168Y-126783088D01*
X140053918Y-126485537D01*
X139874987Y-126217748D01*
X139647252Y-125990013D01*
X139647233Y-125990000D01*
X139647252Y-125989987D01*
X139874987Y-125762252D01*
X140053918Y-125494463D01*
X140177168Y-125196912D01*
X140240000Y-124881033D01*
X140240000Y-124558967D01*
X140177168Y-124243088D01*
X140053918Y-123945537D01*
X139874987Y-123677748D01*
X139647252Y-123450013D01*
X139647233Y-123450000D01*
X139647252Y-123449987D01*
X139874987Y-123222252D01*
X140053918Y-122954463D01*
X140177168Y-122656912D01*
X140240000Y-122341033D01*
X140240000Y-122018967D01*
X140177168Y-121703088D01*
X140053918Y-121405537D01*
X139874987Y-121137748D01*
X139647252Y-120910013D01*
X139647233Y-120910000D01*
X139647252Y-120909987D01*
X139874987Y-120682252D01*
X140053918Y-120414463D01*
X140177168Y-120116912D01*
X140240000Y-119801033D01*
X140240000Y-119478967D01*
X140177168Y-119163088D01*
X140053918Y-118865537D01*
X139874987Y-118597748D01*
X139647252Y-118370013D01*
X139647233Y-118370000D01*
X139647252Y-118369987D01*
X139874987Y-118142252D01*
X140053918Y-117874463D01*
X140177168Y-117576912D01*
X140240000Y-117261033D01*
X140240000Y-116938967D01*
X140177168Y-116623088D01*
X140053918Y-116325537D01*
X139874987Y-116057748D01*
X139647252Y-115830013D01*
X139647233Y-115830000D01*
X139647252Y-115829987D01*
X139874987Y-115602252D01*
X140053918Y-115334463D01*
X140177168Y-115036912D01*
X140240000Y-114721033D01*
X140240000Y-114398967D01*
X140177168Y-114083088D01*
X140053918Y-113785537D01*
X139874987Y-113517748D01*
X139647252Y-113290013D01*
X139647233Y-113290000D01*
X139647252Y-113289987D01*
X139874987Y-113062252D01*
X140053918Y-112794463D01*
X140177168Y-112496912D01*
X140240000Y-112181033D01*
X140240000Y-112013740D01*
X140515000Y-112013740D01*
X140515000Y-112306260D01*
X140572068Y-112593158D01*
X140684010Y-112863411D01*
X140846525Y-113106632D01*
X141053368Y-113313475D01*
X141227760Y-113430000D01*
X141053368Y-113546525D01*
X140846525Y-113753368D01*
X140684010Y-113996589D01*
X140572068Y-114266842D01*
X140515000Y-114553740D01*
X140515000Y-114846260D01*
X140572068Y-115133158D01*
X140684010Y-115403411D01*
X140846525Y-115646632D01*
X141053368Y-115853475D01*
X141227760Y-115970000D01*
X141053368Y-116086525D01*
X140846525Y-116293368D01*
X140684010Y-116536589D01*
X140572068Y-116806842D01*
X140515000Y-117093740D01*
X140515000Y-117386260D01*
X140572068Y-117673158D01*
X140684010Y-117943411D01*
X140846525Y-118186632D01*
X141053368Y-118393475D01*
X141227760Y-118510000D01*
X141053368Y-118626525D01*
X140846525Y-118833368D01*
X140684010Y-119076589D01*
X140572068Y-119346842D01*
X140515000Y-119633740D01*
X140515000Y-119926260D01*
X140572068Y-120213158D01*
X140684010Y-120483411D01*
X140846525Y-120726632D01*
X141053368Y-120933475D01*
X141227760Y-121050000D01*
X141053368Y-121166525D01*
X140846525Y-121373368D01*
X140684010Y-121616589D01*
X140572068Y-121886842D01*
X140515000Y-122173740D01*
X140515000Y-122466260D01*
X140572068Y-122753158D01*
X140684010Y-123023411D01*
X140846525Y-123266632D01*
X141053368Y-123473475D01*
X141227760Y-123590000D01*
X141053368Y-123706525D01*
X140846525Y-123913368D01*
X140684010Y-124156589D01*
X140572068Y-124426842D01*
X140515000Y-124713740D01*
X140515000Y-125006260D01*
X140572068Y-125293158D01*
X140684010Y-125563411D01*
X140846525Y-125806632D01*
X141053368Y-126013475D01*
X141227760Y-126130000D01*
X141053368Y-126246525D01*
X140846525Y-126453368D01*
X140684010Y-126696589D01*
X140572068Y-126966842D01*
X140515000Y-127253740D01*
X140515000Y-127546260D01*
X140572068Y-127833158D01*
X140684010Y-128103411D01*
X140846525Y-128346632D01*
X141053368Y-128553475D01*
X141227760Y-128670000D01*
X141053368Y-128786525D01*
X140846525Y-128993368D01*
X140684010Y-129236589D01*
X140572068Y-129506842D01*
X140515000Y-129793740D01*
X140515000Y-130086260D01*
X140572068Y-130373158D01*
X140684010Y-130643411D01*
X140846525Y-130886632D01*
X141053368Y-131093475D01*
X141227760Y-131210000D01*
X141053368Y-131326525D01*
X140846525Y-131533368D01*
X140684010Y-131776589D01*
X140572068Y-132046842D01*
X140515000Y-132333740D01*
X140515000Y-132626260D01*
X140572068Y-132913158D01*
X140684010Y-133183411D01*
X140846525Y-133426632D01*
X141053368Y-133633475D01*
X141227760Y-133750000D01*
X141053368Y-133866525D01*
X140846525Y-134073368D01*
X140684010Y-134316589D01*
X140572068Y-134586842D01*
X140515000Y-134873740D01*
X140515000Y-135166260D01*
X140572068Y-135453158D01*
X140684010Y-135723411D01*
X140846525Y-135966632D01*
X141053368Y-136173475D01*
X141227760Y-136290000D01*
X141053368Y-136406525D01*
X140846525Y-136613368D01*
X140684010Y-136856589D01*
X140572068Y-137126842D01*
X140515000Y-137413740D01*
X140515000Y-137706260D01*
X140572068Y-137993158D01*
X140684010Y-138263411D01*
X140846525Y-138506632D01*
X141053368Y-138713475D01*
X141227760Y-138830000D01*
X141053368Y-138946525D01*
X140846525Y-139153368D01*
X140684010Y-139396589D01*
X140572068Y-139666842D01*
X140515000Y-139953740D01*
X140515000Y-140246260D01*
X140572068Y-140533158D01*
X140684010Y-140803411D01*
X140846525Y-141046632D01*
X141053368Y-141253475D01*
X141296589Y-141415990D01*
X141566842Y-141527932D01*
X141853740Y-141585000D01*
X142146260Y-141585000D01*
X142433158Y-141527932D01*
X142703411Y-141415990D01*
X142946632Y-141253475D01*
X143153475Y-141046632D01*
X143315990Y-140803411D01*
X143427932Y-140533158D01*
X143485000Y-140246260D01*
X143485000Y-139953740D01*
X143427932Y-139666842D01*
X143315990Y-139396589D01*
X143153475Y-139153368D01*
X142946632Y-138946525D01*
X142772240Y-138830000D01*
X142847261Y-138779872D01*
X190765000Y-138779872D01*
X190765000Y-139220128D01*
X190850890Y-139651925D01*
X191019369Y-140058669D01*
X191263962Y-140424729D01*
X191575271Y-140736038D01*
X191941331Y-140980631D01*
X192348075Y-141149110D01*
X192779872Y-141235000D01*
X193220128Y-141235000D01*
X193651925Y-141149110D01*
X194058669Y-140980631D01*
X194424729Y-140736038D01*
X194736038Y-140424729D01*
X194980631Y-140058669D01*
X195149110Y-139651925D01*
X195235000Y-139220128D01*
X195235000Y-138779872D01*
X195149110Y-138348075D01*
X194980631Y-137941331D01*
X194736038Y-137575271D01*
X194424729Y-137263962D01*
X194058669Y-137019369D01*
X193651925Y-136850890D01*
X193220128Y-136765000D01*
X192779872Y-136765000D01*
X192348075Y-136850890D01*
X191941331Y-137019369D01*
X191575271Y-137263962D01*
X191263962Y-137575271D01*
X191019369Y-137941331D01*
X190850890Y-138348075D01*
X190765000Y-138779872D01*
X142847261Y-138779872D01*
X142946632Y-138713475D01*
X143153475Y-138506632D01*
X143315990Y-138263411D01*
X143427932Y-137993158D01*
X143485000Y-137706260D01*
X143485000Y-137413740D01*
X143427932Y-137126842D01*
X143315990Y-136856589D01*
X143153475Y-136613368D01*
X142946632Y-136406525D01*
X142772240Y-136290000D01*
X142946632Y-136173475D01*
X143153475Y-135966632D01*
X143315990Y-135723411D01*
X143427932Y-135453158D01*
X143446727Y-135358665D01*
X162065000Y-135358665D01*
X162065000Y-135641335D01*
X162120147Y-135918574D01*
X162228320Y-136179727D01*
X162385363Y-136414759D01*
X162585241Y-136614637D01*
X162820273Y-136771680D01*
X163081426Y-136879853D01*
X163358665Y-136935000D01*
X163641335Y-136935000D01*
X163918574Y-136879853D01*
X164179727Y-136771680D01*
X164414759Y-136614637D01*
X164614637Y-136414759D01*
X164771680Y-136179727D01*
X164879853Y-135918574D01*
X164935000Y-135641335D01*
X164935000Y-135358665D01*
X167065000Y-135358665D01*
X167065000Y-135641335D01*
X167120147Y-135918574D01*
X167228320Y-136179727D01*
X167385363Y-136414759D01*
X167585241Y-136614637D01*
X167820273Y-136771680D01*
X168081426Y-136879853D01*
X168358665Y-136935000D01*
X168641335Y-136935000D01*
X168918574Y-136879853D01*
X169179727Y-136771680D01*
X169414759Y-136614637D01*
X169614637Y-136414759D01*
X169771680Y-136179727D01*
X169879853Y-135918574D01*
X169935000Y-135641335D01*
X169935000Y-135358665D01*
X172065000Y-135358665D01*
X172065000Y-135641335D01*
X172120147Y-135918574D01*
X172228320Y-136179727D01*
X172385363Y-136414759D01*
X172585241Y-136614637D01*
X172820273Y-136771680D01*
X173081426Y-136879853D01*
X173358665Y-136935000D01*
X173641335Y-136935000D01*
X173918574Y-136879853D01*
X174179727Y-136771680D01*
X174414759Y-136614637D01*
X174614637Y-136414759D01*
X174771680Y-136179727D01*
X174879853Y-135918574D01*
X174935000Y-135641335D01*
X174935000Y-135358665D01*
X177065000Y-135358665D01*
X177065000Y-135641335D01*
X177120147Y-135918574D01*
X177228320Y-136179727D01*
X177385363Y-136414759D01*
X177585241Y-136614637D01*
X177820273Y-136771680D01*
X178081426Y-136879853D01*
X178358665Y-136935000D01*
X178641335Y-136935000D01*
X178918574Y-136879853D01*
X179179727Y-136771680D01*
X179414759Y-136614637D01*
X179614637Y-136414759D01*
X179771680Y-136179727D01*
X179879853Y-135918574D01*
X179935000Y-135641335D01*
X179935000Y-135358665D01*
X179879853Y-135081426D01*
X179771680Y-134820273D01*
X179614637Y-134585241D01*
X179414759Y-134385363D01*
X179179727Y-134228320D01*
X178918574Y-134120147D01*
X178641335Y-134065000D01*
X178358665Y-134065000D01*
X178081426Y-134120147D01*
X177820273Y-134228320D01*
X177585241Y-134385363D01*
X177385363Y-134585241D01*
X177228320Y-134820273D01*
X177120147Y-135081426D01*
X177065000Y-135358665D01*
X174935000Y-135358665D01*
X174879853Y-135081426D01*
X174771680Y-134820273D01*
X174614637Y-134585241D01*
X174414759Y-134385363D01*
X174179727Y-134228320D01*
X173918574Y-134120147D01*
X173641335Y-134065000D01*
X173358665Y-134065000D01*
X173081426Y-134120147D01*
X172820273Y-134228320D01*
X172585241Y-134385363D01*
X172385363Y-134585241D01*
X172228320Y-134820273D01*
X172120147Y-135081426D01*
X172065000Y-135358665D01*
X169935000Y-135358665D01*
X169879853Y-135081426D01*
X169771680Y-134820273D01*
X169614637Y-134585241D01*
X169414759Y-134385363D01*
X169179727Y-134228320D01*
X168918574Y-134120147D01*
X168641335Y-134065000D01*
X168358665Y-134065000D01*
X168081426Y-134120147D01*
X167820273Y-134228320D01*
X167585241Y-134385363D01*
X167385363Y-134585241D01*
X167228320Y-134820273D01*
X167120147Y-135081426D01*
X167065000Y-135358665D01*
X164935000Y-135358665D01*
X164879853Y-135081426D01*
X164771680Y-134820273D01*
X164614637Y-134585241D01*
X164414759Y-134385363D01*
X164179727Y-134228320D01*
X163918574Y-134120147D01*
X163641335Y-134065000D01*
X163358665Y-134065000D01*
X163081426Y-134120147D01*
X162820273Y-134228320D01*
X162585241Y-134385363D01*
X162385363Y-134585241D01*
X162228320Y-134820273D01*
X162120147Y-135081426D01*
X162065000Y-135358665D01*
X143446727Y-135358665D01*
X143485000Y-135166260D01*
X143485000Y-134873740D01*
X143427932Y-134586842D01*
X143315990Y-134316589D01*
X143153475Y-134073368D01*
X142946632Y-133866525D01*
X142772240Y-133750000D01*
X142946632Y-133633475D01*
X143153475Y-133426632D01*
X143315990Y-133183411D01*
X143427932Y-132913158D01*
X143485000Y-132626260D01*
X143485000Y-132333740D01*
X143427932Y-132046842D01*
X143315990Y-131776589D01*
X143153475Y-131533368D01*
X142946632Y-131326525D01*
X142772240Y-131210000D01*
X142946632Y-131093475D01*
X143153475Y-130886632D01*
X143315990Y-130643411D01*
X143427932Y-130373158D01*
X143485000Y-130086260D01*
X143485000Y-129793740D01*
X143427932Y-129506842D01*
X143382874Y-129398061D01*
X148465000Y-129398061D01*
X148465000Y-129601939D01*
X148504774Y-129801898D01*
X148582795Y-129990256D01*
X148696063Y-130159774D01*
X148840226Y-130303937D01*
X149009744Y-130417205D01*
X149198102Y-130495226D01*
X149398061Y-130535000D01*
X149601939Y-130535000D01*
X149727623Y-130510000D01*
X154272377Y-130510000D01*
X154398061Y-130535000D01*
X154601939Y-130535000D01*
X154801898Y-130495226D01*
X154990256Y-130417205D01*
X155159774Y-130303937D01*
X155303937Y-130159774D01*
X155417205Y-129990256D01*
X155495226Y-129801898D01*
X155535000Y-129601939D01*
X155535000Y-129398061D01*
X155495226Y-129198102D01*
X155417205Y-129009744D01*
X155303937Y-128840226D01*
X155213711Y-128750000D01*
X155303937Y-128659774D01*
X155417205Y-128490256D01*
X155495226Y-128301898D01*
X155535000Y-128101939D01*
X155535000Y-127898061D01*
X155495226Y-127698102D01*
X155417205Y-127509744D01*
X155303937Y-127340226D01*
X155159774Y-127196063D01*
X154990256Y-127082795D01*
X154801898Y-127004774D01*
X154601939Y-126965000D01*
X154398061Y-126965000D01*
X154272377Y-126990000D01*
X150727623Y-126990000D01*
X150601939Y-126965000D01*
X150398061Y-126965000D01*
X150198102Y-127004774D01*
X150009744Y-127082795D01*
X149840226Y-127196063D01*
X149696063Y-127340226D01*
X149582795Y-127509744D01*
X149504774Y-127698102D01*
X149465000Y-127898061D01*
X149465000Y-128101939D01*
X149504774Y-128301898D01*
X149572334Y-128465000D01*
X149398061Y-128465000D01*
X149198102Y-128504774D01*
X149009744Y-128582795D01*
X148840226Y-128696063D01*
X148696063Y-128840226D01*
X148582795Y-129009744D01*
X148504774Y-129198102D01*
X148465000Y-129398061D01*
X143382874Y-129398061D01*
X143315990Y-129236589D01*
X143153475Y-128993368D01*
X142946632Y-128786525D01*
X142772240Y-128670000D01*
X142946632Y-128553475D01*
X143153475Y-128346632D01*
X143315990Y-128103411D01*
X143427932Y-127833158D01*
X143485000Y-127546260D01*
X143485000Y-127253740D01*
X143427932Y-126966842D01*
X143315990Y-126696589D01*
X143153475Y-126453368D01*
X142946632Y-126246525D01*
X142772240Y-126130000D01*
X142946632Y-126013475D01*
X143153475Y-125806632D01*
X143315990Y-125563411D01*
X143427932Y-125293158D01*
X143485000Y-125006260D01*
X143485000Y-124713740D01*
X143427932Y-124426842D01*
X143315990Y-124156589D01*
X143153475Y-123913368D01*
X142946632Y-123706525D01*
X142772240Y-123590000D01*
X142946632Y-123473475D01*
X143153475Y-123266632D01*
X143315990Y-123023411D01*
X143427932Y-122753158D01*
X143485000Y-122466260D01*
X143485000Y-122173740D01*
X143427932Y-121886842D01*
X143315990Y-121616589D01*
X143153475Y-121373368D01*
X142946632Y-121166525D01*
X142772240Y-121050000D01*
X142946632Y-120933475D01*
X142965107Y-120915000D01*
X147984249Y-120915000D01*
X148040000Y-120920491D01*
X148095751Y-120915000D01*
X148095752Y-120915000D01*
X148262499Y-120898577D01*
X148476447Y-120833676D01*
X148673623Y-120728284D01*
X148846449Y-120586449D01*
X148881996Y-120543135D01*
X151089614Y-118335518D01*
X151184010Y-118563411D01*
X151346525Y-118806632D01*
X151553368Y-119013475D01*
X151727760Y-119130000D01*
X151553368Y-119246525D01*
X151346525Y-119453368D01*
X151184010Y-119696589D01*
X151072068Y-119966842D01*
X151015000Y-120253740D01*
X151015000Y-120546260D01*
X151072068Y-120833158D01*
X151184010Y-121103411D01*
X151346525Y-121346632D01*
X151553368Y-121553475D01*
X151727760Y-121670000D01*
X151553368Y-121786525D01*
X151346525Y-121993368D01*
X151184010Y-122236589D01*
X151072068Y-122506842D01*
X151015000Y-122793740D01*
X151015000Y-123086260D01*
X151072068Y-123373158D01*
X151184010Y-123643411D01*
X151346525Y-123886632D01*
X151553368Y-124093475D01*
X151727760Y-124210000D01*
X151553368Y-124326525D01*
X151346525Y-124533368D01*
X151184010Y-124776589D01*
X151072068Y-125046842D01*
X151015000Y-125333740D01*
X151015000Y-125626260D01*
X151072068Y-125913158D01*
X151184010Y-126183411D01*
X151346525Y-126426632D01*
X151553368Y-126633475D01*
X151796589Y-126795990D01*
X152066842Y-126907932D01*
X152353740Y-126965000D01*
X152646260Y-126965000D01*
X152933158Y-126907932D01*
X153203411Y-126795990D01*
X153446632Y-126633475D01*
X153653475Y-126426632D01*
X153815990Y-126183411D01*
X153927932Y-125913158D01*
X153985000Y-125626260D01*
X153985000Y-125333740D01*
X153927932Y-125046842D01*
X153815990Y-124776589D01*
X153653475Y-124533368D01*
X153446632Y-124326525D01*
X153272240Y-124210000D01*
X153446632Y-124093475D01*
X153653475Y-123886632D01*
X153815990Y-123643411D01*
X153927932Y-123373158D01*
X153985000Y-123086260D01*
X153985000Y-122793740D01*
X153927932Y-122506842D01*
X153815990Y-122236589D01*
X153653475Y-121993368D01*
X153446632Y-121786525D01*
X153272240Y-121670000D01*
X153446632Y-121553475D01*
X153653475Y-121346632D01*
X153815990Y-121103411D01*
X153927932Y-120833158D01*
X153985000Y-120546260D01*
X153985000Y-120253740D01*
X153927932Y-119966842D01*
X153815990Y-119696589D01*
X153653475Y-119453368D01*
X153446632Y-119246525D01*
X153272240Y-119130000D01*
X153446632Y-119013475D01*
X153653475Y-118806632D01*
X153815990Y-118563411D01*
X153927932Y-118293158D01*
X153985000Y-118006260D01*
X153985000Y-117713740D01*
X153927932Y-117426842D01*
X153815990Y-117156589D01*
X153653475Y-116913368D01*
X153446632Y-116706525D01*
X153272240Y-116590000D01*
X153446632Y-116473475D01*
X153653475Y-116266632D01*
X153815990Y-116023411D01*
X153927932Y-115753158D01*
X153985000Y-115466260D01*
X153985000Y-115173740D01*
X153927932Y-114886842D01*
X153815990Y-114616589D01*
X153653475Y-114373368D01*
X153446632Y-114166525D01*
X153272240Y-114050000D01*
X153446632Y-113933475D01*
X153653475Y-113726632D01*
X153815990Y-113483411D01*
X153927932Y-113213158D01*
X153985000Y-112926260D01*
X153985000Y-112633740D01*
X153927932Y-112346842D01*
X153815990Y-112076589D01*
X153653475Y-111833368D01*
X153446632Y-111626525D01*
X153272240Y-111510000D01*
X153446632Y-111393475D01*
X153653475Y-111186632D01*
X153815990Y-110943411D01*
X153927932Y-110673158D01*
X153985000Y-110386260D01*
X153985000Y-110093740D01*
X153927932Y-109806842D01*
X153815990Y-109536589D01*
X153653475Y-109293368D01*
X153446632Y-109086525D01*
X153272240Y-108970000D01*
X153446632Y-108853475D01*
X153653475Y-108646632D01*
X153815990Y-108403411D01*
X153927932Y-108133158D01*
X153985000Y-107846260D01*
X153985000Y-107553740D01*
X153927932Y-107266842D01*
X153815990Y-106996589D01*
X153653475Y-106753368D01*
X153446632Y-106546525D01*
X153272240Y-106430000D01*
X153446632Y-106313475D01*
X153653475Y-106106632D01*
X153815990Y-105863411D01*
X153927932Y-105593158D01*
X153985000Y-105306260D01*
X153985000Y-105013740D01*
X153927932Y-104726842D01*
X153815990Y-104456589D01*
X153653475Y-104213368D01*
X153446632Y-104006525D01*
X153272240Y-103890000D01*
X153446632Y-103773475D01*
X153653475Y-103566632D01*
X153815990Y-103323411D01*
X153927932Y-103053158D01*
X153985000Y-102766260D01*
X153985000Y-102473740D01*
X153927932Y-102186842D01*
X153815990Y-101916589D01*
X153653475Y-101673368D01*
X153446632Y-101466525D01*
X153272240Y-101350000D01*
X153446632Y-101233475D01*
X153653475Y-101026632D01*
X153815990Y-100783411D01*
X153910386Y-100555518D01*
X154865000Y-101510132D01*
X154865001Y-106520598D01*
X154859509Y-106576359D01*
X154881423Y-106798857D01*
X154946324Y-107012805D01*
X154993483Y-107101033D01*
X155051717Y-107209982D01*
X155193552Y-107382808D01*
X155236860Y-107418350D01*
X158201650Y-110383141D01*
X158237192Y-110426449D01*
X158410018Y-110568284D01*
X158607194Y-110673676D01*
X158821142Y-110738577D01*
X158987889Y-110755000D01*
X158987898Y-110755000D01*
X159043640Y-110760490D01*
X159099382Y-110755000D01*
X160005752Y-110755000D01*
X160172499Y-110738577D01*
X160283187Y-110705000D01*
X160553294Y-110705000D01*
X160712697Y-110689300D01*
X160917220Y-110627259D01*
X161105710Y-110526509D01*
X161270922Y-110390922D01*
X161406509Y-110225710D01*
X161507259Y-110037220D01*
X161569300Y-109832697D01*
X161590249Y-109620000D01*
X161569300Y-109407303D01*
X161507259Y-109202780D01*
X161406509Y-109014290D01*
X161382471Y-108985000D01*
X161406509Y-108955710D01*
X161507259Y-108767220D01*
X161569300Y-108562697D01*
X161590249Y-108350000D01*
X161569300Y-108137303D01*
X161507259Y-107932780D01*
X161406509Y-107744290D01*
X161382471Y-107715000D01*
X161406509Y-107685710D01*
X161507259Y-107497220D01*
X161569300Y-107292697D01*
X161590249Y-107080000D01*
X161569300Y-106867303D01*
X161507259Y-106662780D01*
X161406509Y-106474290D01*
X161382471Y-106445000D01*
X161406509Y-106415710D01*
X161507259Y-106227220D01*
X161569300Y-106022697D01*
X161585891Y-105854246D01*
X162490001Y-106758356D01*
X162490000Y-126860604D01*
X162385363Y-126965241D01*
X162228320Y-127200273D01*
X162120147Y-127461426D01*
X162065000Y-127738665D01*
X162065000Y-128021335D01*
X162120147Y-128298574D01*
X162228320Y-128559727D01*
X162385363Y-128794759D01*
X162585241Y-128994637D01*
X162820273Y-129151680D01*
X163081426Y-129259853D01*
X163358665Y-129315000D01*
X163641335Y-129315000D01*
X163918574Y-129259853D01*
X164179727Y-129151680D01*
X164414759Y-128994637D01*
X164614637Y-128794759D01*
X164771680Y-128559727D01*
X164879853Y-128298574D01*
X164935000Y-128021335D01*
X164935000Y-127738665D01*
X164879853Y-127461426D01*
X164771680Y-127200273D01*
X164614637Y-126965241D01*
X164510000Y-126860604D01*
X164510000Y-107434840D01*
X167490001Y-110414841D01*
X167490000Y-126860604D01*
X167385363Y-126965241D01*
X167228320Y-127200273D01*
X167120147Y-127461426D01*
X167065000Y-127738665D01*
X167065000Y-128021335D01*
X167120147Y-128298574D01*
X167228320Y-128559727D01*
X167385363Y-128794759D01*
X167585241Y-128994637D01*
X167820273Y-129151680D01*
X168081426Y-129259853D01*
X168358665Y-129315000D01*
X168641335Y-129315000D01*
X168918574Y-129259853D01*
X169179727Y-129151680D01*
X169414759Y-128994637D01*
X169614637Y-128794759D01*
X169771680Y-128559727D01*
X169879853Y-128298574D01*
X169935000Y-128021335D01*
X169935000Y-127738665D01*
X172065000Y-127738665D01*
X172065000Y-128021335D01*
X172120147Y-128298574D01*
X172228320Y-128559727D01*
X172385363Y-128794759D01*
X172585241Y-128994637D01*
X172820273Y-129151680D01*
X173081426Y-129259853D01*
X173358665Y-129315000D01*
X173641335Y-129315000D01*
X173918574Y-129259853D01*
X174179727Y-129151680D01*
X174414759Y-128994637D01*
X174614637Y-128794759D01*
X174771680Y-128559727D01*
X174879853Y-128298574D01*
X174935000Y-128021335D01*
X174935000Y-127738665D01*
X174879853Y-127461426D01*
X174771680Y-127200273D01*
X174614637Y-126965241D01*
X174414759Y-126765363D01*
X174179727Y-126608320D01*
X173918574Y-126500147D01*
X173641335Y-126445000D01*
X173358665Y-126445000D01*
X173081426Y-126500147D01*
X172820273Y-126608320D01*
X172585241Y-126765363D01*
X172385363Y-126965241D01*
X172228320Y-127200273D01*
X172120147Y-127461426D01*
X172065000Y-127738665D01*
X169935000Y-127738665D01*
X169879853Y-127461426D01*
X169771680Y-127200273D01*
X169614637Y-126965241D01*
X169510000Y-126860604D01*
X169510000Y-123478665D01*
X172065000Y-123478665D01*
X172065000Y-123761335D01*
X172120147Y-124038574D01*
X172228320Y-124299727D01*
X172385363Y-124534759D01*
X172585241Y-124734637D01*
X172820273Y-124891680D01*
X173081426Y-124999853D01*
X173358665Y-125055000D01*
X173641335Y-125055000D01*
X173918574Y-124999853D01*
X174179727Y-124891680D01*
X174414759Y-124734637D01*
X174614637Y-124534759D01*
X174771680Y-124299727D01*
X174879853Y-124038574D01*
X174935000Y-123761335D01*
X174935000Y-123478665D01*
X174879853Y-123201426D01*
X174771680Y-122940273D01*
X174614637Y-122705241D01*
X174414759Y-122505363D01*
X174179727Y-122348320D01*
X173918574Y-122240147D01*
X173641335Y-122185000D01*
X173358665Y-122185000D01*
X173081426Y-122240147D01*
X172820273Y-122348320D01*
X172585241Y-122505363D01*
X172385363Y-122705241D01*
X172228320Y-122940273D01*
X172120147Y-123201426D01*
X172065000Y-123478665D01*
X169510000Y-123478665D01*
X169510000Y-115858665D01*
X172065000Y-115858665D01*
X172065000Y-116141335D01*
X172120147Y-116418574D01*
X172228320Y-116679727D01*
X172385363Y-116914759D01*
X172585241Y-117114637D01*
X172820273Y-117271680D01*
X173081426Y-117379853D01*
X173358665Y-117435000D01*
X173506645Y-117435000D01*
X175995000Y-119923355D01*
X175994999Y-126335391D01*
X175990113Y-126384999D01*
X175994999Y-126434606D01*
X176009614Y-126582992D01*
X176067367Y-126773378D01*
X176161152Y-126948839D01*
X176287366Y-127102632D01*
X176325905Y-127134260D01*
X177065000Y-127873356D01*
X177065000Y-128021335D01*
X177120147Y-128298574D01*
X177228320Y-128559727D01*
X177385363Y-128794759D01*
X177585241Y-128994637D01*
X177820273Y-129151680D01*
X178081426Y-129259853D01*
X178358665Y-129315000D01*
X178641335Y-129315000D01*
X178918574Y-129259853D01*
X179179727Y-129151680D01*
X179414759Y-128994637D01*
X179614637Y-128794759D01*
X179771680Y-128559727D01*
X179879853Y-128298574D01*
X179935000Y-128021335D01*
X179935000Y-127738665D01*
X179879853Y-127461426D01*
X179771680Y-127200273D01*
X179614637Y-126965241D01*
X179414759Y-126765363D01*
X179179727Y-126608320D01*
X178918574Y-126500147D01*
X178641335Y-126445000D01*
X178493356Y-126445000D01*
X178014999Y-125966644D01*
X178014999Y-125010509D01*
X178238665Y-125055000D01*
X178521335Y-125055000D01*
X178798574Y-124999853D01*
X179059727Y-124891680D01*
X179294759Y-124734637D01*
X179494637Y-124534759D01*
X179651680Y-124299727D01*
X179738551Y-124090000D01*
X185011928Y-124090000D01*
X185011928Y-125790000D01*
X185024188Y-125914482D01*
X185060498Y-126034180D01*
X185119463Y-126144494D01*
X185198815Y-126241185D01*
X185295506Y-126320537D01*
X185405820Y-126379502D01*
X185525518Y-126415812D01*
X185650000Y-126428072D01*
X187350000Y-126428072D01*
X187474482Y-126415812D01*
X187594180Y-126379502D01*
X187704494Y-126320537D01*
X187801185Y-126241185D01*
X187880537Y-126144494D01*
X187939502Y-126034180D01*
X187975812Y-125914482D01*
X187988072Y-125790000D01*
X187988072Y-124090000D01*
X187975812Y-123965518D01*
X187939502Y-123845820D01*
X187880537Y-123735506D01*
X187801185Y-123638815D01*
X187704494Y-123559463D01*
X187594180Y-123500498D01*
X187521620Y-123478487D01*
X187653475Y-123346632D01*
X187815990Y-123103411D01*
X187927932Y-122833158D01*
X187985000Y-122546260D01*
X187985000Y-122253740D01*
X187927932Y-121966842D01*
X187815990Y-121696589D01*
X187653475Y-121453368D01*
X187446632Y-121246525D01*
X187272240Y-121130000D01*
X187446632Y-121013475D01*
X187653475Y-120806632D01*
X187815990Y-120563411D01*
X187927932Y-120293158D01*
X187985000Y-120006260D01*
X187985000Y-119713740D01*
X187927932Y-119426842D01*
X187815990Y-119156589D01*
X187653475Y-118913368D01*
X187446632Y-118706525D01*
X187272240Y-118590000D01*
X187446632Y-118473475D01*
X187653475Y-118266632D01*
X187815990Y-118023411D01*
X187927932Y-117753158D01*
X187985000Y-117466260D01*
X187985000Y-117173740D01*
X187927932Y-116886842D01*
X187815990Y-116616589D01*
X187653475Y-116373368D01*
X187446632Y-116166525D01*
X187272240Y-116050000D01*
X187446632Y-115933475D01*
X187653475Y-115726632D01*
X187815990Y-115483411D01*
X187927932Y-115213158D01*
X187985000Y-114926260D01*
X187985000Y-114633740D01*
X187927932Y-114346842D01*
X187815990Y-114076589D01*
X187653475Y-113833368D01*
X187446632Y-113626525D01*
X187272240Y-113510000D01*
X187446632Y-113393475D01*
X187653475Y-113186632D01*
X187815990Y-112943411D01*
X187927932Y-112673158D01*
X187985000Y-112386260D01*
X187985000Y-112093740D01*
X187927932Y-111806842D01*
X187815990Y-111536589D01*
X187653475Y-111293368D01*
X187446632Y-111086525D01*
X187272240Y-110970000D01*
X187446632Y-110853475D01*
X187653475Y-110646632D01*
X187815990Y-110403411D01*
X187927932Y-110133158D01*
X187985000Y-109846260D01*
X187985000Y-109553740D01*
X187927932Y-109266842D01*
X187815990Y-108996589D01*
X187653475Y-108753368D01*
X187446632Y-108546525D01*
X187272240Y-108430000D01*
X187446632Y-108313475D01*
X187653475Y-108106632D01*
X187815990Y-107863411D01*
X187927932Y-107593158D01*
X187985000Y-107306260D01*
X187985000Y-107013740D01*
X187927932Y-106726842D01*
X187815990Y-106456589D01*
X187653475Y-106213368D01*
X187446632Y-106006525D01*
X187272240Y-105890000D01*
X187446632Y-105773475D01*
X187653475Y-105566632D01*
X187815990Y-105323411D01*
X187927932Y-105053158D01*
X187985000Y-104766260D01*
X187985000Y-104473740D01*
X187927932Y-104186842D01*
X187815990Y-103916589D01*
X187653475Y-103673368D01*
X187446632Y-103466525D01*
X187272240Y-103350000D01*
X187446632Y-103233475D01*
X187653475Y-103026632D01*
X187815990Y-102783411D01*
X187927932Y-102513158D01*
X187985000Y-102226260D01*
X187985000Y-101933740D01*
X187927932Y-101646842D01*
X187815990Y-101376589D01*
X187653475Y-101133368D01*
X187446632Y-100926525D01*
X187272240Y-100810000D01*
X187446632Y-100693475D01*
X187653475Y-100486632D01*
X187815990Y-100243411D01*
X187927932Y-99973158D01*
X187985000Y-99686260D01*
X187985000Y-99393740D01*
X187927932Y-99106842D01*
X187815990Y-98836589D01*
X187653475Y-98593368D01*
X187446632Y-98386525D01*
X187272240Y-98270000D01*
X187446632Y-98153475D01*
X187653475Y-97946632D01*
X187815990Y-97703411D01*
X187927932Y-97433158D01*
X187985000Y-97146260D01*
X187985000Y-96853740D01*
X187970307Y-96779872D01*
X190765000Y-96779872D01*
X190765000Y-97220128D01*
X190850890Y-97651925D01*
X191019369Y-98058669D01*
X191263962Y-98424729D01*
X191575271Y-98736038D01*
X191941331Y-98980631D01*
X192348075Y-99149110D01*
X192779872Y-99235000D01*
X193220128Y-99235000D01*
X193651925Y-99149110D01*
X194058669Y-98980631D01*
X194424729Y-98736038D01*
X194736038Y-98424729D01*
X194980631Y-98058669D01*
X195149110Y-97651925D01*
X195235000Y-97220128D01*
X195235000Y-96779872D01*
X195149110Y-96348075D01*
X194980631Y-95941331D01*
X194736038Y-95575271D01*
X194424729Y-95263962D01*
X194058669Y-95019369D01*
X193651925Y-94850890D01*
X193220128Y-94765000D01*
X192779872Y-94765000D01*
X192348075Y-94850890D01*
X191941331Y-95019369D01*
X191575271Y-95263962D01*
X191263962Y-95575271D01*
X191019369Y-95941331D01*
X190850890Y-96348075D01*
X190765000Y-96779872D01*
X187970307Y-96779872D01*
X187927932Y-96566842D01*
X187815990Y-96296589D01*
X187653475Y-96053368D01*
X187446632Y-95846525D01*
X187264466Y-95724805D01*
X187381355Y-95655178D01*
X187597588Y-95460269D01*
X187771641Y-95226920D01*
X187896825Y-94964099D01*
X187941476Y-94816890D01*
X187820155Y-94587000D01*
X186627000Y-94587000D01*
X186627000Y-94607000D01*
X186373000Y-94607000D01*
X186373000Y-94587000D01*
X185179845Y-94587000D01*
X185058524Y-94816890D01*
X185103175Y-94964099D01*
X185228359Y-95226920D01*
X185402412Y-95460269D01*
X185618645Y-95655178D01*
X185735534Y-95724805D01*
X185553368Y-95846525D01*
X185346525Y-96053368D01*
X185184010Y-96296589D01*
X185072068Y-96566842D01*
X185015000Y-96853740D01*
X185015000Y-97146260D01*
X185072068Y-97433158D01*
X185184010Y-97703411D01*
X185346525Y-97946632D01*
X185553368Y-98153475D01*
X185727760Y-98270000D01*
X185553368Y-98386525D01*
X185346525Y-98593368D01*
X185184010Y-98836589D01*
X185072068Y-99106842D01*
X185015000Y-99393740D01*
X185015000Y-99686260D01*
X185072068Y-99973158D01*
X185184010Y-100243411D01*
X185346525Y-100486632D01*
X185553368Y-100693475D01*
X185727760Y-100810000D01*
X185553368Y-100926525D01*
X185346525Y-101133368D01*
X185184010Y-101376589D01*
X185072068Y-101646842D01*
X185015000Y-101933740D01*
X185015000Y-102226260D01*
X185072068Y-102513158D01*
X185184010Y-102783411D01*
X185346525Y-103026632D01*
X185553368Y-103233475D01*
X185727760Y-103350000D01*
X185553368Y-103466525D01*
X185346525Y-103673368D01*
X185184010Y-103916589D01*
X185072068Y-104186842D01*
X185015000Y-104473740D01*
X185015000Y-104766260D01*
X185072068Y-105053158D01*
X185184010Y-105323411D01*
X185346525Y-105566632D01*
X185553368Y-105773475D01*
X185727760Y-105890000D01*
X185553368Y-106006525D01*
X185346525Y-106213368D01*
X185184010Y-106456589D01*
X185072068Y-106726842D01*
X185015000Y-107013740D01*
X185015000Y-107306260D01*
X185072068Y-107593158D01*
X185184010Y-107863411D01*
X185346525Y-108106632D01*
X185553368Y-108313475D01*
X185727760Y-108430000D01*
X185553368Y-108546525D01*
X185346525Y-108753368D01*
X185184010Y-108996589D01*
X185072068Y-109266842D01*
X185015000Y-109553740D01*
X185015000Y-109846260D01*
X185072068Y-110133158D01*
X185184010Y-110403411D01*
X185346525Y-110646632D01*
X185553368Y-110853475D01*
X185727760Y-110970000D01*
X185553368Y-111086525D01*
X185346525Y-111293368D01*
X185184010Y-111536589D01*
X185072068Y-111806842D01*
X185015000Y-112093740D01*
X185015000Y-112386260D01*
X185072068Y-112673158D01*
X185184010Y-112943411D01*
X185346525Y-113186632D01*
X185553368Y-113393475D01*
X185727760Y-113510000D01*
X185553368Y-113626525D01*
X185346525Y-113833368D01*
X185184010Y-114076589D01*
X185072068Y-114346842D01*
X185015000Y-114633740D01*
X185015000Y-114926260D01*
X185072068Y-115213158D01*
X185184010Y-115483411D01*
X185346525Y-115726632D01*
X185553368Y-115933475D01*
X185727760Y-116050000D01*
X185553368Y-116166525D01*
X185346525Y-116373368D01*
X185184010Y-116616589D01*
X185072068Y-116886842D01*
X185015000Y-117173740D01*
X185015000Y-117466260D01*
X185072068Y-117753158D01*
X185184010Y-118023411D01*
X185346525Y-118266632D01*
X185553368Y-118473475D01*
X185727760Y-118590000D01*
X185553368Y-118706525D01*
X185346525Y-118913368D01*
X185184010Y-119156589D01*
X185072068Y-119426842D01*
X185015000Y-119713740D01*
X185015000Y-120006260D01*
X185072068Y-120293158D01*
X185184010Y-120563411D01*
X185346525Y-120806632D01*
X185553368Y-121013475D01*
X185727760Y-121130000D01*
X185553368Y-121246525D01*
X185346525Y-121453368D01*
X185184010Y-121696589D01*
X185072068Y-121966842D01*
X185015000Y-122253740D01*
X185015000Y-122546260D01*
X185072068Y-122833158D01*
X185184010Y-123103411D01*
X185346525Y-123346632D01*
X185478380Y-123478487D01*
X185405820Y-123500498D01*
X185295506Y-123559463D01*
X185198815Y-123638815D01*
X185119463Y-123735506D01*
X185060498Y-123845820D01*
X185024188Y-123965518D01*
X185011928Y-124090000D01*
X179738551Y-124090000D01*
X179759853Y-124038574D01*
X179815000Y-123761335D01*
X179815000Y-123478665D01*
X179759853Y-123201426D01*
X179651680Y-122940273D01*
X179494637Y-122705241D01*
X179294759Y-122505363D01*
X179059727Y-122348320D01*
X178798574Y-122240147D01*
X178521335Y-122185000D01*
X178238665Y-122185000D01*
X178014999Y-122229491D01*
X178014999Y-119554603D01*
X178019885Y-119504998D01*
X178012187Y-119426842D01*
X178000384Y-119307005D01*
X177942631Y-119116619D01*
X177848846Y-118941159D01*
X177722632Y-118787366D01*
X177684093Y-118755738D01*
X174935000Y-116006645D01*
X174935000Y-115858665D01*
X174879853Y-115581426D01*
X174771680Y-115320273D01*
X174614637Y-115085241D01*
X174510000Y-114980604D01*
X174510000Y-101138355D01*
X177414109Y-98234247D01*
X177430700Y-98402697D01*
X177492741Y-98607220D01*
X177593491Y-98795710D01*
X177617529Y-98825000D01*
X177593491Y-98854290D01*
X177492741Y-99042780D01*
X177430700Y-99247303D01*
X177409751Y-99460000D01*
X177430700Y-99672697D01*
X177492741Y-99877220D01*
X177593491Y-100065710D01*
X177617529Y-100095000D01*
X177593491Y-100124290D01*
X177492741Y-100312780D01*
X177430700Y-100517303D01*
X177409751Y-100730000D01*
X177430700Y-100942697D01*
X177492741Y-101147220D01*
X177593491Y-101335710D01*
X177617529Y-101365000D01*
X177593491Y-101394290D01*
X177492741Y-101582780D01*
X177430700Y-101787303D01*
X177409751Y-102000000D01*
X177430700Y-102212697D01*
X177492741Y-102417220D01*
X177593491Y-102605710D01*
X177617529Y-102635000D01*
X177593491Y-102664290D01*
X177492741Y-102852780D01*
X177430700Y-103057303D01*
X177409751Y-103270000D01*
X177430700Y-103482697D01*
X177492741Y-103687220D01*
X177593491Y-103875710D01*
X177617529Y-103905000D01*
X177593491Y-103934290D01*
X177492741Y-104122780D01*
X177430700Y-104327303D01*
X177409751Y-104540000D01*
X177430700Y-104752697D01*
X177492741Y-104957220D01*
X177593491Y-105145710D01*
X177617529Y-105175000D01*
X177593491Y-105204290D01*
X177492741Y-105392780D01*
X177430700Y-105597303D01*
X177409751Y-105810000D01*
X177430700Y-106022697D01*
X177476017Y-106172088D01*
X177356160Y-106236153D01*
X177202367Y-106362367D01*
X177170735Y-106400911D01*
X176795892Y-106775753D01*
X176757358Y-106807377D01*
X176725735Y-106845910D01*
X176725734Y-106845911D01*
X176631144Y-106961170D01*
X176537358Y-107136631D01*
X176479605Y-107327016D01*
X176460104Y-107525010D01*
X176464991Y-107574628D01*
X176464990Y-115045382D01*
X176460104Y-115094990D01*
X176479605Y-115292984D01*
X176492188Y-115334463D01*
X176537358Y-115483369D01*
X176631143Y-115658830D01*
X176757357Y-115812623D01*
X176795896Y-115844251D01*
X176945000Y-115993355D01*
X176945000Y-116141335D01*
X177000147Y-116418574D01*
X177108320Y-116679727D01*
X177265363Y-116914759D01*
X177465241Y-117114637D01*
X177700273Y-117271680D01*
X177961426Y-117379853D01*
X178238665Y-117435000D01*
X178521335Y-117435000D01*
X178798574Y-117379853D01*
X179059727Y-117271680D01*
X179294759Y-117114637D01*
X179494637Y-116914759D01*
X179651680Y-116679727D01*
X179759853Y-116418574D01*
X179815000Y-116141335D01*
X179815000Y-115858665D01*
X179759853Y-115581426D01*
X179651680Y-115320273D01*
X179494637Y-115085241D01*
X179294759Y-114885363D01*
X179059727Y-114728320D01*
X178798574Y-114620147D01*
X178521335Y-114565000D01*
X178484990Y-114565000D01*
X178484990Y-110705000D01*
X179653294Y-110705000D01*
X179812697Y-110689300D01*
X180017220Y-110627259D01*
X180205710Y-110526509D01*
X180370922Y-110390922D01*
X180506509Y-110225710D01*
X180607259Y-110037220D01*
X180669300Y-109832697D01*
X180690249Y-109620000D01*
X180669300Y-109407303D01*
X180607259Y-109202780D01*
X180506509Y-109014290D01*
X180482471Y-108985000D01*
X180506509Y-108955710D01*
X180607259Y-108767220D01*
X180669300Y-108562697D01*
X180690249Y-108350000D01*
X180669300Y-108137303D01*
X180607259Y-107932780D01*
X180506509Y-107744290D01*
X180482471Y-107715000D01*
X180506509Y-107685710D01*
X180607259Y-107497220D01*
X180669300Y-107292697D01*
X180690249Y-107080000D01*
X180669300Y-106867303D01*
X180607259Y-106662780D01*
X180506509Y-106474290D01*
X180482471Y-106445000D01*
X180506509Y-106415710D01*
X180607259Y-106227220D01*
X180669300Y-106022697D01*
X180690249Y-105810000D01*
X180669300Y-105597303D01*
X180607259Y-105392780D01*
X180506509Y-105204290D01*
X180482471Y-105175000D01*
X180506509Y-105145710D01*
X180607259Y-104957220D01*
X180669300Y-104752697D01*
X180690249Y-104540000D01*
X180669300Y-104327303D01*
X180607259Y-104122780D01*
X180506509Y-103934290D01*
X180482471Y-103905000D01*
X180506509Y-103875710D01*
X180607259Y-103687220D01*
X180669300Y-103482697D01*
X180690249Y-103270000D01*
X180669300Y-103057303D01*
X180607259Y-102852780D01*
X180506509Y-102664290D01*
X180482471Y-102635000D01*
X180506509Y-102605710D01*
X180607259Y-102417220D01*
X180669300Y-102212697D01*
X180690249Y-102000000D01*
X180669300Y-101787303D01*
X180607259Y-101582780D01*
X180506509Y-101394290D01*
X180482471Y-101365000D01*
X180506509Y-101335710D01*
X180607259Y-101147220D01*
X180669300Y-100942697D01*
X180690249Y-100730000D01*
X180669300Y-100517303D01*
X180607259Y-100312780D01*
X180506509Y-100124290D01*
X180482471Y-100095000D01*
X180506509Y-100065710D01*
X180607259Y-99877220D01*
X180669300Y-99672697D01*
X180690249Y-99460000D01*
X180669300Y-99247303D01*
X180607259Y-99042780D01*
X180506509Y-98854290D01*
X180482471Y-98825000D01*
X180506509Y-98795710D01*
X180607259Y-98607220D01*
X180669300Y-98402697D01*
X180690249Y-98190000D01*
X180669300Y-97977303D01*
X180607259Y-97772780D01*
X180506509Y-97584290D01*
X180482471Y-97555000D01*
X180506509Y-97525710D01*
X180607259Y-97337220D01*
X180669300Y-97132697D01*
X180690249Y-96920000D01*
X180669300Y-96707303D01*
X180607259Y-96502780D01*
X180506509Y-96314290D01*
X180482471Y-96285000D01*
X180506509Y-96255710D01*
X180607259Y-96067220D01*
X180669300Y-95862697D01*
X180690249Y-95650000D01*
X180669300Y-95437303D01*
X180607259Y-95232780D01*
X180506509Y-95044290D01*
X180483463Y-95016208D01*
X180572702Y-94877197D01*
X180644408Y-94674001D01*
X180517502Y-94507000D01*
X179177000Y-94507000D01*
X179177000Y-94527000D01*
X178923000Y-94527000D01*
X178923000Y-94507000D01*
X177582498Y-94507000D01*
X177455592Y-94674001D01*
X177527298Y-94877197D01*
X177616537Y-95016208D01*
X177593491Y-95044290D01*
X177492741Y-95232780D01*
X177430700Y-95437303D01*
X177409751Y-95650000D01*
X177430700Y-95862697D01*
X177445049Y-95910000D01*
X177349608Y-95910000D01*
X177300000Y-95905114D01*
X177102005Y-95924615D01*
X176980739Y-95961401D01*
X176911620Y-95982368D01*
X176736160Y-96076153D01*
X176582367Y-96202367D01*
X176550744Y-96240900D01*
X172820901Y-99970744D01*
X172782368Y-100002367D01*
X172750745Y-100040900D01*
X172750744Y-100040901D01*
X172656154Y-100156160D01*
X172562368Y-100331621D01*
X172504615Y-100522006D01*
X172485114Y-100720000D01*
X172490001Y-100769618D01*
X172490000Y-114980604D01*
X172385363Y-115085241D01*
X172228320Y-115320273D01*
X172120147Y-115581426D01*
X172065000Y-115858665D01*
X169510000Y-115858665D01*
X169510000Y-110046092D01*
X169514886Y-109996484D01*
X169495385Y-109798489D01*
X169437632Y-109608104D01*
X169402617Y-109542595D01*
X169343847Y-109432644D01*
X169217633Y-109278851D01*
X169179100Y-109247228D01*
X162522777Y-102590906D01*
X162491149Y-102552367D01*
X162337356Y-102426153D01*
X162161896Y-102332368D01*
X161971510Y-102274615D01*
X161823124Y-102260000D01*
X161773516Y-102255114D01*
X161723908Y-102260000D01*
X161554951Y-102260000D01*
X161569300Y-102212697D01*
X161590249Y-102000000D01*
X161569300Y-101787303D01*
X161507259Y-101582780D01*
X161406509Y-101394290D01*
X161382471Y-101365000D01*
X161406509Y-101335710D01*
X161507259Y-101147220D01*
X161569300Y-100942697D01*
X161590249Y-100730000D01*
X161569300Y-100517303D01*
X161507259Y-100312780D01*
X161406509Y-100124290D01*
X161382471Y-100095000D01*
X161406509Y-100065710D01*
X161507259Y-99877220D01*
X161569300Y-99672697D01*
X161590249Y-99460000D01*
X161569300Y-99247303D01*
X161507259Y-99042780D01*
X161406509Y-98854290D01*
X161382471Y-98825000D01*
X161406509Y-98795710D01*
X161507259Y-98607220D01*
X161569300Y-98402697D01*
X161590249Y-98190000D01*
X161569300Y-97977303D01*
X161507259Y-97772780D01*
X161406509Y-97584290D01*
X161382471Y-97555000D01*
X161406509Y-97525710D01*
X161507259Y-97337220D01*
X161569300Y-97132697D01*
X161590249Y-96920000D01*
X161569300Y-96707303D01*
X161507259Y-96502780D01*
X161406509Y-96314290D01*
X161382471Y-96285000D01*
X161406509Y-96255710D01*
X161507259Y-96067220D01*
X161569300Y-95862697D01*
X161590249Y-95650000D01*
X161569300Y-95437303D01*
X161507259Y-95232780D01*
X161406509Y-95044290D01*
X161383463Y-95016208D01*
X161472702Y-94877197D01*
X161544408Y-94674001D01*
X161417502Y-94507000D01*
X160077000Y-94507000D01*
X160077000Y-94527000D01*
X159823000Y-94527000D01*
X159823000Y-94507000D01*
X158482498Y-94507000D01*
X158355592Y-94674001D01*
X158427298Y-94877197D01*
X158516537Y-95016208D01*
X158493491Y-95044290D01*
X158392741Y-95232780D01*
X158330700Y-95437303D01*
X158309751Y-95650000D01*
X158330700Y-95862697D01*
X158392741Y-96067220D01*
X158493491Y-96255710D01*
X158517529Y-96285000D01*
X158493491Y-96314290D01*
X158392741Y-96502780D01*
X158330700Y-96707303D01*
X158309751Y-96920000D01*
X158330700Y-97132697D01*
X158392741Y-97337220D01*
X158493491Y-97525710D01*
X158517529Y-97555000D01*
X158493491Y-97584290D01*
X158392741Y-97772780D01*
X158330700Y-97977303D01*
X158309751Y-98190000D01*
X158330700Y-98402697D01*
X158392741Y-98607220D01*
X158493491Y-98795710D01*
X158517529Y-98825000D01*
X158493491Y-98854290D01*
X158392741Y-99042780D01*
X158330700Y-99247303D01*
X158309751Y-99460000D01*
X158330700Y-99672697D01*
X158392741Y-99877220D01*
X158493491Y-100065710D01*
X158517529Y-100095000D01*
X158493491Y-100124290D01*
X158392741Y-100312780D01*
X158330700Y-100517303D01*
X158309751Y-100730000D01*
X158330700Y-100942697D01*
X158392741Y-101147220D01*
X158493491Y-101335710D01*
X158517529Y-101365000D01*
X158493491Y-101394290D01*
X158392741Y-101582780D01*
X158330700Y-101787303D01*
X158309751Y-102000000D01*
X158330700Y-102212697D01*
X158392741Y-102417220D01*
X158493491Y-102605710D01*
X158517529Y-102635000D01*
X158493491Y-102664290D01*
X158392741Y-102852780D01*
X158330700Y-103057303D01*
X158309751Y-103270000D01*
X158330700Y-103482697D01*
X158392741Y-103687220D01*
X158493491Y-103875710D01*
X158517529Y-103905000D01*
X158493491Y-103934290D01*
X158392741Y-104122780D01*
X158330700Y-104327303D01*
X158309751Y-104540000D01*
X158330700Y-104752697D01*
X158392741Y-104957220D01*
X158493491Y-105145710D01*
X158517529Y-105175000D01*
X158493491Y-105204290D01*
X158392741Y-105392780D01*
X158330700Y-105597303D01*
X158309751Y-105810000D01*
X158330700Y-106022697D01*
X158392741Y-106227220D01*
X158493491Y-106415710D01*
X158517529Y-106445000D01*
X158493491Y-106474290D01*
X158392741Y-106662780D01*
X158330700Y-106867303D01*
X158309751Y-107080000D01*
X158330700Y-107292697D01*
X158334719Y-107305947D01*
X157135000Y-106106228D01*
X157135000Y-101095741D01*
X157140490Y-101039999D01*
X157135000Y-100984257D01*
X157135000Y-100984248D01*
X157118577Y-100817501D01*
X157053676Y-100603553D01*
X156948284Y-100406377D01*
X156806449Y-100233551D01*
X156763141Y-100198009D01*
X153985000Y-97419869D01*
X153985000Y-97393740D01*
X153927932Y-97106842D01*
X153815990Y-96836589D01*
X153653475Y-96593368D01*
X153521620Y-96461513D01*
X153594180Y-96439502D01*
X153704494Y-96380537D01*
X153801185Y-96301185D01*
X153880537Y-96204494D01*
X153939502Y-96094180D01*
X153975812Y-95974482D01*
X153988072Y-95850000D01*
X153985000Y-95285750D01*
X153826250Y-95127000D01*
X152627000Y-95127000D01*
X152627000Y-95147000D01*
X152373000Y-95147000D01*
X152373000Y-95127000D01*
X151173750Y-95127000D01*
X151015000Y-95285750D01*
X151011928Y-95850000D01*
X151024188Y-95974482D01*
X151060498Y-96094180D01*
X151119463Y-96204494D01*
X151198815Y-96301185D01*
X151295506Y-96380537D01*
X151405820Y-96439502D01*
X151478380Y-96461513D01*
X151346525Y-96593368D01*
X151184010Y-96836589D01*
X151072068Y-97106842D01*
X151015000Y-97393740D01*
X151015000Y-97686260D01*
X151072068Y-97973158D01*
X151184010Y-98243411D01*
X151346525Y-98486632D01*
X151553368Y-98693475D01*
X151727760Y-98810000D01*
X151553368Y-98926525D01*
X151346525Y-99133368D01*
X151184010Y-99376589D01*
X151072068Y-99646842D01*
X151015000Y-99933740D01*
X151015000Y-100226260D01*
X151072068Y-100513158D01*
X151184010Y-100783411D01*
X151346525Y-101026632D01*
X151553368Y-101233475D01*
X151727760Y-101350000D01*
X151553368Y-101466525D01*
X151346525Y-101673368D01*
X151184010Y-101916589D01*
X151072068Y-102186842D01*
X151015000Y-102473740D01*
X151015000Y-102766260D01*
X151072068Y-103053158D01*
X151184010Y-103323411D01*
X151346525Y-103566632D01*
X151553368Y-103773475D01*
X151727760Y-103890000D01*
X151553368Y-104006525D01*
X151346525Y-104213368D01*
X151184010Y-104456589D01*
X151072068Y-104726842D01*
X151015000Y-105013740D01*
X151015000Y-105306260D01*
X151072068Y-105593158D01*
X151184010Y-105863411D01*
X151346525Y-106106632D01*
X151553368Y-106313475D01*
X151727760Y-106430000D01*
X151553368Y-106546525D01*
X151346525Y-106753368D01*
X151184010Y-106996589D01*
X151072068Y-107266842D01*
X151015000Y-107553740D01*
X151015000Y-107846260D01*
X151072068Y-108133158D01*
X151184010Y-108403411D01*
X151346525Y-108646632D01*
X151553368Y-108853475D01*
X151727760Y-108970000D01*
X151553368Y-109086525D01*
X151346525Y-109293368D01*
X151184010Y-109536589D01*
X151072068Y-109806842D01*
X151015000Y-110093740D01*
X151015000Y-110386260D01*
X151072068Y-110673158D01*
X151184010Y-110943411D01*
X151346525Y-111186632D01*
X151553368Y-111393475D01*
X151727760Y-111510000D01*
X151553368Y-111626525D01*
X151346525Y-111833368D01*
X151184010Y-112076589D01*
X151072068Y-112346842D01*
X151015000Y-112633740D01*
X151015000Y-112659868D01*
X146809869Y-116865000D01*
X143944248Y-116865000D01*
X143777501Y-116881423D01*
X143563553Y-116946324D01*
X143466044Y-116998443D01*
X143427932Y-116806842D01*
X143315990Y-116536589D01*
X143153475Y-116293368D01*
X142946632Y-116086525D01*
X142772240Y-115970000D01*
X142946632Y-115853475D01*
X143153475Y-115646632D01*
X143315990Y-115403411D01*
X143427932Y-115133158D01*
X143485000Y-114846260D01*
X143485000Y-114553740D01*
X143427932Y-114266842D01*
X143315990Y-113996589D01*
X143153475Y-113753368D01*
X142946632Y-113546525D01*
X142772240Y-113430000D01*
X142946632Y-113313475D01*
X143153475Y-113106632D01*
X143315990Y-112863411D01*
X143427932Y-112593158D01*
X143485000Y-112306260D01*
X143485000Y-112013740D01*
X143427932Y-111726842D01*
X143315990Y-111456589D01*
X143153475Y-111213368D01*
X142946632Y-111006525D01*
X142764466Y-110884805D01*
X142881355Y-110815178D01*
X143097588Y-110620269D01*
X143271641Y-110386920D01*
X143396825Y-110124099D01*
X143441476Y-109976890D01*
X143320155Y-109747000D01*
X142127000Y-109747000D01*
X142127000Y-109767000D01*
X141873000Y-109767000D01*
X141873000Y-109747000D01*
X140679845Y-109747000D01*
X140558524Y-109976890D01*
X140603175Y-110124099D01*
X140728359Y-110386920D01*
X140902412Y-110620269D01*
X141118645Y-110815178D01*
X141235534Y-110884805D01*
X141053368Y-111006525D01*
X140846525Y-111213368D01*
X140684010Y-111456589D01*
X140572068Y-111726842D01*
X140515000Y-112013740D01*
X140240000Y-112013740D01*
X140240000Y-111858967D01*
X140177168Y-111543088D01*
X140053918Y-111245537D01*
X139874987Y-110977748D01*
X139647252Y-110750013D01*
X139538400Y-110677280D01*
X139560808Y-110615413D01*
X138605000Y-109659605D01*
X137649192Y-110615413D01*
X137671600Y-110677280D01*
X137562748Y-110750013D01*
X137335013Y-110977748D01*
X137156082Y-111245537D01*
X137032832Y-111543088D01*
X136970000Y-111858967D01*
X114840000Y-111858967D01*
X114777168Y-111543088D01*
X114653918Y-111245537D01*
X114474987Y-110977748D01*
X114247252Y-110750013D01*
X114247233Y-110750000D01*
X114247252Y-110749987D01*
X114474987Y-110522252D01*
X114653918Y-110254463D01*
X114777168Y-109956912D01*
X114840000Y-109641033D01*
X114840000Y-109542595D01*
X136963282Y-109542595D01*
X137007039Y-109861675D01*
X137112205Y-110166088D01*
X137205186Y-110340044D01*
X137469587Y-110435808D01*
X138425395Y-109480000D01*
X138784605Y-109480000D01*
X139740413Y-110435808D01*
X140004814Y-110340044D01*
X140145704Y-110050429D01*
X140227384Y-109738892D01*
X140246718Y-109417405D01*
X140202961Y-109098325D01*
X140097795Y-108793912D01*
X140004814Y-108619956D01*
X139740413Y-108524192D01*
X138784605Y-109480000D01*
X138425395Y-109480000D01*
X137469587Y-108524192D01*
X137205186Y-108619956D01*
X137064296Y-108909571D01*
X136982616Y-109221108D01*
X136963282Y-109542595D01*
X114840000Y-109542595D01*
X114840000Y-109318967D01*
X114777168Y-109003088D01*
X114653918Y-108705537D01*
X114474987Y-108437748D01*
X114247252Y-108210013D01*
X114247233Y-108210000D01*
X114247252Y-108209987D01*
X114474987Y-107982252D01*
X114653918Y-107714463D01*
X114777168Y-107416912D01*
X114840000Y-107101033D01*
X114840000Y-106778967D01*
X114777168Y-106463088D01*
X114653918Y-106165537D01*
X114474987Y-105897748D01*
X114247252Y-105670013D01*
X114247233Y-105670000D01*
X114247252Y-105669987D01*
X114474987Y-105442252D01*
X114653918Y-105174463D01*
X114777168Y-104876912D01*
X114840000Y-104561033D01*
X114840000Y-104238967D01*
X114777168Y-103923088D01*
X114653918Y-103625537D01*
X114474987Y-103357748D01*
X114247252Y-103130013D01*
X114247233Y-103130000D01*
X114247252Y-103129987D01*
X114474987Y-102902252D01*
X114653918Y-102634463D01*
X114777168Y-102336912D01*
X114840000Y-102021033D01*
X114840000Y-101698967D01*
X114777168Y-101383088D01*
X114653918Y-101085537D01*
X114474987Y-100817748D01*
X114247252Y-100590013D01*
X114247233Y-100590000D01*
X114247252Y-100589987D01*
X114474987Y-100362252D01*
X114653918Y-100094463D01*
X114777168Y-99796912D01*
X114840000Y-99481033D01*
X114840000Y-99158967D01*
X114777168Y-98843088D01*
X114653918Y-98545537D01*
X114474987Y-98277748D01*
X114247252Y-98050013D01*
X114247233Y-98050000D01*
X114247252Y-98049987D01*
X114474987Y-97822252D01*
X114653918Y-97554463D01*
X114777168Y-97256912D01*
X114840000Y-96941033D01*
X114840000Y-96618967D01*
X136970000Y-96618967D01*
X136970000Y-96941033D01*
X137032832Y-97256912D01*
X137156082Y-97554463D01*
X137335013Y-97822252D01*
X137562748Y-98049987D01*
X137562767Y-98050000D01*
X137562748Y-98050013D01*
X137335013Y-98277748D01*
X137156082Y-98545537D01*
X137032832Y-98843088D01*
X136970000Y-99158967D01*
X136970000Y-99481033D01*
X137032832Y-99796912D01*
X137156082Y-100094463D01*
X137335013Y-100362252D01*
X137562748Y-100589987D01*
X137562767Y-100590000D01*
X137562748Y-100590013D01*
X137335013Y-100817748D01*
X137156082Y-101085537D01*
X137032832Y-101383088D01*
X136970000Y-101698967D01*
X136970000Y-102021033D01*
X137032832Y-102336912D01*
X137156082Y-102634463D01*
X137335013Y-102902252D01*
X137562748Y-103129987D01*
X137562767Y-103130000D01*
X137562748Y-103130013D01*
X137335013Y-103357748D01*
X137156082Y-103625537D01*
X137032832Y-103923088D01*
X136970000Y-104238967D01*
X136970000Y-104561033D01*
X137032832Y-104876912D01*
X137156082Y-105174463D01*
X137335013Y-105442252D01*
X137562748Y-105669987D01*
X137562767Y-105670000D01*
X137562748Y-105670013D01*
X137335013Y-105897748D01*
X137156082Y-106165537D01*
X137032832Y-106463088D01*
X136970000Y-106778967D01*
X136970000Y-107101033D01*
X137032832Y-107416912D01*
X137156082Y-107714463D01*
X137335013Y-107982252D01*
X137562748Y-108209987D01*
X137671600Y-108282720D01*
X137649192Y-108344587D01*
X138605000Y-109300395D01*
X139560808Y-108344587D01*
X139538400Y-108282720D01*
X139647252Y-108209987D01*
X139874987Y-107982252D01*
X140053918Y-107714463D01*
X140177168Y-107416912D01*
X140240000Y-107101033D01*
X140240000Y-106778967D01*
X140177168Y-106463088D01*
X140053918Y-106165537D01*
X139874987Y-105897748D01*
X139647252Y-105670013D01*
X139647233Y-105670000D01*
X139647252Y-105669987D01*
X139874987Y-105442252D01*
X140053918Y-105174463D01*
X140177168Y-104876912D01*
X140240000Y-104561033D01*
X140240000Y-104238967D01*
X140177168Y-103923088D01*
X140053918Y-103625537D01*
X139874987Y-103357748D01*
X139647252Y-103130013D01*
X139647233Y-103130000D01*
X139647252Y-103129987D01*
X139874987Y-102902252D01*
X140053918Y-102634463D01*
X140177168Y-102336912D01*
X140240000Y-102021033D01*
X140240000Y-101698967D01*
X140177168Y-101383088D01*
X140053918Y-101085537D01*
X139874987Y-100817748D01*
X139647252Y-100590013D01*
X139647233Y-100590000D01*
X139647252Y-100589987D01*
X139874987Y-100362252D01*
X140053918Y-100094463D01*
X140177168Y-99796912D01*
X140240000Y-99481033D01*
X140240000Y-99158967D01*
X140177168Y-98843088D01*
X140053918Y-98545537D01*
X139874987Y-98277748D01*
X139647252Y-98050013D01*
X139647233Y-98050000D01*
X139647252Y-98049987D01*
X139874987Y-97822252D01*
X140053918Y-97554463D01*
X140177168Y-97256912D01*
X140240000Y-96941033D01*
X140240000Y-96618967D01*
X140177168Y-96303088D01*
X140053918Y-96005537D01*
X139874987Y-95737748D01*
X139647252Y-95510013D01*
X139538400Y-95437280D01*
X139560808Y-95375413D01*
X139415395Y-95230000D01*
X140511928Y-95230000D01*
X140524188Y-95354482D01*
X140560498Y-95474180D01*
X140619463Y-95584494D01*
X140698815Y-95681185D01*
X140795506Y-95760537D01*
X140905820Y-95819502D01*
X140978380Y-95841513D01*
X140846525Y-95973368D01*
X140684010Y-96216589D01*
X140572068Y-96486842D01*
X140515000Y-96773740D01*
X140515000Y-97066260D01*
X140572068Y-97353158D01*
X140684010Y-97623411D01*
X140846525Y-97866632D01*
X141053368Y-98073475D01*
X141227760Y-98190000D01*
X141053368Y-98306525D01*
X140846525Y-98513368D01*
X140684010Y-98756589D01*
X140572068Y-99026842D01*
X140515000Y-99313740D01*
X140515000Y-99606260D01*
X140572068Y-99893158D01*
X140684010Y-100163411D01*
X140846525Y-100406632D01*
X141053368Y-100613475D01*
X141227760Y-100730000D01*
X141053368Y-100846525D01*
X140846525Y-101053368D01*
X140684010Y-101296589D01*
X140572068Y-101566842D01*
X140515000Y-101853740D01*
X140515000Y-102146260D01*
X140572068Y-102433158D01*
X140684010Y-102703411D01*
X140846525Y-102946632D01*
X141053368Y-103153475D01*
X141227760Y-103270000D01*
X141053368Y-103386525D01*
X140846525Y-103593368D01*
X140684010Y-103836589D01*
X140572068Y-104106842D01*
X140515000Y-104393740D01*
X140515000Y-104686260D01*
X140572068Y-104973158D01*
X140684010Y-105243411D01*
X140846525Y-105486632D01*
X141053368Y-105693475D01*
X141227760Y-105810000D01*
X141053368Y-105926525D01*
X140846525Y-106133368D01*
X140684010Y-106376589D01*
X140572068Y-106646842D01*
X140515000Y-106933740D01*
X140515000Y-107226260D01*
X140572068Y-107513158D01*
X140684010Y-107783411D01*
X140846525Y-108026632D01*
X141053368Y-108233475D01*
X141235534Y-108355195D01*
X141118645Y-108424822D01*
X140902412Y-108619731D01*
X140728359Y-108853080D01*
X140603175Y-109115901D01*
X140558524Y-109263110D01*
X140679845Y-109493000D01*
X141873000Y-109493000D01*
X141873000Y-109473000D01*
X142127000Y-109473000D01*
X142127000Y-109493000D01*
X143320155Y-109493000D01*
X143441476Y-109263110D01*
X143396825Y-109115901D01*
X143271641Y-108853080D01*
X143097588Y-108619731D01*
X142881355Y-108424822D01*
X142764466Y-108355195D01*
X142946632Y-108233475D01*
X143153475Y-108026632D01*
X143315990Y-107783411D01*
X143427932Y-107513158D01*
X143485000Y-107226260D01*
X143485000Y-106933740D01*
X143427932Y-106646842D01*
X143315990Y-106376589D01*
X143153475Y-106133368D01*
X142946632Y-105926525D01*
X142772240Y-105810000D01*
X142946632Y-105693475D01*
X143153475Y-105486632D01*
X143315990Y-105243411D01*
X143427932Y-104973158D01*
X143485000Y-104686260D01*
X143485000Y-104393740D01*
X143427932Y-104106842D01*
X143315990Y-103836589D01*
X143153475Y-103593368D01*
X142946632Y-103386525D01*
X142772240Y-103270000D01*
X142946632Y-103153475D01*
X143153475Y-102946632D01*
X143315990Y-102703411D01*
X143427932Y-102433158D01*
X143485000Y-102146260D01*
X143485000Y-101853740D01*
X143427932Y-101566842D01*
X143315990Y-101296589D01*
X143153475Y-101053368D01*
X142946632Y-100846525D01*
X142772240Y-100730000D01*
X142946632Y-100613475D01*
X143153475Y-100406632D01*
X143315990Y-100163411D01*
X143427932Y-99893158D01*
X143485000Y-99606260D01*
X143485000Y-99313740D01*
X143427932Y-99026842D01*
X143315990Y-98756589D01*
X143153475Y-98513368D01*
X142946632Y-98306525D01*
X142772240Y-98190000D01*
X142946632Y-98073475D01*
X143153475Y-97866632D01*
X143315990Y-97623411D01*
X143427932Y-97353158D01*
X143485000Y-97066260D01*
X143485000Y-96858665D01*
X146065000Y-96858665D01*
X146065000Y-97141335D01*
X146120147Y-97418574D01*
X146228320Y-97679727D01*
X146385363Y-97914759D01*
X146585241Y-98114637D01*
X146820273Y-98271680D01*
X147081426Y-98379853D01*
X147358665Y-98435000D01*
X147641335Y-98435000D01*
X147918574Y-98379853D01*
X148179727Y-98271680D01*
X148414759Y-98114637D01*
X148614637Y-97914759D01*
X148771680Y-97679727D01*
X148879853Y-97418574D01*
X148935000Y-97141335D01*
X148935000Y-96858665D01*
X148879853Y-96581426D01*
X148771680Y-96320273D01*
X148614637Y-96085241D01*
X148414759Y-95885363D01*
X148214131Y-95751308D01*
X148241514Y-95736671D01*
X148313097Y-95492702D01*
X147500000Y-94679605D01*
X146686903Y-95492702D01*
X146758486Y-95736671D01*
X146787341Y-95750324D01*
X146585241Y-95885363D01*
X146385363Y-96085241D01*
X146228320Y-96320273D01*
X146120147Y-96581426D01*
X146065000Y-96858665D01*
X143485000Y-96858665D01*
X143485000Y-96773740D01*
X143427932Y-96486842D01*
X143315990Y-96216589D01*
X143153475Y-95973368D01*
X143021620Y-95841513D01*
X143094180Y-95819502D01*
X143204494Y-95760537D01*
X143301185Y-95681185D01*
X143380537Y-95584494D01*
X143439502Y-95474180D01*
X143475812Y-95354482D01*
X143488072Y-95230000D01*
X143485000Y-94665750D01*
X143326250Y-94507000D01*
X142127000Y-94507000D01*
X142127000Y-94527000D01*
X141873000Y-94527000D01*
X141873000Y-94507000D01*
X140673750Y-94507000D01*
X140515000Y-94665750D01*
X140511928Y-95230000D01*
X139415395Y-95230000D01*
X138605000Y-94419605D01*
X137649192Y-95375413D01*
X137671600Y-95437280D01*
X137562748Y-95510013D01*
X137335013Y-95737748D01*
X137156082Y-96005537D01*
X137032832Y-96303088D01*
X136970000Y-96618967D01*
X114840000Y-96618967D01*
X114777168Y-96303088D01*
X114653918Y-96005537D01*
X114513370Y-95795191D01*
X114559494Y-95770537D01*
X114656185Y-95691185D01*
X114735537Y-95594494D01*
X114794502Y-95484180D01*
X114830812Y-95364482D01*
X114843072Y-95240000D01*
X114843072Y-93660000D01*
X137068952Y-93660000D01*
X137064296Y-93669571D01*
X136982616Y-93981108D01*
X136963282Y-94302595D01*
X137007039Y-94621675D01*
X137112205Y-94926088D01*
X137205186Y-95100044D01*
X137469587Y-95195808D01*
X138425395Y-94240000D01*
X138411253Y-94225858D01*
X138590858Y-94046253D01*
X138605000Y-94060395D01*
X138619143Y-94046253D01*
X138798748Y-94225858D01*
X138784605Y-94240000D01*
X139740413Y-95195808D01*
X140004814Y-95100044D01*
X140145704Y-94810429D01*
X140227384Y-94498892D01*
X140246718Y-94177405D01*
X140202961Y-93858325D01*
X140134445Y-93660000D01*
X140512636Y-93660000D01*
X140515000Y-94094250D01*
X140673750Y-94253000D01*
X141873000Y-94253000D01*
X141873000Y-94233000D01*
X142127000Y-94233000D01*
X142127000Y-94253000D01*
X143326250Y-94253000D01*
X143485000Y-94094250D01*
X143487364Y-93660000D01*
X146480393Y-93660000D01*
X146507296Y-93686903D01*
X146263329Y-93758486D01*
X146142429Y-94013996D01*
X146073700Y-94288184D01*
X146059783Y-94570512D01*
X146101213Y-94850130D01*
X146196397Y-95116292D01*
X146263329Y-95241514D01*
X146507298Y-95313097D01*
X147320395Y-94500000D01*
X147306253Y-94485858D01*
X147485858Y-94306253D01*
X147500000Y-94320395D01*
X147514143Y-94306253D01*
X147693748Y-94485858D01*
X147679605Y-94500000D01*
X148492702Y-95313097D01*
X148736671Y-95241514D01*
X148857571Y-94986004D01*
X148926300Y-94711816D01*
X148940217Y-94429488D01*
X148898787Y-94149870D01*
X148803603Y-93883708D01*
X148736671Y-93758486D01*
X148492704Y-93686903D01*
X148519607Y-93660000D01*
X151246111Y-93660000D01*
X151198815Y-93698815D01*
X151119463Y-93795506D01*
X151060498Y-93905820D01*
X151024188Y-94025518D01*
X151011928Y-94150000D01*
X151015000Y-94714250D01*
X151173750Y-94873000D01*
X152373000Y-94873000D01*
X152373000Y-94853000D01*
X152627000Y-94853000D01*
X152627000Y-94873000D01*
X153826250Y-94873000D01*
X153985000Y-94714250D01*
X153988072Y-94150000D01*
X153975812Y-94025518D01*
X153939502Y-93905820D01*
X153880537Y-93795506D01*
X153801185Y-93698815D01*
X153753889Y-93660000D01*
X158584043Y-93660000D01*
X158542986Y-93702592D01*
X158427298Y-93882803D01*
X158355592Y-94085999D01*
X158482498Y-94253000D01*
X159823000Y-94253000D01*
X159823000Y-94233000D01*
X160077000Y-94233000D01*
X160077000Y-94253000D01*
X161417502Y-94253000D01*
X161544408Y-94085999D01*
X161472702Y-93882803D01*
X161357014Y-93702592D01*
X161315957Y-93660000D01*
X177684043Y-93660000D01*
X177642986Y-93702592D01*
X177527298Y-93882803D01*
X177455592Y-94085999D01*
X177582498Y-94253000D01*
X178923000Y-94253000D01*
X178923000Y-94233000D01*
X179177000Y-94233000D01*
X179177000Y-94253000D01*
X180517502Y-94253000D01*
X180644408Y-94085999D01*
X180572702Y-93882803D01*
X180457014Y-93702592D01*
X180415957Y-93660000D01*
X185253033Y-93660000D01*
X185228359Y-93693080D01*
X185103175Y-93955901D01*
X185058524Y-94103110D01*
X185179845Y-94333000D01*
X186373000Y-94333000D01*
X186373000Y-94313000D01*
X186627000Y-94313000D01*
X186627000Y-94333000D01*
X187820155Y-94333000D01*
X187941476Y-94103110D01*
X187896825Y-93955901D01*
X187771641Y-93693080D01*
X187746967Y-93660000D01*
X192967722Y-93660000D01*
X193648126Y-93726714D01*
X194271572Y-93914943D01*
X194846579Y-94220681D01*
X195351247Y-94632279D01*
X195766362Y-95134067D01*
X196076105Y-95706924D01*
X196268682Y-96329039D01*
X196340001Y-97007594D01*
X196340000Y-138967721D01*
X196273286Y-139648126D01*
X196085057Y-140271570D01*
X195779323Y-140846573D01*
X195367721Y-141351248D01*
X194865933Y-141766362D01*
X194293077Y-142076104D01*
X193670961Y-142268682D01*
X192992417Y-142340000D01*
X101032279Y-142340000D01*
X100351874Y-142273286D01*
X99728430Y-142085057D01*
X99153427Y-141779323D01*
X98648752Y-141367721D01*
X98233638Y-140865933D01*
X97923896Y-140293077D01*
X97731318Y-139670961D01*
X97660000Y-138992417D01*
X97660000Y-138779872D01*
X98765000Y-138779872D01*
X98765000Y-139220128D01*
X98850890Y-139651925D01*
X99019369Y-140058669D01*
X99263962Y-140424729D01*
X99575271Y-140736038D01*
X99941331Y-140980631D01*
X100348075Y-141149110D01*
X100779872Y-141235000D01*
X101220128Y-141235000D01*
X101651925Y-141149110D01*
X102058669Y-140980631D01*
X102424729Y-140736038D01*
X102736038Y-140424729D01*
X102980631Y-140058669D01*
X103149110Y-139651925D01*
X103235000Y-139220128D01*
X103235000Y-138779872D01*
X103149110Y-138348075D01*
X102980631Y-137941331D01*
X102736038Y-137575271D01*
X102424729Y-137263962D01*
X102058669Y-137019369D01*
X101651925Y-136850890D01*
X101220128Y-136765000D01*
X100779872Y-136765000D01*
X100348075Y-136850890D01*
X99941331Y-137019369D01*
X99575271Y-137263962D01*
X99263962Y-137575271D01*
X99019369Y-137941331D01*
X98850890Y-138348075D01*
X98765000Y-138779872D01*
X97660000Y-138779872D01*
X97660000Y-129913740D01*
X108415000Y-129913740D01*
X108415000Y-130206260D01*
X108472068Y-130493158D01*
X108584010Y-130763411D01*
X108746525Y-131006632D01*
X108953368Y-131213475D01*
X109127760Y-131330000D01*
X108953368Y-131446525D01*
X108746525Y-131653368D01*
X108584010Y-131896589D01*
X108472068Y-132166842D01*
X108415000Y-132453740D01*
X108415000Y-132746260D01*
X108472068Y-133033158D01*
X108584010Y-133303411D01*
X108746525Y-133546632D01*
X108953368Y-133753475D01*
X109127760Y-133870000D01*
X108953368Y-133986525D01*
X108746525Y-134193368D01*
X108584010Y-134436589D01*
X108472068Y-134706842D01*
X108415000Y-134993740D01*
X108415000Y-135286260D01*
X108472068Y-135573158D01*
X108584010Y-135843411D01*
X108746525Y-136086632D01*
X108953368Y-136293475D01*
X109127760Y-136410000D01*
X108953368Y-136526525D01*
X108746525Y-136733368D01*
X108584010Y-136976589D01*
X108472068Y-137246842D01*
X108415000Y-137533740D01*
X108415000Y-137826260D01*
X108472068Y-138113158D01*
X108584010Y-138383411D01*
X108746525Y-138626632D01*
X108953368Y-138833475D01*
X109127760Y-138950000D01*
X108953368Y-139066525D01*
X108746525Y-139273368D01*
X108584010Y-139516589D01*
X108472068Y-139786842D01*
X108415000Y-140073740D01*
X108415000Y-140366260D01*
X108472068Y-140653158D01*
X108584010Y-140923411D01*
X108746525Y-141166632D01*
X108953368Y-141373475D01*
X109196589Y-141535990D01*
X109466842Y-141647932D01*
X109753740Y-141705000D01*
X110046260Y-141705000D01*
X110333158Y-141647932D01*
X110603411Y-141535990D01*
X110846632Y-141373475D01*
X111053475Y-141166632D01*
X111215990Y-140923411D01*
X111327932Y-140653158D01*
X111385000Y-140366260D01*
X111385000Y-140073740D01*
X111327932Y-139786842D01*
X111215990Y-139516589D01*
X111053475Y-139273368D01*
X110846632Y-139066525D01*
X110672240Y-138950000D01*
X110846632Y-138833475D01*
X111053475Y-138626632D01*
X111215990Y-138383411D01*
X111327932Y-138113158D01*
X111385000Y-137826260D01*
X111385000Y-137533740D01*
X111327932Y-137246842D01*
X111215990Y-136976589D01*
X111053475Y-136733368D01*
X110846632Y-136526525D01*
X110672240Y-136410000D01*
X110846632Y-136293475D01*
X111053475Y-136086632D01*
X111215990Y-135843411D01*
X111327932Y-135573158D01*
X111385000Y-135286260D01*
X111385000Y-134993740D01*
X111327932Y-134706842D01*
X111215990Y-134436589D01*
X111053475Y-134193368D01*
X110846632Y-133986525D01*
X110672240Y-133870000D01*
X110846632Y-133753475D01*
X111053475Y-133546632D01*
X111215990Y-133303411D01*
X111327932Y-133033158D01*
X111385000Y-132746260D01*
X111385000Y-132453740D01*
X111327932Y-132166842D01*
X111215990Y-131896589D01*
X111053475Y-131653368D01*
X110846632Y-131446525D01*
X110672240Y-131330000D01*
X110846632Y-131213475D01*
X111053475Y-131006632D01*
X111215990Y-130763411D01*
X111327932Y-130493158D01*
X111385000Y-130206260D01*
X111385000Y-129913740D01*
X111330344Y-129638967D01*
X111570000Y-129638967D01*
X111570000Y-129961033D01*
X111632832Y-130276912D01*
X111756082Y-130574463D01*
X111935013Y-130842252D01*
X112162748Y-131069987D01*
X112162767Y-131070000D01*
X112162748Y-131070013D01*
X111935013Y-131297748D01*
X111756082Y-131565537D01*
X111632832Y-131863088D01*
X111570000Y-132178967D01*
X111570000Y-132501033D01*
X111632832Y-132816912D01*
X111756082Y-133114463D01*
X111935013Y-133382252D01*
X112162748Y-133609987D01*
X112162767Y-133610000D01*
X112162748Y-133610013D01*
X111935013Y-133837748D01*
X111756082Y-134105537D01*
X111632832Y-134403088D01*
X111570000Y-134718967D01*
X111570000Y-135041033D01*
X111632832Y-135356912D01*
X111756082Y-135654463D01*
X111935013Y-135922252D01*
X112162748Y-136149987D01*
X112162767Y-136150000D01*
X112162748Y-136150013D01*
X111935013Y-136377748D01*
X111756082Y-136645537D01*
X111632832Y-136943088D01*
X111570000Y-137258967D01*
X111570000Y-137581033D01*
X111632832Y-137896912D01*
X111756082Y-138194463D01*
X111935013Y-138462252D01*
X112162748Y-138689987D01*
X112162767Y-138690000D01*
X112162748Y-138690013D01*
X111935013Y-138917748D01*
X111756082Y-139185537D01*
X111632832Y-139483088D01*
X111570000Y-139798967D01*
X111570000Y-140121033D01*
X111632832Y-140436912D01*
X111756082Y-140734463D01*
X111935013Y-141002252D01*
X112162748Y-141229987D01*
X112430537Y-141408918D01*
X112728088Y-141532168D01*
X113043967Y-141595000D01*
X113366033Y-141595000D01*
X113681912Y-141532168D01*
X113979463Y-141408918D01*
X114247252Y-141229987D01*
X114474987Y-141002252D01*
X114653918Y-140734463D01*
X114777168Y-140436912D01*
X114840000Y-140121033D01*
X114840000Y-139798967D01*
X114777168Y-139483088D01*
X114653918Y-139185537D01*
X114474987Y-138917748D01*
X114247252Y-138690013D01*
X114247233Y-138690000D01*
X114247252Y-138689987D01*
X114474987Y-138462252D01*
X114653918Y-138194463D01*
X114777168Y-137896912D01*
X114840000Y-137581033D01*
X114840000Y-137258967D01*
X114777168Y-136943088D01*
X114653918Y-136645537D01*
X114474987Y-136377748D01*
X114247252Y-136150013D01*
X114247233Y-136150000D01*
X114247252Y-136149987D01*
X114474987Y-135922252D01*
X114653918Y-135654463D01*
X114777168Y-135356912D01*
X114840000Y-135041033D01*
X114840000Y-134718967D01*
X114777168Y-134403088D01*
X114653918Y-134105537D01*
X114474987Y-133837748D01*
X114247252Y-133610013D01*
X114247233Y-133610000D01*
X114247252Y-133609987D01*
X114474987Y-133382252D01*
X114653918Y-133114463D01*
X114777168Y-132816912D01*
X114840000Y-132501033D01*
X114840000Y-132178967D01*
X114777168Y-131863088D01*
X114653918Y-131565537D01*
X114474987Y-131297748D01*
X114247252Y-131070013D01*
X114247233Y-131070000D01*
X114247252Y-131069987D01*
X114474987Y-130842252D01*
X114653918Y-130574463D01*
X114777168Y-130276912D01*
X114840000Y-129961033D01*
X114840000Y-129638967D01*
X114777168Y-129323088D01*
X114653918Y-129025537D01*
X114474987Y-128757748D01*
X114247252Y-128530013D01*
X114138400Y-128457280D01*
X114160808Y-128395413D01*
X113205000Y-127439605D01*
X112249192Y-128395413D01*
X112271600Y-128457280D01*
X112162748Y-128530013D01*
X111935013Y-128757748D01*
X111756082Y-129025537D01*
X111632832Y-129323088D01*
X111570000Y-129638967D01*
X111330344Y-129638967D01*
X111327932Y-129626842D01*
X111215990Y-129356589D01*
X111053475Y-129113368D01*
X110846632Y-128906525D01*
X110664466Y-128784805D01*
X110781355Y-128715178D01*
X110997588Y-128520269D01*
X111171641Y-128286920D01*
X111296825Y-128024099D01*
X111341476Y-127876890D01*
X111220155Y-127647000D01*
X110027000Y-127647000D01*
X110027000Y-127667000D01*
X109773000Y-127667000D01*
X109773000Y-127647000D01*
X108579845Y-127647000D01*
X108458524Y-127876890D01*
X108503175Y-128024099D01*
X108628359Y-128286920D01*
X108802412Y-128520269D01*
X109018645Y-128715178D01*
X109135534Y-128784805D01*
X108953368Y-128906525D01*
X108746525Y-129113368D01*
X108584010Y-129356589D01*
X108472068Y-129626842D01*
X108415000Y-129913740D01*
X97660000Y-129913740D01*
X97660000Y-106992702D01*
X104186903Y-106992702D01*
X104258486Y-107236671D01*
X104513996Y-107357571D01*
X104788184Y-107426300D01*
X105070512Y-107440217D01*
X105350130Y-107398787D01*
X105616292Y-107303603D01*
X105741514Y-107236671D01*
X105813097Y-106992702D01*
X105000000Y-106179605D01*
X104186903Y-106992702D01*
X97660000Y-106992702D01*
X97660000Y-106070512D01*
X103559783Y-106070512D01*
X103601213Y-106350130D01*
X103696397Y-106616292D01*
X103763329Y-106741514D01*
X104007298Y-106813097D01*
X104820395Y-106000000D01*
X105179605Y-106000000D01*
X105992702Y-106813097D01*
X106236671Y-106741514D01*
X106357571Y-106486004D01*
X106426300Y-106211816D01*
X106440217Y-105929488D01*
X106398787Y-105649870D01*
X106303603Y-105383708D01*
X106236671Y-105258486D01*
X105992702Y-105186903D01*
X105179605Y-106000000D01*
X104820395Y-106000000D01*
X104007298Y-105186903D01*
X103763329Y-105258486D01*
X103642429Y-105513996D01*
X103573700Y-105788184D01*
X103559783Y-106070512D01*
X97660000Y-106070512D01*
X97660000Y-103358665D01*
X103565000Y-103358665D01*
X103565000Y-103641335D01*
X103620147Y-103918574D01*
X103728320Y-104179727D01*
X103885363Y-104414759D01*
X104085241Y-104614637D01*
X104285869Y-104748692D01*
X104258486Y-104763329D01*
X104186903Y-105007298D01*
X105000000Y-105820395D01*
X105813097Y-105007298D01*
X105741514Y-104763329D01*
X105712659Y-104749676D01*
X105914759Y-104614637D01*
X106114637Y-104414759D01*
X106271680Y-104179727D01*
X106379853Y-103918574D01*
X106435000Y-103641335D01*
X106435000Y-103358665D01*
X106379853Y-103081426D01*
X106271680Y-102820273D01*
X106114637Y-102585241D01*
X105914759Y-102385363D01*
X105679727Y-102228320D01*
X105418574Y-102120147D01*
X105141335Y-102065000D01*
X104858665Y-102065000D01*
X104581426Y-102120147D01*
X104320273Y-102228320D01*
X104085241Y-102385363D01*
X103885363Y-102585241D01*
X103728320Y-102820273D01*
X103620147Y-103081426D01*
X103565000Y-103358665D01*
X97660000Y-103358665D01*
X97660000Y-97032278D01*
X97684748Y-96779872D01*
X98765000Y-96779872D01*
X98765000Y-97220128D01*
X98850890Y-97651925D01*
X99019369Y-98058669D01*
X99263962Y-98424729D01*
X99575271Y-98736038D01*
X99941331Y-98980631D01*
X100348075Y-99149110D01*
X100779872Y-99235000D01*
X101220128Y-99235000D01*
X101651925Y-99149110D01*
X102058669Y-98980631D01*
X102424729Y-98736038D01*
X102736038Y-98424729D01*
X102980631Y-98058669D01*
X103149110Y-97651925D01*
X103235000Y-97220128D01*
X103235000Y-96779872D01*
X103149110Y-96348075D01*
X102980631Y-95941331D01*
X102736038Y-95575271D01*
X102424729Y-95263962D01*
X102058669Y-95019369D01*
X101651925Y-94850890D01*
X101220128Y-94765000D01*
X100779872Y-94765000D01*
X100348075Y-94850890D01*
X99941331Y-95019369D01*
X99575271Y-95263962D01*
X99263962Y-95575271D01*
X99019369Y-95941331D01*
X98850890Y-96348075D01*
X98765000Y-96779872D01*
X97684748Y-96779872D01*
X97726714Y-96351874D01*
X97914943Y-95728428D01*
X98220681Y-95153421D01*
X98632279Y-94648753D01*
X99134067Y-94233638D01*
X99706924Y-93923895D01*
X100329039Y-93731318D01*
X101007584Y-93660000D01*
X108411928Y-93660000D01*
X108411928Y-95350000D01*
G04 #@! TA.AperFunction,Conductor*
D21*
G36*
X108411928Y-95350000D02*
G01*
X108424188Y-95474482D01*
X108460498Y-95594180D01*
X108519463Y-95704494D01*
X108598815Y-95801185D01*
X108695506Y-95880537D01*
X108805820Y-95939502D01*
X108878380Y-95961513D01*
X108746525Y-96093368D01*
X108584010Y-96336589D01*
X108472068Y-96606842D01*
X108415000Y-96893740D01*
X108415000Y-97186260D01*
X108472068Y-97473158D01*
X108584010Y-97743411D01*
X108746525Y-97986632D01*
X108953368Y-98193475D01*
X109127760Y-98310000D01*
X108953368Y-98426525D01*
X108746525Y-98633368D01*
X108584010Y-98876589D01*
X108472068Y-99146842D01*
X108415000Y-99433740D01*
X108415000Y-99726260D01*
X108472068Y-100013158D01*
X108584010Y-100283411D01*
X108746525Y-100526632D01*
X108953368Y-100733475D01*
X109127760Y-100850000D01*
X108953368Y-100966525D01*
X108746525Y-101173368D01*
X108584010Y-101416589D01*
X108472068Y-101686842D01*
X108415000Y-101973740D01*
X108415000Y-102266260D01*
X108472068Y-102553158D01*
X108584010Y-102823411D01*
X108746525Y-103066632D01*
X108953368Y-103273475D01*
X109127760Y-103390000D01*
X108953368Y-103506525D01*
X108746525Y-103713368D01*
X108584010Y-103956589D01*
X108472068Y-104226842D01*
X108415000Y-104513740D01*
X108415000Y-104806260D01*
X108472068Y-105093158D01*
X108584010Y-105363411D01*
X108746525Y-105606632D01*
X108953368Y-105813475D01*
X109127760Y-105930000D01*
X108953368Y-106046525D01*
X108746525Y-106253368D01*
X108584010Y-106496589D01*
X108472068Y-106766842D01*
X108415000Y-107053740D01*
X108415000Y-107346260D01*
X108472068Y-107633158D01*
X108584010Y-107903411D01*
X108746525Y-108146632D01*
X108953368Y-108353475D01*
X109127760Y-108470000D01*
X108953368Y-108586525D01*
X108746525Y-108793368D01*
X108584010Y-109036589D01*
X108472068Y-109306842D01*
X108415000Y-109593740D01*
X108415000Y-109886260D01*
X108472068Y-110173158D01*
X108584010Y-110443411D01*
X108746525Y-110686632D01*
X108953368Y-110893475D01*
X109127760Y-111010000D01*
X108953368Y-111126525D01*
X108746525Y-111333368D01*
X108584010Y-111576589D01*
X108472068Y-111846842D01*
X108415000Y-112133740D01*
X108415000Y-112426260D01*
X108472068Y-112713158D01*
X108584010Y-112983411D01*
X108746525Y-113226632D01*
X108953368Y-113433475D01*
X109127760Y-113550000D01*
X108953368Y-113666525D01*
X108746525Y-113873368D01*
X108584010Y-114116589D01*
X108472068Y-114386842D01*
X108415000Y-114673740D01*
X108415000Y-114966260D01*
X108472068Y-115253158D01*
X108584010Y-115523411D01*
X108746525Y-115766632D01*
X108953368Y-115973475D01*
X109127760Y-116090000D01*
X108953368Y-116206525D01*
X108746525Y-116413368D01*
X108584010Y-116656589D01*
X108472068Y-116926842D01*
X108415000Y-117213740D01*
X108415000Y-117506260D01*
X108472068Y-117793158D01*
X108584010Y-118063411D01*
X108746525Y-118306632D01*
X108953368Y-118513475D01*
X109127760Y-118630000D01*
X108953368Y-118746525D01*
X108746525Y-118953368D01*
X108584010Y-119196589D01*
X108472068Y-119466842D01*
X108415000Y-119753740D01*
X108415000Y-120046260D01*
X108472068Y-120333158D01*
X108584010Y-120603411D01*
X108746525Y-120846632D01*
X108953368Y-121053475D01*
X109127760Y-121170000D01*
X108953368Y-121286525D01*
X108746525Y-121493368D01*
X108584010Y-121736589D01*
X108472068Y-122006842D01*
X108415000Y-122293740D01*
X108415000Y-122586260D01*
X108472068Y-122873158D01*
X108584010Y-123143411D01*
X108746525Y-123386632D01*
X108953368Y-123593475D01*
X109127760Y-123710000D01*
X108953368Y-123826525D01*
X108746525Y-124033368D01*
X108584010Y-124276589D01*
X108472068Y-124546842D01*
X108415000Y-124833740D01*
X108415000Y-125126260D01*
X108472068Y-125413158D01*
X108584010Y-125683411D01*
X108746525Y-125926632D01*
X108953368Y-126133475D01*
X109135534Y-126255195D01*
X109018645Y-126324822D01*
X108802412Y-126519731D01*
X108628359Y-126753080D01*
X108503175Y-127015901D01*
X108458524Y-127163110D01*
X108579845Y-127393000D01*
X109773000Y-127393000D01*
X109773000Y-127373000D01*
X110027000Y-127373000D01*
X110027000Y-127393000D01*
X111220155Y-127393000D01*
X111257310Y-127322595D01*
X111563282Y-127322595D01*
X111607039Y-127641675D01*
X111712205Y-127946088D01*
X111805186Y-128120044D01*
X112069587Y-128215808D01*
X113025395Y-127260000D01*
X113384605Y-127260000D01*
X114340413Y-128215808D01*
X114604814Y-128120044D01*
X114745704Y-127830429D01*
X114827384Y-127518892D01*
X114846718Y-127197405D01*
X114802961Y-126878325D01*
X114697795Y-126573912D01*
X114604814Y-126399956D01*
X114340413Y-126304192D01*
X113384605Y-127260000D01*
X113025395Y-127260000D01*
X112069587Y-126304192D01*
X111805186Y-126399956D01*
X111664296Y-126689571D01*
X111582616Y-127001108D01*
X111563282Y-127322595D01*
X111257310Y-127322595D01*
X111341476Y-127163110D01*
X111296825Y-127015901D01*
X111171641Y-126753080D01*
X110997588Y-126519731D01*
X110781355Y-126324822D01*
X110664466Y-126255195D01*
X110846632Y-126133475D01*
X111053475Y-125926632D01*
X111215990Y-125683411D01*
X111327932Y-125413158D01*
X111385000Y-125126260D01*
X111385000Y-124833740D01*
X111327932Y-124546842D01*
X111215990Y-124276589D01*
X111053475Y-124033368D01*
X110846632Y-123826525D01*
X110672240Y-123710000D01*
X110846632Y-123593475D01*
X111053475Y-123386632D01*
X111215990Y-123143411D01*
X111327932Y-122873158D01*
X111385000Y-122586260D01*
X111385000Y-122293740D01*
X111327932Y-122006842D01*
X111215990Y-121736589D01*
X111053475Y-121493368D01*
X110846632Y-121286525D01*
X110672240Y-121170000D01*
X110846632Y-121053475D01*
X111053475Y-120846632D01*
X111215990Y-120603411D01*
X111327932Y-120333158D01*
X111385000Y-120046260D01*
X111385000Y-119753740D01*
X111327932Y-119466842D01*
X111215990Y-119196589D01*
X111053475Y-118953368D01*
X110846632Y-118746525D01*
X110672240Y-118630000D01*
X110846632Y-118513475D01*
X111053475Y-118306632D01*
X111215990Y-118063411D01*
X111327932Y-117793158D01*
X111385000Y-117506260D01*
X111385000Y-117213740D01*
X111327932Y-116926842D01*
X111215990Y-116656589D01*
X111053475Y-116413368D01*
X110846632Y-116206525D01*
X110672240Y-116090000D01*
X110846632Y-115973475D01*
X111053475Y-115766632D01*
X111215990Y-115523411D01*
X111327932Y-115253158D01*
X111385000Y-114966260D01*
X111385000Y-114673740D01*
X111327932Y-114386842D01*
X111215990Y-114116589D01*
X111053475Y-113873368D01*
X110846632Y-113666525D01*
X110672240Y-113550000D01*
X110846632Y-113433475D01*
X111053475Y-113226632D01*
X111215990Y-112983411D01*
X111327932Y-112713158D01*
X111385000Y-112426260D01*
X111385000Y-112133740D01*
X111327932Y-111846842D01*
X111215990Y-111576589D01*
X111053475Y-111333368D01*
X110846632Y-111126525D01*
X110672240Y-111010000D01*
X110846632Y-110893475D01*
X111053475Y-110686632D01*
X111215990Y-110443411D01*
X111327932Y-110173158D01*
X111385000Y-109886260D01*
X111385000Y-109593740D01*
X111327932Y-109306842D01*
X111215990Y-109036589D01*
X111053475Y-108793368D01*
X110846632Y-108586525D01*
X110672240Y-108470000D01*
X110846632Y-108353475D01*
X111053475Y-108146632D01*
X111215990Y-107903411D01*
X111327932Y-107633158D01*
X111385000Y-107346260D01*
X111385000Y-107053740D01*
X111327932Y-106766842D01*
X111215990Y-106496589D01*
X111053475Y-106253368D01*
X110846632Y-106046525D01*
X110672240Y-105930000D01*
X110846632Y-105813475D01*
X111053475Y-105606632D01*
X111215990Y-105363411D01*
X111327932Y-105093158D01*
X111385000Y-104806260D01*
X111385000Y-104513740D01*
X111327932Y-104226842D01*
X111215990Y-103956589D01*
X111053475Y-103713368D01*
X110846632Y-103506525D01*
X110672240Y-103390000D01*
X110846632Y-103273475D01*
X111053475Y-103066632D01*
X111215990Y-102823411D01*
X111327932Y-102553158D01*
X111385000Y-102266260D01*
X111385000Y-101973740D01*
X111327932Y-101686842D01*
X111215990Y-101416589D01*
X111053475Y-101173368D01*
X110846632Y-100966525D01*
X110672240Y-100850000D01*
X110846632Y-100733475D01*
X111053475Y-100526632D01*
X111215990Y-100283411D01*
X111327932Y-100013158D01*
X111385000Y-99726260D01*
X111385000Y-99433740D01*
X111327932Y-99146842D01*
X111215990Y-98876589D01*
X111053475Y-98633368D01*
X110846632Y-98426525D01*
X110672240Y-98310000D01*
X110846632Y-98193475D01*
X111053475Y-97986632D01*
X111215990Y-97743411D01*
X111327932Y-97473158D01*
X111385000Y-97186260D01*
X111385000Y-96893740D01*
X111327932Y-96606842D01*
X111215990Y-96336589D01*
X111053475Y-96093368D01*
X110921620Y-95961513D01*
X110994180Y-95939502D01*
X111104494Y-95880537D01*
X111201185Y-95801185D01*
X111280537Y-95704494D01*
X111339502Y-95594180D01*
X111375812Y-95474482D01*
X111388072Y-95350000D01*
X111388072Y-93660000D01*
X111566928Y-93660000D01*
X111566928Y-95240000D01*
X111579188Y-95364482D01*
X111615498Y-95484180D01*
X111674463Y-95594494D01*
X111753815Y-95691185D01*
X111850506Y-95770537D01*
X111896630Y-95795191D01*
X111756082Y-96005537D01*
X111632832Y-96303088D01*
X111570000Y-96618967D01*
X111570000Y-96941033D01*
X111632832Y-97256912D01*
X111756082Y-97554463D01*
X111935013Y-97822252D01*
X112162748Y-98049987D01*
X112162767Y-98050000D01*
X112162748Y-98050013D01*
X111935013Y-98277748D01*
X111756082Y-98545537D01*
X111632832Y-98843088D01*
X111570000Y-99158967D01*
X111570000Y-99481033D01*
X111632832Y-99796912D01*
X111756082Y-100094463D01*
X111935013Y-100362252D01*
X112162748Y-100589987D01*
X112162767Y-100590000D01*
X112162748Y-100590013D01*
X111935013Y-100817748D01*
X111756082Y-101085537D01*
X111632832Y-101383088D01*
X111570000Y-101698967D01*
X111570000Y-102021033D01*
X111632832Y-102336912D01*
X111756082Y-102634463D01*
X111935013Y-102902252D01*
X112162748Y-103129987D01*
X112162767Y-103130000D01*
X112162748Y-103130013D01*
X111935013Y-103357748D01*
X111756082Y-103625537D01*
X111632832Y-103923088D01*
X111570000Y-104238967D01*
X111570000Y-104561033D01*
X111632832Y-104876912D01*
X111756082Y-105174463D01*
X111935013Y-105442252D01*
X112162748Y-105669987D01*
X112162767Y-105670000D01*
X112162748Y-105670013D01*
X111935013Y-105897748D01*
X111756082Y-106165537D01*
X111632832Y-106463088D01*
X111570000Y-106778967D01*
X111570000Y-107101033D01*
X111632832Y-107416912D01*
X111756082Y-107714463D01*
X111935013Y-107982252D01*
X112162748Y-108209987D01*
X112162767Y-108210000D01*
X112162748Y-108210013D01*
X111935013Y-108437748D01*
X111756082Y-108705537D01*
X111632832Y-109003088D01*
X111570000Y-109318967D01*
X111570000Y-109641033D01*
X111632832Y-109956912D01*
X111756082Y-110254463D01*
X111935013Y-110522252D01*
X112162748Y-110749987D01*
X112162767Y-110750000D01*
X112162748Y-110750013D01*
X111935013Y-110977748D01*
X111756082Y-111245537D01*
X111632832Y-111543088D01*
X111570000Y-111858967D01*
X111570000Y-112181033D01*
X111632832Y-112496912D01*
X111756082Y-112794463D01*
X111935013Y-113062252D01*
X112162748Y-113289987D01*
X112162767Y-113290000D01*
X112162748Y-113290013D01*
X111935013Y-113517748D01*
X111756082Y-113785537D01*
X111632832Y-114083088D01*
X111570000Y-114398967D01*
X111570000Y-114721033D01*
X111632832Y-115036912D01*
X111756082Y-115334463D01*
X111935013Y-115602252D01*
X112162748Y-115829987D01*
X112162767Y-115830000D01*
X112162748Y-115830013D01*
X111935013Y-116057748D01*
X111756082Y-116325537D01*
X111632832Y-116623088D01*
X111570000Y-116938967D01*
X111570000Y-117261033D01*
X111632832Y-117576912D01*
X111756082Y-117874463D01*
X111935013Y-118142252D01*
X112162748Y-118369987D01*
X112162767Y-118370000D01*
X112162748Y-118370013D01*
X111935013Y-118597748D01*
X111756082Y-118865537D01*
X111632832Y-119163088D01*
X111570000Y-119478967D01*
X111570000Y-119801033D01*
X111632832Y-120116912D01*
X111756082Y-120414463D01*
X111935013Y-120682252D01*
X112162748Y-120909987D01*
X112162767Y-120910000D01*
X112162748Y-120910013D01*
X111935013Y-121137748D01*
X111756082Y-121405537D01*
X111632832Y-121703088D01*
X111570000Y-122018967D01*
X111570000Y-122341033D01*
X111632832Y-122656912D01*
X111756082Y-122954463D01*
X111935013Y-123222252D01*
X112162748Y-123449987D01*
X112162767Y-123450000D01*
X112162748Y-123450013D01*
X111935013Y-123677748D01*
X111756082Y-123945537D01*
X111632832Y-124243088D01*
X111570000Y-124558967D01*
X111570000Y-124881033D01*
X111632832Y-125196912D01*
X111756082Y-125494463D01*
X111935013Y-125762252D01*
X112162748Y-125989987D01*
X112271600Y-126062720D01*
X112249192Y-126124587D01*
X113205000Y-127080395D01*
X114160808Y-126124587D01*
X114138400Y-126062720D01*
X114247252Y-125989987D01*
X114474987Y-125762252D01*
X114653918Y-125494463D01*
X114777168Y-125196912D01*
X114840000Y-124881033D01*
X114840000Y-124558967D01*
X114777168Y-124243088D01*
X114653918Y-123945537D01*
X114474987Y-123677748D01*
X114247252Y-123450013D01*
X114247233Y-123450000D01*
X114247252Y-123449987D01*
X114474987Y-123222252D01*
X114653918Y-122954463D01*
X114777168Y-122656912D01*
X114840000Y-122341033D01*
X114840000Y-122018967D01*
X114777168Y-121703088D01*
X114653918Y-121405537D01*
X114474987Y-121137748D01*
X114247252Y-120910013D01*
X114247233Y-120910000D01*
X114247252Y-120909987D01*
X114474987Y-120682252D01*
X114653918Y-120414463D01*
X114777168Y-120116912D01*
X114840000Y-119801033D01*
X114840000Y-119478967D01*
X114777168Y-119163088D01*
X114653918Y-118865537D01*
X114474987Y-118597748D01*
X114247252Y-118370013D01*
X114247233Y-118370000D01*
X114247252Y-118369987D01*
X114474987Y-118142252D01*
X114653918Y-117874463D01*
X114777168Y-117576912D01*
X114840000Y-117261033D01*
X114840000Y-116938967D01*
X114777168Y-116623088D01*
X114653918Y-116325537D01*
X114474987Y-116057748D01*
X114247252Y-115830013D01*
X114247233Y-115830000D01*
X114247252Y-115829987D01*
X114474987Y-115602252D01*
X114653918Y-115334463D01*
X114777168Y-115036912D01*
X114840000Y-114721033D01*
X114840000Y-114398967D01*
X114777168Y-114083088D01*
X114653918Y-113785537D01*
X114474987Y-113517748D01*
X114247252Y-113290013D01*
X114247233Y-113290000D01*
X114247252Y-113289987D01*
X114474987Y-113062252D01*
X114653918Y-112794463D01*
X114777168Y-112496912D01*
X114840000Y-112181033D01*
X114840000Y-111858967D01*
X136970000Y-111858967D01*
X136970000Y-112181033D01*
X137032832Y-112496912D01*
X137156082Y-112794463D01*
X137335013Y-113062252D01*
X137562748Y-113289987D01*
X137562767Y-113290000D01*
X137562748Y-113290013D01*
X137335013Y-113517748D01*
X137156082Y-113785537D01*
X137032832Y-114083088D01*
X136970000Y-114398967D01*
X136970000Y-114721033D01*
X137032832Y-115036912D01*
X137156082Y-115334463D01*
X137335013Y-115602252D01*
X137562748Y-115829987D01*
X137562767Y-115830000D01*
X137562748Y-115830013D01*
X137335013Y-116057748D01*
X137156082Y-116325537D01*
X137032832Y-116623088D01*
X136970000Y-116938967D01*
X136970000Y-117261033D01*
X137032832Y-117576912D01*
X137156082Y-117874463D01*
X137335013Y-118142252D01*
X137562748Y-118369987D01*
X137562767Y-118370000D01*
X137562748Y-118370013D01*
X137335013Y-118597748D01*
X137156082Y-118865537D01*
X137032832Y-119163088D01*
X136970000Y-119478967D01*
X136970000Y-119801033D01*
X137032832Y-120116912D01*
X137156082Y-120414463D01*
X137335013Y-120682252D01*
X137562748Y-120909987D01*
X137562767Y-120910000D01*
X137562748Y-120910013D01*
X137335013Y-121137748D01*
X137156082Y-121405537D01*
X137032832Y-121703088D01*
X136970000Y-122018967D01*
X136970000Y-122341033D01*
X137032832Y-122656912D01*
X137156082Y-122954463D01*
X137335013Y-123222252D01*
X137562748Y-123449987D01*
X137562767Y-123450000D01*
X137562748Y-123450013D01*
X137335013Y-123677748D01*
X137156082Y-123945537D01*
X137032832Y-124243088D01*
X136970000Y-124558967D01*
X136970000Y-124881033D01*
X137032832Y-125196912D01*
X137156082Y-125494463D01*
X137335013Y-125762252D01*
X137562748Y-125989987D01*
X137562767Y-125990000D01*
X137562748Y-125990013D01*
X137335013Y-126217748D01*
X137156082Y-126485537D01*
X137032832Y-126783088D01*
X136970000Y-127098967D01*
X136970000Y-127421033D01*
X137032832Y-127736912D01*
X137156082Y-128034463D01*
X137335013Y-128302252D01*
X137562748Y-128529987D01*
X137562767Y-128530000D01*
X137562748Y-128530013D01*
X137335013Y-128757748D01*
X137156082Y-129025537D01*
X137032832Y-129323088D01*
X136970000Y-129638967D01*
X136970000Y-129961033D01*
X137032832Y-130276912D01*
X137156082Y-130574463D01*
X137335013Y-130842252D01*
X137562748Y-131069987D01*
X137562767Y-131070000D01*
X137562748Y-131070013D01*
X137335013Y-131297748D01*
X137156082Y-131565537D01*
X137032832Y-131863088D01*
X136970000Y-132178967D01*
X136970000Y-132501033D01*
X137032832Y-132816912D01*
X137156082Y-133114463D01*
X137335013Y-133382252D01*
X137562748Y-133609987D01*
X137562767Y-133610000D01*
X137562748Y-133610013D01*
X137335013Y-133837748D01*
X137156082Y-134105537D01*
X137032832Y-134403088D01*
X136970000Y-134718967D01*
X136970000Y-135041033D01*
X137032832Y-135356912D01*
X137156082Y-135654463D01*
X137335013Y-135922252D01*
X137562748Y-136149987D01*
X137562767Y-136150000D01*
X137562748Y-136150013D01*
X137335013Y-136377748D01*
X137156082Y-136645537D01*
X137032832Y-136943088D01*
X136970000Y-137258967D01*
X136970000Y-137581033D01*
X137032832Y-137896912D01*
X137156082Y-138194463D01*
X137335013Y-138462252D01*
X137562748Y-138689987D01*
X137562767Y-138690000D01*
X137562748Y-138690013D01*
X137335013Y-138917748D01*
X137156082Y-139185537D01*
X137032832Y-139483088D01*
X136970000Y-139798967D01*
X136970000Y-140121033D01*
X137032832Y-140436912D01*
X137156082Y-140734463D01*
X137335013Y-141002252D01*
X137562748Y-141229987D01*
X137830537Y-141408918D01*
X138128088Y-141532168D01*
X138443967Y-141595000D01*
X138766033Y-141595000D01*
X139081912Y-141532168D01*
X139379463Y-141408918D01*
X139647252Y-141229987D01*
X139874987Y-141002252D01*
X140053918Y-140734463D01*
X140177168Y-140436912D01*
X140240000Y-140121033D01*
X140240000Y-139798967D01*
X140177168Y-139483088D01*
X140053918Y-139185537D01*
X139874987Y-138917748D01*
X139647252Y-138690013D01*
X139647233Y-138690000D01*
X139647252Y-138689987D01*
X139874987Y-138462252D01*
X140053918Y-138194463D01*
X140177168Y-137896912D01*
X140240000Y-137581033D01*
X140240000Y-137258967D01*
X140177168Y-136943088D01*
X140053918Y-136645537D01*
X139874987Y-136377748D01*
X139647252Y-136150013D01*
X139647233Y-136150000D01*
X139647252Y-136149987D01*
X139874987Y-135922252D01*
X140053918Y-135654463D01*
X140177168Y-135356912D01*
X140240000Y-135041033D01*
X140240000Y-134718967D01*
X140177168Y-134403088D01*
X140053918Y-134105537D01*
X139874987Y-133837748D01*
X139647252Y-133610013D01*
X139647233Y-133610000D01*
X139647252Y-133609987D01*
X139874987Y-133382252D01*
X140053918Y-133114463D01*
X140177168Y-132816912D01*
X140240000Y-132501033D01*
X140240000Y-132178967D01*
X140177168Y-131863088D01*
X140053918Y-131565537D01*
X139874987Y-131297748D01*
X139647252Y-131070013D01*
X139647233Y-131070000D01*
X139647252Y-131069987D01*
X139874987Y-130842252D01*
X140053918Y-130574463D01*
X140177168Y-130276912D01*
X140240000Y-129961033D01*
X140240000Y-129638967D01*
X140177168Y-129323088D01*
X140053918Y-129025537D01*
X139874987Y-128757748D01*
X139647252Y-128530013D01*
X139647233Y-128530000D01*
X139647252Y-128529987D01*
X139874987Y-128302252D01*
X140053918Y-128034463D01*
X140177168Y-127736912D01*
X140240000Y-127421033D01*
X140240000Y-127098967D01*
X140177168Y-126783088D01*
X140053918Y-126485537D01*
X139874987Y-126217748D01*
X139647252Y-125990013D01*
X139647233Y-125990000D01*
X139647252Y-125989987D01*
X139874987Y-125762252D01*
X140053918Y-125494463D01*
X140177168Y-125196912D01*
X140240000Y-124881033D01*
X140240000Y-124558967D01*
X140177168Y-124243088D01*
X140053918Y-123945537D01*
X139874987Y-123677748D01*
X139647252Y-123450013D01*
X139647233Y-123450000D01*
X139647252Y-123449987D01*
X139874987Y-123222252D01*
X140053918Y-122954463D01*
X140177168Y-122656912D01*
X140240000Y-122341033D01*
X140240000Y-122018967D01*
X140177168Y-121703088D01*
X140053918Y-121405537D01*
X139874987Y-121137748D01*
X139647252Y-120910013D01*
X139647233Y-120910000D01*
X139647252Y-120909987D01*
X139874987Y-120682252D01*
X140053918Y-120414463D01*
X140177168Y-120116912D01*
X140240000Y-119801033D01*
X140240000Y-119478967D01*
X140177168Y-119163088D01*
X140053918Y-118865537D01*
X139874987Y-118597748D01*
X139647252Y-118370013D01*
X139647233Y-118370000D01*
X139647252Y-118369987D01*
X139874987Y-118142252D01*
X140053918Y-117874463D01*
X140177168Y-117576912D01*
X140240000Y-117261033D01*
X140240000Y-116938967D01*
X140177168Y-116623088D01*
X140053918Y-116325537D01*
X139874987Y-116057748D01*
X139647252Y-115830013D01*
X139647233Y-115830000D01*
X139647252Y-115829987D01*
X139874987Y-115602252D01*
X140053918Y-115334463D01*
X140177168Y-115036912D01*
X140240000Y-114721033D01*
X140240000Y-114398967D01*
X140177168Y-114083088D01*
X140053918Y-113785537D01*
X139874987Y-113517748D01*
X139647252Y-113290013D01*
X139647233Y-113290000D01*
X139647252Y-113289987D01*
X139874987Y-113062252D01*
X140053918Y-112794463D01*
X140177168Y-112496912D01*
X140240000Y-112181033D01*
X140240000Y-112013740D01*
X140515000Y-112013740D01*
X140515000Y-112306260D01*
X140572068Y-112593158D01*
X140684010Y-112863411D01*
X140846525Y-113106632D01*
X141053368Y-113313475D01*
X141227760Y-113430000D01*
X141053368Y-113546525D01*
X140846525Y-113753368D01*
X140684010Y-113996589D01*
X140572068Y-114266842D01*
X140515000Y-114553740D01*
X140515000Y-114846260D01*
X140572068Y-115133158D01*
X140684010Y-115403411D01*
X140846525Y-115646632D01*
X141053368Y-115853475D01*
X141227760Y-115970000D01*
X141053368Y-116086525D01*
X140846525Y-116293368D01*
X140684010Y-116536589D01*
X140572068Y-116806842D01*
X140515000Y-117093740D01*
X140515000Y-117386260D01*
X140572068Y-117673158D01*
X140684010Y-117943411D01*
X140846525Y-118186632D01*
X141053368Y-118393475D01*
X141227760Y-118510000D01*
X141053368Y-118626525D01*
X140846525Y-118833368D01*
X140684010Y-119076589D01*
X140572068Y-119346842D01*
X140515000Y-119633740D01*
X140515000Y-119926260D01*
X140572068Y-120213158D01*
X140684010Y-120483411D01*
X140846525Y-120726632D01*
X141053368Y-120933475D01*
X141227760Y-121050000D01*
X141053368Y-121166525D01*
X140846525Y-121373368D01*
X140684010Y-121616589D01*
X140572068Y-121886842D01*
X140515000Y-122173740D01*
X140515000Y-122466260D01*
X140572068Y-122753158D01*
X140684010Y-123023411D01*
X140846525Y-123266632D01*
X141053368Y-123473475D01*
X141227760Y-123590000D01*
X141053368Y-123706525D01*
X140846525Y-123913368D01*
X140684010Y-124156589D01*
X140572068Y-124426842D01*
X140515000Y-124713740D01*
X140515000Y-125006260D01*
X140572068Y-125293158D01*
X140684010Y-125563411D01*
X140846525Y-125806632D01*
X141053368Y-126013475D01*
X141227760Y-126130000D01*
X141053368Y-126246525D01*
X140846525Y-126453368D01*
X140684010Y-126696589D01*
X140572068Y-126966842D01*
X140515000Y-127253740D01*
X140515000Y-127546260D01*
X140572068Y-127833158D01*
X140684010Y-128103411D01*
X140846525Y-128346632D01*
X141053368Y-128553475D01*
X141227760Y-128670000D01*
X141053368Y-128786525D01*
X140846525Y-128993368D01*
X140684010Y-129236589D01*
X140572068Y-129506842D01*
X140515000Y-129793740D01*
X140515000Y-130086260D01*
X140572068Y-130373158D01*
X140684010Y-130643411D01*
X140846525Y-130886632D01*
X141053368Y-131093475D01*
X141227760Y-131210000D01*
X141053368Y-131326525D01*
X140846525Y-131533368D01*
X140684010Y-131776589D01*
X140572068Y-132046842D01*
X140515000Y-132333740D01*
X140515000Y-132626260D01*
X140572068Y-132913158D01*
X140684010Y-133183411D01*
X140846525Y-133426632D01*
X141053368Y-133633475D01*
X141227760Y-133750000D01*
X141053368Y-133866525D01*
X140846525Y-134073368D01*
X140684010Y-134316589D01*
X140572068Y-134586842D01*
X140515000Y-134873740D01*
X140515000Y-135166260D01*
X140572068Y-135453158D01*
X140684010Y-135723411D01*
X140846525Y-135966632D01*
X141053368Y-136173475D01*
X141227760Y-136290000D01*
X141053368Y-136406525D01*
X140846525Y-136613368D01*
X140684010Y-136856589D01*
X140572068Y-137126842D01*
X140515000Y-137413740D01*
X140515000Y-137706260D01*
X140572068Y-137993158D01*
X140684010Y-138263411D01*
X140846525Y-138506632D01*
X141053368Y-138713475D01*
X141227760Y-138830000D01*
X141053368Y-138946525D01*
X140846525Y-139153368D01*
X140684010Y-139396589D01*
X140572068Y-139666842D01*
X140515000Y-139953740D01*
X140515000Y-140246260D01*
X140572068Y-140533158D01*
X140684010Y-140803411D01*
X140846525Y-141046632D01*
X141053368Y-141253475D01*
X141296589Y-141415990D01*
X141566842Y-141527932D01*
X141853740Y-141585000D01*
X142146260Y-141585000D01*
X142433158Y-141527932D01*
X142703411Y-141415990D01*
X142946632Y-141253475D01*
X143153475Y-141046632D01*
X143315990Y-140803411D01*
X143427932Y-140533158D01*
X143485000Y-140246260D01*
X143485000Y-139953740D01*
X143427932Y-139666842D01*
X143315990Y-139396589D01*
X143153475Y-139153368D01*
X142946632Y-138946525D01*
X142772240Y-138830000D01*
X142847261Y-138779872D01*
X190765000Y-138779872D01*
X190765000Y-139220128D01*
X190850890Y-139651925D01*
X191019369Y-140058669D01*
X191263962Y-140424729D01*
X191575271Y-140736038D01*
X191941331Y-140980631D01*
X192348075Y-141149110D01*
X192779872Y-141235000D01*
X193220128Y-141235000D01*
X193651925Y-141149110D01*
X194058669Y-140980631D01*
X194424729Y-140736038D01*
X194736038Y-140424729D01*
X194980631Y-140058669D01*
X195149110Y-139651925D01*
X195235000Y-139220128D01*
X195235000Y-138779872D01*
X195149110Y-138348075D01*
X194980631Y-137941331D01*
X194736038Y-137575271D01*
X194424729Y-137263962D01*
X194058669Y-137019369D01*
X193651925Y-136850890D01*
X193220128Y-136765000D01*
X192779872Y-136765000D01*
X192348075Y-136850890D01*
X191941331Y-137019369D01*
X191575271Y-137263962D01*
X191263962Y-137575271D01*
X191019369Y-137941331D01*
X190850890Y-138348075D01*
X190765000Y-138779872D01*
X142847261Y-138779872D01*
X142946632Y-138713475D01*
X143153475Y-138506632D01*
X143315990Y-138263411D01*
X143427932Y-137993158D01*
X143485000Y-137706260D01*
X143485000Y-137413740D01*
X143427932Y-137126842D01*
X143315990Y-136856589D01*
X143153475Y-136613368D01*
X142946632Y-136406525D01*
X142772240Y-136290000D01*
X142946632Y-136173475D01*
X143153475Y-135966632D01*
X143315990Y-135723411D01*
X143427932Y-135453158D01*
X143446727Y-135358665D01*
X162065000Y-135358665D01*
X162065000Y-135641335D01*
X162120147Y-135918574D01*
X162228320Y-136179727D01*
X162385363Y-136414759D01*
X162585241Y-136614637D01*
X162820273Y-136771680D01*
X163081426Y-136879853D01*
X163358665Y-136935000D01*
X163641335Y-136935000D01*
X163918574Y-136879853D01*
X164179727Y-136771680D01*
X164414759Y-136614637D01*
X164614637Y-136414759D01*
X164771680Y-136179727D01*
X164879853Y-135918574D01*
X164935000Y-135641335D01*
X164935000Y-135358665D01*
X167065000Y-135358665D01*
X167065000Y-135641335D01*
X167120147Y-135918574D01*
X167228320Y-136179727D01*
X167385363Y-136414759D01*
X167585241Y-136614637D01*
X167820273Y-136771680D01*
X168081426Y-136879853D01*
X168358665Y-136935000D01*
X168641335Y-136935000D01*
X168918574Y-136879853D01*
X169179727Y-136771680D01*
X169414759Y-136614637D01*
X169614637Y-136414759D01*
X169771680Y-136179727D01*
X169879853Y-135918574D01*
X169935000Y-135641335D01*
X169935000Y-135358665D01*
X172065000Y-135358665D01*
X172065000Y-135641335D01*
X172120147Y-135918574D01*
X172228320Y-136179727D01*
X172385363Y-136414759D01*
X172585241Y-136614637D01*
X172820273Y-136771680D01*
X173081426Y-136879853D01*
X173358665Y-136935000D01*
X173641335Y-136935000D01*
X173918574Y-136879853D01*
X174179727Y-136771680D01*
X174414759Y-136614637D01*
X174614637Y-136414759D01*
X174771680Y-136179727D01*
X174879853Y-135918574D01*
X174935000Y-135641335D01*
X174935000Y-135358665D01*
X177065000Y-135358665D01*
X177065000Y-135641335D01*
X177120147Y-135918574D01*
X177228320Y-136179727D01*
X177385363Y-136414759D01*
X177585241Y-136614637D01*
X177820273Y-136771680D01*
X178081426Y-136879853D01*
X178358665Y-136935000D01*
X178641335Y-136935000D01*
X178918574Y-136879853D01*
X179179727Y-136771680D01*
X179414759Y-136614637D01*
X179614637Y-136414759D01*
X179771680Y-136179727D01*
X179879853Y-135918574D01*
X179935000Y-135641335D01*
X179935000Y-135358665D01*
X179879853Y-135081426D01*
X179771680Y-134820273D01*
X179614637Y-134585241D01*
X179414759Y-134385363D01*
X179179727Y-134228320D01*
X178918574Y-134120147D01*
X178641335Y-134065000D01*
X178358665Y-134065000D01*
X178081426Y-134120147D01*
X177820273Y-134228320D01*
X177585241Y-134385363D01*
X177385363Y-134585241D01*
X177228320Y-134820273D01*
X177120147Y-135081426D01*
X177065000Y-135358665D01*
X174935000Y-135358665D01*
X174879853Y-135081426D01*
X174771680Y-134820273D01*
X174614637Y-134585241D01*
X174414759Y-134385363D01*
X174179727Y-134228320D01*
X173918574Y-134120147D01*
X173641335Y-134065000D01*
X173358665Y-134065000D01*
X173081426Y-134120147D01*
X172820273Y-134228320D01*
X172585241Y-134385363D01*
X172385363Y-134585241D01*
X172228320Y-134820273D01*
X172120147Y-135081426D01*
X172065000Y-135358665D01*
X169935000Y-135358665D01*
X169879853Y-135081426D01*
X169771680Y-134820273D01*
X169614637Y-134585241D01*
X169414759Y-134385363D01*
X169179727Y-134228320D01*
X168918574Y-134120147D01*
X168641335Y-134065000D01*
X168358665Y-134065000D01*
X168081426Y-134120147D01*
X167820273Y-134228320D01*
X167585241Y-134385363D01*
X167385363Y-134585241D01*
X167228320Y-134820273D01*
X167120147Y-135081426D01*
X167065000Y-135358665D01*
X164935000Y-135358665D01*
X164879853Y-135081426D01*
X164771680Y-134820273D01*
X164614637Y-134585241D01*
X164414759Y-134385363D01*
X164179727Y-134228320D01*
X163918574Y-134120147D01*
X163641335Y-134065000D01*
X163358665Y-134065000D01*
X163081426Y-134120147D01*
X162820273Y-134228320D01*
X162585241Y-134385363D01*
X162385363Y-134585241D01*
X162228320Y-134820273D01*
X162120147Y-135081426D01*
X162065000Y-135358665D01*
X143446727Y-135358665D01*
X143485000Y-135166260D01*
X143485000Y-134873740D01*
X143427932Y-134586842D01*
X143315990Y-134316589D01*
X143153475Y-134073368D01*
X142946632Y-133866525D01*
X142772240Y-133750000D01*
X142946632Y-133633475D01*
X143153475Y-133426632D01*
X143315990Y-133183411D01*
X143427932Y-132913158D01*
X143485000Y-132626260D01*
X143485000Y-132333740D01*
X143427932Y-132046842D01*
X143315990Y-131776589D01*
X143153475Y-131533368D01*
X142946632Y-131326525D01*
X142772240Y-131210000D01*
X142946632Y-131093475D01*
X143153475Y-130886632D01*
X143315990Y-130643411D01*
X143427932Y-130373158D01*
X143485000Y-130086260D01*
X143485000Y-129793740D01*
X143427932Y-129506842D01*
X143382874Y-129398061D01*
X148465000Y-129398061D01*
X148465000Y-129601939D01*
X148504774Y-129801898D01*
X148582795Y-129990256D01*
X148696063Y-130159774D01*
X148840226Y-130303937D01*
X149009744Y-130417205D01*
X149198102Y-130495226D01*
X149398061Y-130535000D01*
X149601939Y-130535000D01*
X149727623Y-130510000D01*
X154272377Y-130510000D01*
X154398061Y-130535000D01*
X154601939Y-130535000D01*
X154801898Y-130495226D01*
X154990256Y-130417205D01*
X155159774Y-130303937D01*
X155303937Y-130159774D01*
X155417205Y-129990256D01*
X155495226Y-129801898D01*
X155535000Y-129601939D01*
X155535000Y-129398061D01*
X155495226Y-129198102D01*
X155417205Y-129009744D01*
X155303937Y-128840226D01*
X155213711Y-128750000D01*
X155303937Y-128659774D01*
X155417205Y-128490256D01*
X155495226Y-128301898D01*
X155535000Y-128101939D01*
X155535000Y-127898061D01*
X155495226Y-127698102D01*
X155417205Y-127509744D01*
X155303937Y-127340226D01*
X155159774Y-127196063D01*
X154990256Y-127082795D01*
X154801898Y-127004774D01*
X154601939Y-126965000D01*
X154398061Y-126965000D01*
X154272377Y-126990000D01*
X150727623Y-126990000D01*
X150601939Y-126965000D01*
X150398061Y-126965000D01*
X150198102Y-127004774D01*
X150009744Y-127082795D01*
X149840226Y-127196063D01*
X149696063Y-127340226D01*
X149582795Y-127509744D01*
X149504774Y-127698102D01*
X149465000Y-127898061D01*
X149465000Y-128101939D01*
X149504774Y-128301898D01*
X149572334Y-128465000D01*
X149398061Y-128465000D01*
X149198102Y-128504774D01*
X149009744Y-128582795D01*
X148840226Y-128696063D01*
X148696063Y-128840226D01*
X148582795Y-129009744D01*
X148504774Y-129198102D01*
X148465000Y-129398061D01*
X143382874Y-129398061D01*
X143315990Y-129236589D01*
X143153475Y-128993368D01*
X142946632Y-128786525D01*
X142772240Y-128670000D01*
X142946632Y-128553475D01*
X143153475Y-128346632D01*
X143315990Y-128103411D01*
X143427932Y-127833158D01*
X143485000Y-127546260D01*
X143485000Y-127253740D01*
X143427932Y-126966842D01*
X143315990Y-126696589D01*
X143153475Y-126453368D01*
X142946632Y-126246525D01*
X142772240Y-126130000D01*
X142946632Y-126013475D01*
X143153475Y-125806632D01*
X143315990Y-125563411D01*
X143427932Y-125293158D01*
X143485000Y-125006260D01*
X143485000Y-124713740D01*
X143427932Y-124426842D01*
X143315990Y-124156589D01*
X143153475Y-123913368D01*
X142946632Y-123706525D01*
X142772240Y-123590000D01*
X142946632Y-123473475D01*
X143153475Y-123266632D01*
X143315990Y-123023411D01*
X143427932Y-122753158D01*
X143485000Y-122466260D01*
X143485000Y-122173740D01*
X143427932Y-121886842D01*
X143315990Y-121616589D01*
X143153475Y-121373368D01*
X142946632Y-121166525D01*
X142772240Y-121050000D01*
X142946632Y-120933475D01*
X142965107Y-120915000D01*
X147984249Y-120915000D01*
X148040000Y-120920491D01*
X148095751Y-120915000D01*
X148095752Y-120915000D01*
X148262499Y-120898577D01*
X148476447Y-120833676D01*
X148673623Y-120728284D01*
X148846449Y-120586449D01*
X148881996Y-120543135D01*
X151089614Y-118335518D01*
X151184010Y-118563411D01*
X151346525Y-118806632D01*
X151553368Y-119013475D01*
X151727760Y-119130000D01*
X151553368Y-119246525D01*
X151346525Y-119453368D01*
X151184010Y-119696589D01*
X151072068Y-119966842D01*
X151015000Y-120253740D01*
X151015000Y-120546260D01*
X151072068Y-120833158D01*
X151184010Y-121103411D01*
X151346525Y-121346632D01*
X151553368Y-121553475D01*
X151727760Y-121670000D01*
X151553368Y-121786525D01*
X151346525Y-121993368D01*
X151184010Y-122236589D01*
X151072068Y-122506842D01*
X151015000Y-122793740D01*
X151015000Y-123086260D01*
X151072068Y-123373158D01*
X151184010Y-123643411D01*
X151346525Y-123886632D01*
X151553368Y-124093475D01*
X151727760Y-124210000D01*
X151553368Y-124326525D01*
X151346525Y-124533368D01*
X151184010Y-124776589D01*
X151072068Y-125046842D01*
X151015000Y-125333740D01*
X151015000Y-125626260D01*
X151072068Y-125913158D01*
X151184010Y-126183411D01*
X151346525Y-126426632D01*
X151553368Y-126633475D01*
X151796589Y-126795990D01*
X152066842Y-126907932D01*
X152353740Y-126965000D01*
X152646260Y-126965000D01*
X152933158Y-126907932D01*
X153203411Y-126795990D01*
X153446632Y-126633475D01*
X153653475Y-126426632D01*
X153815990Y-126183411D01*
X153927932Y-125913158D01*
X153985000Y-125626260D01*
X153985000Y-125333740D01*
X153927932Y-125046842D01*
X153815990Y-124776589D01*
X153653475Y-124533368D01*
X153446632Y-124326525D01*
X153272240Y-124210000D01*
X153446632Y-124093475D01*
X153653475Y-123886632D01*
X153815990Y-123643411D01*
X153927932Y-123373158D01*
X153985000Y-123086260D01*
X153985000Y-122793740D01*
X153927932Y-122506842D01*
X153815990Y-122236589D01*
X153653475Y-121993368D01*
X153446632Y-121786525D01*
X153272240Y-121670000D01*
X153446632Y-121553475D01*
X153653475Y-121346632D01*
X153815990Y-121103411D01*
X153927932Y-120833158D01*
X153985000Y-120546260D01*
X153985000Y-120253740D01*
X153927932Y-119966842D01*
X153815990Y-119696589D01*
X153653475Y-119453368D01*
X153446632Y-119246525D01*
X153272240Y-119130000D01*
X153446632Y-119013475D01*
X153653475Y-118806632D01*
X153815990Y-118563411D01*
X153927932Y-118293158D01*
X153985000Y-118006260D01*
X153985000Y-117713740D01*
X153927932Y-117426842D01*
X153815990Y-117156589D01*
X153653475Y-116913368D01*
X153446632Y-116706525D01*
X153272240Y-116590000D01*
X153446632Y-116473475D01*
X153653475Y-116266632D01*
X153815990Y-116023411D01*
X153927932Y-115753158D01*
X153985000Y-115466260D01*
X153985000Y-115173740D01*
X153927932Y-114886842D01*
X153815990Y-114616589D01*
X153653475Y-114373368D01*
X153446632Y-114166525D01*
X153272240Y-114050000D01*
X153446632Y-113933475D01*
X153653475Y-113726632D01*
X153815990Y-113483411D01*
X153927932Y-113213158D01*
X153985000Y-112926260D01*
X153985000Y-112633740D01*
X153927932Y-112346842D01*
X153815990Y-112076589D01*
X153653475Y-111833368D01*
X153446632Y-111626525D01*
X153272240Y-111510000D01*
X153446632Y-111393475D01*
X153653475Y-111186632D01*
X153815990Y-110943411D01*
X153927932Y-110673158D01*
X153985000Y-110386260D01*
X153985000Y-110093740D01*
X153927932Y-109806842D01*
X153815990Y-109536589D01*
X153653475Y-109293368D01*
X153446632Y-109086525D01*
X153272240Y-108970000D01*
X153446632Y-108853475D01*
X153653475Y-108646632D01*
X153815990Y-108403411D01*
X153927932Y-108133158D01*
X153985000Y-107846260D01*
X153985000Y-107553740D01*
X153927932Y-107266842D01*
X153815990Y-106996589D01*
X153653475Y-106753368D01*
X153446632Y-106546525D01*
X153272240Y-106430000D01*
X153446632Y-106313475D01*
X153653475Y-106106632D01*
X153815990Y-105863411D01*
X153927932Y-105593158D01*
X153985000Y-105306260D01*
X153985000Y-105013740D01*
X153927932Y-104726842D01*
X153815990Y-104456589D01*
X153653475Y-104213368D01*
X153446632Y-104006525D01*
X153272240Y-103890000D01*
X153446632Y-103773475D01*
X153653475Y-103566632D01*
X153815990Y-103323411D01*
X153927932Y-103053158D01*
X153985000Y-102766260D01*
X153985000Y-102473740D01*
X153927932Y-102186842D01*
X153815990Y-101916589D01*
X153653475Y-101673368D01*
X153446632Y-101466525D01*
X153272240Y-101350000D01*
X153446632Y-101233475D01*
X153653475Y-101026632D01*
X153815990Y-100783411D01*
X153910386Y-100555518D01*
X154865000Y-101510132D01*
X154865001Y-106520598D01*
X154859509Y-106576359D01*
X154881423Y-106798857D01*
X154946324Y-107012805D01*
X154993483Y-107101033D01*
X155051717Y-107209982D01*
X155193552Y-107382808D01*
X155236860Y-107418350D01*
X158201650Y-110383141D01*
X158237192Y-110426449D01*
X158410018Y-110568284D01*
X158607194Y-110673676D01*
X158821142Y-110738577D01*
X158987889Y-110755000D01*
X158987898Y-110755000D01*
X159043640Y-110760490D01*
X159099382Y-110755000D01*
X160005752Y-110755000D01*
X160172499Y-110738577D01*
X160283187Y-110705000D01*
X160553294Y-110705000D01*
X160712697Y-110689300D01*
X160917220Y-110627259D01*
X161105710Y-110526509D01*
X161270922Y-110390922D01*
X161406509Y-110225710D01*
X161507259Y-110037220D01*
X161569300Y-109832697D01*
X161590249Y-109620000D01*
X161569300Y-109407303D01*
X161507259Y-109202780D01*
X161406509Y-109014290D01*
X161382471Y-108985000D01*
X161406509Y-108955710D01*
X161507259Y-108767220D01*
X161569300Y-108562697D01*
X161590249Y-108350000D01*
X161569300Y-108137303D01*
X161507259Y-107932780D01*
X161406509Y-107744290D01*
X161382471Y-107715000D01*
X161406509Y-107685710D01*
X161507259Y-107497220D01*
X161569300Y-107292697D01*
X161590249Y-107080000D01*
X161569300Y-106867303D01*
X161507259Y-106662780D01*
X161406509Y-106474290D01*
X161382471Y-106445000D01*
X161406509Y-106415710D01*
X161507259Y-106227220D01*
X161569300Y-106022697D01*
X161585891Y-105854246D01*
X162490001Y-106758356D01*
X162490000Y-126860604D01*
X162385363Y-126965241D01*
X162228320Y-127200273D01*
X162120147Y-127461426D01*
X162065000Y-127738665D01*
X162065000Y-128021335D01*
X162120147Y-128298574D01*
X162228320Y-128559727D01*
X162385363Y-128794759D01*
X162585241Y-128994637D01*
X162820273Y-129151680D01*
X163081426Y-129259853D01*
X163358665Y-129315000D01*
X163641335Y-129315000D01*
X163918574Y-129259853D01*
X164179727Y-129151680D01*
X164414759Y-128994637D01*
X164614637Y-128794759D01*
X164771680Y-128559727D01*
X164879853Y-128298574D01*
X164935000Y-128021335D01*
X164935000Y-127738665D01*
X164879853Y-127461426D01*
X164771680Y-127200273D01*
X164614637Y-126965241D01*
X164510000Y-126860604D01*
X164510000Y-107434840D01*
X167490001Y-110414841D01*
X167490000Y-126860604D01*
X167385363Y-126965241D01*
X167228320Y-127200273D01*
X167120147Y-127461426D01*
X167065000Y-127738665D01*
X167065000Y-128021335D01*
X167120147Y-128298574D01*
X167228320Y-128559727D01*
X167385363Y-128794759D01*
X167585241Y-128994637D01*
X167820273Y-129151680D01*
X168081426Y-129259853D01*
X168358665Y-129315000D01*
X168641335Y-129315000D01*
X168918574Y-129259853D01*
X169179727Y-129151680D01*
X169414759Y-128994637D01*
X169614637Y-128794759D01*
X169771680Y-128559727D01*
X169879853Y-128298574D01*
X169935000Y-128021335D01*
X169935000Y-127738665D01*
X172065000Y-127738665D01*
X172065000Y-128021335D01*
X172120147Y-128298574D01*
X172228320Y-128559727D01*
X172385363Y-128794759D01*
X172585241Y-128994637D01*
X172820273Y-129151680D01*
X173081426Y-129259853D01*
X173358665Y-129315000D01*
X173641335Y-129315000D01*
X173918574Y-129259853D01*
X174179727Y-129151680D01*
X174414759Y-128994637D01*
X174614637Y-128794759D01*
X174771680Y-128559727D01*
X174879853Y-128298574D01*
X174935000Y-128021335D01*
X174935000Y-127738665D01*
X174879853Y-127461426D01*
X174771680Y-127200273D01*
X174614637Y-126965241D01*
X174414759Y-126765363D01*
X174179727Y-126608320D01*
X173918574Y-126500147D01*
X173641335Y-126445000D01*
X173358665Y-126445000D01*
X173081426Y-126500147D01*
X172820273Y-126608320D01*
X172585241Y-126765363D01*
X172385363Y-126965241D01*
X172228320Y-127200273D01*
X172120147Y-127461426D01*
X172065000Y-127738665D01*
X169935000Y-127738665D01*
X169879853Y-127461426D01*
X169771680Y-127200273D01*
X169614637Y-126965241D01*
X169510000Y-126860604D01*
X169510000Y-123478665D01*
X172065000Y-123478665D01*
X172065000Y-123761335D01*
X172120147Y-124038574D01*
X172228320Y-124299727D01*
X172385363Y-124534759D01*
X172585241Y-124734637D01*
X172820273Y-124891680D01*
X173081426Y-124999853D01*
X173358665Y-125055000D01*
X173641335Y-125055000D01*
X173918574Y-124999853D01*
X174179727Y-124891680D01*
X174414759Y-124734637D01*
X174614637Y-124534759D01*
X174771680Y-124299727D01*
X174879853Y-124038574D01*
X174935000Y-123761335D01*
X174935000Y-123478665D01*
X174879853Y-123201426D01*
X174771680Y-122940273D01*
X174614637Y-122705241D01*
X174414759Y-122505363D01*
X174179727Y-122348320D01*
X173918574Y-122240147D01*
X173641335Y-122185000D01*
X173358665Y-122185000D01*
X173081426Y-122240147D01*
X172820273Y-122348320D01*
X172585241Y-122505363D01*
X172385363Y-122705241D01*
X172228320Y-122940273D01*
X172120147Y-123201426D01*
X172065000Y-123478665D01*
X169510000Y-123478665D01*
X169510000Y-115858665D01*
X172065000Y-115858665D01*
X172065000Y-116141335D01*
X172120147Y-116418574D01*
X172228320Y-116679727D01*
X172385363Y-116914759D01*
X172585241Y-117114637D01*
X172820273Y-117271680D01*
X173081426Y-117379853D01*
X173358665Y-117435000D01*
X173506645Y-117435000D01*
X175995000Y-119923355D01*
X175994999Y-126335391D01*
X175990113Y-126384999D01*
X175994999Y-126434606D01*
X176009614Y-126582992D01*
X176067367Y-126773378D01*
X176161152Y-126948839D01*
X176287366Y-127102632D01*
X176325905Y-127134260D01*
X177065000Y-127873356D01*
X177065000Y-128021335D01*
X177120147Y-128298574D01*
X177228320Y-128559727D01*
X177385363Y-128794759D01*
X177585241Y-128994637D01*
X177820273Y-129151680D01*
X178081426Y-129259853D01*
X178358665Y-129315000D01*
X178641335Y-129315000D01*
X178918574Y-129259853D01*
X179179727Y-129151680D01*
X179414759Y-128994637D01*
X179614637Y-128794759D01*
X179771680Y-128559727D01*
X179879853Y-128298574D01*
X179935000Y-128021335D01*
X179935000Y-127738665D01*
X179879853Y-127461426D01*
X179771680Y-127200273D01*
X179614637Y-126965241D01*
X179414759Y-126765363D01*
X179179727Y-126608320D01*
X178918574Y-126500147D01*
X178641335Y-126445000D01*
X178493356Y-126445000D01*
X178014999Y-125966644D01*
X178014999Y-125010509D01*
X178238665Y-125055000D01*
X178521335Y-125055000D01*
X178798574Y-124999853D01*
X179059727Y-124891680D01*
X179294759Y-124734637D01*
X179494637Y-124534759D01*
X179651680Y-124299727D01*
X179738551Y-124090000D01*
X185011928Y-124090000D01*
X185011928Y-125790000D01*
X185024188Y-125914482D01*
X185060498Y-126034180D01*
X185119463Y-126144494D01*
X185198815Y-126241185D01*
X185295506Y-126320537D01*
X185405820Y-126379502D01*
X185525518Y-126415812D01*
X185650000Y-126428072D01*
X187350000Y-126428072D01*
X187474482Y-126415812D01*
X187594180Y-126379502D01*
X187704494Y-126320537D01*
X187801185Y-126241185D01*
X187880537Y-126144494D01*
X187939502Y-126034180D01*
X187975812Y-125914482D01*
X187988072Y-125790000D01*
X187988072Y-124090000D01*
X187975812Y-123965518D01*
X187939502Y-123845820D01*
X187880537Y-123735506D01*
X187801185Y-123638815D01*
X187704494Y-123559463D01*
X187594180Y-123500498D01*
X187521620Y-123478487D01*
X187653475Y-123346632D01*
X187815990Y-123103411D01*
X187927932Y-122833158D01*
X187985000Y-122546260D01*
X187985000Y-122253740D01*
X187927932Y-121966842D01*
X187815990Y-121696589D01*
X187653475Y-121453368D01*
X187446632Y-121246525D01*
X187272240Y-121130000D01*
X187446632Y-121013475D01*
X187653475Y-120806632D01*
X187815990Y-120563411D01*
X187927932Y-120293158D01*
X187985000Y-120006260D01*
X187985000Y-119713740D01*
X187927932Y-119426842D01*
X187815990Y-119156589D01*
X187653475Y-118913368D01*
X187446632Y-118706525D01*
X187272240Y-118590000D01*
X187446632Y-118473475D01*
X187653475Y-118266632D01*
X187815990Y-118023411D01*
X187927932Y-117753158D01*
X187985000Y-117466260D01*
X187985000Y-117173740D01*
X187927932Y-116886842D01*
X187815990Y-116616589D01*
X187653475Y-116373368D01*
X187446632Y-116166525D01*
X187272240Y-116050000D01*
X187446632Y-115933475D01*
X187653475Y-115726632D01*
X187815990Y-115483411D01*
X187927932Y-115213158D01*
X187985000Y-114926260D01*
X187985000Y-114633740D01*
X187927932Y-114346842D01*
X187815990Y-114076589D01*
X187653475Y-113833368D01*
X187446632Y-113626525D01*
X187272240Y-113510000D01*
X187446632Y-113393475D01*
X187653475Y-113186632D01*
X187815990Y-112943411D01*
X187927932Y-112673158D01*
X187985000Y-112386260D01*
X187985000Y-112093740D01*
X187927932Y-111806842D01*
X187815990Y-111536589D01*
X187653475Y-111293368D01*
X187446632Y-111086525D01*
X187272240Y-110970000D01*
X187446632Y-110853475D01*
X187653475Y-110646632D01*
X187815990Y-110403411D01*
X187927932Y-110133158D01*
X187985000Y-109846260D01*
X187985000Y-109553740D01*
X187927932Y-109266842D01*
X187815990Y-108996589D01*
X187653475Y-108753368D01*
X187446632Y-108546525D01*
X187272240Y-108430000D01*
X187446632Y-108313475D01*
X187653475Y-108106632D01*
X187815990Y-107863411D01*
X187927932Y-107593158D01*
X187985000Y-107306260D01*
X187985000Y-107013740D01*
X187927932Y-106726842D01*
X187815990Y-106456589D01*
X187653475Y-106213368D01*
X187446632Y-106006525D01*
X187272240Y-105890000D01*
X187446632Y-105773475D01*
X187653475Y-105566632D01*
X187815990Y-105323411D01*
X187927932Y-105053158D01*
X187985000Y-104766260D01*
X187985000Y-104473740D01*
X187927932Y-104186842D01*
X187815990Y-103916589D01*
X187653475Y-103673368D01*
X187446632Y-103466525D01*
X187272240Y-103350000D01*
X187446632Y-103233475D01*
X187653475Y-103026632D01*
X187815990Y-102783411D01*
X187927932Y-102513158D01*
X187985000Y-102226260D01*
X187985000Y-101933740D01*
X187927932Y-101646842D01*
X187815990Y-101376589D01*
X187653475Y-101133368D01*
X187446632Y-100926525D01*
X187272240Y-100810000D01*
X187446632Y-100693475D01*
X187653475Y-100486632D01*
X187815990Y-100243411D01*
X187927932Y-99973158D01*
X187985000Y-99686260D01*
X187985000Y-99393740D01*
X187927932Y-99106842D01*
X187815990Y-98836589D01*
X187653475Y-98593368D01*
X187446632Y-98386525D01*
X187272240Y-98270000D01*
X187446632Y-98153475D01*
X187653475Y-97946632D01*
X187815990Y-97703411D01*
X187927932Y-97433158D01*
X187985000Y-97146260D01*
X187985000Y-96853740D01*
X187970307Y-96779872D01*
X190765000Y-96779872D01*
X190765000Y-97220128D01*
X190850890Y-97651925D01*
X191019369Y-98058669D01*
X191263962Y-98424729D01*
X191575271Y-98736038D01*
X191941331Y-98980631D01*
X192348075Y-99149110D01*
X192779872Y-99235000D01*
X193220128Y-99235000D01*
X193651925Y-99149110D01*
X194058669Y-98980631D01*
X194424729Y-98736038D01*
X194736038Y-98424729D01*
X194980631Y-98058669D01*
X195149110Y-97651925D01*
X195235000Y-97220128D01*
X195235000Y-96779872D01*
X195149110Y-96348075D01*
X194980631Y-95941331D01*
X194736038Y-95575271D01*
X194424729Y-95263962D01*
X194058669Y-95019369D01*
X193651925Y-94850890D01*
X193220128Y-94765000D01*
X192779872Y-94765000D01*
X192348075Y-94850890D01*
X191941331Y-95019369D01*
X191575271Y-95263962D01*
X191263962Y-95575271D01*
X191019369Y-95941331D01*
X190850890Y-96348075D01*
X190765000Y-96779872D01*
X187970307Y-96779872D01*
X187927932Y-96566842D01*
X187815990Y-96296589D01*
X187653475Y-96053368D01*
X187446632Y-95846525D01*
X187264466Y-95724805D01*
X187381355Y-95655178D01*
X187597588Y-95460269D01*
X187771641Y-95226920D01*
X187896825Y-94964099D01*
X187941476Y-94816890D01*
X187820155Y-94587000D01*
X186627000Y-94587000D01*
X186627000Y-94607000D01*
X186373000Y-94607000D01*
X186373000Y-94587000D01*
X185179845Y-94587000D01*
X185058524Y-94816890D01*
X185103175Y-94964099D01*
X185228359Y-95226920D01*
X185402412Y-95460269D01*
X185618645Y-95655178D01*
X185735534Y-95724805D01*
X185553368Y-95846525D01*
X185346525Y-96053368D01*
X185184010Y-96296589D01*
X185072068Y-96566842D01*
X185015000Y-96853740D01*
X185015000Y-97146260D01*
X185072068Y-97433158D01*
X185184010Y-97703411D01*
X185346525Y-97946632D01*
X185553368Y-98153475D01*
X185727760Y-98270000D01*
X185553368Y-98386525D01*
X185346525Y-98593368D01*
X185184010Y-98836589D01*
X185072068Y-99106842D01*
X185015000Y-99393740D01*
X185015000Y-99686260D01*
X185072068Y-99973158D01*
X185184010Y-100243411D01*
X185346525Y-100486632D01*
X185553368Y-100693475D01*
X185727760Y-100810000D01*
X185553368Y-100926525D01*
X185346525Y-101133368D01*
X185184010Y-101376589D01*
X185072068Y-101646842D01*
X185015000Y-101933740D01*
X185015000Y-102226260D01*
X185072068Y-102513158D01*
X185184010Y-102783411D01*
X185346525Y-103026632D01*
X185553368Y-103233475D01*
X185727760Y-103350000D01*
X185553368Y-103466525D01*
X185346525Y-103673368D01*
X185184010Y-103916589D01*
X185072068Y-104186842D01*
X185015000Y-104473740D01*
X185015000Y-104766260D01*
X185072068Y-105053158D01*
X185184010Y-105323411D01*
X185346525Y-105566632D01*
X185553368Y-105773475D01*
X185727760Y-105890000D01*
X185553368Y-106006525D01*
X185346525Y-106213368D01*
X185184010Y-106456589D01*
X185072068Y-106726842D01*
X185015000Y-107013740D01*
X185015000Y-107306260D01*
X185072068Y-107593158D01*
X185184010Y-107863411D01*
X185346525Y-108106632D01*
X185553368Y-108313475D01*
X185727760Y-108430000D01*
X185553368Y-108546525D01*
X185346525Y-108753368D01*
X185184010Y-108996589D01*
X185072068Y-109266842D01*
X185015000Y-109553740D01*
X185015000Y-109846260D01*
X185072068Y-110133158D01*
X185184010Y-110403411D01*
X185346525Y-110646632D01*
X185553368Y-110853475D01*
X185727760Y-110970000D01*
X185553368Y-111086525D01*
X185346525Y-111293368D01*
X185184010Y-111536589D01*
X185072068Y-111806842D01*
X185015000Y-112093740D01*
X185015000Y-112386260D01*
X185072068Y-112673158D01*
X185184010Y-112943411D01*
X185346525Y-113186632D01*
X185553368Y-113393475D01*
X185727760Y-113510000D01*
X185553368Y-113626525D01*
X185346525Y-113833368D01*
X185184010Y-114076589D01*
X185072068Y-114346842D01*
X185015000Y-114633740D01*
X185015000Y-114926260D01*
X185072068Y-115213158D01*
X185184010Y-115483411D01*
X185346525Y-115726632D01*
X185553368Y-115933475D01*
X185727760Y-116050000D01*
X185553368Y-116166525D01*
X185346525Y-116373368D01*
X185184010Y-116616589D01*
X185072068Y-116886842D01*
X185015000Y-117173740D01*
X185015000Y-117466260D01*
X185072068Y-117753158D01*
X185184010Y-118023411D01*
X185346525Y-118266632D01*
X185553368Y-118473475D01*
X185727760Y-118590000D01*
X185553368Y-118706525D01*
X185346525Y-118913368D01*
X185184010Y-119156589D01*
X185072068Y-119426842D01*
X185015000Y-119713740D01*
X185015000Y-120006260D01*
X185072068Y-120293158D01*
X185184010Y-120563411D01*
X185346525Y-120806632D01*
X185553368Y-121013475D01*
X185727760Y-121130000D01*
X185553368Y-121246525D01*
X185346525Y-121453368D01*
X185184010Y-121696589D01*
X185072068Y-121966842D01*
X185015000Y-122253740D01*
X185015000Y-122546260D01*
X185072068Y-122833158D01*
X185184010Y-123103411D01*
X185346525Y-123346632D01*
X185478380Y-123478487D01*
X185405820Y-123500498D01*
X185295506Y-123559463D01*
X185198815Y-123638815D01*
X185119463Y-123735506D01*
X185060498Y-123845820D01*
X185024188Y-123965518D01*
X185011928Y-124090000D01*
X179738551Y-124090000D01*
X179759853Y-124038574D01*
X179815000Y-123761335D01*
X179815000Y-123478665D01*
X179759853Y-123201426D01*
X179651680Y-122940273D01*
X179494637Y-122705241D01*
X179294759Y-122505363D01*
X179059727Y-122348320D01*
X178798574Y-122240147D01*
X178521335Y-122185000D01*
X178238665Y-122185000D01*
X178014999Y-122229491D01*
X178014999Y-119554603D01*
X178019885Y-119504998D01*
X178012187Y-119426842D01*
X178000384Y-119307005D01*
X177942631Y-119116619D01*
X177848846Y-118941159D01*
X177722632Y-118787366D01*
X177684093Y-118755738D01*
X174935000Y-116006645D01*
X174935000Y-115858665D01*
X174879853Y-115581426D01*
X174771680Y-115320273D01*
X174614637Y-115085241D01*
X174510000Y-114980604D01*
X174510000Y-101138355D01*
X177414109Y-98234247D01*
X177430700Y-98402697D01*
X177492741Y-98607220D01*
X177593491Y-98795710D01*
X177617529Y-98825000D01*
X177593491Y-98854290D01*
X177492741Y-99042780D01*
X177430700Y-99247303D01*
X177409751Y-99460000D01*
X177430700Y-99672697D01*
X177492741Y-99877220D01*
X177593491Y-100065710D01*
X177617529Y-100095000D01*
X177593491Y-100124290D01*
X177492741Y-100312780D01*
X177430700Y-100517303D01*
X177409751Y-100730000D01*
X177430700Y-100942697D01*
X177492741Y-101147220D01*
X177593491Y-101335710D01*
X177617529Y-101365000D01*
X177593491Y-101394290D01*
X177492741Y-101582780D01*
X177430700Y-101787303D01*
X177409751Y-102000000D01*
X177430700Y-102212697D01*
X177492741Y-102417220D01*
X177593491Y-102605710D01*
X177617529Y-102635000D01*
X177593491Y-102664290D01*
X177492741Y-102852780D01*
X177430700Y-103057303D01*
X177409751Y-103270000D01*
X177430700Y-103482697D01*
X177492741Y-103687220D01*
X177593491Y-103875710D01*
X177617529Y-103905000D01*
X177593491Y-103934290D01*
X177492741Y-104122780D01*
X177430700Y-104327303D01*
X177409751Y-104540000D01*
X177430700Y-104752697D01*
X177492741Y-104957220D01*
X177593491Y-105145710D01*
X177617529Y-105175000D01*
X177593491Y-105204290D01*
X177492741Y-105392780D01*
X177430700Y-105597303D01*
X177409751Y-105810000D01*
X177430700Y-106022697D01*
X177476017Y-106172088D01*
X177356160Y-106236153D01*
X177202367Y-106362367D01*
X177170735Y-106400911D01*
X176795892Y-106775753D01*
X176757358Y-106807377D01*
X176725735Y-106845910D01*
X176725734Y-106845911D01*
X176631144Y-106961170D01*
X176537358Y-107136631D01*
X176479605Y-107327016D01*
X176460104Y-107525010D01*
X176464991Y-107574628D01*
X176464990Y-115045382D01*
X176460104Y-115094990D01*
X176479605Y-115292984D01*
X176492188Y-115334463D01*
X176537358Y-115483369D01*
X176631143Y-115658830D01*
X176757357Y-115812623D01*
X176795896Y-115844251D01*
X176945000Y-115993355D01*
X176945000Y-116141335D01*
X177000147Y-116418574D01*
X177108320Y-116679727D01*
X177265363Y-116914759D01*
X177465241Y-117114637D01*
X177700273Y-117271680D01*
X177961426Y-117379853D01*
X178238665Y-117435000D01*
X178521335Y-117435000D01*
X178798574Y-117379853D01*
X179059727Y-117271680D01*
X179294759Y-117114637D01*
X179494637Y-116914759D01*
X179651680Y-116679727D01*
X179759853Y-116418574D01*
X179815000Y-116141335D01*
X179815000Y-115858665D01*
X179759853Y-115581426D01*
X179651680Y-115320273D01*
X179494637Y-115085241D01*
X179294759Y-114885363D01*
X179059727Y-114728320D01*
X178798574Y-114620147D01*
X178521335Y-114565000D01*
X178484990Y-114565000D01*
X178484990Y-110705000D01*
X179653294Y-110705000D01*
X179812697Y-110689300D01*
X180017220Y-110627259D01*
X180205710Y-110526509D01*
X180370922Y-110390922D01*
X180506509Y-110225710D01*
X180607259Y-110037220D01*
X180669300Y-109832697D01*
X180690249Y-109620000D01*
X180669300Y-109407303D01*
X180607259Y-109202780D01*
X180506509Y-109014290D01*
X180482471Y-108985000D01*
X180506509Y-108955710D01*
X180607259Y-108767220D01*
X180669300Y-108562697D01*
X180690249Y-108350000D01*
X180669300Y-108137303D01*
X180607259Y-107932780D01*
X180506509Y-107744290D01*
X180482471Y-107715000D01*
X180506509Y-107685710D01*
X180607259Y-107497220D01*
X180669300Y-107292697D01*
X180690249Y-107080000D01*
X180669300Y-106867303D01*
X180607259Y-106662780D01*
X180506509Y-106474290D01*
X180482471Y-106445000D01*
X180506509Y-106415710D01*
X180607259Y-106227220D01*
X180669300Y-106022697D01*
X180690249Y-105810000D01*
X180669300Y-105597303D01*
X180607259Y-105392780D01*
X180506509Y-105204290D01*
X180482471Y-105175000D01*
X180506509Y-105145710D01*
X180607259Y-104957220D01*
X180669300Y-104752697D01*
X180690249Y-104540000D01*
X180669300Y-104327303D01*
X180607259Y-104122780D01*
X180506509Y-103934290D01*
X180482471Y-103905000D01*
X180506509Y-103875710D01*
X180607259Y-103687220D01*
X180669300Y-103482697D01*
X180690249Y-103270000D01*
X180669300Y-103057303D01*
X180607259Y-102852780D01*
X180506509Y-102664290D01*
X180482471Y-102635000D01*
X180506509Y-102605710D01*
X180607259Y-102417220D01*
X180669300Y-102212697D01*
X180690249Y-102000000D01*
X180669300Y-101787303D01*
X180607259Y-101582780D01*
X180506509Y-101394290D01*
X180482471Y-101365000D01*
X180506509Y-101335710D01*
X180607259Y-101147220D01*
X180669300Y-100942697D01*
X180690249Y-100730000D01*
X180669300Y-100517303D01*
X180607259Y-100312780D01*
X180506509Y-100124290D01*
X180482471Y-100095000D01*
X180506509Y-100065710D01*
X180607259Y-99877220D01*
X180669300Y-99672697D01*
X180690249Y-99460000D01*
X180669300Y-99247303D01*
X180607259Y-99042780D01*
X180506509Y-98854290D01*
X180482471Y-98825000D01*
X180506509Y-98795710D01*
X180607259Y-98607220D01*
X180669300Y-98402697D01*
X180690249Y-98190000D01*
X180669300Y-97977303D01*
X180607259Y-97772780D01*
X180506509Y-97584290D01*
X180482471Y-97555000D01*
X180506509Y-97525710D01*
X180607259Y-97337220D01*
X180669300Y-97132697D01*
X180690249Y-96920000D01*
X180669300Y-96707303D01*
X180607259Y-96502780D01*
X180506509Y-96314290D01*
X180482471Y-96285000D01*
X180506509Y-96255710D01*
X180607259Y-96067220D01*
X180669300Y-95862697D01*
X180690249Y-95650000D01*
X180669300Y-95437303D01*
X180607259Y-95232780D01*
X180506509Y-95044290D01*
X180483463Y-95016208D01*
X180572702Y-94877197D01*
X180644408Y-94674001D01*
X180517502Y-94507000D01*
X179177000Y-94507000D01*
X179177000Y-94527000D01*
X178923000Y-94527000D01*
X178923000Y-94507000D01*
X177582498Y-94507000D01*
X177455592Y-94674001D01*
X177527298Y-94877197D01*
X177616537Y-95016208D01*
X177593491Y-95044290D01*
X177492741Y-95232780D01*
X177430700Y-95437303D01*
X177409751Y-95650000D01*
X177430700Y-95862697D01*
X177445049Y-95910000D01*
X177349608Y-95910000D01*
X177300000Y-95905114D01*
X177102005Y-95924615D01*
X176980739Y-95961401D01*
X176911620Y-95982368D01*
X176736160Y-96076153D01*
X176582367Y-96202367D01*
X176550744Y-96240900D01*
X172820901Y-99970744D01*
X172782368Y-100002367D01*
X172750745Y-100040900D01*
X172750744Y-100040901D01*
X172656154Y-100156160D01*
X172562368Y-100331621D01*
X172504615Y-100522006D01*
X172485114Y-100720000D01*
X172490001Y-100769618D01*
X172490000Y-114980604D01*
X172385363Y-115085241D01*
X172228320Y-115320273D01*
X172120147Y-115581426D01*
X172065000Y-115858665D01*
X169510000Y-115858665D01*
X169510000Y-110046092D01*
X169514886Y-109996484D01*
X169495385Y-109798489D01*
X169437632Y-109608104D01*
X169402617Y-109542595D01*
X169343847Y-109432644D01*
X169217633Y-109278851D01*
X169179100Y-109247228D01*
X162522777Y-102590906D01*
X162491149Y-102552367D01*
X162337356Y-102426153D01*
X162161896Y-102332368D01*
X161971510Y-102274615D01*
X161823124Y-102260000D01*
X161773516Y-102255114D01*
X161723908Y-102260000D01*
X161554951Y-102260000D01*
X161569300Y-102212697D01*
X161590249Y-102000000D01*
X161569300Y-101787303D01*
X161507259Y-101582780D01*
X161406509Y-101394290D01*
X161382471Y-101365000D01*
X161406509Y-101335710D01*
X161507259Y-101147220D01*
X161569300Y-100942697D01*
X161590249Y-100730000D01*
X161569300Y-100517303D01*
X161507259Y-100312780D01*
X161406509Y-100124290D01*
X161382471Y-100095000D01*
X161406509Y-100065710D01*
X161507259Y-99877220D01*
X161569300Y-99672697D01*
X161590249Y-99460000D01*
X161569300Y-99247303D01*
X161507259Y-99042780D01*
X161406509Y-98854290D01*
X161382471Y-98825000D01*
X161406509Y-98795710D01*
X161507259Y-98607220D01*
X161569300Y-98402697D01*
X161590249Y-98190000D01*
X161569300Y-97977303D01*
X161507259Y-97772780D01*
X161406509Y-97584290D01*
X161382471Y-97555000D01*
X161406509Y-97525710D01*
X161507259Y-97337220D01*
X161569300Y-97132697D01*
X161590249Y-96920000D01*
X161569300Y-96707303D01*
X161507259Y-96502780D01*
X161406509Y-96314290D01*
X161382471Y-96285000D01*
X161406509Y-96255710D01*
X161507259Y-96067220D01*
X161569300Y-95862697D01*
X161590249Y-95650000D01*
X161569300Y-95437303D01*
X161507259Y-95232780D01*
X161406509Y-95044290D01*
X161383463Y-95016208D01*
X161472702Y-94877197D01*
X161544408Y-94674001D01*
X161417502Y-94507000D01*
X160077000Y-94507000D01*
X160077000Y-94527000D01*
X159823000Y-94527000D01*
X159823000Y-94507000D01*
X158482498Y-94507000D01*
X158355592Y-94674001D01*
X158427298Y-94877197D01*
X158516537Y-95016208D01*
X158493491Y-95044290D01*
X158392741Y-95232780D01*
X158330700Y-95437303D01*
X158309751Y-95650000D01*
X158330700Y-95862697D01*
X158392741Y-96067220D01*
X158493491Y-96255710D01*
X158517529Y-96285000D01*
X158493491Y-96314290D01*
X158392741Y-96502780D01*
X158330700Y-96707303D01*
X158309751Y-96920000D01*
X158330700Y-97132697D01*
X158392741Y-97337220D01*
X158493491Y-97525710D01*
X158517529Y-97555000D01*
X158493491Y-97584290D01*
X158392741Y-97772780D01*
X158330700Y-97977303D01*
X158309751Y-98190000D01*
X158330700Y-98402697D01*
X158392741Y-98607220D01*
X158493491Y-98795710D01*
X158517529Y-98825000D01*
X158493491Y-98854290D01*
X158392741Y-99042780D01*
X158330700Y-99247303D01*
X158309751Y-99460000D01*
X158330700Y-99672697D01*
X158392741Y-99877220D01*
X158493491Y-100065710D01*
X158517529Y-100095000D01*
X158493491Y-100124290D01*
X158392741Y-100312780D01*
X158330700Y-100517303D01*
X158309751Y-100730000D01*
X158330700Y-100942697D01*
X158392741Y-101147220D01*
X158493491Y-101335710D01*
X158517529Y-101365000D01*
X158493491Y-101394290D01*
X158392741Y-101582780D01*
X158330700Y-101787303D01*
X158309751Y-102000000D01*
X158330700Y-102212697D01*
X158392741Y-102417220D01*
X158493491Y-102605710D01*
X158517529Y-102635000D01*
X158493491Y-102664290D01*
X158392741Y-102852780D01*
X158330700Y-103057303D01*
X158309751Y-103270000D01*
X158330700Y-103482697D01*
X158392741Y-103687220D01*
X158493491Y-103875710D01*
X158517529Y-103905000D01*
X158493491Y-103934290D01*
X158392741Y-104122780D01*
X158330700Y-104327303D01*
X158309751Y-104540000D01*
X158330700Y-104752697D01*
X158392741Y-104957220D01*
X158493491Y-105145710D01*
X158517529Y-105175000D01*
X158493491Y-105204290D01*
X158392741Y-105392780D01*
X158330700Y-105597303D01*
X158309751Y-105810000D01*
X158330700Y-106022697D01*
X158392741Y-106227220D01*
X158493491Y-106415710D01*
X158517529Y-106445000D01*
X158493491Y-106474290D01*
X158392741Y-106662780D01*
X158330700Y-106867303D01*
X158309751Y-107080000D01*
X158330700Y-107292697D01*
X158334719Y-107305947D01*
X157135000Y-106106228D01*
X157135000Y-101095741D01*
X157140490Y-101039999D01*
X157135000Y-100984257D01*
X157135000Y-100984248D01*
X157118577Y-100817501D01*
X157053676Y-100603553D01*
X156948284Y-100406377D01*
X156806449Y-100233551D01*
X156763141Y-100198009D01*
X153985000Y-97419869D01*
X153985000Y-97393740D01*
X153927932Y-97106842D01*
X153815990Y-96836589D01*
X153653475Y-96593368D01*
X153521620Y-96461513D01*
X153594180Y-96439502D01*
X153704494Y-96380537D01*
X153801185Y-96301185D01*
X153880537Y-96204494D01*
X153939502Y-96094180D01*
X153975812Y-95974482D01*
X153988072Y-95850000D01*
X153985000Y-95285750D01*
X153826250Y-95127000D01*
X152627000Y-95127000D01*
X152627000Y-95147000D01*
X152373000Y-95147000D01*
X152373000Y-95127000D01*
X151173750Y-95127000D01*
X151015000Y-95285750D01*
X151011928Y-95850000D01*
X151024188Y-95974482D01*
X151060498Y-96094180D01*
X151119463Y-96204494D01*
X151198815Y-96301185D01*
X151295506Y-96380537D01*
X151405820Y-96439502D01*
X151478380Y-96461513D01*
X151346525Y-96593368D01*
X151184010Y-96836589D01*
X151072068Y-97106842D01*
X151015000Y-97393740D01*
X151015000Y-97686260D01*
X151072068Y-97973158D01*
X151184010Y-98243411D01*
X151346525Y-98486632D01*
X151553368Y-98693475D01*
X151727760Y-98810000D01*
X151553368Y-98926525D01*
X151346525Y-99133368D01*
X151184010Y-99376589D01*
X151072068Y-99646842D01*
X151015000Y-99933740D01*
X151015000Y-100226260D01*
X151072068Y-100513158D01*
X151184010Y-100783411D01*
X151346525Y-101026632D01*
X151553368Y-101233475D01*
X151727760Y-101350000D01*
X151553368Y-101466525D01*
X151346525Y-101673368D01*
X151184010Y-101916589D01*
X151072068Y-102186842D01*
X151015000Y-102473740D01*
X151015000Y-102766260D01*
X151072068Y-103053158D01*
X151184010Y-103323411D01*
X151346525Y-103566632D01*
X151553368Y-103773475D01*
X151727760Y-103890000D01*
X151553368Y-104006525D01*
X151346525Y-104213368D01*
X151184010Y-104456589D01*
X151072068Y-104726842D01*
X151015000Y-105013740D01*
X151015000Y-105306260D01*
X151072068Y-105593158D01*
X151184010Y-105863411D01*
X151346525Y-106106632D01*
X151553368Y-106313475D01*
X151727760Y-106430000D01*
X151553368Y-106546525D01*
X151346525Y-106753368D01*
X151184010Y-106996589D01*
X151072068Y-107266842D01*
X151015000Y-107553740D01*
X151015000Y-107846260D01*
X151072068Y-108133158D01*
X151184010Y-108403411D01*
X151346525Y-108646632D01*
X151553368Y-108853475D01*
X151727760Y-108970000D01*
X151553368Y-109086525D01*
X151346525Y-109293368D01*
X151184010Y-109536589D01*
X151072068Y-109806842D01*
X151015000Y-110093740D01*
X151015000Y-110386260D01*
X151072068Y-110673158D01*
X151184010Y-110943411D01*
X151346525Y-111186632D01*
X151553368Y-111393475D01*
X151727760Y-111510000D01*
X151553368Y-111626525D01*
X151346525Y-111833368D01*
X151184010Y-112076589D01*
X151072068Y-112346842D01*
X151015000Y-112633740D01*
X151015000Y-112659868D01*
X146809869Y-116865000D01*
X143944248Y-116865000D01*
X143777501Y-116881423D01*
X143563553Y-116946324D01*
X143466044Y-116998443D01*
X143427932Y-116806842D01*
X143315990Y-116536589D01*
X143153475Y-116293368D01*
X142946632Y-116086525D01*
X142772240Y-115970000D01*
X142946632Y-115853475D01*
X143153475Y-115646632D01*
X143315990Y-115403411D01*
X143427932Y-115133158D01*
X143485000Y-114846260D01*
X143485000Y-114553740D01*
X143427932Y-114266842D01*
X143315990Y-113996589D01*
X143153475Y-113753368D01*
X142946632Y-113546525D01*
X142772240Y-113430000D01*
X142946632Y-113313475D01*
X143153475Y-113106632D01*
X143315990Y-112863411D01*
X143427932Y-112593158D01*
X143485000Y-112306260D01*
X143485000Y-112013740D01*
X143427932Y-111726842D01*
X143315990Y-111456589D01*
X143153475Y-111213368D01*
X142946632Y-111006525D01*
X142764466Y-110884805D01*
X142881355Y-110815178D01*
X143097588Y-110620269D01*
X143271641Y-110386920D01*
X143396825Y-110124099D01*
X143441476Y-109976890D01*
X143320155Y-109747000D01*
X142127000Y-109747000D01*
X142127000Y-109767000D01*
X141873000Y-109767000D01*
X141873000Y-109747000D01*
X140679845Y-109747000D01*
X140558524Y-109976890D01*
X140603175Y-110124099D01*
X140728359Y-110386920D01*
X140902412Y-110620269D01*
X141118645Y-110815178D01*
X141235534Y-110884805D01*
X141053368Y-111006525D01*
X140846525Y-111213368D01*
X140684010Y-111456589D01*
X140572068Y-111726842D01*
X140515000Y-112013740D01*
X140240000Y-112013740D01*
X140240000Y-111858967D01*
X140177168Y-111543088D01*
X140053918Y-111245537D01*
X139874987Y-110977748D01*
X139647252Y-110750013D01*
X139538400Y-110677280D01*
X139560808Y-110615413D01*
X138605000Y-109659605D01*
X137649192Y-110615413D01*
X137671600Y-110677280D01*
X137562748Y-110750013D01*
X137335013Y-110977748D01*
X137156082Y-111245537D01*
X137032832Y-111543088D01*
X136970000Y-111858967D01*
X114840000Y-111858967D01*
X114777168Y-111543088D01*
X114653918Y-111245537D01*
X114474987Y-110977748D01*
X114247252Y-110750013D01*
X114247233Y-110750000D01*
X114247252Y-110749987D01*
X114474987Y-110522252D01*
X114653918Y-110254463D01*
X114777168Y-109956912D01*
X114840000Y-109641033D01*
X114840000Y-109542595D01*
X136963282Y-109542595D01*
X137007039Y-109861675D01*
X137112205Y-110166088D01*
X137205186Y-110340044D01*
X137469587Y-110435808D01*
X138425395Y-109480000D01*
X138784605Y-109480000D01*
X139740413Y-110435808D01*
X140004814Y-110340044D01*
X140145704Y-110050429D01*
X140227384Y-109738892D01*
X140246718Y-109417405D01*
X140202961Y-109098325D01*
X140097795Y-108793912D01*
X140004814Y-108619956D01*
X139740413Y-108524192D01*
X138784605Y-109480000D01*
X138425395Y-109480000D01*
X137469587Y-108524192D01*
X137205186Y-108619956D01*
X137064296Y-108909571D01*
X136982616Y-109221108D01*
X136963282Y-109542595D01*
X114840000Y-109542595D01*
X114840000Y-109318967D01*
X114777168Y-109003088D01*
X114653918Y-108705537D01*
X114474987Y-108437748D01*
X114247252Y-108210013D01*
X114247233Y-108210000D01*
X114247252Y-108209987D01*
X114474987Y-107982252D01*
X114653918Y-107714463D01*
X114777168Y-107416912D01*
X114840000Y-107101033D01*
X114840000Y-106778967D01*
X114777168Y-106463088D01*
X114653918Y-106165537D01*
X114474987Y-105897748D01*
X114247252Y-105670013D01*
X114247233Y-105670000D01*
X114247252Y-105669987D01*
X114474987Y-105442252D01*
X114653918Y-105174463D01*
X114777168Y-104876912D01*
X114840000Y-104561033D01*
X114840000Y-104238967D01*
X114777168Y-103923088D01*
X114653918Y-103625537D01*
X114474987Y-103357748D01*
X114247252Y-103130013D01*
X114247233Y-103130000D01*
X114247252Y-103129987D01*
X114474987Y-102902252D01*
X114653918Y-102634463D01*
X114777168Y-102336912D01*
X114840000Y-102021033D01*
X114840000Y-101698967D01*
X114777168Y-101383088D01*
X114653918Y-101085537D01*
X114474987Y-100817748D01*
X114247252Y-100590013D01*
X114247233Y-100590000D01*
X114247252Y-100589987D01*
X114474987Y-100362252D01*
X114653918Y-100094463D01*
X114777168Y-99796912D01*
X114840000Y-99481033D01*
X114840000Y-99158967D01*
X114777168Y-98843088D01*
X114653918Y-98545537D01*
X114474987Y-98277748D01*
X114247252Y-98050013D01*
X114247233Y-98050000D01*
X114247252Y-98049987D01*
X114474987Y-97822252D01*
X114653918Y-97554463D01*
X114777168Y-97256912D01*
X114840000Y-96941033D01*
X114840000Y-96618967D01*
X136970000Y-96618967D01*
X136970000Y-96941033D01*
X137032832Y-97256912D01*
X137156082Y-97554463D01*
X137335013Y-97822252D01*
X137562748Y-98049987D01*
X137562767Y-98050000D01*
X137562748Y-98050013D01*
X137335013Y-98277748D01*
X137156082Y-98545537D01*
X137032832Y-98843088D01*
X136970000Y-99158967D01*
X136970000Y-99481033D01*
X137032832Y-99796912D01*
X137156082Y-100094463D01*
X137335013Y-100362252D01*
X137562748Y-100589987D01*
X137562767Y-100590000D01*
X137562748Y-100590013D01*
X137335013Y-100817748D01*
X137156082Y-101085537D01*
X137032832Y-101383088D01*
X136970000Y-101698967D01*
X136970000Y-102021033D01*
X137032832Y-102336912D01*
X137156082Y-102634463D01*
X137335013Y-102902252D01*
X137562748Y-103129987D01*
X137562767Y-103130000D01*
X137562748Y-103130013D01*
X137335013Y-103357748D01*
X137156082Y-103625537D01*
X137032832Y-103923088D01*
X136970000Y-104238967D01*
X136970000Y-104561033D01*
X137032832Y-104876912D01*
X137156082Y-105174463D01*
X137335013Y-105442252D01*
X137562748Y-105669987D01*
X137562767Y-105670000D01*
X137562748Y-105670013D01*
X137335013Y-105897748D01*
X137156082Y-106165537D01*
X137032832Y-106463088D01*
X136970000Y-106778967D01*
X136970000Y-107101033D01*
X137032832Y-107416912D01*
X137156082Y-107714463D01*
X137335013Y-107982252D01*
X137562748Y-108209987D01*
X137671600Y-108282720D01*
X137649192Y-108344587D01*
X138605000Y-109300395D01*
X139560808Y-108344587D01*
X139538400Y-108282720D01*
X139647252Y-108209987D01*
X139874987Y-107982252D01*
X140053918Y-107714463D01*
X140177168Y-107416912D01*
X140240000Y-107101033D01*
X140240000Y-106778967D01*
X140177168Y-106463088D01*
X140053918Y-106165537D01*
X139874987Y-105897748D01*
X139647252Y-105670013D01*
X139647233Y-105670000D01*
X139647252Y-105669987D01*
X139874987Y-105442252D01*
X140053918Y-105174463D01*
X140177168Y-104876912D01*
X140240000Y-104561033D01*
X140240000Y-104238967D01*
X140177168Y-103923088D01*
X140053918Y-103625537D01*
X139874987Y-103357748D01*
X139647252Y-103130013D01*
X139647233Y-103130000D01*
X139647252Y-103129987D01*
X139874987Y-102902252D01*
X140053918Y-102634463D01*
X140177168Y-102336912D01*
X140240000Y-102021033D01*
X140240000Y-101698967D01*
X140177168Y-101383088D01*
X140053918Y-101085537D01*
X139874987Y-100817748D01*
X139647252Y-100590013D01*
X139647233Y-100590000D01*
X139647252Y-100589987D01*
X139874987Y-100362252D01*
X140053918Y-100094463D01*
X140177168Y-99796912D01*
X140240000Y-99481033D01*
X140240000Y-99158967D01*
X140177168Y-98843088D01*
X140053918Y-98545537D01*
X139874987Y-98277748D01*
X139647252Y-98050013D01*
X139647233Y-98050000D01*
X139647252Y-98049987D01*
X139874987Y-97822252D01*
X140053918Y-97554463D01*
X140177168Y-97256912D01*
X140240000Y-96941033D01*
X140240000Y-96618967D01*
X140177168Y-96303088D01*
X140053918Y-96005537D01*
X139874987Y-95737748D01*
X139647252Y-95510013D01*
X139538400Y-95437280D01*
X139560808Y-95375413D01*
X139415395Y-95230000D01*
X140511928Y-95230000D01*
X140524188Y-95354482D01*
X140560498Y-95474180D01*
X140619463Y-95584494D01*
X140698815Y-95681185D01*
X140795506Y-95760537D01*
X140905820Y-95819502D01*
X140978380Y-95841513D01*
X140846525Y-95973368D01*
X140684010Y-96216589D01*
X140572068Y-96486842D01*
X140515000Y-96773740D01*
X140515000Y-97066260D01*
X140572068Y-97353158D01*
X140684010Y-97623411D01*
X140846525Y-97866632D01*
X141053368Y-98073475D01*
X141227760Y-98190000D01*
X141053368Y-98306525D01*
X140846525Y-98513368D01*
X140684010Y-98756589D01*
X140572068Y-99026842D01*
X140515000Y-99313740D01*
X140515000Y-99606260D01*
X140572068Y-99893158D01*
X140684010Y-100163411D01*
X140846525Y-100406632D01*
X141053368Y-100613475D01*
X141227760Y-100730000D01*
X141053368Y-100846525D01*
X140846525Y-101053368D01*
X140684010Y-101296589D01*
X140572068Y-101566842D01*
X140515000Y-101853740D01*
X140515000Y-102146260D01*
X140572068Y-102433158D01*
X140684010Y-102703411D01*
X140846525Y-102946632D01*
X141053368Y-103153475D01*
X141227760Y-103270000D01*
X141053368Y-103386525D01*
X140846525Y-103593368D01*
X140684010Y-103836589D01*
X140572068Y-104106842D01*
X140515000Y-104393740D01*
X140515000Y-104686260D01*
X140572068Y-104973158D01*
X140684010Y-105243411D01*
X140846525Y-105486632D01*
X141053368Y-105693475D01*
X141227760Y-105810000D01*
X141053368Y-105926525D01*
X140846525Y-106133368D01*
X140684010Y-106376589D01*
X140572068Y-106646842D01*
X140515000Y-106933740D01*
X140515000Y-107226260D01*
X140572068Y-107513158D01*
X140684010Y-107783411D01*
X140846525Y-108026632D01*
X141053368Y-108233475D01*
X141235534Y-108355195D01*
X141118645Y-108424822D01*
X140902412Y-108619731D01*
X140728359Y-108853080D01*
X140603175Y-109115901D01*
X140558524Y-109263110D01*
X140679845Y-109493000D01*
X141873000Y-109493000D01*
X141873000Y-109473000D01*
X142127000Y-109473000D01*
X142127000Y-109493000D01*
X143320155Y-109493000D01*
X143441476Y-109263110D01*
X143396825Y-109115901D01*
X143271641Y-108853080D01*
X143097588Y-108619731D01*
X142881355Y-108424822D01*
X142764466Y-108355195D01*
X142946632Y-108233475D01*
X143153475Y-108026632D01*
X143315990Y-107783411D01*
X143427932Y-107513158D01*
X143485000Y-107226260D01*
X143485000Y-106933740D01*
X143427932Y-106646842D01*
X143315990Y-106376589D01*
X143153475Y-106133368D01*
X142946632Y-105926525D01*
X142772240Y-105810000D01*
X142946632Y-105693475D01*
X143153475Y-105486632D01*
X143315990Y-105243411D01*
X143427932Y-104973158D01*
X143485000Y-104686260D01*
X143485000Y-104393740D01*
X143427932Y-104106842D01*
X143315990Y-103836589D01*
X143153475Y-103593368D01*
X142946632Y-103386525D01*
X142772240Y-103270000D01*
X142946632Y-103153475D01*
X143153475Y-102946632D01*
X143315990Y-102703411D01*
X143427932Y-102433158D01*
X143485000Y-102146260D01*
X143485000Y-101853740D01*
X143427932Y-101566842D01*
X143315990Y-101296589D01*
X143153475Y-101053368D01*
X142946632Y-100846525D01*
X142772240Y-100730000D01*
X142946632Y-100613475D01*
X143153475Y-100406632D01*
X143315990Y-100163411D01*
X143427932Y-99893158D01*
X143485000Y-99606260D01*
X143485000Y-99313740D01*
X143427932Y-99026842D01*
X143315990Y-98756589D01*
X143153475Y-98513368D01*
X142946632Y-98306525D01*
X142772240Y-98190000D01*
X142946632Y-98073475D01*
X143153475Y-97866632D01*
X143315990Y-97623411D01*
X143427932Y-97353158D01*
X143485000Y-97066260D01*
X143485000Y-96858665D01*
X146065000Y-96858665D01*
X146065000Y-97141335D01*
X146120147Y-97418574D01*
X146228320Y-97679727D01*
X146385363Y-97914759D01*
X146585241Y-98114637D01*
X146820273Y-98271680D01*
X147081426Y-98379853D01*
X147358665Y-98435000D01*
X147641335Y-98435000D01*
X147918574Y-98379853D01*
X148179727Y-98271680D01*
X148414759Y-98114637D01*
X148614637Y-97914759D01*
X148771680Y-97679727D01*
X148879853Y-97418574D01*
X148935000Y-97141335D01*
X148935000Y-96858665D01*
X148879853Y-96581426D01*
X148771680Y-96320273D01*
X148614637Y-96085241D01*
X148414759Y-95885363D01*
X148214131Y-95751308D01*
X148241514Y-95736671D01*
X148313097Y-95492702D01*
X147500000Y-94679605D01*
X146686903Y-95492702D01*
X146758486Y-95736671D01*
X146787341Y-95750324D01*
X146585241Y-95885363D01*
X146385363Y-96085241D01*
X146228320Y-96320273D01*
X146120147Y-96581426D01*
X146065000Y-96858665D01*
X143485000Y-96858665D01*
X143485000Y-96773740D01*
X143427932Y-96486842D01*
X143315990Y-96216589D01*
X143153475Y-95973368D01*
X143021620Y-95841513D01*
X143094180Y-95819502D01*
X143204494Y-95760537D01*
X143301185Y-95681185D01*
X143380537Y-95584494D01*
X143439502Y-95474180D01*
X143475812Y-95354482D01*
X143488072Y-95230000D01*
X143485000Y-94665750D01*
X143326250Y-94507000D01*
X142127000Y-94507000D01*
X142127000Y-94527000D01*
X141873000Y-94527000D01*
X141873000Y-94507000D01*
X140673750Y-94507000D01*
X140515000Y-94665750D01*
X140511928Y-95230000D01*
X139415395Y-95230000D01*
X138605000Y-94419605D01*
X137649192Y-95375413D01*
X137671600Y-95437280D01*
X137562748Y-95510013D01*
X137335013Y-95737748D01*
X137156082Y-96005537D01*
X137032832Y-96303088D01*
X136970000Y-96618967D01*
X114840000Y-96618967D01*
X114777168Y-96303088D01*
X114653918Y-96005537D01*
X114513370Y-95795191D01*
X114559494Y-95770537D01*
X114656185Y-95691185D01*
X114735537Y-95594494D01*
X114794502Y-95484180D01*
X114830812Y-95364482D01*
X114843072Y-95240000D01*
X114843072Y-93660000D01*
X137068952Y-93660000D01*
X137064296Y-93669571D01*
X136982616Y-93981108D01*
X136963282Y-94302595D01*
X137007039Y-94621675D01*
X137112205Y-94926088D01*
X137205186Y-95100044D01*
X137469587Y-95195808D01*
X138425395Y-94240000D01*
X138411253Y-94225858D01*
X138590858Y-94046253D01*
X138605000Y-94060395D01*
X138619143Y-94046253D01*
X138798748Y-94225858D01*
X138784605Y-94240000D01*
X139740413Y-95195808D01*
X140004814Y-95100044D01*
X140145704Y-94810429D01*
X140227384Y-94498892D01*
X140246718Y-94177405D01*
X140202961Y-93858325D01*
X140134445Y-93660000D01*
X140512636Y-93660000D01*
X140515000Y-94094250D01*
X140673750Y-94253000D01*
X141873000Y-94253000D01*
X141873000Y-94233000D01*
X142127000Y-94233000D01*
X142127000Y-94253000D01*
X143326250Y-94253000D01*
X143485000Y-94094250D01*
X143487364Y-93660000D01*
X146480393Y-93660000D01*
X146507296Y-93686903D01*
X146263329Y-93758486D01*
X146142429Y-94013996D01*
X146073700Y-94288184D01*
X146059783Y-94570512D01*
X146101213Y-94850130D01*
X146196397Y-95116292D01*
X146263329Y-95241514D01*
X146507298Y-95313097D01*
X147320395Y-94500000D01*
X147306253Y-94485858D01*
X147485858Y-94306253D01*
X147500000Y-94320395D01*
X147514143Y-94306253D01*
X147693748Y-94485858D01*
X147679605Y-94500000D01*
X148492702Y-95313097D01*
X148736671Y-95241514D01*
X148857571Y-94986004D01*
X148926300Y-94711816D01*
X148940217Y-94429488D01*
X148898787Y-94149870D01*
X148803603Y-93883708D01*
X148736671Y-93758486D01*
X148492704Y-93686903D01*
X148519607Y-93660000D01*
X151246111Y-93660000D01*
X151198815Y-93698815D01*
X151119463Y-93795506D01*
X151060498Y-93905820D01*
X151024188Y-94025518D01*
X151011928Y-94150000D01*
X151015000Y-94714250D01*
X151173750Y-94873000D01*
X152373000Y-94873000D01*
X152373000Y-94853000D01*
X152627000Y-94853000D01*
X152627000Y-94873000D01*
X153826250Y-94873000D01*
X153985000Y-94714250D01*
X153988072Y-94150000D01*
X153975812Y-94025518D01*
X153939502Y-93905820D01*
X153880537Y-93795506D01*
X153801185Y-93698815D01*
X153753889Y-93660000D01*
X158584043Y-93660000D01*
X158542986Y-93702592D01*
X158427298Y-93882803D01*
X158355592Y-94085999D01*
X158482498Y-94253000D01*
X159823000Y-94253000D01*
X159823000Y-94233000D01*
X160077000Y-94233000D01*
X160077000Y-94253000D01*
X161417502Y-94253000D01*
X161544408Y-94085999D01*
X161472702Y-93882803D01*
X161357014Y-93702592D01*
X161315957Y-93660000D01*
X177684043Y-93660000D01*
X177642986Y-93702592D01*
X177527298Y-93882803D01*
X177455592Y-94085999D01*
X177582498Y-94253000D01*
X178923000Y-94253000D01*
X178923000Y-94233000D01*
X179177000Y-94233000D01*
X179177000Y-94253000D01*
X180517502Y-94253000D01*
X180644408Y-94085999D01*
X180572702Y-93882803D01*
X180457014Y-93702592D01*
X180415957Y-93660000D01*
X185253033Y-93660000D01*
X185228359Y-93693080D01*
X185103175Y-93955901D01*
X185058524Y-94103110D01*
X185179845Y-94333000D01*
X186373000Y-94333000D01*
X186373000Y-94313000D01*
X186627000Y-94313000D01*
X186627000Y-94333000D01*
X187820155Y-94333000D01*
X187941476Y-94103110D01*
X187896825Y-93955901D01*
X187771641Y-93693080D01*
X187746967Y-93660000D01*
X192967722Y-93660000D01*
X193648126Y-93726714D01*
X194271572Y-93914943D01*
X194846579Y-94220681D01*
X195351247Y-94632279D01*
X195766362Y-95134067D01*
X196076105Y-95706924D01*
X196268682Y-96329039D01*
X196340001Y-97007594D01*
X196340000Y-138967721D01*
X196273286Y-139648126D01*
X196085057Y-140271570D01*
X195779323Y-140846573D01*
X195367721Y-141351248D01*
X194865933Y-141766362D01*
X194293077Y-142076104D01*
X193670961Y-142268682D01*
X192992417Y-142340000D01*
X101032279Y-142340000D01*
X100351874Y-142273286D01*
X99728430Y-142085057D01*
X99153427Y-141779323D01*
X98648752Y-141367721D01*
X98233638Y-140865933D01*
X97923896Y-140293077D01*
X97731318Y-139670961D01*
X97660000Y-138992417D01*
X97660000Y-138779872D01*
X98765000Y-138779872D01*
X98765000Y-139220128D01*
X98850890Y-139651925D01*
X99019369Y-140058669D01*
X99263962Y-140424729D01*
X99575271Y-140736038D01*
X99941331Y-140980631D01*
X100348075Y-141149110D01*
X100779872Y-141235000D01*
X101220128Y-141235000D01*
X101651925Y-141149110D01*
X102058669Y-140980631D01*
X102424729Y-140736038D01*
X102736038Y-140424729D01*
X102980631Y-140058669D01*
X103149110Y-139651925D01*
X103235000Y-139220128D01*
X103235000Y-138779872D01*
X103149110Y-138348075D01*
X102980631Y-137941331D01*
X102736038Y-137575271D01*
X102424729Y-137263962D01*
X102058669Y-137019369D01*
X101651925Y-136850890D01*
X101220128Y-136765000D01*
X100779872Y-136765000D01*
X100348075Y-136850890D01*
X99941331Y-137019369D01*
X99575271Y-137263962D01*
X99263962Y-137575271D01*
X99019369Y-137941331D01*
X98850890Y-138348075D01*
X98765000Y-138779872D01*
X97660000Y-138779872D01*
X97660000Y-129913740D01*
X108415000Y-129913740D01*
X108415000Y-130206260D01*
X108472068Y-130493158D01*
X108584010Y-130763411D01*
X108746525Y-131006632D01*
X108953368Y-131213475D01*
X109127760Y-131330000D01*
X108953368Y-131446525D01*
X108746525Y-131653368D01*
X108584010Y-131896589D01*
X108472068Y-132166842D01*
X108415000Y-132453740D01*
X108415000Y-132746260D01*
X108472068Y-133033158D01*
X108584010Y-133303411D01*
X108746525Y-133546632D01*
X108953368Y-133753475D01*
X109127760Y-133870000D01*
X108953368Y-133986525D01*
X108746525Y-134193368D01*
X108584010Y-134436589D01*
X108472068Y-134706842D01*
X108415000Y-134993740D01*
X108415000Y-135286260D01*
X108472068Y-135573158D01*
X108584010Y-135843411D01*
X108746525Y-136086632D01*
X108953368Y-136293475D01*
X109127760Y-136410000D01*
X108953368Y-136526525D01*
X108746525Y-136733368D01*
X108584010Y-136976589D01*
X108472068Y-137246842D01*
X108415000Y-137533740D01*
X108415000Y-137826260D01*
X108472068Y-138113158D01*
X108584010Y-138383411D01*
X108746525Y-138626632D01*
X108953368Y-138833475D01*
X109127760Y-138950000D01*
X108953368Y-139066525D01*
X108746525Y-139273368D01*
X108584010Y-139516589D01*
X108472068Y-139786842D01*
X108415000Y-140073740D01*
X108415000Y-140366260D01*
X108472068Y-140653158D01*
X108584010Y-140923411D01*
X108746525Y-141166632D01*
X108953368Y-141373475D01*
X109196589Y-141535990D01*
X109466842Y-141647932D01*
X109753740Y-141705000D01*
X110046260Y-141705000D01*
X110333158Y-141647932D01*
X110603411Y-141535990D01*
X110846632Y-141373475D01*
X111053475Y-141166632D01*
X111215990Y-140923411D01*
X111327932Y-140653158D01*
X111385000Y-140366260D01*
X111385000Y-140073740D01*
X111327932Y-139786842D01*
X111215990Y-139516589D01*
X111053475Y-139273368D01*
X110846632Y-139066525D01*
X110672240Y-138950000D01*
X110846632Y-138833475D01*
X111053475Y-138626632D01*
X111215990Y-138383411D01*
X111327932Y-138113158D01*
X111385000Y-137826260D01*
X111385000Y-137533740D01*
X111327932Y-137246842D01*
X111215990Y-136976589D01*
X111053475Y-136733368D01*
X110846632Y-136526525D01*
X110672240Y-136410000D01*
X110846632Y-136293475D01*
X111053475Y-136086632D01*
X111215990Y-135843411D01*
X111327932Y-135573158D01*
X111385000Y-135286260D01*
X111385000Y-134993740D01*
X111327932Y-134706842D01*
X111215990Y-134436589D01*
X111053475Y-134193368D01*
X110846632Y-133986525D01*
X110672240Y-133870000D01*
X110846632Y-133753475D01*
X111053475Y-133546632D01*
X111215990Y-133303411D01*
X111327932Y-133033158D01*
X111385000Y-132746260D01*
X111385000Y-132453740D01*
X111327932Y-132166842D01*
X111215990Y-131896589D01*
X111053475Y-131653368D01*
X110846632Y-131446525D01*
X110672240Y-131330000D01*
X110846632Y-131213475D01*
X111053475Y-131006632D01*
X111215990Y-130763411D01*
X111327932Y-130493158D01*
X111385000Y-130206260D01*
X111385000Y-129913740D01*
X111330344Y-129638967D01*
X111570000Y-129638967D01*
X111570000Y-129961033D01*
X111632832Y-130276912D01*
X111756082Y-130574463D01*
X111935013Y-130842252D01*
X112162748Y-131069987D01*
X112162767Y-131070000D01*
X112162748Y-131070013D01*
X111935013Y-131297748D01*
X111756082Y-131565537D01*
X111632832Y-131863088D01*
X111570000Y-132178967D01*
X111570000Y-132501033D01*
X111632832Y-132816912D01*
X111756082Y-133114463D01*
X111935013Y-133382252D01*
X112162748Y-133609987D01*
X112162767Y-133610000D01*
X112162748Y-133610013D01*
X111935013Y-133837748D01*
X111756082Y-134105537D01*
X111632832Y-134403088D01*
X111570000Y-134718967D01*
X111570000Y-135041033D01*
X111632832Y-135356912D01*
X111756082Y-135654463D01*
X111935013Y-135922252D01*
X112162748Y-136149987D01*
X112162767Y-136150000D01*
X112162748Y-136150013D01*
X111935013Y-136377748D01*
X111756082Y-136645537D01*
X111632832Y-136943088D01*
X111570000Y-137258967D01*
X111570000Y-137581033D01*
X111632832Y-137896912D01*
X111756082Y-138194463D01*
X111935013Y-138462252D01*
X112162748Y-138689987D01*
X112162767Y-138690000D01*
X112162748Y-138690013D01*
X111935013Y-138917748D01*
X111756082Y-139185537D01*
X111632832Y-139483088D01*
X111570000Y-139798967D01*
X111570000Y-140121033D01*
X111632832Y-140436912D01*
X111756082Y-140734463D01*
X111935013Y-141002252D01*
X112162748Y-141229987D01*
X112430537Y-141408918D01*
X112728088Y-141532168D01*
X113043967Y-141595000D01*
X113366033Y-141595000D01*
X113681912Y-141532168D01*
X113979463Y-141408918D01*
X114247252Y-141229987D01*
X114474987Y-141002252D01*
X114653918Y-140734463D01*
X114777168Y-140436912D01*
X114840000Y-140121033D01*
X114840000Y-139798967D01*
X114777168Y-139483088D01*
X114653918Y-139185537D01*
X114474987Y-138917748D01*
X114247252Y-138690013D01*
X114247233Y-138690000D01*
X114247252Y-138689987D01*
X114474987Y-138462252D01*
X114653918Y-138194463D01*
X114777168Y-137896912D01*
X114840000Y-137581033D01*
X114840000Y-137258967D01*
X114777168Y-136943088D01*
X114653918Y-136645537D01*
X114474987Y-136377748D01*
X114247252Y-136150013D01*
X114247233Y-136150000D01*
X114247252Y-136149987D01*
X114474987Y-135922252D01*
X114653918Y-135654463D01*
X114777168Y-135356912D01*
X114840000Y-135041033D01*
X114840000Y-134718967D01*
X114777168Y-134403088D01*
X114653918Y-134105537D01*
X114474987Y-133837748D01*
X114247252Y-133610013D01*
X114247233Y-133610000D01*
X114247252Y-133609987D01*
X114474987Y-133382252D01*
X114653918Y-133114463D01*
X114777168Y-132816912D01*
X114840000Y-132501033D01*
X114840000Y-132178967D01*
X114777168Y-131863088D01*
X114653918Y-131565537D01*
X114474987Y-131297748D01*
X114247252Y-131070013D01*
X114247233Y-131070000D01*
X114247252Y-131069987D01*
X114474987Y-130842252D01*
X114653918Y-130574463D01*
X114777168Y-130276912D01*
X114840000Y-129961033D01*
X114840000Y-129638967D01*
X114777168Y-129323088D01*
X114653918Y-129025537D01*
X114474987Y-128757748D01*
X114247252Y-128530013D01*
X114138400Y-128457280D01*
X114160808Y-128395413D01*
X113205000Y-127439605D01*
X112249192Y-128395413D01*
X112271600Y-128457280D01*
X112162748Y-128530013D01*
X111935013Y-128757748D01*
X111756082Y-129025537D01*
X111632832Y-129323088D01*
X111570000Y-129638967D01*
X111330344Y-129638967D01*
X111327932Y-129626842D01*
X111215990Y-129356589D01*
X111053475Y-129113368D01*
X110846632Y-128906525D01*
X110664466Y-128784805D01*
X110781355Y-128715178D01*
X110997588Y-128520269D01*
X111171641Y-128286920D01*
X111296825Y-128024099D01*
X111341476Y-127876890D01*
X111220155Y-127647000D01*
X110027000Y-127647000D01*
X110027000Y-127667000D01*
X109773000Y-127667000D01*
X109773000Y-127647000D01*
X108579845Y-127647000D01*
X108458524Y-127876890D01*
X108503175Y-128024099D01*
X108628359Y-128286920D01*
X108802412Y-128520269D01*
X109018645Y-128715178D01*
X109135534Y-128784805D01*
X108953368Y-128906525D01*
X108746525Y-129113368D01*
X108584010Y-129356589D01*
X108472068Y-129626842D01*
X108415000Y-129913740D01*
X97660000Y-129913740D01*
X97660000Y-106992702D01*
X104186903Y-106992702D01*
X104258486Y-107236671D01*
X104513996Y-107357571D01*
X104788184Y-107426300D01*
X105070512Y-107440217D01*
X105350130Y-107398787D01*
X105616292Y-107303603D01*
X105741514Y-107236671D01*
X105813097Y-106992702D01*
X105000000Y-106179605D01*
X104186903Y-106992702D01*
X97660000Y-106992702D01*
X97660000Y-106070512D01*
X103559783Y-106070512D01*
X103601213Y-106350130D01*
X103696397Y-106616292D01*
X103763329Y-106741514D01*
X104007298Y-106813097D01*
X104820395Y-106000000D01*
X105179605Y-106000000D01*
X105992702Y-106813097D01*
X106236671Y-106741514D01*
X106357571Y-106486004D01*
X106426300Y-106211816D01*
X106440217Y-105929488D01*
X106398787Y-105649870D01*
X106303603Y-105383708D01*
X106236671Y-105258486D01*
X105992702Y-105186903D01*
X105179605Y-106000000D01*
X104820395Y-106000000D01*
X104007298Y-105186903D01*
X103763329Y-105258486D01*
X103642429Y-105513996D01*
X103573700Y-105788184D01*
X103559783Y-106070512D01*
X97660000Y-106070512D01*
X97660000Y-103358665D01*
X103565000Y-103358665D01*
X103565000Y-103641335D01*
X103620147Y-103918574D01*
X103728320Y-104179727D01*
X103885363Y-104414759D01*
X104085241Y-104614637D01*
X104285869Y-104748692D01*
X104258486Y-104763329D01*
X104186903Y-105007298D01*
X105000000Y-105820395D01*
X105813097Y-105007298D01*
X105741514Y-104763329D01*
X105712659Y-104749676D01*
X105914759Y-104614637D01*
X106114637Y-104414759D01*
X106271680Y-104179727D01*
X106379853Y-103918574D01*
X106435000Y-103641335D01*
X106435000Y-103358665D01*
X106379853Y-103081426D01*
X106271680Y-102820273D01*
X106114637Y-102585241D01*
X105914759Y-102385363D01*
X105679727Y-102228320D01*
X105418574Y-102120147D01*
X105141335Y-102065000D01*
X104858665Y-102065000D01*
X104581426Y-102120147D01*
X104320273Y-102228320D01*
X104085241Y-102385363D01*
X103885363Y-102585241D01*
X103728320Y-102820273D01*
X103620147Y-103081426D01*
X103565000Y-103358665D01*
X97660000Y-103358665D01*
X97660000Y-97032278D01*
X97684748Y-96779872D01*
X98765000Y-96779872D01*
X98765000Y-97220128D01*
X98850890Y-97651925D01*
X99019369Y-98058669D01*
X99263962Y-98424729D01*
X99575271Y-98736038D01*
X99941331Y-98980631D01*
X100348075Y-99149110D01*
X100779872Y-99235000D01*
X101220128Y-99235000D01*
X101651925Y-99149110D01*
X102058669Y-98980631D01*
X102424729Y-98736038D01*
X102736038Y-98424729D01*
X102980631Y-98058669D01*
X103149110Y-97651925D01*
X103235000Y-97220128D01*
X103235000Y-96779872D01*
X103149110Y-96348075D01*
X102980631Y-95941331D01*
X102736038Y-95575271D01*
X102424729Y-95263962D01*
X102058669Y-95019369D01*
X101651925Y-94850890D01*
X101220128Y-94765000D01*
X100779872Y-94765000D01*
X100348075Y-94850890D01*
X99941331Y-95019369D01*
X99575271Y-95263962D01*
X99263962Y-95575271D01*
X99019369Y-95941331D01*
X98850890Y-96348075D01*
X98765000Y-96779872D01*
X97684748Y-96779872D01*
X97726714Y-96351874D01*
X97914943Y-95728428D01*
X98220681Y-95153421D01*
X98632279Y-94648753D01*
X99134067Y-94233638D01*
X99706924Y-93923895D01*
X100329039Y-93731318D01*
X101007584Y-93660000D01*
X108411928Y-93660000D01*
X108411928Y-95350000D01*
G37*
G04 #@! TD.AperFunction*
G04 #@! TD*
M02*
