M48
; DRILL file {KiCad 5.1.9-73d0e3b20d~88~ubuntu20.04.1} date Thu Nov 25 11:34:28 2021
; FORMAT={-:-/ absolute / inch / decimal}
; #@! TF.CreationDate,2021-11-25T11:34:28+09:00
; #@! TF.GenerationSoftware,Kicad,Pcbnew,5.1.9-73d0e3b20d~88~ubuntu20.04.1
; #@! TF.FileFunction,Plated,1,2,PTH
FMAT,2
INCH
T1C0.0157
T2C0.0315
T3C0.0394
T4C0.0409
%
G90
G05
T1
X4.0157Y-4.0551
X4.0157Y-4.1732
X5.6693Y-4.6457
X5.7087Y-4.4488
X5.7874Y-5.0394
X5.7874Y-5.1181
X5.8858Y-5.0984
X5.9252Y-5.0394
X6.0827Y-5.0394
X6.0827Y-5.0984
X6.2402Y-4.5079
X6.5354Y-4.4882
X6.5354Y-4.7638
X6.5354Y-4.9606
X7.1654Y-3.9961
T2
X4.1339Y-4.0748
X4.1339Y-4.1732
X5.8071Y-3.7205
X5.8071Y-3.8189
X6.2972Y-3.7157
X6.2972Y-3.7657
X6.2972Y-3.8157
X6.2972Y-3.8657
X6.2972Y-3.9157
X6.2972Y-3.9657
X6.2972Y-4.0157
X6.2972Y-4.0657
X6.2972Y-4.1157
X6.2972Y-4.1657
X6.2972Y-4.2157
X6.2972Y-4.2657
X6.2972Y-4.3157
X6.437Y-5.0346
X6.437Y-5.3346
X6.6339Y-5.0346
X6.6339Y-5.3346
X6.8307Y-4.5669
X6.8307Y-4.8669
X6.8307Y-5.0346
X6.8307Y-5.3346
X7.0228Y-4.5669
X7.0228Y-4.8669
X7.0276Y-5.0346
X7.0276Y-5.3346
X7.0492Y-3.7157
X7.0492Y-3.7657
X7.0492Y-3.8157
X7.0492Y-3.8657
X7.0492Y-3.9157
X7.0492Y-3.9657
X7.0492Y-4.0157
X7.0492Y-4.0657
X7.0492Y-4.1157
X7.0492Y-4.1657
X7.0492Y-4.2157
X7.0492Y-4.2657
X7.0492Y-4.3157
T3
X4.3268Y-3.7205
X4.3268Y-3.8205
X4.3268Y-3.9205
X4.3268Y-4.0205
X4.3268Y-4.1205
X4.3268Y-4.2205
X4.3268Y-4.3205
X4.3268Y-4.4205
X4.3268Y-4.5205
X4.3268Y-4.6205
X4.3268Y-4.7205
X4.3268Y-4.8205
X4.3268Y-4.9205
X4.3268Y-5.0205
X4.3268Y-5.1205
X4.3268Y-5.2205
X4.3268Y-5.3205
X4.3268Y-5.4205
X4.3268Y-5.5205
X5.5906Y-3.7157
X5.5906Y-3.8157
X5.5906Y-3.9157
X5.5906Y-4.0157
X5.5906Y-4.1157
X5.5906Y-4.2157
X5.5906Y-4.3157
X5.5906Y-4.4157
X5.5906Y-4.5157
X5.5906Y-4.6157
X5.5906Y-4.7157
X5.5906Y-4.8157
X5.5906Y-4.9157
X5.5906Y-5.0157
X5.5906Y-5.1157
X5.5906Y-5.2157
X5.5906Y-5.3157
X5.5906Y-5.4157
X5.5906Y-5.5157
X6.0039Y-3.7402
X6.0039Y-3.8402
X6.0039Y-3.9402
X6.0039Y-4.0402
X6.0039Y-4.1402
X6.0039Y-4.2402
X6.0039Y-4.3402
X6.0039Y-4.4402
X6.0039Y-4.5402
X6.0039Y-4.6402
X6.0039Y-4.7402
X6.0039Y-4.8402
X6.0039Y-4.9402
X7.3425Y-3.7189
X7.3425Y-3.8189
X7.3425Y-3.9189
X7.3425Y-4.0189
X7.3425Y-4.1189
X7.3425Y-4.2189
X7.3425Y-4.3189
X7.3425Y-4.4189
X7.3425Y-4.5189
X7.3425Y-4.6189
X7.3425Y-4.7189
X7.3425Y-4.8189
X7.3425Y-4.9189
T4
X4.4569Y-3.7102
X4.4569Y-3.8102
X4.4569Y-3.9102
X4.4569Y-4.0102
X4.4569Y-4.1102
X4.4569Y-4.2102
X4.4569Y-4.3102
X4.4569Y-4.4102
X4.4569Y-4.5102
X4.4569Y-4.6102
X4.4569Y-4.7102
X4.4569Y-4.8102
X4.4569Y-4.9102
X4.4569Y-5.0102
X4.4569Y-5.1102
X4.4569Y-5.2102
X4.4569Y-5.3102
X4.4569Y-5.4102
X4.4569Y-5.5102
X5.4569Y-3.7102
X5.4569Y-3.8102
X5.4569Y-3.9102
X5.4569Y-4.0102
X5.4569Y-4.1102
X5.4569Y-4.2102
X5.4569Y-4.3102
X5.4569Y-4.4102
X5.4569Y-4.5102
X5.4569Y-4.6102
X5.4569Y-4.7102
X5.4569Y-4.8102
X5.4569Y-4.9102
X5.4569Y-5.0102
X5.4569Y-5.1102
X5.4569Y-5.2102
X5.4569Y-5.3102
X5.4569Y-5.4102
X5.4569Y-5.5102
T0
M30
