G04 #@! TF.GenerationSoftware,KiCad,Pcbnew,5.1.9-73d0e3b20d~88~ubuntu20.04.1*
G04 #@! TF.CreationDate,2021-11-25T11:34:25+09:00*
G04 #@! TF.ProjectId,ES920LRB-ESP32,45533932-304c-4524-922d-45535033322e,v1.4*
G04 #@! TF.SameCoordinates,Original*
G04 #@! TF.FileFunction,Legend,Top*
G04 #@! TF.FilePolarity,Positive*
%FSLAX46Y46*%
G04 Gerber Fmt 4.6, Leading zero omitted, Abs format (unit mm)*
G04 Created by KiCad (PCBNEW 5.1.9-73d0e3b20d~88~ubuntu20.04.1) date 2021-11-25 11:34:25*
%MOMM*%
%LPD*%
G01*
G04 APERTURE LIST*
%ADD10C,0.150000*%
%ADD11C,0.127000*%
%ADD12C,0.120000*%
%ADD13C,0.010000*%
%ADD14C,0.015000*%
G04 APERTURE END LIST*
D10*
X148287976Y-139722619D02*
X148335595Y-139675000D01*
X148430833Y-139627380D01*
X148668928Y-139627380D01*
X148764166Y-139675000D01*
X148811785Y-139722619D01*
X148859404Y-139817857D01*
X148859404Y-139913095D01*
X148811785Y-140055952D01*
X148240357Y-140627380D01*
X148859404Y-140627380D01*
X149811785Y-140627380D02*
X149240357Y-140627380D01*
X149526071Y-140627380D02*
X149526071Y-139627380D01*
X149430833Y-139770238D01*
X149335595Y-139865476D01*
X149240357Y-139913095D01*
X150764166Y-140627380D02*
X150192738Y-140627380D01*
X150478452Y-140627380D02*
X150478452Y-139627380D01*
X150383214Y-139770238D01*
X150287976Y-139865476D01*
X150192738Y-139913095D01*
X151716547Y-140627380D02*
X151145119Y-140627380D01*
X151430833Y-140627380D02*
X151430833Y-139627380D01*
X151335595Y-139770238D01*
X151240357Y-139865476D01*
X151145119Y-139913095D01*
X152097500Y-139722619D02*
X152145119Y-139675000D01*
X152240357Y-139627380D01*
X152478452Y-139627380D01*
X152573690Y-139675000D01*
X152621309Y-139722619D01*
X152668928Y-139817857D01*
X152668928Y-139913095D01*
X152621309Y-140055952D01*
X152049880Y-140627380D01*
X152668928Y-140627380D01*
X153573690Y-139627380D02*
X153097500Y-139627380D01*
X153049880Y-140103571D01*
X153097500Y-140055952D01*
X153192738Y-140008333D01*
X153430833Y-140008333D01*
X153526071Y-140055952D01*
X153573690Y-140103571D01*
X153621309Y-140198809D01*
X153621309Y-140436904D01*
X153573690Y-140532142D01*
X153526071Y-140579761D01*
X153430833Y-140627380D01*
X153192738Y-140627380D01*
X153097500Y-140579761D01*
X153049880Y-140532142D01*
X154716547Y-139960714D02*
X154954642Y-140627380D01*
X155192738Y-139960714D01*
X156097500Y-140627380D02*
X155526071Y-140627380D01*
X155811785Y-140627380D02*
X155811785Y-139627380D01*
X155716547Y-139770238D01*
X155621309Y-139865476D01*
X155526071Y-139913095D01*
X156526071Y-140532142D02*
X156573690Y-140579761D01*
X156526071Y-140627380D01*
X156478452Y-140579761D01*
X156526071Y-140532142D01*
X156526071Y-140627380D01*
X157430833Y-139960714D02*
X157430833Y-140627380D01*
X157192738Y-139579761D02*
X156954642Y-140294047D01*
X157573690Y-140294047D01*
X148335595Y-141753571D02*
X148668928Y-141753571D01*
X148811785Y-142277380D02*
X148335595Y-142277380D01*
X148335595Y-141277380D01*
X148811785Y-141277380D01*
X149192738Y-142229761D02*
X149335595Y-142277380D01*
X149573690Y-142277380D01*
X149668928Y-142229761D01*
X149716547Y-142182142D01*
X149764166Y-142086904D01*
X149764166Y-141991666D01*
X149716547Y-141896428D01*
X149668928Y-141848809D01*
X149573690Y-141801190D01*
X149383214Y-141753571D01*
X149287976Y-141705952D01*
X149240357Y-141658333D01*
X149192738Y-141563095D01*
X149192738Y-141467857D01*
X149240357Y-141372619D01*
X149287976Y-141325000D01*
X149383214Y-141277380D01*
X149621309Y-141277380D01*
X149764166Y-141325000D01*
X150240357Y-142277380D02*
X150430833Y-142277380D01*
X150526071Y-142229761D01*
X150573690Y-142182142D01*
X150668928Y-142039285D01*
X150716547Y-141848809D01*
X150716547Y-141467857D01*
X150668928Y-141372619D01*
X150621309Y-141325000D01*
X150526071Y-141277380D01*
X150335595Y-141277380D01*
X150240357Y-141325000D01*
X150192738Y-141372619D01*
X150145119Y-141467857D01*
X150145119Y-141705952D01*
X150192738Y-141801190D01*
X150240357Y-141848809D01*
X150335595Y-141896428D01*
X150526071Y-141896428D01*
X150621309Y-141848809D01*
X150668928Y-141801190D01*
X150716547Y-141705952D01*
X151097500Y-141372619D02*
X151145119Y-141325000D01*
X151240357Y-141277380D01*
X151478452Y-141277380D01*
X151573690Y-141325000D01*
X151621309Y-141372619D01*
X151668928Y-141467857D01*
X151668928Y-141563095D01*
X151621309Y-141705952D01*
X151049880Y-142277380D01*
X151668928Y-142277380D01*
X152287976Y-141277380D02*
X152383214Y-141277380D01*
X152478452Y-141325000D01*
X152526071Y-141372619D01*
X152573690Y-141467857D01*
X152621309Y-141658333D01*
X152621309Y-141896428D01*
X152573690Y-142086904D01*
X152526071Y-142182142D01*
X152478452Y-142229761D01*
X152383214Y-142277380D01*
X152287976Y-142277380D01*
X152192738Y-142229761D01*
X152145119Y-142182142D01*
X152097500Y-142086904D01*
X152049880Y-141896428D01*
X152049880Y-141658333D01*
X152097500Y-141467857D01*
X152145119Y-141372619D01*
X152192738Y-141325000D01*
X152287976Y-141277380D01*
X153526071Y-142277380D02*
X153049880Y-142277380D01*
X153049880Y-141277380D01*
X154430833Y-142277380D02*
X154097500Y-141801190D01*
X153859404Y-142277380D02*
X153859404Y-141277380D01*
X154240357Y-141277380D01*
X154335595Y-141325000D01*
X154383214Y-141372619D01*
X154430833Y-141467857D01*
X154430833Y-141610714D01*
X154383214Y-141705952D01*
X154335595Y-141753571D01*
X154240357Y-141801190D01*
X153859404Y-141801190D01*
X154811785Y-141372619D02*
X154859404Y-141325000D01*
X154954642Y-141277380D01*
X155192738Y-141277380D01*
X155287976Y-141325000D01*
X155335595Y-141372619D01*
X155383214Y-141467857D01*
X155383214Y-141563095D01*
X155335595Y-141705952D01*
X154764166Y-142277380D01*
X155383214Y-142277380D01*
X156145119Y-141753571D02*
X156287976Y-141801190D01*
X156335595Y-141848809D01*
X156383214Y-141944047D01*
X156383214Y-142086904D01*
X156335595Y-142182142D01*
X156287976Y-142229761D01*
X156192738Y-142277380D01*
X155811785Y-142277380D01*
X155811785Y-141277380D01*
X156145119Y-141277380D01*
X156240357Y-141325000D01*
X156287976Y-141372619D01*
X156335595Y-141467857D01*
X156335595Y-141563095D01*
X156287976Y-141658333D01*
X156240357Y-141705952D01*
X156145119Y-141753571D01*
X155811785Y-141753571D01*
X156811785Y-141896428D02*
X157573690Y-141896428D01*
X158049880Y-141753571D02*
X158383214Y-141753571D01*
X158526071Y-142277380D02*
X158049880Y-142277380D01*
X158049880Y-141277380D01*
X158526071Y-141277380D01*
X158907023Y-142229761D02*
X159049880Y-142277380D01*
X159287976Y-142277380D01*
X159383214Y-142229761D01*
X159430833Y-142182142D01*
X159478452Y-142086904D01*
X159478452Y-141991666D01*
X159430833Y-141896428D01*
X159383214Y-141848809D01*
X159287976Y-141801190D01*
X159097500Y-141753571D01*
X159002261Y-141705952D01*
X158954642Y-141658333D01*
X158907023Y-141563095D01*
X158907023Y-141467857D01*
X158954642Y-141372619D01*
X159002261Y-141325000D01*
X159097500Y-141277380D01*
X159335595Y-141277380D01*
X159478452Y-141325000D01*
X159907023Y-142277380D02*
X159907023Y-141277380D01*
X160287976Y-141277380D01*
X160383214Y-141325000D01*
X160430833Y-141372619D01*
X160478452Y-141467857D01*
X160478452Y-141610714D01*
X160430833Y-141705952D01*
X160383214Y-141753571D01*
X160287976Y-141801190D01*
X159907023Y-141801190D01*
X160811785Y-141277380D02*
X161430833Y-141277380D01*
X161097500Y-141658333D01*
X161240357Y-141658333D01*
X161335595Y-141705952D01*
X161383214Y-141753571D01*
X161430833Y-141848809D01*
X161430833Y-142086904D01*
X161383214Y-142182142D01*
X161335595Y-142229761D01*
X161240357Y-142277380D01*
X160954642Y-142277380D01*
X160859404Y-142229761D01*
X160811785Y-142182142D01*
X161811785Y-141372619D02*
X161859404Y-141325000D01*
X161954642Y-141277380D01*
X162192738Y-141277380D01*
X162287976Y-141325000D01*
X162335595Y-141372619D01*
X162383214Y-141467857D01*
X162383214Y-141563095D01*
X162335595Y-141705952D01*
X161764166Y-142277380D01*
X162383214Y-142277380D01*
D11*
G04 #@! TO.C,U1*
X139855000Y-141250000D02*
X111955000Y-141250000D01*
X139855000Y-86850000D02*
X139855000Y-141250000D01*
X111955000Y-86850000D02*
X139855000Y-86850000D01*
X111955000Y-141250000D02*
X111955000Y-86850000D01*
D12*
G04 #@! TO.C,M1*
X158450000Y-93430000D02*
X158450000Y-110570000D01*
X158450000Y-110570000D02*
X180550000Y-110570000D01*
X180550000Y-110570000D02*
X180550000Y-93430000D01*
X180550000Y-93430000D02*
X173183333Y-93430000D01*
X173183333Y-93430000D02*
X173183333Y-93790000D01*
X173183333Y-93790000D02*
X165816667Y-93790000D01*
X165816667Y-93790000D02*
X165816667Y-93430000D01*
X165816667Y-93430000D02*
X158450000Y-93430000D01*
X178050000Y-110500000D02*
X178050000Y-87500000D01*
X178000000Y-87450000D02*
X161000000Y-87450000D01*
X160950000Y-87500000D02*
X160950000Y-110500000D01*
X161000000Y-110550000D02*
X178000000Y-110550000D01*
G04 #@! TO.C,R6*
X172130000Y-123080000D02*
X172460000Y-123080000D01*
X172130000Y-116540000D02*
X172130000Y-123080000D01*
X172460000Y-116540000D02*
X172130000Y-116540000D01*
X174870000Y-123080000D02*
X174540000Y-123080000D01*
X174870000Y-116540000D02*
X174870000Y-123080000D01*
X174540000Y-116540000D02*
X174870000Y-116540000D01*
G04 #@! TO.C,R5*
X177010000Y-123080000D02*
X177340000Y-123080000D01*
X177010000Y-116540000D02*
X177010000Y-123080000D01*
X177340000Y-116540000D02*
X177010000Y-116540000D01*
X179750000Y-123080000D02*
X179420000Y-123080000D01*
X179750000Y-116540000D02*
X179750000Y-123080000D01*
X179420000Y-116540000D02*
X179750000Y-116540000D01*
G04 #@! TO.C,R4*
X169870000Y-128420000D02*
X169540000Y-128420000D01*
X169870000Y-134960000D02*
X169870000Y-128420000D01*
X169540000Y-134960000D02*
X169870000Y-134960000D01*
X167130000Y-128420000D02*
X167460000Y-128420000D01*
X167130000Y-134960000D02*
X167130000Y-128420000D01*
X167460000Y-134960000D02*
X167130000Y-134960000D01*
G04 #@! TO.C,R3*
X164870000Y-128420000D02*
X164540000Y-128420000D01*
X164870000Y-134960000D02*
X164870000Y-128420000D01*
X164540000Y-134960000D02*
X164870000Y-134960000D01*
X162130000Y-128420000D02*
X162460000Y-128420000D01*
X162130000Y-134960000D02*
X162130000Y-128420000D01*
X162460000Y-134960000D02*
X162130000Y-134960000D01*
G04 #@! TO.C,R2*
X179870000Y-128420000D02*
X179540000Y-128420000D01*
X179870000Y-134960000D02*
X179870000Y-128420000D01*
X179540000Y-134960000D02*
X179870000Y-134960000D01*
X177130000Y-128420000D02*
X177460000Y-128420000D01*
X177130000Y-134960000D02*
X177130000Y-128420000D01*
X177460000Y-134960000D02*
X177130000Y-134960000D01*
G04 #@! TO.C,R1*
X174870000Y-128420000D02*
X174540000Y-128420000D01*
X174870000Y-134960000D02*
X174870000Y-128420000D01*
X174540000Y-134960000D02*
X174870000Y-134960000D01*
X172130000Y-128420000D02*
X172460000Y-128420000D01*
X172130000Y-134960000D02*
X172130000Y-128420000D01*
X172460000Y-134960000D02*
X172130000Y-134960000D01*
D13*
G04 #@! TO.C,L1*
G36*
X153222252Y-134879274D02*
G01*
X153242807Y-134888390D01*
X153249856Y-134896827D01*
X153265607Y-134917918D01*
X153289159Y-134950368D01*
X153319611Y-134992886D01*
X153356061Y-135044177D01*
X153397609Y-135102949D01*
X153443353Y-135167908D01*
X153492393Y-135237760D01*
X153543827Y-135311213D01*
X153596753Y-135386973D01*
X153650272Y-135463747D01*
X153703481Y-135540242D01*
X153755479Y-135615164D01*
X153805366Y-135687219D01*
X153852240Y-135755116D01*
X153895200Y-135817559D01*
X153933345Y-135873257D01*
X153965773Y-135920916D01*
X153991585Y-135959242D01*
X154009877Y-135986942D01*
X154019750Y-136002723D01*
X154021149Y-136005432D01*
X154020872Y-136007658D01*
X154017586Y-136009624D01*
X154010326Y-136011346D01*
X153998124Y-136012842D01*
X153980015Y-136014126D01*
X153955032Y-136015214D01*
X153922209Y-136016121D01*
X153880579Y-136016865D01*
X153829176Y-136017460D01*
X153767035Y-136017923D01*
X153693188Y-136018268D01*
X153606670Y-136018512D01*
X153506513Y-136018672D01*
X153391753Y-136018761D01*
X153261422Y-136018797D01*
X153203200Y-136018800D01*
X153066404Y-136018784D01*
X152945571Y-136018724D01*
X152839728Y-136018604D01*
X152747903Y-136018408D01*
X152669126Y-136018119D01*
X152602424Y-136017722D01*
X152546827Y-136017199D01*
X152501362Y-136016534D01*
X152465058Y-136015711D01*
X152436944Y-136014714D01*
X152416048Y-136013525D01*
X152401399Y-136012130D01*
X152392025Y-136010510D01*
X152386954Y-136008651D01*
X152385215Y-136006535D01*
X152385411Y-136005015D01*
X152391665Y-135994201D01*
X152406623Y-135970983D01*
X152429394Y-135936649D01*
X152459086Y-135892486D01*
X152494807Y-135839783D01*
X152535667Y-135779828D01*
X152580774Y-135713909D01*
X152629235Y-135643316D01*
X152680161Y-135569335D01*
X152732659Y-135493255D01*
X152785838Y-135416365D01*
X152838807Y-135339953D01*
X152890673Y-135265307D01*
X152940546Y-135193715D01*
X152987534Y-135126465D01*
X153030745Y-135064846D01*
X153069289Y-135010146D01*
X153102273Y-134963654D01*
X153128806Y-134926657D01*
X153147997Y-134900444D01*
X153158954Y-134886302D01*
X153161029Y-134884179D01*
X153190270Y-134876411D01*
X153222252Y-134879274D01*
G37*
X153222252Y-134879274D02*
X153242807Y-134888390D01*
X153249856Y-134896827D01*
X153265607Y-134917918D01*
X153289159Y-134950368D01*
X153319611Y-134992886D01*
X153356061Y-135044177D01*
X153397609Y-135102949D01*
X153443353Y-135167908D01*
X153492393Y-135237760D01*
X153543827Y-135311213D01*
X153596753Y-135386973D01*
X153650272Y-135463747D01*
X153703481Y-135540242D01*
X153755479Y-135615164D01*
X153805366Y-135687219D01*
X153852240Y-135755116D01*
X153895200Y-135817559D01*
X153933345Y-135873257D01*
X153965773Y-135920916D01*
X153991585Y-135959242D01*
X154009877Y-135986942D01*
X154019750Y-136002723D01*
X154021149Y-136005432D01*
X154020872Y-136007658D01*
X154017586Y-136009624D01*
X154010326Y-136011346D01*
X153998124Y-136012842D01*
X153980015Y-136014126D01*
X153955032Y-136015214D01*
X153922209Y-136016121D01*
X153880579Y-136016865D01*
X153829176Y-136017460D01*
X153767035Y-136017923D01*
X153693188Y-136018268D01*
X153606670Y-136018512D01*
X153506513Y-136018672D01*
X153391753Y-136018761D01*
X153261422Y-136018797D01*
X153203200Y-136018800D01*
X153066404Y-136018784D01*
X152945571Y-136018724D01*
X152839728Y-136018604D01*
X152747903Y-136018408D01*
X152669126Y-136018119D01*
X152602424Y-136017722D01*
X152546827Y-136017199D01*
X152501362Y-136016534D01*
X152465058Y-136015711D01*
X152436944Y-136014714D01*
X152416048Y-136013525D01*
X152401399Y-136012130D01*
X152392025Y-136010510D01*
X152386954Y-136008651D01*
X152385215Y-136006535D01*
X152385411Y-136005015D01*
X152391665Y-135994201D01*
X152406623Y-135970983D01*
X152429394Y-135936649D01*
X152459086Y-135892486D01*
X152494807Y-135839783D01*
X152535667Y-135779828D01*
X152580774Y-135713909D01*
X152629235Y-135643316D01*
X152680161Y-135569335D01*
X152732659Y-135493255D01*
X152785838Y-135416365D01*
X152838807Y-135339953D01*
X152890673Y-135265307D01*
X152940546Y-135193715D01*
X152987534Y-135126465D01*
X153030745Y-135064846D01*
X153069289Y-135010146D01*
X153102273Y-134963654D01*
X153128806Y-134926657D01*
X153147997Y-134900444D01*
X153158954Y-134886302D01*
X153161029Y-134884179D01*
X153190270Y-134876411D01*
X153222252Y-134879274D01*
G36*
X155870026Y-136645784D02*
G01*
X155902200Y-136648799D01*
X155923780Y-136656235D01*
X155936878Y-136669501D01*
X155943607Y-136690007D01*
X155946078Y-136719162D01*
X155946406Y-136758375D01*
X155946400Y-136768100D01*
X155946227Y-136809974D01*
X155944245Y-136841052D01*
X155938259Y-136862941D01*
X155926073Y-136877251D01*
X155905491Y-136885590D01*
X155874319Y-136889567D01*
X155830360Y-136890790D01*
X155778845Y-136890866D01*
X155708949Y-136891901D01*
X155652433Y-136895412D01*
X155605848Y-136902013D01*
X155565744Y-136912316D01*
X155528671Y-136926933D01*
X155503103Y-136939828D01*
X155441985Y-136982394D01*
X155390238Y-137037776D01*
X155349447Y-137103753D01*
X155321200Y-137178101D01*
X155315111Y-137203100D01*
X155313001Y-137215733D01*
X155311142Y-137233162D01*
X155309520Y-137256400D01*
X155308121Y-137286459D01*
X155306928Y-137324354D01*
X155305928Y-137371098D01*
X155305106Y-137427704D01*
X155304447Y-137495185D01*
X155303936Y-137574554D01*
X155303559Y-137666825D01*
X155303300Y-137773011D01*
X155303145Y-137894126D01*
X155303080Y-138028073D01*
X155302953Y-138182401D01*
X155302634Y-138319817D01*
X155302123Y-138440342D01*
X155301420Y-138543997D01*
X155300524Y-138630803D01*
X155299435Y-138700780D01*
X155298153Y-138753948D01*
X155296678Y-138790330D01*
X155295009Y-138809944D01*
X155294169Y-138813356D01*
X155288904Y-138820371D01*
X155279982Y-138825052D01*
X155264329Y-138827862D01*
X155238872Y-138829262D01*
X155200537Y-138829713D01*
X155185139Y-138829733D01*
X155138358Y-138829170D01*
X155106113Y-138827311D01*
X155086039Y-138823904D01*
X155075771Y-138818698D01*
X155075126Y-138817988D01*
X155073401Y-138811267D01*
X155071901Y-138795078D01*
X155070621Y-138768731D01*
X155069555Y-138731533D01*
X155068696Y-138682796D01*
X155068039Y-138621829D01*
X155067577Y-138547940D01*
X155067305Y-138460439D01*
X155067217Y-138358635D01*
X155067305Y-138241838D01*
X155067565Y-138109358D01*
X155067896Y-137990371D01*
X155070415Y-137174500D01*
X155089859Y-137111232D01*
X155128741Y-137010638D01*
X155179968Y-136921113D01*
X155243096Y-136843189D01*
X155317683Y-136777399D01*
X155403286Y-136724275D01*
X155417233Y-136717344D01*
X155467220Y-136695004D01*
X155514929Y-136677959D01*
X155564125Y-136665452D01*
X155618577Y-136656726D01*
X155682050Y-136651024D01*
X155758310Y-136647589D01*
X155765442Y-136647379D01*
X155825144Y-136645780D01*
X155870026Y-136645784D01*
G37*
X155870026Y-136645784D02*
X155902200Y-136648799D01*
X155923780Y-136656235D01*
X155936878Y-136669501D01*
X155943607Y-136690007D01*
X155946078Y-136719162D01*
X155946406Y-136758375D01*
X155946400Y-136768100D01*
X155946227Y-136809974D01*
X155944245Y-136841052D01*
X155938259Y-136862941D01*
X155926073Y-136877251D01*
X155905491Y-136885590D01*
X155874319Y-136889567D01*
X155830360Y-136890790D01*
X155778845Y-136890866D01*
X155708949Y-136891901D01*
X155652433Y-136895412D01*
X155605848Y-136902013D01*
X155565744Y-136912316D01*
X155528671Y-136926933D01*
X155503103Y-136939828D01*
X155441985Y-136982394D01*
X155390238Y-137037776D01*
X155349447Y-137103753D01*
X155321200Y-137178101D01*
X155315111Y-137203100D01*
X155313001Y-137215733D01*
X155311142Y-137233162D01*
X155309520Y-137256400D01*
X155308121Y-137286459D01*
X155306928Y-137324354D01*
X155305928Y-137371098D01*
X155305106Y-137427704D01*
X155304447Y-137495185D01*
X155303936Y-137574554D01*
X155303559Y-137666825D01*
X155303300Y-137773011D01*
X155303145Y-137894126D01*
X155303080Y-138028073D01*
X155302953Y-138182401D01*
X155302634Y-138319817D01*
X155302123Y-138440342D01*
X155301420Y-138543997D01*
X155300524Y-138630803D01*
X155299435Y-138700780D01*
X155298153Y-138753948D01*
X155296678Y-138790330D01*
X155295009Y-138809944D01*
X155294169Y-138813356D01*
X155288904Y-138820371D01*
X155279982Y-138825052D01*
X155264329Y-138827862D01*
X155238872Y-138829262D01*
X155200537Y-138829713D01*
X155185139Y-138829733D01*
X155138358Y-138829170D01*
X155106113Y-138827311D01*
X155086039Y-138823904D01*
X155075771Y-138818698D01*
X155075126Y-138817988D01*
X155073401Y-138811267D01*
X155071901Y-138795078D01*
X155070621Y-138768731D01*
X155069555Y-138731533D01*
X155068696Y-138682796D01*
X155068039Y-138621829D01*
X155067577Y-138547940D01*
X155067305Y-138460439D01*
X155067217Y-138358635D01*
X155067305Y-138241838D01*
X155067565Y-138109358D01*
X155067896Y-137990371D01*
X155070415Y-137174500D01*
X155089859Y-137111232D01*
X155128741Y-137010638D01*
X155179968Y-136921113D01*
X155243096Y-136843189D01*
X155317683Y-136777399D01*
X155403286Y-136724275D01*
X155417233Y-136717344D01*
X155467220Y-136695004D01*
X155514929Y-136677959D01*
X155564125Y-136665452D01*
X155618577Y-136656726D01*
X155682050Y-136651024D01*
X155758310Y-136647589D01*
X155765442Y-136647379D01*
X155825144Y-136645780D01*
X155870026Y-136645784D01*
G36*
X148924345Y-136048803D02*
G01*
X148925712Y-136049583D01*
X148929592Y-136053243D01*
X148932748Y-136059955D01*
X148935272Y-136071398D01*
X148937256Y-136089250D01*
X148938791Y-136115192D01*
X148939970Y-136150901D01*
X148940884Y-136198057D01*
X148941625Y-136258339D01*
X148942284Y-136333425D01*
X148942458Y-136356270D01*
X148944683Y-136653800D01*
X149130361Y-136653800D01*
X149195702Y-136653739D01*
X149246061Y-136654281D01*
X149283382Y-136656512D01*
X149309610Y-136661521D01*
X149326689Y-136670393D01*
X149336564Y-136684216D01*
X149341180Y-136704077D01*
X149342480Y-136731062D01*
X149342409Y-136766259D01*
X149342400Y-136772333D01*
X149342510Y-136808827D01*
X149341548Y-136836962D01*
X149337569Y-136857821D01*
X149328631Y-136872488D01*
X149312794Y-136882047D01*
X149288113Y-136887582D01*
X149252646Y-136890175D01*
X149204452Y-136890910D01*
X149141587Y-136890872D01*
X149129923Y-136890867D01*
X148943806Y-136890867D01*
X148946673Y-137574550D01*
X148947222Y-137699496D01*
X148947773Y-137808677D01*
X148948352Y-137903259D01*
X148948988Y-137984410D01*
X148949708Y-138053298D01*
X148950541Y-138111089D01*
X148951513Y-138158952D01*
X148952652Y-138198053D01*
X148953987Y-138229561D01*
X148955545Y-138254642D01*
X148957353Y-138274463D01*
X148959440Y-138290194D01*
X148961834Y-138303000D01*
X148964227Y-138312819D01*
X148992333Y-138393733D01*
X149029487Y-138460605D01*
X149076066Y-138513936D01*
X149132449Y-138554229D01*
X149153912Y-138565044D01*
X149184376Y-138576940D01*
X149216772Y-138584593D01*
X149257065Y-138589197D01*
X149282395Y-138590747D01*
X149318647Y-138593340D01*
X149348975Y-138596965D01*
X149369058Y-138601034D01*
X149374150Y-138603231D01*
X149378922Y-138615310D01*
X149382358Y-138640069D01*
X149384448Y-138673309D01*
X149385184Y-138710829D01*
X149384559Y-138748430D01*
X149382563Y-138781911D01*
X149379190Y-138807071D01*
X149374573Y-138819573D01*
X149359881Y-138825296D01*
X149332264Y-138828625D01*
X149295543Y-138829664D01*
X149253542Y-138828519D01*
X149210082Y-138825295D01*
X149168986Y-138820097D01*
X149134077Y-138813030D01*
X149133798Y-138812957D01*
X149043524Y-138781233D01*
X148963629Y-138736166D01*
X148894191Y-138677849D01*
X148835285Y-138606378D01*
X148786987Y-138521848D01*
X148749376Y-138424352D01*
X148722526Y-138313986D01*
X148720321Y-138301574D01*
X148717883Y-138285141D01*
X148715761Y-138265347D01*
X148713934Y-138241013D01*
X148712383Y-138210957D01*
X148711087Y-138173998D01*
X148710024Y-138128955D01*
X148709174Y-138074646D01*
X148708518Y-138009891D01*
X148708034Y-137933509D01*
X148707701Y-137844318D01*
X148707500Y-137741137D01*
X148707410Y-137622785D01*
X148707400Y-137558624D01*
X148707400Y-136890867D01*
X148568180Y-136890867D01*
X148511404Y-136890777D01*
X148469350Y-136889456D01*
X148439812Y-136885324D01*
X148420581Y-136876799D01*
X148409452Y-136862303D01*
X148404216Y-136840255D01*
X148402667Y-136809074D01*
X148402600Y-136772333D01*
X148402724Y-136731689D01*
X148404569Y-136701584D01*
X148410342Y-136680439D01*
X148422250Y-136666672D01*
X148442500Y-136658705D01*
X148473300Y-136654957D01*
X148516856Y-136653848D01*
X148568180Y-136653800D01*
X148707400Y-136653800D01*
X148707400Y-136155772D01*
X148731285Y-136135969D01*
X148749225Y-136123725D01*
X148777853Y-136107056D01*
X148812476Y-136088620D01*
X148833180Y-136078296D01*
X148870842Y-136060683D01*
X148896658Y-136050495D01*
X148913526Y-136046835D01*
X148924345Y-136048803D01*
G37*
X148924345Y-136048803D02*
X148925712Y-136049583D01*
X148929592Y-136053243D01*
X148932748Y-136059955D01*
X148935272Y-136071398D01*
X148937256Y-136089250D01*
X148938791Y-136115192D01*
X148939970Y-136150901D01*
X148940884Y-136198057D01*
X148941625Y-136258339D01*
X148942284Y-136333425D01*
X148942458Y-136356270D01*
X148944683Y-136653800D01*
X149130361Y-136653800D01*
X149195702Y-136653739D01*
X149246061Y-136654281D01*
X149283382Y-136656512D01*
X149309610Y-136661521D01*
X149326689Y-136670393D01*
X149336564Y-136684216D01*
X149341180Y-136704077D01*
X149342480Y-136731062D01*
X149342409Y-136766259D01*
X149342400Y-136772333D01*
X149342510Y-136808827D01*
X149341548Y-136836962D01*
X149337569Y-136857821D01*
X149328631Y-136872488D01*
X149312794Y-136882047D01*
X149288113Y-136887582D01*
X149252646Y-136890175D01*
X149204452Y-136890910D01*
X149141587Y-136890872D01*
X149129923Y-136890867D01*
X148943806Y-136890867D01*
X148946673Y-137574550D01*
X148947222Y-137699496D01*
X148947773Y-137808677D01*
X148948352Y-137903259D01*
X148948988Y-137984410D01*
X148949708Y-138053298D01*
X148950541Y-138111089D01*
X148951513Y-138158952D01*
X148952652Y-138198053D01*
X148953987Y-138229561D01*
X148955545Y-138254642D01*
X148957353Y-138274463D01*
X148959440Y-138290194D01*
X148961834Y-138303000D01*
X148964227Y-138312819D01*
X148992333Y-138393733D01*
X149029487Y-138460605D01*
X149076066Y-138513936D01*
X149132449Y-138554229D01*
X149153912Y-138565044D01*
X149184376Y-138576940D01*
X149216772Y-138584593D01*
X149257065Y-138589197D01*
X149282395Y-138590747D01*
X149318647Y-138593340D01*
X149348975Y-138596965D01*
X149369058Y-138601034D01*
X149374150Y-138603231D01*
X149378922Y-138615310D01*
X149382358Y-138640069D01*
X149384448Y-138673309D01*
X149385184Y-138710829D01*
X149384559Y-138748430D01*
X149382563Y-138781911D01*
X149379190Y-138807071D01*
X149374573Y-138819573D01*
X149359881Y-138825296D01*
X149332264Y-138828625D01*
X149295543Y-138829664D01*
X149253542Y-138828519D01*
X149210082Y-138825295D01*
X149168986Y-138820097D01*
X149134077Y-138813030D01*
X149133798Y-138812957D01*
X149043524Y-138781233D01*
X148963629Y-138736166D01*
X148894191Y-138677849D01*
X148835285Y-138606378D01*
X148786987Y-138521848D01*
X148749376Y-138424352D01*
X148722526Y-138313986D01*
X148720321Y-138301574D01*
X148717883Y-138285141D01*
X148715761Y-138265347D01*
X148713934Y-138241013D01*
X148712383Y-138210957D01*
X148711087Y-138173998D01*
X148710024Y-138128955D01*
X148709174Y-138074646D01*
X148708518Y-138009891D01*
X148708034Y-137933509D01*
X148707701Y-137844318D01*
X148707500Y-137741137D01*
X148707410Y-137622785D01*
X148707400Y-137558624D01*
X148707400Y-136890867D01*
X148568180Y-136890867D01*
X148511404Y-136890777D01*
X148469350Y-136889456D01*
X148439812Y-136885324D01*
X148420581Y-136876799D01*
X148409452Y-136862303D01*
X148404216Y-136840255D01*
X148402667Y-136809074D01*
X148402600Y-136772333D01*
X148402724Y-136731689D01*
X148404569Y-136701584D01*
X148410342Y-136680439D01*
X148422250Y-136666672D01*
X148442500Y-136658705D01*
X148473300Y-136654957D01*
X148516856Y-136653848D01*
X148568180Y-136653800D01*
X148707400Y-136653800D01*
X148707400Y-136155772D01*
X148731285Y-136135969D01*
X148749225Y-136123725D01*
X148777853Y-136107056D01*
X148812476Y-136088620D01*
X148833180Y-136078296D01*
X148870842Y-136060683D01*
X148896658Y-136050495D01*
X148913526Y-136046835D01*
X148924345Y-136048803D01*
G36*
X157097867Y-136624790D02*
G01*
X157149836Y-136625112D01*
X157188916Y-136626215D01*
X157219149Y-136628560D01*
X157244577Y-136632609D01*
X157269240Y-136638826D01*
X157296833Y-136647557D01*
X157391341Y-136687263D01*
X157474708Y-136739687D01*
X157546970Y-136804864D01*
X157608161Y-136882833D01*
X157658318Y-136973631D01*
X157696217Y-137073215D01*
X157719804Y-137149100D01*
X157722498Y-137706096D01*
X157723002Y-137820250D01*
X157723315Y-137918825D01*
X157723414Y-138003175D01*
X157723276Y-138074653D01*
X157722879Y-138134612D01*
X157722200Y-138184407D01*
X157721217Y-138225391D01*
X157719906Y-138258918D01*
X157718246Y-138286341D01*
X157716212Y-138309013D01*
X157713784Y-138328289D01*
X157711883Y-138340218D01*
X157686637Y-138441823D01*
X157647873Y-138535480D01*
X157596610Y-138619958D01*
X157533867Y-138694025D01*
X157460662Y-138756451D01*
X157378012Y-138806004D01*
X157301067Y-138837091D01*
X157198977Y-138861417D01*
X157093567Y-138870265D01*
X156988985Y-138863292D01*
X156987800Y-138863118D01*
X156889698Y-138840484D01*
X156797888Y-138803140D01*
X156714002Y-138752259D01*
X156639675Y-138689018D01*
X156576542Y-138614592D01*
X156527028Y-138531773D01*
X156499278Y-138470379D01*
X156479410Y-138413472D01*
X156465514Y-138354289D01*
X156455682Y-138286069D01*
X156454421Y-138274463D01*
X156452822Y-138235699D01*
X156686093Y-138235699D01*
X156686673Y-138242916D01*
X156701295Y-138330694D01*
X156728292Y-138409016D01*
X156766926Y-138476892D01*
X156816459Y-138533330D01*
X156876152Y-138577340D01*
X156945267Y-138607931D01*
X156962400Y-138612960D01*
X157015545Y-138622466D01*
X157076741Y-138625994D01*
X157139095Y-138623636D01*
X157195712Y-138615485D01*
X157218961Y-138609501D01*
X157255619Y-138595689D01*
X157292818Y-138577770D01*
X157315102Y-138564454D01*
X157356324Y-138529272D01*
X157396071Y-138482846D01*
X157430220Y-138430655D01*
X157454037Y-138379861D01*
X157459667Y-138363709D01*
X157464150Y-138348000D01*
X157467646Y-138330554D01*
X157470316Y-138309190D01*
X157472321Y-138281727D01*
X157473822Y-138245985D01*
X157474978Y-138199783D01*
X157475951Y-138140940D01*
X157476870Y-138069850D01*
X157479984Y-137813733D01*
X157248371Y-137813733D01*
X157169911Y-137813974D01*
X157106008Y-137814897D01*
X157054289Y-137816804D01*
X157012380Y-137819997D01*
X156977910Y-137824778D01*
X156948505Y-137831448D01*
X156921792Y-137840310D01*
X156895399Y-137851664D01*
X156876231Y-137861061D01*
X156818249Y-137899640D01*
X156769227Y-137950901D01*
X156730332Y-138012490D01*
X156702733Y-138082055D01*
X156687598Y-138157242D01*
X156686093Y-138235699D01*
X156452822Y-138235699D01*
X156450994Y-138191403D01*
X156456931Y-138105999D01*
X156471597Y-138026010D01*
X156476114Y-138009281D01*
X156507604Y-137927420D01*
X156552740Y-137848785D01*
X156608999Y-137776430D01*
X156673858Y-137713415D01*
X156744793Y-137662795D01*
X156776133Y-137645798D01*
X156815220Y-137627216D01*
X156850805Y-137612142D01*
X156885353Y-137600170D01*
X156921325Y-137590897D01*
X156961185Y-137583919D01*
X157007397Y-137578830D01*
X157062424Y-137575227D01*
X157128728Y-137572705D01*
X157208772Y-137570860D01*
X157235450Y-137570384D01*
X157487333Y-137566091D01*
X157487333Y-137407023D01*
X157486349Y-137325522D01*
X157483111Y-137257980D01*
X157477195Y-137201524D01*
X157468174Y-137153277D01*
X157455622Y-137110367D01*
X157439115Y-137069918D01*
X157436605Y-137064583D01*
X157397052Y-137000591D01*
X157345578Y-136947111D01*
X157284330Y-136905231D01*
X157215455Y-136876041D01*
X157141101Y-136860629D01*
X157063416Y-136860085D01*
X157039181Y-136863076D01*
X156962868Y-136882629D01*
X156896213Y-136915938D01*
X156839590Y-136962596D01*
X156793374Y-137022195D01*
X156757938Y-137094330D01*
X156733657Y-137178594D01*
X156729789Y-137199070D01*
X156722975Y-137233993D01*
X156715818Y-137263160D01*
X156709491Y-137282042D01*
X156707332Y-137285853D01*
X156695218Y-137290564D01*
X156670466Y-137294112D01*
X156637335Y-137296434D01*
X156600085Y-137297466D01*
X156562977Y-137297145D01*
X156530268Y-137295408D01*
X156506220Y-137292192D01*
X156496733Y-137288973D01*
X156488338Y-137274394D01*
X156485317Y-137246792D01*
X156487179Y-137209028D01*
X156493430Y-137163966D01*
X156503580Y-137114466D01*
X156517137Y-137063391D01*
X156533610Y-137013604D01*
X156551513Y-136970101D01*
X156601158Y-136879276D01*
X156660035Y-136802392D01*
X156728953Y-136738698D01*
X156808723Y-136687444D01*
X156898981Y-136648289D01*
X156926270Y-136639134D01*
X156949835Y-136632699D01*
X156973647Y-136628515D01*
X157001675Y-136626113D01*
X157037891Y-136625024D01*
X157086266Y-136624778D01*
X157097867Y-136624790D01*
G37*
X157097867Y-136624790D02*
X157149836Y-136625112D01*
X157188916Y-136626215D01*
X157219149Y-136628560D01*
X157244577Y-136632609D01*
X157269240Y-136638826D01*
X157296833Y-136647557D01*
X157391341Y-136687263D01*
X157474708Y-136739687D01*
X157546970Y-136804864D01*
X157608161Y-136882833D01*
X157658318Y-136973631D01*
X157696217Y-137073215D01*
X157719804Y-137149100D01*
X157722498Y-137706096D01*
X157723002Y-137820250D01*
X157723315Y-137918825D01*
X157723414Y-138003175D01*
X157723276Y-138074653D01*
X157722879Y-138134612D01*
X157722200Y-138184407D01*
X157721217Y-138225391D01*
X157719906Y-138258918D01*
X157718246Y-138286341D01*
X157716212Y-138309013D01*
X157713784Y-138328289D01*
X157711883Y-138340218D01*
X157686637Y-138441823D01*
X157647873Y-138535480D01*
X157596610Y-138619958D01*
X157533867Y-138694025D01*
X157460662Y-138756451D01*
X157378012Y-138806004D01*
X157301067Y-138837091D01*
X157198977Y-138861417D01*
X157093567Y-138870265D01*
X156988985Y-138863292D01*
X156987800Y-138863118D01*
X156889698Y-138840484D01*
X156797888Y-138803140D01*
X156714002Y-138752259D01*
X156639675Y-138689018D01*
X156576542Y-138614592D01*
X156527028Y-138531773D01*
X156499278Y-138470379D01*
X156479410Y-138413472D01*
X156465514Y-138354289D01*
X156455682Y-138286069D01*
X156454421Y-138274463D01*
X156452822Y-138235699D01*
X156686093Y-138235699D01*
X156686673Y-138242916D01*
X156701295Y-138330694D01*
X156728292Y-138409016D01*
X156766926Y-138476892D01*
X156816459Y-138533330D01*
X156876152Y-138577340D01*
X156945267Y-138607931D01*
X156962400Y-138612960D01*
X157015545Y-138622466D01*
X157076741Y-138625994D01*
X157139095Y-138623636D01*
X157195712Y-138615485D01*
X157218961Y-138609501D01*
X157255619Y-138595689D01*
X157292818Y-138577770D01*
X157315102Y-138564454D01*
X157356324Y-138529272D01*
X157396071Y-138482846D01*
X157430220Y-138430655D01*
X157454037Y-138379861D01*
X157459667Y-138363709D01*
X157464150Y-138348000D01*
X157467646Y-138330554D01*
X157470316Y-138309190D01*
X157472321Y-138281727D01*
X157473822Y-138245985D01*
X157474978Y-138199783D01*
X157475951Y-138140940D01*
X157476870Y-138069850D01*
X157479984Y-137813733D01*
X157248371Y-137813733D01*
X157169911Y-137813974D01*
X157106008Y-137814897D01*
X157054289Y-137816804D01*
X157012380Y-137819997D01*
X156977910Y-137824778D01*
X156948505Y-137831448D01*
X156921792Y-137840310D01*
X156895399Y-137851664D01*
X156876231Y-137861061D01*
X156818249Y-137899640D01*
X156769227Y-137950901D01*
X156730332Y-138012490D01*
X156702733Y-138082055D01*
X156687598Y-138157242D01*
X156686093Y-138235699D01*
X156452822Y-138235699D01*
X156450994Y-138191403D01*
X156456931Y-138105999D01*
X156471597Y-138026010D01*
X156476114Y-138009281D01*
X156507604Y-137927420D01*
X156552740Y-137848785D01*
X156608999Y-137776430D01*
X156673858Y-137713415D01*
X156744793Y-137662795D01*
X156776133Y-137645798D01*
X156815220Y-137627216D01*
X156850805Y-137612142D01*
X156885353Y-137600170D01*
X156921325Y-137590897D01*
X156961185Y-137583919D01*
X157007397Y-137578830D01*
X157062424Y-137575227D01*
X157128728Y-137572705D01*
X157208772Y-137570860D01*
X157235450Y-137570384D01*
X157487333Y-137566091D01*
X157487333Y-137407023D01*
X157486349Y-137325522D01*
X157483111Y-137257980D01*
X157477195Y-137201524D01*
X157468174Y-137153277D01*
X157455622Y-137110367D01*
X157439115Y-137069918D01*
X157436605Y-137064583D01*
X157397052Y-137000591D01*
X157345578Y-136947111D01*
X157284330Y-136905231D01*
X157215455Y-136876041D01*
X157141101Y-136860629D01*
X157063416Y-136860085D01*
X157039181Y-136863076D01*
X156962868Y-136882629D01*
X156896213Y-136915938D01*
X156839590Y-136962596D01*
X156793374Y-137022195D01*
X156757938Y-137094330D01*
X156733657Y-137178594D01*
X156729789Y-137199070D01*
X156722975Y-137233993D01*
X156715818Y-137263160D01*
X156709491Y-137282042D01*
X156707332Y-137285853D01*
X156695218Y-137290564D01*
X156670466Y-137294112D01*
X156637335Y-137296434D01*
X156600085Y-137297466D01*
X156562977Y-137297145D01*
X156530268Y-137295408D01*
X156506220Y-137292192D01*
X156496733Y-137288973D01*
X156488338Y-137274394D01*
X156485317Y-137246792D01*
X156487179Y-137209028D01*
X156493430Y-137163966D01*
X156503580Y-137114466D01*
X156517137Y-137063391D01*
X156533610Y-137013604D01*
X156551513Y-136970101D01*
X156601158Y-136879276D01*
X156660035Y-136802392D01*
X156728953Y-136738698D01*
X156808723Y-136687444D01*
X156898981Y-136648289D01*
X156926270Y-136639134D01*
X156949835Y-136632699D01*
X156973647Y-136628515D01*
X157001675Y-136626113D01*
X157037891Y-136625024D01*
X157086266Y-136624778D01*
X157097867Y-136624790D01*
G36*
X154409899Y-136562126D02*
G01*
X154452895Y-136624332D01*
X154493309Y-136683051D01*
X154530016Y-136736632D01*
X154561894Y-136783424D01*
X154587820Y-136821777D01*
X154606669Y-136850041D01*
X154617320Y-136866565D01*
X154618779Y-136869043D01*
X154635476Y-136915475D01*
X154638507Y-136965549D01*
X154632318Y-136998374D01*
X154626532Y-137008826D01*
X154611926Y-137032054D01*
X154589176Y-137067066D01*
X154558960Y-137112871D01*
X154521955Y-137168478D01*
X154478836Y-137232894D01*
X154430282Y-137305128D01*
X154376968Y-137384189D01*
X154319572Y-137469085D01*
X154258770Y-137558824D01*
X154195239Y-137652415D01*
X154129656Y-137748866D01*
X154062698Y-137847186D01*
X153995042Y-137946383D01*
X153927364Y-138045465D01*
X153860342Y-138143442D01*
X153794651Y-138239320D01*
X153730970Y-138332110D01*
X153669974Y-138420818D01*
X153612340Y-138504455D01*
X153558746Y-138582027D01*
X153509868Y-138652544D01*
X153466383Y-138715013D01*
X153428968Y-138768444D01*
X153398299Y-138811845D01*
X153375053Y-138844223D01*
X153359908Y-138864589D01*
X153353540Y-138871949D01*
X153353483Y-138871959D01*
X153352754Y-138863660D01*
X153352049Y-138839356D01*
X153351372Y-138799977D01*
X153350728Y-138746451D01*
X153350122Y-138679709D01*
X153349558Y-138600677D01*
X153349041Y-138510287D01*
X153348576Y-138409466D01*
X153348168Y-138299143D01*
X153347820Y-138180248D01*
X153347538Y-138053709D01*
X153347327Y-137920456D01*
X153347191Y-137781417D01*
X153347134Y-137637522D01*
X153347133Y-137611797D01*
X153347177Y-137423287D01*
X153347309Y-137251293D01*
X153347534Y-137095399D01*
X153347854Y-136955187D01*
X153348272Y-136830242D01*
X153348792Y-136720145D01*
X153349415Y-136624481D01*
X153350146Y-136542832D01*
X153350988Y-136474781D01*
X153351942Y-136419913D01*
X153353014Y-136377809D01*
X153354204Y-136348053D01*
X153355517Y-136330229D01*
X153356490Y-136324685D01*
X153367488Y-136303519D01*
X153381030Y-136289721D01*
X153381334Y-136289554D01*
X153393472Y-136287604D01*
X153421529Y-136285878D01*
X153464493Y-136284395D01*
X153521349Y-136283176D01*
X153591086Y-136282240D01*
X153672689Y-136281606D01*
X153765147Y-136281296D01*
X153806092Y-136281267D01*
X154215364Y-136281267D01*
X154409899Y-136562126D01*
G37*
X154409899Y-136562126D02*
X154452895Y-136624332D01*
X154493309Y-136683051D01*
X154530016Y-136736632D01*
X154561894Y-136783424D01*
X154587820Y-136821777D01*
X154606669Y-136850041D01*
X154617320Y-136866565D01*
X154618779Y-136869043D01*
X154635476Y-136915475D01*
X154638507Y-136965549D01*
X154632318Y-136998374D01*
X154626532Y-137008826D01*
X154611926Y-137032054D01*
X154589176Y-137067066D01*
X154558960Y-137112871D01*
X154521955Y-137168478D01*
X154478836Y-137232894D01*
X154430282Y-137305128D01*
X154376968Y-137384189D01*
X154319572Y-137469085D01*
X154258770Y-137558824D01*
X154195239Y-137652415D01*
X154129656Y-137748866D01*
X154062698Y-137847186D01*
X153995042Y-137946383D01*
X153927364Y-138045465D01*
X153860342Y-138143442D01*
X153794651Y-138239320D01*
X153730970Y-138332110D01*
X153669974Y-138420818D01*
X153612340Y-138504455D01*
X153558746Y-138582027D01*
X153509868Y-138652544D01*
X153466383Y-138715013D01*
X153428968Y-138768444D01*
X153398299Y-138811845D01*
X153375053Y-138844223D01*
X153359908Y-138864589D01*
X153353540Y-138871949D01*
X153353483Y-138871959D01*
X153352754Y-138863660D01*
X153352049Y-138839356D01*
X153351372Y-138799977D01*
X153350728Y-138746451D01*
X153350122Y-138679709D01*
X153349558Y-138600677D01*
X153349041Y-138510287D01*
X153348576Y-138409466D01*
X153348168Y-138299143D01*
X153347820Y-138180248D01*
X153347538Y-138053709D01*
X153347327Y-137920456D01*
X153347191Y-137781417D01*
X153347134Y-137637522D01*
X153347133Y-137611797D01*
X153347177Y-137423287D01*
X153347309Y-137251293D01*
X153347534Y-137095399D01*
X153347854Y-136955187D01*
X153348272Y-136830242D01*
X153348792Y-136720145D01*
X153349415Y-136624481D01*
X153350146Y-136542832D01*
X153350988Y-136474781D01*
X153351942Y-136419913D01*
X153353014Y-136377809D01*
X153354204Y-136348053D01*
X153355517Y-136330229D01*
X153356490Y-136324685D01*
X153367488Y-136303519D01*
X153381030Y-136289721D01*
X153381334Y-136289554D01*
X153393472Y-136287604D01*
X153421529Y-136285878D01*
X153464493Y-136284395D01*
X153521349Y-136283176D01*
X153591086Y-136282240D01*
X153672689Y-136281606D01*
X153765147Y-136281296D01*
X153806092Y-136281267D01*
X154215364Y-136281267D01*
X154409899Y-136562126D01*
G36*
X150781133Y-136626490D02*
G01*
X150877357Y-136644897D01*
X150968175Y-136677208D01*
X151052191Y-136722888D01*
X151128008Y-136781401D01*
X151194232Y-136852214D01*
X151249466Y-136934790D01*
X151264207Y-136962833D01*
X151298553Y-137044889D01*
X151321082Y-137129750D01*
X151332713Y-137221656D01*
X151334867Y-137288800D01*
X151332801Y-137361691D01*
X151325659Y-137423872D01*
X151312148Y-137481141D01*
X151290973Y-137539293D01*
X151267465Y-137590716D01*
X151217187Y-137675012D01*
X151154365Y-137748447D01*
X151080074Y-137810222D01*
X150995392Y-137859539D01*
X150901392Y-137895598D01*
X150835357Y-137911635D01*
X150806541Y-137915870D01*
X150768585Y-137919124D01*
X150719774Y-137921468D01*
X150658395Y-137922971D01*
X150582732Y-137923702D01*
X150535455Y-137923800D01*
X150299133Y-137923800D01*
X150299429Y-138074083D01*
X150301158Y-138164577D01*
X150306352Y-138241047D01*
X150315599Y-138306158D01*
X150329490Y-138362572D01*
X150348612Y-138412955D01*
X150373555Y-138459970D01*
X150390567Y-138486231D01*
X150422139Y-138522045D01*
X150465010Y-138556802D01*
X150513765Y-138586729D01*
X150562990Y-138608056D01*
X150567534Y-138609509D01*
X150628009Y-138622383D01*
X150694612Y-138626926D01*
X150760649Y-138623149D01*
X150819428Y-138611065D01*
X150825748Y-138609033D01*
X150896301Y-138576665D01*
X150957274Y-138530736D01*
X151007972Y-138472102D01*
X151047698Y-138401617D01*
X151075757Y-138320137D01*
X151081613Y-138294573D01*
X151088165Y-138258850D01*
X151092936Y-138225619D01*
X151094981Y-138201559D01*
X151095000Y-138199928D01*
X151096786Y-138177501D01*
X151103824Y-138161917D01*
X151118632Y-138151978D01*
X151143731Y-138146481D01*
X151181639Y-138144228D01*
X151212520Y-138143933D01*
X151260538Y-138144338D01*
X151294031Y-138146904D01*
X151315410Y-138153653D01*
X151327082Y-138166612D01*
X151331456Y-138187805D01*
X151330940Y-138219255D01*
X151329408Y-138242178D01*
X151314560Y-138348646D01*
X151286105Y-138449868D01*
X151244992Y-138543870D01*
X151192167Y-138628674D01*
X151128577Y-138702306D01*
X151093810Y-138733680D01*
X151048972Y-138765692D01*
X150994012Y-138797281D01*
X150935493Y-138825125D01*
X150879977Y-138845902D01*
X150862167Y-138850967D01*
X150818072Y-138859185D01*
X150763519Y-138864931D01*
X150704842Y-138867919D01*
X150648375Y-138867861D01*
X150600451Y-138864472D01*
X150591472Y-138863217D01*
X150491591Y-138839445D01*
X150399991Y-138801200D01*
X150317416Y-138749174D01*
X150244613Y-138684058D01*
X150182326Y-138606543D01*
X150131301Y-138517322D01*
X150092284Y-138417085D01*
X150085406Y-138393700D01*
X150081707Y-138380085D01*
X150078527Y-138366932D01*
X150075826Y-138352909D01*
X150073565Y-138336681D01*
X150071704Y-138316914D01*
X150070204Y-138292276D01*
X150069025Y-138261433D01*
X150068128Y-138223050D01*
X150067472Y-138175794D01*
X150067020Y-138118332D01*
X150066730Y-138049330D01*
X150066563Y-137967453D01*
X150066480Y-137871370D01*
X150066441Y-137759745D01*
X150066440Y-137754466D01*
X150066430Y-137686733D01*
X150297419Y-137686733D01*
X150513431Y-137686733D01*
X150596936Y-137686290D01*
X150665101Y-137684916D01*
X150719496Y-137682542D01*
X150761691Y-137679101D01*
X150792847Y-137674602D01*
X150871938Y-137651963D01*
X150939965Y-137616554D01*
X150996660Y-137568617D01*
X151041756Y-137508396D01*
X151074986Y-137436131D01*
X151082547Y-137412326D01*
X151091477Y-137364431D01*
X151094839Y-137306403D01*
X151092908Y-137243999D01*
X151085964Y-137182978D01*
X151074283Y-137129099D01*
X151067953Y-137109772D01*
X151032647Y-137037532D01*
X150985193Y-136975926D01*
X150926932Y-136926350D01*
X150859207Y-136890203D01*
X150855556Y-136888757D01*
X150812760Y-136876935D01*
X150759488Y-136869341D01*
X150701721Y-136866214D01*
X150645440Y-136867791D01*
X150596626Y-136874309D01*
X150582116Y-136877887D01*
X150508879Y-136905972D01*
X150447350Y-136945027D01*
X150396630Y-136996002D01*
X150355820Y-137059844D01*
X150324022Y-137137500D01*
X150318244Y-137156201D01*
X150314041Y-137175095D01*
X150310562Y-137201610D01*
X150307706Y-137237507D01*
X150305368Y-137284549D01*
X150303445Y-137344497D01*
X150301834Y-137419114D01*
X150301418Y-137443317D01*
X150297419Y-137686733D01*
X150066430Y-137686733D01*
X150066423Y-137642092D01*
X150066458Y-137545304D01*
X150066584Y-137462755D01*
X150066840Y-137393099D01*
X150067264Y-137334987D01*
X150067895Y-137287074D01*
X150068774Y-137248012D01*
X150069938Y-137216454D01*
X150071426Y-137191054D01*
X150073278Y-137170463D01*
X150075533Y-137153335D01*
X150078229Y-137138324D01*
X150081405Y-137124081D01*
X150085101Y-137109261D01*
X150085109Y-137109228D01*
X150118797Y-137006175D01*
X150164219Y-136913973D01*
X150220743Y-136833357D01*
X150287733Y-136765057D01*
X150364556Y-136709807D01*
X150450577Y-136668338D01*
X150473976Y-136660035D01*
X150578046Y-136633523D01*
X150680897Y-136622520D01*
X150781133Y-136626490D01*
G37*
X150781133Y-136626490D02*
X150877357Y-136644897D01*
X150968175Y-136677208D01*
X151052191Y-136722888D01*
X151128008Y-136781401D01*
X151194232Y-136852214D01*
X151249466Y-136934790D01*
X151264207Y-136962833D01*
X151298553Y-137044889D01*
X151321082Y-137129750D01*
X151332713Y-137221656D01*
X151334867Y-137288800D01*
X151332801Y-137361691D01*
X151325659Y-137423872D01*
X151312148Y-137481141D01*
X151290973Y-137539293D01*
X151267465Y-137590716D01*
X151217187Y-137675012D01*
X151154365Y-137748447D01*
X151080074Y-137810222D01*
X150995392Y-137859539D01*
X150901392Y-137895598D01*
X150835357Y-137911635D01*
X150806541Y-137915870D01*
X150768585Y-137919124D01*
X150719774Y-137921468D01*
X150658395Y-137922971D01*
X150582732Y-137923702D01*
X150535455Y-137923800D01*
X150299133Y-137923800D01*
X150299429Y-138074083D01*
X150301158Y-138164577D01*
X150306352Y-138241047D01*
X150315599Y-138306158D01*
X150329490Y-138362572D01*
X150348612Y-138412955D01*
X150373555Y-138459970D01*
X150390567Y-138486231D01*
X150422139Y-138522045D01*
X150465010Y-138556802D01*
X150513765Y-138586729D01*
X150562990Y-138608056D01*
X150567534Y-138609509D01*
X150628009Y-138622383D01*
X150694612Y-138626926D01*
X150760649Y-138623149D01*
X150819428Y-138611065D01*
X150825748Y-138609033D01*
X150896301Y-138576665D01*
X150957274Y-138530736D01*
X151007972Y-138472102D01*
X151047698Y-138401617D01*
X151075757Y-138320137D01*
X151081613Y-138294573D01*
X151088165Y-138258850D01*
X151092936Y-138225619D01*
X151094981Y-138201559D01*
X151095000Y-138199928D01*
X151096786Y-138177501D01*
X151103824Y-138161917D01*
X151118632Y-138151978D01*
X151143731Y-138146481D01*
X151181639Y-138144228D01*
X151212520Y-138143933D01*
X151260538Y-138144338D01*
X151294031Y-138146904D01*
X151315410Y-138153653D01*
X151327082Y-138166612D01*
X151331456Y-138187805D01*
X151330940Y-138219255D01*
X151329408Y-138242178D01*
X151314560Y-138348646D01*
X151286105Y-138449868D01*
X151244992Y-138543870D01*
X151192167Y-138628674D01*
X151128577Y-138702306D01*
X151093810Y-138733680D01*
X151048972Y-138765692D01*
X150994012Y-138797281D01*
X150935493Y-138825125D01*
X150879977Y-138845902D01*
X150862167Y-138850967D01*
X150818072Y-138859185D01*
X150763519Y-138864931D01*
X150704842Y-138867919D01*
X150648375Y-138867861D01*
X150600451Y-138864472D01*
X150591472Y-138863217D01*
X150491591Y-138839445D01*
X150399991Y-138801200D01*
X150317416Y-138749174D01*
X150244613Y-138684058D01*
X150182326Y-138606543D01*
X150131301Y-138517322D01*
X150092284Y-138417085D01*
X150085406Y-138393700D01*
X150081707Y-138380085D01*
X150078527Y-138366932D01*
X150075826Y-138352909D01*
X150073565Y-138336681D01*
X150071704Y-138316914D01*
X150070204Y-138292276D01*
X150069025Y-138261433D01*
X150068128Y-138223050D01*
X150067472Y-138175794D01*
X150067020Y-138118332D01*
X150066730Y-138049330D01*
X150066563Y-137967453D01*
X150066480Y-137871370D01*
X150066441Y-137759745D01*
X150066440Y-137754466D01*
X150066430Y-137686733D01*
X150297419Y-137686733D01*
X150513431Y-137686733D01*
X150596936Y-137686290D01*
X150665101Y-137684916D01*
X150719496Y-137682542D01*
X150761691Y-137679101D01*
X150792847Y-137674602D01*
X150871938Y-137651963D01*
X150939965Y-137616554D01*
X150996660Y-137568617D01*
X151041756Y-137508396D01*
X151074986Y-137436131D01*
X151082547Y-137412326D01*
X151091477Y-137364431D01*
X151094839Y-137306403D01*
X151092908Y-137243999D01*
X151085964Y-137182978D01*
X151074283Y-137129099D01*
X151067953Y-137109772D01*
X151032647Y-137037532D01*
X150985193Y-136975926D01*
X150926932Y-136926350D01*
X150859207Y-136890203D01*
X150855556Y-136888757D01*
X150812760Y-136876935D01*
X150759488Y-136869341D01*
X150701721Y-136866214D01*
X150645440Y-136867791D01*
X150596626Y-136874309D01*
X150582116Y-136877887D01*
X150508879Y-136905972D01*
X150447350Y-136945027D01*
X150396630Y-136996002D01*
X150355820Y-137059844D01*
X150324022Y-137137500D01*
X150318244Y-137156201D01*
X150314041Y-137175095D01*
X150310562Y-137201610D01*
X150307706Y-137237507D01*
X150305368Y-137284549D01*
X150303445Y-137344497D01*
X150301834Y-137419114D01*
X150301418Y-137443317D01*
X150297419Y-137686733D01*
X150066430Y-137686733D01*
X150066423Y-137642092D01*
X150066458Y-137545304D01*
X150066584Y-137462755D01*
X150066840Y-137393099D01*
X150067264Y-137334987D01*
X150067895Y-137287074D01*
X150068774Y-137248012D01*
X150069938Y-137216454D01*
X150071426Y-137191054D01*
X150073278Y-137170463D01*
X150075533Y-137153335D01*
X150078229Y-137138324D01*
X150081405Y-137124081D01*
X150085101Y-137109261D01*
X150085109Y-137109228D01*
X150118797Y-137006175D01*
X150164219Y-136913973D01*
X150220743Y-136833357D01*
X150287733Y-136765057D01*
X150364556Y-136709807D01*
X150450577Y-136668338D01*
X150473976Y-136660035D01*
X150578046Y-136633523D01*
X150680897Y-136622520D01*
X150781133Y-136626490D01*
G36*
X153047305Y-136300789D02*
G01*
X153067733Y-136324544D01*
X153067733Y-137602539D01*
X153067691Y-137748223D01*
X153067566Y-137889221D01*
X153067365Y-138024612D01*
X153067091Y-138153471D01*
X153066750Y-138274878D01*
X153066345Y-138387908D01*
X153065883Y-138491639D01*
X153065366Y-138585149D01*
X153064801Y-138667515D01*
X153064192Y-138737815D01*
X153063544Y-138795126D01*
X153062860Y-138838524D01*
X153062147Y-138867089D01*
X153061409Y-138879896D01*
X153061202Y-138880533D01*
X153055705Y-138873683D01*
X153041207Y-138853675D01*
X153018271Y-138821323D01*
X152987463Y-138777442D01*
X152949347Y-138722847D01*
X152904488Y-138658351D01*
X152853449Y-138584769D01*
X152796797Y-138502915D01*
X152735096Y-138413604D01*
X152668909Y-138317650D01*
X152598803Y-138215868D01*
X152525341Y-138109071D01*
X152449088Y-137998074D01*
X152422264Y-137958996D01*
X152345010Y-137846345D01*
X152270332Y-137737300D01*
X152198800Y-137632702D01*
X152130984Y-137533390D01*
X152067454Y-137440204D01*
X152008781Y-137353983D01*
X151955533Y-137275568D01*
X151908282Y-137205797D01*
X151867597Y-137145512D01*
X151834049Y-137095552D01*
X151808207Y-137056756D01*
X151790641Y-137029965D01*
X151781922Y-137016018D01*
X151781096Y-137014411D01*
X151773435Y-136976718D01*
X151774414Y-136933014D01*
X151783553Y-136891550D01*
X151789033Y-136878167D01*
X151797379Y-136863896D01*
X151814310Y-136837453D01*
X151838689Y-136800528D01*
X151869379Y-136754812D01*
X151905241Y-136701996D01*
X151945138Y-136643770D01*
X151987933Y-136581827D01*
X152002630Y-136560667D01*
X152199900Y-136277033D01*
X153026877Y-136277033D01*
X153047305Y-136300789D01*
G37*
X153047305Y-136300789D02*
X153067733Y-136324544D01*
X153067733Y-137602539D01*
X153067691Y-137748223D01*
X153067566Y-137889221D01*
X153067365Y-138024612D01*
X153067091Y-138153471D01*
X153066750Y-138274878D01*
X153066345Y-138387908D01*
X153065883Y-138491639D01*
X153065366Y-138585149D01*
X153064801Y-138667515D01*
X153064192Y-138737815D01*
X153063544Y-138795126D01*
X153062860Y-138838524D01*
X153062147Y-138867089D01*
X153061409Y-138879896D01*
X153061202Y-138880533D01*
X153055705Y-138873683D01*
X153041207Y-138853675D01*
X153018271Y-138821323D01*
X152987463Y-138777442D01*
X152949347Y-138722847D01*
X152904488Y-138658351D01*
X152853449Y-138584769D01*
X152796797Y-138502915D01*
X152735096Y-138413604D01*
X152668909Y-138317650D01*
X152598803Y-138215868D01*
X152525341Y-138109071D01*
X152449088Y-137998074D01*
X152422264Y-137958996D01*
X152345010Y-137846345D01*
X152270332Y-137737300D01*
X152198800Y-137632702D01*
X152130984Y-137533390D01*
X152067454Y-137440204D01*
X152008781Y-137353983D01*
X151955533Y-137275568D01*
X151908282Y-137205797D01*
X151867597Y-137145512D01*
X151834049Y-137095552D01*
X151808207Y-137056756D01*
X151790641Y-137029965D01*
X151781922Y-137016018D01*
X151781096Y-137014411D01*
X151773435Y-136976718D01*
X151774414Y-136933014D01*
X151783553Y-136891550D01*
X151789033Y-136878167D01*
X151797379Y-136863896D01*
X151814310Y-136837453D01*
X151838689Y-136800528D01*
X151869379Y-136754812D01*
X151905241Y-136701996D01*
X151945138Y-136643770D01*
X151987933Y-136581827D01*
X152002630Y-136560667D01*
X152199900Y-136277033D01*
X153026877Y-136277033D01*
X153047305Y-136300789D01*
D12*
G04 #@! TO.C,J4*
X187830000Y-126270000D02*
X186500000Y-126270000D01*
X187830000Y-124940000D02*
X187830000Y-126270000D01*
X187830000Y-123670000D02*
X185170000Y-123670000D01*
X185170000Y-123670000D02*
X185170000Y-93130000D01*
X187830000Y-123670000D02*
X187830000Y-93130000D01*
X187830000Y-93130000D02*
X185170000Y-93130000D01*
G04 #@! TO.C,J3*
X151170000Y-93670000D02*
X152500000Y-93670000D01*
X151170000Y-95000000D02*
X151170000Y-93670000D01*
X151170000Y-96270000D02*
X153830000Y-96270000D01*
X153830000Y-96270000D02*
X153830000Y-126810000D01*
X151170000Y-96270000D02*
X151170000Y-126810000D01*
X151170000Y-126810000D02*
X153830000Y-126810000D01*
G04 #@! TO.C,J2*
X140670000Y-93050000D02*
X142000000Y-93050000D01*
X140670000Y-94380000D02*
X140670000Y-93050000D01*
X140670000Y-95650000D02*
X143330000Y-95650000D01*
X143330000Y-95650000D02*
X143330000Y-141430000D01*
X140670000Y-95650000D02*
X140670000Y-141430000D01*
X140670000Y-141430000D02*
X143330000Y-141430000D01*
G04 #@! TO.C,J1*
X108570000Y-93170000D02*
X109900000Y-93170000D01*
X108570000Y-94500000D02*
X108570000Y-93170000D01*
X108570000Y-95770000D02*
X111230000Y-95770000D01*
X111230000Y-95770000D02*
X111230000Y-141550000D01*
X108570000Y-95770000D02*
X108570000Y-141550000D01*
X108570000Y-141550000D02*
X111230000Y-141550000D01*
G04 #@! TO.C,C2*
X148165000Y-93630000D02*
X148870000Y-93630000D01*
X146130000Y-93630000D02*
X146835000Y-93630000D01*
X148165000Y-97870000D02*
X148870000Y-97870000D01*
X146130000Y-97870000D02*
X146835000Y-97870000D01*
X148870000Y-97870000D02*
X148870000Y-93630000D01*
X146130000Y-97870000D02*
X146130000Y-93630000D01*
G04 #@! TO.C,C1*
X104335000Y-106870000D02*
X103630000Y-106870000D01*
X106370000Y-106870000D02*
X105665000Y-106870000D01*
X104335000Y-102630000D02*
X103630000Y-102630000D01*
X106370000Y-102630000D02*
X105665000Y-102630000D01*
X103630000Y-102630000D02*
X103630000Y-106870000D01*
X106370000Y-102630000D02*
X106370000Y-106870000D01*
G04 #@! TO.C,U1*
D14*
X125237801Y-97452169D02*
X125237801Y-98262005D01*
X125285438Y-98357280D01*
X125333076Y-98404918D01*
X125428350Y-98452555D01*
X125618900Y-98452555D01*
X125714175Y-98404918D01*
X125761812Y-98357280D01*
X125809450Y-98262005D01*
X125809450Y-97452169D01*
X126809836Y-98452555D02*
X126238187Y-98452555D01*
X126524011Y-98452555D02*
X126524011Y-97452169D01*
X126428736Y-97595081D01*
X126333462Y-97690356D01*
X126238187Y-97737994D01*
G04 #@! TO.C,H4*
D10*
X192238095Y-135252380D02*
X192238095Y-134252380D01*
X192238095Y-134728571D02*
X192809523Y-134728571D01*
X192809523Y-135252380D02*
X192809523Y-134252380D01*
X193714285Y-134585714D02*
X193714285Y-135252380D01*
X193476190Y-134204761D02*
X193238095Y-134919047D01*
X193857142Y-134919047D01*
G04 #@! TO.C,H3*
X192238095Y-101952380D02*
X192238095Y-100952380D01*
X192238095Y-101428571D02*
X192809523Y-101428571D01*
X192809523Y-101952380D02*
X192809523Y-100952380D01*
X193190476Y-100952380D02*
X193809523Y-100952380D01*
X193476190Y-101333333D01*
X193619047Y-101333333D01*
X193714285Y-101380952D01*
X193761904Y-101428571D01*
X193809523Y-101523809D01*
X193809523Y-101761904D01*
X193761904Y-101857142D01*
X193714285Y-101904761D01*
X193619047Y-101952380D01*
X193333333Y-101952380D01*
X193238095Y-101904761D01*
X193190476Y-101857142D01*
G04 #@! TO.C,H2*
X100238095Y-101952380D02*
X100238095Y-100952380D01*
X100238095Y-101428571D02*
X100809523Y-101428571D01*
X100809523Y-101952380D02*
X100809523Y-100952380D01*
X101238095Y-101047619D02*
X101285714Y-101000000D01*
X101380952Y-100952380D01*
X101619047Y-100952380D01*
X101714285Y-101000000D01*
X101761904Y-101047619D01*
X101809523Y-101142857D01*
X101809523Y-101238095D01*
X101761904Y-101380952D01*
X101190476Y-101952380D01*
X101809523Y-101952380D01*
G04 #@! TO.C,H1*
X100238095Y-135252380D02*
X100238095Y-134252380D01*
X100238095Y-134728571D02*
X100809523Y-134728571D01*
X100809523Y-135252380D02*
X100809523Y-134252380D01*
X101809523Y-135252380D02*
X101238095Y-135252380D01*
X101523809Y-135252380D02*
X101523809Y-134252380D01*
X101428571Y-134395238D01*
X101333333Y-134490476D01*
X101238095Y-134538095D01*
G04 #@! TO.C,M1*
X168690476Y-96452380D02*
X168690476Y-95452380D01*
X169023809Y-96166666D01*
X169357142Y-95452380D01*
X169357142Y-96452380D01*
X170357142Y-96452380D02*
X169785714Y-96452380D01*
X170071428Y-96452380D02*
X170071428Y-95452380D01*
X169976190Y-95595238D01*
X169880952Y-95690476D01*
X169785714Y-95738095D01*
G04 #@! TO.C,R6*
X176322380Y-119976666D02*
X175846190Y-120310000D01*
X176322380Y-120548095D02*
X175322380Y-120548095D01*
X175322380Y-120167142D01*
X175370000Y-120071904D01*
X175417619Y-120024285D01*
X175512857Y-119976666D01*
X175655714Y-119976666D01*
X175750952Y-120024285D01*
X175798571Y-120071904D01*
X175846190Y-120167142D01*
X175846190Y-120548095D01*
X175322380Y-119119523D02*
X175322380Y-119310000D01*
X175370000Y-119405238D01*
X175417619Y-119452857D01*
X175560476Y-119548095D01*
X175750952Y-119595714D01*
X176131904Y-119595714D01*
X176227142Y-119548095D01*
X176274761Y-119500476D01*
X176322380Y-119405238D01*
X176322380Y-119214761D01*
X176274761Y-119119523D01*
X176227142Y-119071904D01*
X176131904Y-119024285D01*
X175893809Y-119024285D01*
X175798571Y-119071904D01*
X175750952Y-119119523D01*
X175703333Y-119214761D01*
X175703333Y-119405238D01*
X175750952Y-119500476D01*
X175798571Y-119548095D01*
X175893809Y-119595714D01*
G04 #@! TO.C,R5*
X181202380Y-119976666D02*
X180726190Y-120310000D01*
X181202380Y-120548095D02*
X180202380Y-120548095D01*
X180202380Y-120167142D01*
X180250000Y-120071904D01*
X180297619Y-120024285D01*
X180392857Y-119976666D01*
X180535714Y-119976666D01*
X180630952Y-120024285D01*
X180678571Y-120071904D01*
X180726190Y-120167142D01*
X180726190Y-120548095D01*
X180202380Y-119071904D02*
X180202380Y-119548095D01*
X180678571Y-119595714D01*
X180630952Y-119548095D01*
X180583333Y-119452857D01*
X180583333Y-119214761D01*
X180630952Y-119119523D01*
X180678571Y-119071904D01*
X180773809Y-119024285D01*
X181011904Y-119024285D01*
X181107142Y-119071904D01*
X181154761Y-119119523D01*
X181202380Y-119214761D01*
X181202380Y-119452857D01*
X181154761Y-119548095D01*
X181107142Y-119595714D01*
G04 #@! TO.C,R4*
X166582380Y-131856666D02*
X166106190Y-132190000D01*
X166582380Y-132428095D02*
X165582380Y-132428095D01*
X165582380Y-132047142D01*
X165630000Y-131951904D01*
X165677619Y-131904285D01*
X165772857Y-131856666D01*
X165915714Y-131856666D01*
X166010952Y-131904285D01*
X166058571Y-131951904D01*
X166106190Y-132047142D01*
X166106190Y-132428095D01*
X165915714Y-130999523D02*
X166582380Y-130999523D01*
X165534761Y-131237619D02*
X166249047Y-131475714D01*
X166249047Y-130856666D01*
G04 #@! TO.C,R3*
X161582380Y-131856666D02*
X161106190Y-132190000D01*
X161582380Y-132428095D02*
X160582380Y-132428095D01*
X160582380Y-132047142D01*
X160630000Y-131951904D01*
X160677619Y-131904285D01*
X160772857Y-131856666D01*
X160915714Y-131856666D01*
X161010952Y-131904285D01*
X161058571Y-131951904D01*
X161106190Y-132047142D01*
X161106190Y-132428095D01*
X160582380Y-131523333D02*
X160582380Y-130904285D01*
X160963333Y-131237619D01*
X160963333Y-131094761D01*
X161010952Y-130999523D01*
X161058571Y-130951904D01*
X161153809Y-130904285D01*
X161391904Y-130904285D01*
X161487142Y-130951904D01*
X161534761Y-130999523D01*
X161582380Y-131094761D01*
X161582380Y-131380476D01*
X161534761Y-131475714D01*
X161487142Y-131523333D01*
G04 #@! TO.C,R2*
X176582380Y-131856666D02*
X176106190Y-132190000D01*
X176582380Y-132428095D02*
X175582380Y-132428095D01*
X175582380Y-132047142D01*
X175630000Y-131951904D01*
X175677619Y-131904285D01*
X175772857Y-131856666D01*
X175915714Y-131856666D01*
X176010952Y-131904285D01*
X176058571Y-131951904D01*
X176106190Y-132047142D01*
X176106190Y-132428095D01*
X175677619Y-131475714D02*
X175630000Y-131428095D01*
X175582380Y-131332857D01*
X175582380Y-131094761D01*
X175630000Y-130999523D01*
X175677619Y-130951904D01*
X175772857Y-130904285D01*
X175868095Y-130904285D01*
X176010952Y-130951904D01*
X176582380Y-131523333D01*
X176582380Y-130904285D01*
G04 #@! TO.C,R1*
X171582380Y-131856666D02*
X171106190Y-132190000D01*
X171582380Y-132428095D02*
X170582380Y-132428095D01*
X170582380Y-132047142D01*
X170630000Y-131951904D01*
X170677619Y-131904285D01*
X170772857Y-131856666D01*
X170915714Y-131856666D01*
X171010952Y-131904285D01*
X171058571Y-131951904D01*
X171106190Y-132047142D01*
X171106190Y-132428095D01*
X171582380Y-130904285D02*
X171582380Y-131475714D01*
X171582380Y-131190000D02*
X170582380Y-131190000D01*
X170725238Y-131285238D01*
X170820476Y-131380476D01*
X170868095Y-131475714D01*
G04 #@! TO.C,J4*
X186166666Y-126722380D02*
X186166666Y-127436666D01*
X186119047Y-127579523D01*
X186023809Y-127674761D01*
X185880952Y-127722380D01*
X185785714Y-127722380D01*
X187071428Y-127055714D02*
X187071428Y-127722380D01*
X186833333Y-126674761D02*
X186595238Y-127389047D01*
X187214285Y-127389047D01*
G04 #@! TO.C,J3*
X149666666Y-99452380D02*
X149666666Y-100166666D01*
X149619047Y-100309523D01*
X149523809Y-100404761D01*
X149380952Y-100452380D01*
X149285714Y-100452380D01*
X150047619Y-99452380D02*
X150666666Y-99452380D01*
X150333333Y-99833333D01*
X150476190Y-99833333D01*
X150571428Y-99880952D01*
X150619047Y-99928571D01*
X150666666Y-100023809D01*
X150666666Y-100261904D01*
X150619047Y-100357142D01*
X150571428Y-100404761D01*
X150476190Y-100452380D01*
X150190476Y-100452380D01*
X150095238Y-100404761D01*
X150047619Y-100357142D01*
G04 #@! TO.C,J2*
X144666666Y-99452380D02*
X144666666Y-100166666D01*
X144619047Y-100309523D01*
X144523809Y-100404761D01*
X144380952Y-100452380D01*
X144285714Y-100452380D01*
X145095238Y-99547619D02*
X145142857Y-99500000D01*
X145238095Y-99452380D01*
X145476190Y-99452380D01*
X145571428Y-99500000D01*
X145619047Y-99547619D01*
X145666666Y-99642857D01*
X145666666Y-99738095D01*
X145619047Y-99880952D01*
X145047619Y-100452380D01*
X145666666Y-100452380D01*
G04 #@! TO.C,J1*
X105666666Y-94452380D02*
X105666666Y-95166666D01*
X105619047Y-95309523D01*
X105523809Y-95404761D01*
X105380952Y-95452380D01*
X105285714Y-95452380D01*
X106666666Y-95452380D02*
X106095238Y-95452380D01*
X106380952Y-95452380D02*
X106380952Y-94452380D01*
X106285714Y-94595238D01*
X106190476Y-94690476D01*
X106095238Y-94738095D01*
G04 #@! TO.C,C2*
X145357142Y-95916666D02*
X145404761Y-95964285D01*
X145452380Y-96107142D01*
X145452380Y-96202380D01*
X145404761Y-96345238D01*
X145309523Y-96440476D01*
X145214285Y-96488095D01*
X145023809Y-96535714D01*
X144880952Y-96535714D01*
X144690476Y-96488095D01*
X144595238Y-96440476D01*
X144500000Y-96345238D01*
X144452380Y-96202380D01*
X144452380Y-96107142D01*
X144500000Y-95964285D01*
X144547619Y-95916666D01*
X144547619Y-95535714D02*
X144500000Y-95488095D01*
X144452380Y-95392857D01*
X144452380Y-95154761D01*
X144500000Y-95059523D01*
X144547619Y-95011904D01*
X144642857Y-94964285D01*
X144738095Y-94964285D01*
X144880952Y-95011904D01*
X145452380Y-95583333D01*
X145452380Y-94964285D01*
G04 #@! TO.C,C1*
X107857142Y-104916666D02*
X107904761Y-104964285D01*
X107952380Y-105107142D01*
X107952380Y-105202380D01*
X107904761Y-105345238D01*
X107809523Y-105440476D01*
X107714285Y-105488095D01*
X107523809Y-105535714D01*
X107380952Y-105535714D01*
X107190476Y-105488095D01*
X107095238Y-105440476D01*
X107000000Y-105345238D01*
X106952380Y-105202380D01*
X106952380Y-105107142D01*
X107000000Y-104964285D01*
X107047619Y-104916666D01*
X107952380Y-103964285D02*
X107952380Y-104535714D01*
X107952380Y-104250000D02*
X106952380Y-104250000D01*
X107095238Y-104345238D01*
X107190476Y-104440476D01*
X107238095Y-104535714D01*
G04 #@! TD*
M02*
