G04 #@! TF.GenerationSoftware,KiCad,Pcbnew,5.1.9-73d0e3b20d~88~ubuntu20.04.1*
G04 #@! TF.CreationDate,2021-11-25T11:34:25+09:00*
G04 #@! TF.ProjectId,ES920LRB-ESP32,45533932-304c-4524-922d-45535033322e,v1.4*
G04 #@! TF.SameCoordinates,Original*
G04 #@! TF.FileFunction,Soldermask,Bot*
G04 #@! TF.FilePolarity,Negative*
%FSLAX46Y46*%
G04 Gerber Fmt 4.6, Leading zero omitted, Abs format (unit mm)*
G04 Created by KiCad (PCBNEW 5.1.9-73d0e3b20d~88~ubuntu20.04.1) date 2021-11-25 11:34:25*
%MOMM*%
%LPD*%
G01*
G04 APERTURE LIST*
%ADD10C,2.000000*%
%ADD11R,2.000000X2.000000*%
%ADD12C,3.200000*%
%ADD13O,2.000000X0.900000*%
%ADD14O,1.600000X1.600000*%
%ADD15C,1.600000*%
%ADD16O,1.700000X1.700000*%
%ADD17R,1.700000X1.700000*%
G04 APERTURE END LIST*
D10*
G04 #@! TO.C,U1*
X138605000Y-139960000D03*
X138605000Y-137420000D03*
X138605000Y-134880000D03*
X138605000Y-132340000D03*
X138605000Y-129800000D03*
X138605000Y-127260000D03*
X138605000Y-124720000D03*
X138605000Y-122180000D03*
X138605000Y-119640000D03*
X138605000Y-117100000D03*
X138605000Y-114560000D03*
X138605000Y-112020000D03*
X138605000Y-109480000D03*
X138605000Y-106940000D03*
X138605000Y-104400000D03*
X138605000Y-101860000D03*
X138605000Y-99320000D03*
X138605000Y-96780000D03*
X138605000Y-94240000D03*
X113205000Y-137420000D03*
X113205000Y-134880000D03*
X113205000Y-132340000D03*
X113205000Y-129800000D03*
X113205000Y-127260000D03*
X113205000Y-124720000D03*
X113205000Y-122180000D03*
X113205000Y-119640000D03*
X113205000Y-117100000D03*
X113205000Y-114560000D03*
X113205000Y-112020000D03*
X113205000Y-109480000D03*
X113205000Y-106940000D03*
X113205000Y-104400000D03*
X113205000Y-101860000D03*
X113205000Y-99320000D03*
X113205000Y-139960000D03*
X113205000Y-96780000D03*
D11*
X113205000Y-94240000D03*
G04 #@! TD*
D12*
G04 #@! TO.C,H4*
X193000000Y-139000000D03*
G04 #@! TD*
G04 #@! TO.C,H3*
X193000000Y-97000000D03*
G04 #@! TD*
G04 #@! TO.C,H2*
X101000000Y-97000000D03*
G04 #@! TD*
G04 #@! TO.C,H1*
X101000000Y-139000000D03*
G04 #@! TD*
D13*
G04 #@! TO.C,M1*
X179050000Y-94380000D03*
X159950000Y-94380000D03*
X179050000Y-95650000D03*
X159950000Y-95650000D03*
X179050000Y-96920000D03*
X159950000Y-96920000D03*
X179050000Y-98190000D03*
X159950000Y-98190000D03*
X179050000Y-99460000D03*
X159950000Y-99460000D03*
X179050000Y-100730000D03*
X159950000Y-100730000D03*
X179050000Y-102000000D03*
X159950000Y-102000000D03*
X179050000Y-103270000D03*
X159950000Y-103270000D03*
X179050000Y-104540000D03*
X159950000Y-104540000D03*
X179050000Y-105810000D03*
X159950000Y-105810000D03*
X179050000Y-107080000D03*
X159950000Y-107080000D03*
X179050000Y-108350000D03*
X159950000Y-108350000D03*
X179050000Y-109620000D03*
X159950000Y-109620000D03*
G04 #@! TD*
D14*
G04 #@! TO.C,R6*
X173500000Y-123620000D03*
D15*
X173500000Y-116000000D03*
G04 #@! TD*
D14*
G04 #@! TO.C,R5*
X178380000Y-123620000D03*
D15*
X178380000Y-116000000D03*
G04 #@! TD*
D14*
G04 #@! TO.C,R4*
X168500000Y-127880000D03*
D15*
X168500000Y-135500000D03*
G04 #@! TD*
D14*
G04 #@! TO.C,R3*
X163500000Y-127880000D03*
D15*
X163500000Y-135500000D03*
G04 #@! TD*
D14*
G04 #@! TO.C,R2*
X178500000Y-127880000D03*
D15*
X178500000Y-135500000D03*
G04 #@! TD*
D14*
G04 #@! TO.C,R1*
X173500000Y-127880000D03*
D15*
X173500000Y-135500000D03*
G04 #@! TD*
D16*
G04 #@! TO.C,J4*
X186500000Y-94460000D03*
X186500000Y-97000000D03*
X186500000Y-99540000D03*
X186500000Y-102080000D03*
X186500000Y-104620000D03*
X186500000Y-107160000D03*
X186500000Y-109700000D03*
X186500000Y-112240000D03*
X186500000Y-114780000D03*
X186500000Y-117320000D03*
X186500000Y-119860000D03*
X186500000Y-122400000D03*
D17*
X186500000Y-124940000D03*
G04 #@! TD*
D16*
G04 #@! TO.C,J3*
X152500000Y-125480000D03*
X152500000Y-122940000D03*
X152500000Y-120400000D03*
X152500000Y-117860000D03*
X152500000Y-115320000D03*
X152500000Y-112780000D03*
X152500000Y-110240000D03*
X152500000Y-107700000D03*
X152500000Y-105160000D03*
X152500000Y-102620000D03*
X152500000Y-100080000D03*
X152500000Y-97540000D03*
D17*
X152500000Y-95000000D03*
G04 #@! TD*
D16*
G04 #@! TO.C,J2*
X142000000Y-140100000D03*
X142000000Y-137560000D03*
X142000000Y-135020000D03*
X142000000Y-132480000D03*
X142000000Y-129940000D03*
X142000000Y-127400000D03*
X142000000Y-124860000D03*
X142000000Y-122320000D03*
X142000000Y-119780000D03*
X142000000Y-117240000D03*
X142000000Y-114700000D03*
X142000000Y-112160000D03*
X142000000Y-109620000D03*
X142000000Y-107080000D03*
X142000000Y-104540000D03*
X142000000Y-102000000D03*
X142000000Y-99460000D03*
X142000000Y-96920000D03*
D17*
X142000000Y-94380000D03*
G04 #@! TD*
D16*
G04 #@! TO.C,J1*
X109900000Y-140220000D03*
X109900000Y-137680000D03*
X109900000Y-135140000D03*
X109900000Y-132600000D03*
X109900000Y-130060000D03*
X109900000Y-127520000D03*
X109900000Y-124980000D03*
X109900000Y-122440000D03*
X109900000Y-119900000D03*
X109900000Y-117360000D03*
X109900000Y-114820000D03*
X109900000Y-112280000D03*
X109900000Y-109740000D03*
X109900000Y-107200000D03*
X109900000Y-104660000D03*
X109900000Y-102120000D03*
X109900000Y-99580000D03*
X109900000Y-97040000D03*
D17*
X109900000Y-94500000D03*
G04 #@! TD*
D15*
G04 #@! TO.C,C2*
X147500000Y-94500000D03*
X147500000Y-97000000D03*
G04 #@! TD*
G04 #@! TO.C,C1*
X105000000Y-106000000D03*
X105000000Y-103500000D03*
G04 #@! TD*
M02*
