M48
; DRILL file {KiCad 5.1.9-73d0e3b20d~88~ubuntu20.04.1} date Thu Nov 25 11:36:07 2021
; FORMAT={-:-/ absolute / inch / decimal}
; #@! TF.CreationDate,2021-11-25T11:36:07+09:00
; #@! TF.GenerationSoftware,Kicad,Pcbnew,5.1.9-73d0e3b20d~88~ubuntu20.04.1
; #@! TF.FileFunction,Plated,1,2,PTH
FMAT,2
INCH
T1C0.0157
T2C0.0315
T3C0.0394
T4C0.0400
T5C0.1200
%
G90
G05
T1
X4.9606Y-3.8136
X5.0184Y-4.7203
X5.0393Y-4.2073
X5.0983Y-4.7585
X5.1377Y-3.538
X5.1377Y-3.8136
X5.2165Y-4.2073
X5.2361Y-4.727
X5.2361Y-4.7585
X5.2952Y-4.5026
X5.3149Y-3.538
X5.3149Y-3.8136
X5.3149Y-4.2073
X5.4133Y-4.5026
X5.492Y-3.538
X5.492Y-3.8136
X5.492Y-4.2073
X5.5511Y-3.3411
X6.3582Y-3.0852
X6.3976Y-3.2427
X6.6731Y-3.2427
X6.7125Y-3.0656
X6.8306Y-3.0656
T2
X4.9606Y-3.6364
X4.9606Y-3.7364
X4.9606Y-4.2844
X4.9606Y-4.3844
X5.1377Y-3.6364
X5.1377Y-3.7364
X5.1377Y-4.2844
X5.1377Y-4.3844
X5.1456Y-3.251
X5.1456Y-3.351
X5.3149Y-3.6364
X5.3149Y-3.7364
X5.3149Y-4.286
X5.3149Y-4.386
X5.3346Y-3.249
X5.3346Y-3.349
X5.492Y-3.6364
X5.492Y-3.7364
X5.492Y-4.2844
X5.492Y-4.3844
X5.9794Y-3.6148
X5.9794Y-4.3667
X6.0294Y-3.6148
X6.0294Y-4.3667
X6.0794Y-3.6148
X6.0794Y-4.3667
X6.1294Y-3.6148
X6.1294Y-4.3667
X6.1794Y-3.6148
X6.1794Y-4.3667
X6.2294Y-3.6148
X6.2294Y-4.3667
X6.2794Y-3.6148
X6.2794Y-4.3667
X6.3294Y-3.6148
X6.3294Y-4.3667
X6.3794Y-3.6148
X6.3794Y-4.3667
X6.4294Y-3.6148
X6.4294Y-4.3667
X6.4794Y-3.6148
X6.4794Y-4.3667
X6.5294Y-3.6148
X6.5294Y-4.3667
X6.5794Y-3.6148
X6.5794Y-4.3667
X6.7125Y-3.3805
X6.8109Y-3.3805
T3
X5.4582Y-4.601
X5.5582Y-4.601
X5.6464Y-3.3805
X5.6582Y-4.601
X5.7464Y-3.3805
X5.7582Y-4.601
X5.8464Y-3.3805
X5.8582Y-4.601
X5.9464Y-3.3805
X5.9582Y-4.601
X6.0464Y-3.3805
X6.0582Y-4.601
X6.1464Y-3.3805
X6.1582Y-4.601
X6.2464Y-3.3805
X6.2582Y-4.601
X6.3464Y-3.3805
X6.3582Y-4.601
X6.4464Y-3.3805
X6.4582Y-4.601
X6.5464Y-3.3805
X6.5582Y-4.601
T4
X5.11Y-2.975
X5.21Y-2.975
X5.31Y-2.975
X5.41Y-2.975
X5.47Y-4.875
X5.51Y-2.975
X5.57Y-4.875
X5.61Y-2.975
X5.67Y-4.875
X5.71Y-2.975
X5.77Y-4.875
X5.81Y-2.975
X5.87Y-4.875
X5.91Y-2.975
X5.97Y-4.875
X6.01Y-2.975
X6.07Y-4.875
X6.17Y-2.975
X6.17Y-4.875
X6.27Y-2.975
X6.37Y-2.975
X6.37Y-4.875
X6.47Y-2.975
X6.47Y-4.875
X6.57Y-2.975
X6.57Y-4.875
X6.67Y-2.975
X6.67Y-4.875
X6.77Y-2.975
X6.77Y-4.875
X6.87Y-2.975
X6.87Y-4.875
T5
X4.92Y-4.875
X4.97Y-2.975
X6.97Y-3.575
X6.97Y-4.675
T0
M30
