G04 #@! TF.GenerationSoftware,KiCad,Pcbnew,5.1.9-73d0e3b20d~88~ubuntu20.04.1*
G04 #@! TF.CreationDate,2021-11-24T19:01:58+09:00*
G04 #@! TF.ProjectId,ES920LRB-Arduino-Shield,45533932-304c-4524-922d-41726475696e,v1.6*
G04 #@! TF.SameCoordinates,Original*
G04 #@! TF.FileFunction,Copper,L2,Bot*
G04 #@! TF.FilePolarity,Positive*
%FSLAX46Y46*%
G04 Gerber Fmt 4.6, Leading zero omitted, Abs format (unit mm)*
G04 Created by KiCad (PCBNEW 5.1.9-73d0e3b20d~88~ubuntu20.04.1) date 2021-11-24 19:01:58*
%MOMM*%
%LPD*%
G01*
G04 APERTURE LIST*
G04 #@! TA.AperFunction,ComponentPad*
%ADD10O,0.900000X2.000000*%
G04 #@! TD*
G04 #@! TA.AperFunction,ComponentPad*
%ADD11O,1.600000X1.600000*%
G04 #@! TD*
G04 #@! TA.AperFunction,ComponentPad*
%ADD12C,1.600000*%
G04 #@! TD*
G04 #@! TA.AperFunction,ComponentPad*
%ADD13O,1.700000X1.700000*%
G04 #@! TD*
G04 #@! TA.AperFunction,ComponentPad*
%ADD14R,1.700000X1.700000*%
G04 #@! TD*
G04 #@! TA.AperFunction,ComponentPad*
%ADD15O,1.727200X2.032000*%
G04 #@! TD*
G04 #@! TA.AperFunction,ComponentPad*
%ADD16C,4.064000*%
G04 #@! TD*
G04 #@! TA.AperFunction,ViaPad*
%ADD17C,0.600000*%
G04 #@! TD*
G04 #@! TA.AperFunction,Conductor*
%ADD18C,1.000000*%
G04 #@! TD*
G04 #@! TA.AperFunction,Conductor*
%ADD19C,0.500000*%
G04 #@! TD*
G04 #@! TA.AperFunction,Conductor*
%ADD20C,0.750000*%
G04 #@! TD*
G04 #@! TA.AperFunction,Conductor*
%ADD21C,0.254000*%
G04 #@! TD*
G04 #@! TA.AperFunction,Conductor*
%ADD22C,0.100000*%
G04 #@! TD*
G04 APERTURE END LIST*
D10*
G04 #@! TO.P,M1,26*
G04 #@! TO.N,GND*
X167118000Y-110915000D03*
G04 #@! TO.P,M1,1*
X167118000Y-91815000D03*
G04 #@! TO.P,M1,25*
G04 #@! TO.N,Net-(J2-Pad12)*
X165848000Y-110915000D03*
G04 #@! TO.P,M1,2*
G04 #@! TO.N,+3V3*
X165848000Y-91815000D03*
G04 #@! TO.P,M1,24*
G04 #@! TO.N,Net-(J2-Pad11)*
X164578000Y-110915000D03*
G04 #@! TO.P,M1,3*
G04 #@! TO.N,Net-(J1-Pad1)*
X164578000Y-91815000D03*
G04 #@! TO.P,M1,23*
G04 #@! TO.N,Net-(J2-Pad10)*
X163308000Y-110915000D03*
G04 #@! TO.P,M1,4*
G04 #@! TO.N,Net-(J1-Pad2)*
X163308000Y-91815000D03*
G04 #@! TO.P,M1,22*
G04 #@! TO.N,Net-(J2-Pad9)*
X162038000Y-110915000D03*
G04 #@! TO.P,M1,5*
G04 #@! TO.N,Net-(J1-Pad3)*
X162038000Y-91815000D03*
G04 #@! TO.P,M1,21*
G04 #@! TO.N,Net-(J2-Pad8)*
X160768000Y-110915000D03*
G04 #@! TO.P,M1,6*
G04 #@! TO.N,Net-(J1-Pad4)*
X160768000Y-91815000D03*
G04 #@! TO.P,M1,20*
G04 #@! TO.N,Net-(J2-Pad7)*
X159498000Y-110915000D03*
G04 #@! TO.P,M1,7*
G04 #@! TO.N,Net-(J1-Pad5)*
X159498000Y-91815000D03*
G04 #@! TO.P,M1,19*
G04 #@! TO.N,Net-(J2-Pad6)*
X158228000Y-110915000D03*
G04 #@! TO.P,M1,8*
G04 #@! TO.N,Net-(J1-Pad6)*
X158228000Y-91815000D03*
G04 #@! TO.P,M1,18*
G04 #@! TO.N,Net-(J2-Pad5)*
X156958000Y-110915000D03*
G04 #@! TO.P,M1,9*
G04 #@! TO.N,Net-(J1-Pad7)*
X156958000Y-91815000D03*
G04 #@! TO.P,M1,17*
G04 #@! TO.N,Net-(J2-Pad4)*
X155688000Y-110915000D03*
G04 #@! TO.P,M1,10*
G04 #@! TO.N,Net-(J1-Pad8)*
X155688000Y-91815000D03*
G04 #@! TO.P,M1,16*
G04 #@! TO.N,Net-(J2-Pad3)*
X154418000Y-110915000D03*
G04 #@! TO.P,M1,11*
G04 #@! TO.N,Net-(J1-Pad9)*
X154418000Y-91815000D03*
G04 #@! TO.P,M1,15*
G04 #@! TO.N,Net-(J2-Pad2)*
X153148000Y-110915000D03*
G04 #@! TO.P,M1,12*
G04 #@! TO.N,Net-(J1-Pad10)*
X153148000Y-91815000D03*
G04 #@! TO.P,M1,14*
G04 #@! TO.N,Net-(J2-Pad1)*
X151878000Y-110915000D03*
G04 #@! TO.P,M1,13*
G04 #@! TO.N,+3V3*
X151878000Y-91815000D03*
G04 #@! TD*
D11*
G04 #@! TO.P,R10,2*
G04 #@! TO.N,Net-(Q1-Pad3)*
X125998000Y-94905000D03*
D12*
G04 #@! TO.P,R10,1*
G04 #@! TO.N,+5V*
X125998000Y-92365000D03*
G04 #@! TD*
D11*
G04 #@! TO.P,R9,2*
G04 #@! TO.N,Net-(Q2-Pad3)*
X130498000Y-94905000D03*
D12*
G04 #@! TO.P,R9,1*
G04 #@! TO.N,+5V*
X130498000Y-92365000D03*
G04 #@! TD*
D11*
G04 #@! TO.P,R8,2*
G04 #@! TO.N,Net-(JP3-Pad1)*
X134998000Y-94905000D03*
D12*
G04 #@! TO.P,R8,1*
G04 #@! TO.N,+5V*
X134998000Y-92365000D03*
G04 #@! TD*
D11*
G04 #@! TO.P,R7,2*
G04 #@! TO.N,Net-(JP4-Pad1)*
X139498000Y-94905000D03*
D12*
G04 #@! TO.P,R7,1*
G04 #@! TO.N,+5V*
X139498000Y-92365000D03*
G04 #@! TD*
D11*
G04 #@! TO.P,R6,2*
G04 #@! TO.N,Net-(Q2-Pad3)*
X135498000Y-85065000D03*
D12*
G04 #@! TO.P,R6,1*
G04 #@! TO.N,Net-(JP2-Pad1)*
X135498000Y-82525000D03*
G04 #@! TD*
D11*
G04 #@! TO.P,R4,2*
G04 #@! TO.N,Net-(J1-Pad7)*
X139498000Y-108825000D03*
D12*
G04 #@! TO.P,R4,1*
G04 #@! TO.N,+3V3*
X139498000Y-111365000D03*
G04 #@! TD*
G04 #@! TO.P,C1,2*
G04 #@! TO.N,GND*
X172998000Y-85865000D03*
G04 #@! TO.P,C1,1*
G04 #@! TO.N,+3V3*
X170498000Y-85865000D03*
G04 #@! TD*
D13*
G04 #@! TO.P,J2,12*
G04 #@! TO.N,Net-(J2-Pad12)*
X166578000Y-116865000D03*
G04 #@! TO.P,J2,11*
G04 #@! TO.N,Net-(J2-Pad11)*
X164038000Y-116865000D03*
G04 #@! TO.P,J2,10*
G04 #@! TO.N,Net-(J2-Pad10)*
X161498000Y-116865000D03*
G04 #@! TO.P,J2,9*
G04 #@! TO.N,Net-(J2-Pad9)*
X158958000Y-116865000D03*
G04 #@! TO.P,J2,8*
G04 #@! TO.N,Net-(J2-Pad8)*
X156418000Y-116865000D03*
G04 #@! TO.P,J2,7*
G04 #@! TO.N,Net-(J2-Pad7)*
X153878000Y-116865000D03*
G04 #@! TO.P,J2,6*
G04 #@! TO.N,Net-(J2-Pad6)*
X151338000Y-116865000D03*
G04 #@! TO.P,J2,5*
G04 #@! TO.N,Net-(J2-Pad5)*
X148798000Y-116865000D03*
G04 #@! TO.P,J2,4*
G04 #@! TO.N,Net-(J2-Pad4)*
X146258000Y-116865000D03*
G04 #@! TO.P,J2,3*
G04 #@! TO.N,Net-(J2-Pad3)*
X143718000Y-116865000D03*
G04 #@! TO.P,J2,2*
G04 #@! TO.N,Net-(J2-Pad2)*
X141178000Y-116865000D03*
D14*
G04 #@! TO.P,J2,1*
G04 #@! TO.N,Net-(J2-Pad1)*
X138638000Y-116865000D03*
G04 #@! TD*
D13*
G04 #@! TO.P,J1,10*
G04 #@! TO.N,Net-(J1-Pad10)*
X143418000Y-85865000D03*
G04 #@! TO.P,J1,9*
G04 #@! TO.N,Net-(J1-Pad9)*
X145958000Y-85865000D03*
G04 #@! TO.P,J1,8*
G04 #@! TO.N,Net-(J1-Pad8)*
X148498000Y-85865000D03*
G04 #@! TO.P,J1,7*
G04 #@! TO.N,Net-(J1-Pad7)*
X151038000Y-85865000D03*
G04 #@! TO.P,J1,6*
G04 #@! TO.N,Net-(J1-Pad6)*
X153578000Y-85865000D03*
G04 #@! TO.P,J1,5*
G04 #@! TO.N,Net-(J1-Pad5)*
X156118000Y-85865000D03*
G04 #@! TO.P,J1,4*
G04 #@! TO.N,Net-(J1-Pad4)*
X158658000Y-85865000D03*
G04 #@! TO.P,J1,3*
G04 #@! TO.N,Net-(J1-Pad3)*
X161198000Y-85865000D03*
G04 #@! TO.P,J1,2*
G04 #@! TO.N,Net-(J1-Pad2)*
X163738000Y-85865000D03*
D14*
G04 #@! TO.P,J1,1*
G04 #@! TO.N,Net-(J1-Pad1)*
X166278000Y-85865000D03*
G04 #@! TD*
D11*
G04 #@! TO.P,R5,2*
G04 #@! TO.N,Net-(Q1-Pad3)*
X130698000Y-85115000D03*
D12*
G04 #@! TO.P,R5,1*
G04 #@! TO.N,Net-(JP1-Pad1)*
X130698000Y-82575000D03*
G04 #@! TD*
D11*
G04 #@! TO.P,R3,2*
G04 #@! TO.N,Net-(J1-Pad6)*
X134998000Y-108865000D03*
D12*
G04 #@! TO.P,R3,1*
G04 #@! TO.N,+3V3*
X134998000Y-111405000D03*
G04 #@! TD*
D11*
G04 #@! TO.P,R2,2*
G04 #@! TO.N,Net-(J2-Pad3)*
X130498000Y-108825000D03*
D12*
G04 #@! TO.P,R2,1*
G04 #@! TO.N,+3V3*
X130498000Y-111365000D03*
G04 #@! TD*
D11*
G04 #@! TO.P,R1,2*
G04 #@! TO.N,Net-(J2-Pad11)*
X125998000Y-108825000D03*
D12*
G04 #@! TO.P,R1,1*
G04 #@! TO.N,+3V3*
X125998000Y-111365000D03*
G04 #@! TD*
D15*
G04 #@! TO.P,P1,1*
G04 #@! TO.N,N/C*
X138938000Y-123825000D03*
G04 #@! TO.P,P1,2*
X141478000Y-123825000D03*
G04 #@! TO.P,P1,3*
X144018000Y-123825000D03*
G04 #@! TO.P,P1,4*
G04 #@! TO.N,+3V3*
X146558000Y-123825000D03*
G04 #@! TO.P,P1,5*
G04 #@! TO.N,+5V*
X149098000Y-123825000D03*
G04 #@! TO.P,P1,6*
G04 #@! TO.N,GND*
X151638000Y-123825000D03*
G04 #@! TO.P,P1,7*
X154178000Y-123825000D03*
G04 #@! TO.P,P1,8*
G04 #@! TO.N,N/C*
X156718000Y-123825000D03*
G04 #@! TD*
G04 #@! TO.P,P2,1*
G04 #@! TO.N,N/C*
X161798000Y-123825000D03*
G04 #@! TO.P,P2,2*
X164338000Y-123825000D03*
G04 #@! TO.P,P2,3*
X166878000Y-123825000D03*
G04 #@! TO.P,P2,4*
X169418000Y-123825000D03*
G04 #@! TO.P,P2,5*
G04 #@! TO.N,/A4(SDA)*
X171958000Y-123825000D03*
G04 #@! TO.P,P2,6*
G04 #@! TO.N,/A5(SCL)*
X174498000Y-123825000D03*
G04 #@! TD*
G04 #@! TO.P,P3,1*
G04 #@! TO.N,/A5(SCL)*
X129794000Y-75565000D03*
G04 #@! TO.P,P3,2*
G04 #@! TO.N,/A4(SDA)*
X132334000Y-75565000D03*
G04 #@! TO.P,P3,3*
G04 #@! TO.N,N/C*
X134874000Y-75565000D03*
G04 #@! TO.P,P3,4*
G04 #@! TO.N,GND*
X137414000Y-75565000D03*
G04 #@! TO.P,P3,5*
G04 #@! TO.N,N/C*
X139954000Y-75565000D03*
G04 #@! TO.P,P3,6*
X142494000Y-75565000D03*
G04 #@! TO.P,P3,7*
X145034000Y-75565000D03*
G04 #@! TO.P,P3,8*
X147574000Y-75565000D03*
G04 #@! TO.P,P3,9*
X150114000Y-75565000D03*
G04 #@! TO.P,P3,10*
X152654000Y-75565000D03*
G04 #@! TD*
G04 #@! TO.P,P4,1*
G04 #@! TO.N,/7*
X156718000Y-75565000D03*
G04 #@! TO.P,P4,2*
G04 #@! TO.N,/6(\u002A\u002A)*
X159258000Y-75565000D03*
G04 #@! TO.P,P4,3*
G04 #@! TO.N,N/C*
X161798000Y-75565000D03*
G04 #@! TO.P,P4,4*
X164338000Y-75565000D03*
G04 #@! TO.P,P4,5*
G04 #@! TO.N,/3(\u002A\u002A)*
X166878000Y-75565000D03*
G04 #@! TO.P,P4,6*
G04 #@! TO.N,/2*
X169418000Y-75565000D03*
G04 #@! TO.P,P4,7*
G04 #@! TO.N,/1(Tx)*
X171958000Y-75565000D03*
G04 #@! TO.P,P4,8*
G04 #@! TO.N,/0(Rx)*
X174498000Y-75565000D03*
G04 #@! TD*
D16*
G04 #@! TO.P,P5,1*
G04 #@! TO.N,N/C*
X124968000Y-123825000D03*
G04 #@! TD*
G04 #@! TO.P,P6,1*
G04 #@! TO.N,N/C*
X177038000Y-118745000D03*
G04 #@! TD*
G04 #@! TO.P,P7,1*
G04 #@! TO.N,N/C*
X126238000Y-75565000D03*
G04 #@! TD*
G04 #@! TO.P,P8,1*
G04 #@! TO.N,N/C*
X177038000Y-90805000D03*
G04 #@! TD*
D17*
G04 #@! TO.N,GND*
X139498000Y-96865000D03*
X134998000Y-96865000D03*
X130498000Y-96865000D03*
X125998000Y-96865000D03*
X139498000Y-106865000D03*
X134998000Y-106865000D03*
X132498000Y-106865000D03*
X127998000Y-106865000D03*
X139498000Y-89865000D03*
X134998000Y-89865000D03*
X130498000Y-89865000D03*
X173498000Y-77865000D03*
X170498000Y-77865000D03*
X161498000Y-78365000D03*
G04 #@! TO.N,/A4(SDA)*
X132998000Y-120865000D03*
X129498000Y-120865000D03*
G04 #@! TO.N,/A5(SCL)*
X132998000Y-120064997D03*
X127467669Y-119895331D03*
G04 #@! TO.N,Net-(J2-Pad11)*
X137498000Y-114365000D03*
X134498000Y-114365000D03*
G04 #@! TO.N,Net-(JP4-Pad1)*
X140998000Y-84865000D03*
X169498000Y-82365000D03*
X162498000Y-82365000D03*
G04 #@! TD*
D18*
G04 #@! TO.N,GND*
X167118000Y-91815000D02*
X167118000Y-110915000D01*
X139130010Y-77281010D02*
X137414000Y-75565000D01*
X165934303Y-77281010D02*
X139130010Y-77281010D01*
X172998000Y-84344707D02*
X165934303Y-77281010D01*
X172998000Y-85865000D02*
X172998000Y-84344707D01*
D19*
G04 #@! TO.N,/A4(SDA)*
X168998000Y-120865000D02*
X132998000Y-120865000D01*
X171958000Y-123825000D02*
X168998000Y-120865000D01*
X129498000Y-120865000D02*
X121498000Y-112865000D01*
X121498000Y-86401000D02*
X132334000Y-75565000D01*
X121498000Y-112865000D02*
X121498000Y-86401000D01*
G04 #@! TO.N,/A5(SCL)*
X170737997Y-120064997D02*
X132998000Y-120064997D01*
X174498000Y-123825000D02*
X170737997Y-120064997D01*
X120797990Y-84561010D02*
X129794000Y-75565000D01*
X120797990Y-113225652D02*
X120797990Y-84561010D01*
X127467669Y-119895331D02*
X120797990Y-113225652D01*
D20*
G04 #@! TO.N,Net-(J2-Pad11)*
X161538000Y-114365000D02*
X137498000Y-114365000D01*
X164038000Y-116865000D02*
X161538000Y-114365000D01*
X125998000Y-108900002D02*
X125998000Y-108825000D01*
X131462998Y-114365000D02*
X125998000Y-108900002D01*
X134498000Y-114365000D02*
X131462998Y-114365000D01*
G04 #@! TO.N,Net-(J1-Pad6)*
X138873001Y-112740001D02*
X134998000Y-108865000D01*
X140158001Y-112740001D02*
X138873001Y-112740001D01*
X141928000Y-110970002D02*
X140158001Y-112740001D01*
X141928000Y-109865000D02*
X141928000Y-110970002D01*
X158228000Y-93565000D02*
X141928000Y-109865000D01*
X158228000Y-91815000D02*
X158228000Y-93565000D01*
G04 #@! TO.N,Net-(J1-Pad7)*
X140677583Y-108825000D02*
X139498000Y-108825000D01*
X156958000Y-92544583D02*
X140677583Y-108825000D01*
X156958000Y-91815000D02*
X156958000Y-92544583D01*
G04 #@! TO.N,+3V3*
X151878000Y-91085417D02*
X151878000Y-91815000D01*
X152723427Y-90239990D02*
X151878000Y-91085417D01*
X165002573Y-90239990D02*
X152723427Y-90239990D01*
X165848000Y-91085417D02*
X165002573Y-90239990D01*
X165848000Y-91815000D02*
X165848000Y-91085417D01*
D18*
X165848000Y-89383630D02*
X165848000Y-91815000D01*
X169366630Y-85865000D02*
X165848000Y-89383630D01*
X170498000Y-85865000D02*
X169366630Y-85865000D01*
D20*
G04 #@! TO.N,Net-(J2-Pad3)*
X130498000Y-108940002D02*
X130498000Y-108825000D01*
X136997997Y-115439999D02*
X130498000Y-108940002D01*
X142292999Y-115439999D02*
X136997997Y-115439999D01*
X143718000Y-116865000D02*
X142292999Y-115439999D01*
D18*
G04 #@! TO.N,+5V*
X125998000Y-92365000D02*
X130498000Y-92365000D01*
X130498000Y-92365000D02*
X134998000Y-92365000D01*
X134998000Y-92365000D02*
X139498000Y-92365000D01*
X124497999Y-93865001D02*
X125998000Y-92365000D01*
X124497999Y-113845001D02*
X124497999Y-93865001D01*
X132761988Y-122108990D02*
X124497999Y-113845001D01*
X147381990Y-122108990D02*
X132761988Y-122108990D01*
X149098000Y-123825000D02*
X147381990Y-122108990D01*
D20*
G04 #@! TO.N,Net-(JP4-Pad1)*
X140998000Y-84865000D02*
X143498000Y-82365000D01*
X162498000Y-82365000D02*
X169498000Y-82365000D01*
X143498000Y-82365000D02*
X162498000Y-82365000D01*
G04 #@! TD*
D21*
G04 #@! TO.N,GND*
X124166406Y-73864887D02*
X123874536Y-74301702D01*
X123673492Y-74787065D01*
X123571000Y-75302323D01*
X123571000Y-75827677D01*
X123673492Y-76342935D01*
X123874536Y-76828298D01*
X124166406Y-77265113D01*
X124537887Y-77636594D01*
X124974702Y-77928464D01*
X125460065Y-78129508D01*
X125891996Y-78215425D01*
X120202942Y-83904480D01*
X120169174Y-83932193D01*
X120141461Y-83965961D01*
X120141458Y-83965964D01*
X120058580Y-84066951D01*
X119976402Y-84220697D01*
X119925795Y-84387520D01*
X119908709Y-84561010D01*
X119912991Y-84604489D01*
X119912990Y-113182183D01*
X119908709Y-113225652D01*
X119912990Y-113269121D01*
X119912990Y-113269128D01*
X119925795Y-113399141D01*
X119976401Y-113565964D01*
X120058579Y-113719710D01*
X120169173Y-113854469D01*
X120202946Y-113882186D01*
X126625015Y-120304256D01*
X126639083Y-120338220D01*
X126741407Y-120491359D01*
X126871641Y-120621593D01*
X127024780Y-120723917D01*
X127194940Y-120794399D01*
X127375580Y-120830331D01*
X127559758Y-120830331D01*
X127740398Y-120794399D01*
X127910558Y-120723917D01*
X128027320Y-120645899D01*
X128655346Y-121273925D01*
X128669414Y-121307889D01*
X128771738Y-121461028D01*
X128901972Y-121591262D01*
X129055111Y-121693586D01*
X129225271Y-121764068D01*
X129405911Y-121800000D01*
X129590089Y-121800000D01*
X129770729Y-121764068D01*
X129940889Y-121693586D01*
X130094028Y-121591262D01*
X130224262Y-121461028D01*
X130326586Y-121307889D01*
X130335129Y-121287263D01*
X131919997Y-122872131D01*
X131955539Y-122915439D01*
X132128365Y-123057274D01*
X132325541Y-123162666D01*
X132539489Y-123227567D01*
X132706236Y-123243990D01*
X132706245Y-123243990D01*
X132761987Y-123249480D01*
X132817729Y-123243990D01*
X137501985Y-123243990D01*
X137461084Y-123378824D01*
X137439400Y-123598982D01*
X137439400Y-124051019D01*
X137461084Y-124271177D01*
X137546775Y-124553664D01*
X137685931Y-124814006D01*
X137873203Y-125042197D01*
X138101395Y-125229469D01*
X138361737Y-125368625D01*
X138644224Y-125454316D01*
X138938000Y-125483251D01*
X139231777Y-125454316D01*
X139514264Y-125368625D01*
X139774606Y-125229469D01*
X140002797Y-125042197D01*
X140190069Y-124814006D01*
X140208000Y-124780459D01*
X140225931Y-124814006D01*
X140413203Y-125042197D01*
X140641395Y-125229469D01*
X140901737Y-125368625D01*
X141184224Y-125454316D01*
X141478000Y-125483251D01*
X141771777Y-125454316D01*
X142054264Y-125368625D01*
X142314606Y-125229469D01*
X142542797Y-125042197D01*
X142730069Y-124814006D01*
X142748000Y-124780459D01*
X142765931Y-124814006D01*
X142953203Y-125042197D01*
X143181395Y-125229469D01*
X143441737Y-125368625D01*
X143724224Y-125454316D01*
X144018000Y-125483251D01*
X144311777Y-125454316D01*
X144594264Y-125368625D01*
X144854606Y-125229469D01*
X145082797Y-125042197D01*
X145270069Y-124814006D01*
X145288000Y-124780459D01*
X145305931Y-124814006D01*
X145493203Y-125042197D01*
X145721395Y-125229469D01*
X145981737Y-125368625D01*
X146264224Y-125454316D01*
X146558000Y-125483251D01*
X146851777Y-125454316D01*
X147134264Y-125368625D01*
X147394606Y-125229469D01*
X147622797Y-125042197D01*
X147810069Y-124814006D01*
X147828000Y-124780459D01*
X147845931Y-124814006D01*
X148033203Y-125042197D01*
X148261395Y-125229469D01*
X148521737Y-125368625D01*
X148804224Y-125454316D01*
X149098000Y-125483251D01*
X149391777Y-125454316D01*
X149674264Y-125368625D01*
X149934606Y-125229469D01*
X150162797Y-125042197D01*
X150350069Y-124814006D01*
X150371424Y-124774053D01*
X150519514Y-124976729D01*
X150735965Y-125175733D01*
X150987081Y-125328686D01*
X151263211Y-125429709D01*
X151278974Y-125432358D01*
X151511000Y-125311217D01*
X151511000Y-123952000D01*
X151765000Y-123952000D01*
X151765000Y-125311217D01*
X151997026Y-125432358D01*
X152012789Y-125429709D01*
X152288919Y-125328686D01*
X152540035Y-125175733D01*
X152756486Y-124976729D01*
X152908000Y-124769367D01*
X153059514Y-124976729D01*
X153275965Y-125175733D01*
X153527081Y-125328686D01*
X153803211Y-125429709D01*
X153818974Y-125432358D01*
X154051000Y-125311217D01*
X154051000Y-123952000D01*
X151765000Y-123952000D01*
X151511000Y-123952000D01*
X151491000Y-123952000D01*
X151491000Y-123698000D01*
X151511000Y-123698000D01*
X151511000Y-122338783D01*
X151765000Y-122338783D01*
X151765000Y-123698000D01*
X154051000Y-123698000D01*
X154051000Y-122338783D01*
X154305000Y-122338783D01*
X154305000Y-123698000D01*
X154325000Y-123698000D01*
X154325000Y-123952000D01*
X154305000Y-123952000D01*
X154305000Y-125311217D01*
X154537026Y-125432358D01*
X154552789Y-125429709D01*
X154828919Y-125328686D01*
X155080035Y-125175733D01*
X155296486Y-124976729D01*
X155444576Y-124774053D01*
X155465931Y-124814006D01*
X155653203Y-125042197D01*
X155881395Y-125229469D01*
X156141737Y-125368625D01*
X156424224Y-125454316D01*
X156718000Y-125483251D01*
X157011777Y-125454316D01*
X157294264Y-125368625D01*
X157554606Y-125229469D01*
X157782797Y-125042197D01*
X157970069Y-124814006D01*
X158109225Y-124553663D01*
X158194916Y-124271176D01*
X158216600Y-124051018D01*
X158216600Y-123598981D01*
X158194916Y-123378823D01*
X158109225Y-123096336D01*
X157970069Y-122835994D01*
X157782797Y-122607803D01*
X157554605Y-122420531D01*
X157294263Y-122281375D01*
X157011776Y-122195684D01*
X156718000Y-122166749D01*
X156424223Y-122195684D01*
X156141736Y-122281375D01*
X155881394Y-122420531D01*
X155653203Y-122607803D01*
X155465931Y-122835995D01*
X155444576Y-122875947D01*
X155296486Y-122673271D01*
X155080035Y-122474267D01*
X154828919Y-122321314D01*
X154552789Y-122220291D01*
X154537026Y-122217642D01*
X154305000Y-122338783D01*
X154051000Y-122338783D01*
X153818974Y-122217642D01*
X153803211Y-122220291D01*
X153527081Y-122321314D01*
X153275965Y-122474267D01*
X153059514Y-122673271D01*
X152908000Y-122880633D01*
X152756486Y-122673271D01*
X152540035Y-122474267D01*
X152288919Y-122321314D01*
X152012789Y-122220291D01*
X151997026Y-122217642D01*
X151765000Y-122338783D01*
X151511000Y-122338783D01*
X151278974Y-122217642D01*
X151263211Y-122220291D01*
X150987081Y-122321314D01*
X150735965Y-122474267D01*
X150519514Y-122673271D01*
X150371424Y-122875947D01*
X150350069Y-122835994D01*
X150162797Y-122607803D01*
X149934605Y-122420531D01*
X149674263Y-122281375D01*
X149391776Y-122195684D01*
X149098000Y-122166749D01*
X149049644Y-122171512D01*
X148628132Y-121750000D01*
X168631422Y-121750000D01*
X169088072Y-122206650D01*
X168841736Y-122281375D01*
X168581394Y-122420531D01*
X168353203Y-122607803D01*
X168165931Y-122835995D01*
X168148000Y-122869541D01*
X168130069Y-122835994D01*
X167942797Y-122607803D01*
X167714605Y-122420531D01*
X167454263Y-122281375D01*
X167171776Y-122195684D01*
X166878000Y-122166749D01*
X166584223Y-122195684D01*
X166301736Y-122281375D01*
X166041394Y-122420531D01*
X165813203Y-122607803D01*
X165625931Y-122835995D01*
X165608000Y-122869541D01*
X165590069Y-122835994D01*
X165402797Y-122607803D01*
X165174605Y-122420531D01*
X164914263Y-122281375D01*
X164631776Y-122195684D01*
X164338000Y-122166749D01*
X164044223Y-122195684D01*
X163761736Y-122281375D01*
X163501394Y-122420531D01*
X163273203Y-122607803D01*
X163085931Y-122835995D01*
X163068000Y-122869541D01*
X163050069Y-122835994D01*
X162862797Y-122607803D01*
X162634605Y-122420531D01*
X162374263Y-122281375D01*
X162091776Y-122195684D01*
X161798000Y-122166749D01*
X161504223Y-122195684D01*
X161221736Y-122281375D01*
X160961394Y-122420531D01*
X160733203Y-122607803D01*
X160545931Y-122835995D01*
X160406775Y-123096337D01*
X160321084Y-123378824D01*
X160299400Y-123598982D01*
X160299400Y-124051019D01*
X160321084Y-124271177D01*
X160406775Y-124553664D01*
X160545931Y-124814006D01*
X160733203Y-125042197D01*
X160961395Y-125229469D01*
X161221737Y-125368625D01*
X161504224Y-125454316D01*
X161798000Y-125483251D01*
X162091777Y-125454316D01*
X162374264Y-125368625D01*
X162634606Y-125229469D01*
X162862797Y-125042197D01*
X163050069Y-124814006D01*
X163068000Y-124780459D01*
X163085931Y-124814006D01*
X163273203Y-125042197D01*
X163501395Y-125229469D01*
X163761737Y-125368625D01*
X164044224Y-125454316D01*
X164338000Y-125483251D01*
X164631777Y-125454316D01*
X164914264Y-125368625D01*
X165174606Y-125229469D01*
X165402797Y-125042197D01*
X165590069Y-124814006D01*
X165608000Y-124780459D01*
X165625931Y-124814006D01*
X165813203Y-125042197D01*
X166041395Y-125229469D01*
X166301737Y-125368625D01*
X166584224Y-125454316D01*
X166878000Y-125483251D01*
X167171777Y-125454316D01*
X167454264Y-125368625D01*
X167714606Y-125229469D01*
X167942797Y-125042197D01*
X168130069Y-124814006D01*
X168148000Y-124780459D01*
X168165931Y-124814006D01*
X168353203Y-125042197D01*
X168581395Y-125229469D01*
X168841737Y-125368625D01*
X169124224Y-125454316D01*
X169418000Y-125483251D01*
X169711777Y-125454316D01*
X169994264Y-125368625D01*
X170254606Y-125229469D01*
X170482797Y-125042197D01*
X170670069Y-124814006D01*
X170688000Y-124780459D01*
X170705931Y-124814006D01*
X170893203Y-125042197D01*
X171121395Y-125229469D01*
X171381737Y-125368625D01*
X171664224Y-125454316D01*
X171958000Y-125483251D01*
X172251777Y-125454316D01*
X172534264Y-125368625D01*
X172794606Y-125229469D01*
X173022797Y-125042197D01*
X173210069Y-124814006D01*
X173228000Y-124780459D01*
X173245931Y-124814006D01*
X173433203Y-125042197D01*
X173661395Y-125229469D01*
X173921737Y-125368625D01*
X174204224Y-125454316D01*
X174498000Y-125483251D01*
X174791777Y-125454316D01*
X175074264Y-125368625D01*
X175334606Y-125229469D01*
X175562797Y-125042197D01*
X175750069Y-124814006D01*
X175889225Y-124553663D01*
X175974916Y-124271176D01*
X175996600Y-124051018D01*
X175996600Y-123598981D01*
X175974916Y-123378823D01*
X175889225Y-123096336D01*
X175750069Y-122835994D01*
X175562797Y-122607803D01*
X175334605Y-122420531D01*
X175074263Y-122281375D01*
X174791776Y-122195684D01*
X174498000Y-122166749D01*
X174204223Y-122195684D01*
X174139804Y-122215225D01*
X171394531Y-119469953D01*
X171366814Y-119436180D01*
X171232056Y-119325586D01*
X171078310Y-119243408D01*
X170911487Y-119192802D01*
X170781474Y-119179997D01*
X170781466Y-119179997D01*
X170737997Y-119175716D01*
X170694528Y-119179997D01*
X133304692Y-119179997D01*
X133270729Y-119165929D01*
X133090089Y-119129997D01*
X132905911Y-119129997D01*
X132725271Y-119165929D01*
X132555111Y-119236411D01*
X132401972Y-119338735D01*
X132271738Y-119468969D01*
X132169414Y-119622108D01*
X132098932Y-119792268D01*
X132090880Y-119832750D01*
X125632999Y-113374870D01*
X125632999Y-112755509D01*
X125856665Y-112800000D01*
X126139335Y-112800000D01*
X126416574Y-112744853D01*
X126677727Y-112636680D01*
X126912759Y-112479637D01*
X127112637Y-112279759D01*
X127269680Y-112044727D01*
X127377853Y-111783574D01*
X127390357Y-111720714D01*
X130713737Y-115044094D01*
X130745365Y-115082633D01*
X130899158Y-115208847D01*
X131074618Y-115302632D01*
X131265004Y-115360385D01*
X131413390Y-115375000D01*
X131413392Y-115375000D01*
X131462997Y-115379886D01*
X131512602Y-115375000D01*
X134547608Y-115375000D01*
X134695994Y-115360385D01*
X134886380Y-115302632D01*
X135061840Y-115208847D01*
X135213789Y-115084147D01*
X136248740Y-116119098D01*
X136280364Y-116157632D01*
X136434157Y-116283846D01*
X136609617Y-116377631D01*
X136800002Y-116435384D01*
X136997997Y-116454885D01*
X137047605Y-116449999D01*
X137149928Y-116449999D01*
X137149928Y-117715000D01*
X137162188Y-117839482D01*
X137198498Y-117959180D01*
X137257463Y-118069494D01*
X137336815Y-118166185D01*
X137433506Y-118245537D01*
X137543820Y-118304502D01*
X137663518Y-118340812D01*
X137788000Y-118353072D01*
X139488000Y-118353072D01*
X139612482Y-118340812D01*
X139732180Y-118304502D01*
X139842494Y-118245537D01*
X139939185Y-118166185D01*
X140018537Y-118069494D01*
X140077502Y-117959180D01*
X140099513Y-117886620D01*
X140231368Y-118018475D01*
X140474589Y-118180990D01*
X140744842Y-118292932D01*
X141031740Y-118350000D01*
X141324260Y-118350000D01*
X141611158Y-118292932D01*
X141881411Y-118180990D01*
X142124632Y-118018475D01*
X142331475Y-117811632D01*
X142448000Y-117637240D01*
X142564525Y-117811632D01*
X142771368Y-118018475D01*
X143014589Y-118180990D01*
X143284842Y-118292932D01*
X143571740Y-118350000D01*
X143864260Y-118350000D01*
X144151158Y-118292932D01*
X144421411Y-118180990D01*
X144664632Y-118018475D01*
X144871475Y-117811632D01*
X144988000Y-117637240D01*
X145104525Y-117811632D01*
X145311368Y-118018475D01*
X145554589Y-118180990D01*
X145824842Y-118292932D01*
X146111740Y-118350000D01*
X146404260Y-118350000D01*
X146691158Y-118292932D01*
X146961411Y-118180990D01*
X147204632Y-118018475D01*
X147411475Y-117811632D01*
X147528000Y-117637240D01*
X147644525Y-117811632D01*
X147851368Y-118018475D01*
X148094589Y-118180990D01*
X148364842Y-118292932D01*
X148651740Y-118350000D01*
X148944260Y-118350000D01*
X149231158Y-118292932D01*
X149501411Y-118180990D01*
X149744632Y-118018475D01*
X149951475Y-117811632D01*
X150068000Y-117637240D01*
X150184525Y-117811632D01*
X150391368Y-118018475D01*
X150634589Y-118180990D01*
X150904842Y-118292932D01*
X151191740Y-118350000D01*
X151484260Y-118350000D01*
X151771158Y-118292932D01*
X152041411Y-118180990D01*
X152284632Y-118018475D01*
X152491475Y-117811632D01*
X152608000Y-117637240D01*
X152724525Y-117811632D01*
X152931368Y-118018475D01*
X153174589Y-118180990D01*
X153444842Y-118292932D01*
X153731740Y-118350000D01*
X154024260Y-118350000D01*
X154311158Y-118292932D01*
X154581411Y-118180990D01*
X154824632Y-118018475D01*
X155031475Y-117811632D01*
X155148000Y-117637240D01*
X155264525Y-117811632D01*
X155471368Y-118018475D01*
X155714589Y-118180990D01*
X155984842Y-118292932D01*
X156271740Y-118350000D01*
X156564260Y-118350000D01*
X156851158Y-118292932D01*
X157121411Y-118180990D01*
X157364632Y-118018475D01*
X157571475Y-117811632D01*
X157688000Y-117637240D01*
X157804525Y-117811632D01*
X158011368Y-118018475D01*
X158254589Y-118180990D01*
X158524842Y-118292932D01*
X158811740Y-118350000D01*
X159104260Y-118350000D01*
X159391158Y-118292932D01*
X159661411Y-118180990D01*
X159904632Y-118018475D01*
X160111475Y-117811632D01*
X160228000Y-117637240D01*
X160344525Y-117811632D01*
X160551368Y-118018475D01*
X160794589Y-118180990D01*
X161064842Y-118292932D01*
X161351740Y-118350000D01*
X161644260Y-118350000D01*
X161931158Y-118292932D01*
X162201411Y-118180990D01*
X162444632Y-118018475D01*
X162651475Y-117811632D01*
X162768000Y-117637240D01*
X162884525Y-117811632D01*
X163091368Y-118018475D01*
X163334589Y-118180990D01*
X163604842Y-118292932D01*
X163891740Y-118350000D01*
X164184260Y-118350000D01*
X164471158Y-118292932D01*
X164741411Y-118180990D01*
X164984632Y-118018475D01*
X165191475Y-117811632D01*
X165308000Y-117637240D01*
X165424525Y-117811632D01*
X165631368Y-118018475D01*
X165874589Y-118180990D01*
X166144842Y-118292932D01*
X166431740Y-118350000D01*
X166724260Y-118350000D01*
X167011158Y-118292932D01*
X167281411Y-118180990D01*
X167524632Y-118018475D01*
X167731475Y-117811632D01*
X167893990Y-117568411D01*
X168005932Y-117298158D01*
X168063000Y-117011260D01*
X168063000Y-116718740D01*
X168005932Y-116431842D01*
X167893990Y-116161589D01*
X167731475Y-115918368D01*
X167524632Y-115711525D01*
X167281411Y-115549010D01*
X167011158Y-115437068D01*
X166724260Y-115380000D01*
X166431740Y-115380000D01*
X166144842Y-115437068D01*
X165874589Y-115549010D01*
X165631368Y-115711525D01*
X165424525Y-115918368D01*
X165308000Y-116092760D01*
X165191475Y-115918368D01*
X164984632Y-115711525D01*
X164741411Y-115549010D01*
X164471158Y-115437068D01*
X164184260Y-115380000D01*
X163981356Y-115380000D01*
X162287261Y-113685906D01*
X162255633Y-113647367D01*
X162101840Y-113521153D01*
X161926380Y-113427368D01*
X161735994Y-113369615D01*
X161587608Y-113355000D01*
X161538000Y-113350114D01*
X161488392Y-113355000D01*
X140971357Y-113355000D01*
X142607099Y-111719258D01*
X142645633Y-111687635D01*
X142771847Y-111533842D01*
X142865632Y-111358382D01*
X142923385Y-111167996D01*
X142938000Y-111019610D01*
X142942886Y-110970002D01*
X142938000Y-110920394D01*
X142938000Y-110311706D01*
X150793000Y-110311706D01*
X150793000Y-111518293D01*
X150808700Y-111677696D01*
X150870741Y-111882219D01*
X150971491Y-112070710D01*
X151107078Y-112235922D01*
X151272290Y-112371509D01*
X151460780Y-112472259D01*
X151665303Y-112534300D01*
X151878000Y-112555249D01*
X152090696Y-112534300D01*
X152295219Y-112472259D01*
X152483710Y-112371509D01*
X152513000Y-112347471D01*
X152542290Y-112371509D01*
X152730780Y-112472259D01*
X152935303Y-112534300D01*
X153148000Y-112555249D01*
X153360696Y-112534300D01*
X153565219Y-112472259D01*
X153753710Y-112371509D01*
X153783000Y-112347471D01*
X153812290Y-112371509D01*
X154000780Y-112472259D01*
X154205303Y-112534300D01*
X154418000Y-112555249D01*
X154630696Y-112534300D01*
X154835219Y-112472259D01*
X155023710Y-112371509D01*
X155053000Y-112347471D01*
X155082290Y-112371509D01*
X155270780Y-112472259D01*
X155475303Y-112534300D01*
X155688000Y-112555249D01*
X155900696Y-112534300D01*
X156105219Y-112472259D01*
X156293710Y-112371509D01*
X156323000Y-112347471D01*
X156352290Y-112371509D01*
X156540780Y-112472259D01*
X156745303Y-112534300D01*
X156958000Y-112555249D01*
X157170696Y-112534300D01*
X157375219Y-112472259D01*
X157563710Y-112371509D01*
X157593000Y-112347471D01*
X157622290Y-112371509D01*
X157810780Y-112472259D01*
X158015303Y-112534300D01*
X158228000Y-112555249D01*
X158440696Y-112534300D01*
X158645219Y-112472259D01*
X158833710Y-112371509D01*
X158863000Y-112347471D01*
X158892290Y-112371509D01*
X159080780Y-112472259D01*
X159285303Y-112534300D01*
X159498000Y-112555249D01*
X159710696Y-112534300D01*
X159915219Y-112472259D01*
X160103710Y-112371509D01*
X160133000Y-112347471D01*
X160162290Y-112371509D01*
X160350780Y-112472259D01*
X160555303Y-112534300D01*
X160768000Y-112555249D01*
X160980696Y-112534300D01*
X161185219Y-112472259D01*
X161373710Y-112371509D01*
X161403000Y-112347471D01*
X161432290Y-112371509D01*
X161620780Y-112472259D01*
X161825303Y-112534300D01*
X162038000Y-112555249D01*
X162250696Y-112534300D01*
X162455219Y-112472259D01*
X162643710Y-112371509D01*
X162673000Y-112347471D01*
X162702290Y-112371509D01*
X162890780Y-112472259D01*
X163095303Y-112534300D01*
X163308000Y-112555249D01*
X163520696Y-112534300D01*
X163725219Y-112472259D01*
X163913710Y-112371509D01*
X163943000Y-112347471D01*
X163972290Y-112371509D01*
X164160780Y-112472259D01*
X164365303Y-112534300D01*
X164578000Y-112555249D01*
X164790696Y-112534300D01*
X164995219Y-112472259D01*
X165183710Y-112371509D01*
X165213000Y-112347471D01*
X165242290Y-112371509D01*
X165430780Y-112472259D01*
X165635303Y-112534300D01*
X165848000Y-112555249D01*
X166060696Y-112534300D01*
X166265219Y-112472259D01*
X166453710Y-112371509D01*
X166481792Y-112348463D01*
X166620803Y-112437702D01*
X166823999Y-112509408D01*
X166991000Y-112382502D01*
X166991000Y-111042000D01*
X166971000Y-111042000D01*
X166971000Y-110788000D01*
X166991000Y-110788000D01*
X166991000Y-109447498D01*
X166823999Y-109320592D01*
X166620803Y-109392298D01*
X166481792Y-109481537D01*
X166453710Y-109458491D01*
X166265220Y-109357741D01*
X166060697Y-109295700D01*
X165848000Y-109274751D01*
X165635304Y-109295700D01*
X165430781Y-109357741D01*
X165242291Y-109458491D01*
X165213001Y-109482529D01*
X165183710Y-109458491D01*
X164995220Y-109357741D01*
X164790697Y-109295700D01*
X164578000Y-109274751D01*
X164365304Y-109295700D01*
X164160781Y-109357741D01*
X163972291Y-109458491D01*
X163943001Y-109482529D01*
X163913710Y-109458491D01*
X163725220Y-109357741D01*
X163520697Y-109295700D01*
X163308000Y-109274751D01*
X163095304Y-109295700D01*
X162890781Y-109357741D01*
X162702291Y-109458491D01*
X162673001Y-109482529D01*
X162643710Y-109458491D01*
X162455220Y-109357741D01*
X162250697Y-109295700D01*
X162038000Y-109274751D01*
X161825304Y-109295700D01*
X161620781Y-109357741D01*
X161432291Y-109458491D01*
X161403001Y-109482529D01*
X161373710Y-109458491D01*
X161185220Y-109357741D01*
X160980697Y-109295700D01*
X160768000Y-109274751D01*
X160555304Y-109295700D01*
X160350781Y-109357741D01*
X160162291Y-109458491D01*
X160133001Y-109482529D01*
X160103710Y-109458491D01*
X159915220Y-109357741D01*
X159710697Y-109295700D01*
X159498000Y-109274751D01*
X159285304Y-109295700D01*
X159080781Y-109357741D01*
X158892291Y-109458491D01*
X158863001Y-109482529D01*
X158833710Y-109458491D01*
X158645220Y-109357741D01*
X158440697Y-109295700D01*
X158228000Y-109274751D01*
X158015304Y-109295700D01*
X157810781Y-109357741D01*
X157622291Y-109458491D01*
X157593001Y-109482529D01*
X157563710Y-109458491D01*
X157375220Y-109357741D01*
X157170697Y-109295700D01*
X156958000Y-109274751D01*
X156745304Y-109295700D01*
X156540781Y-109357741D01*
X156352291Y-109458491D01*
X156323001Y-109482529D01*
X156293710Y-109458491D01*
X156105220Y-109357741D01*
X155900697Y-109295700D01*
X155688000Y-109274751D01*
X155475304Y-109295700D01*
X155270781Y-109357741D01*
X155082291Y-109458491D01*
X155053001Y-109482529D01*
X155023710Y-109458491D01*
X154835220Y-109357741D01*
X154630697Y-109295700D01*
X154418000Y-109274751D01*
X154205304Y-109295700D01*
X154000781Y-109357741D01*
X153812291Y-109458491D01*
X153783001Y-109482529D01*
X153753710Y-109458491D01*
X153565220Y-109357741D01*
X153360697Y-109295700D01*
X153148000Y-109274751D01*
X152935304Y-109295700D01*
X152730781Y-109357741D01*
X152542291Y-109458491D01*
X152513001Y-109482529D01*
X152483710Y-109458491D01*
X152295220Y-109357741D01*
X152090697Y-109295700D01*
X151878000Y-109274751D01*
X151665304Y-109295700D01*
X151460781Y-109357741D01*
X151272291Y-109458491D01*
X151107079Y-109594078D01*
X150971492Y-109759290D01*
X150870742Y-109947780D01*
X150808700Y-110152303D01*
X150793000Y-110311706D01*
X142938000Y-110311706D01*
X142938000Y-110283355D01*
X158907094Y-94314261D01*
X158945633Y-94282633D01*
X159071847Y-94128840D01*
X159165632Y-93953380D01*
X159223385Y-93762994D01*
X159238000Y-93614608D01*
X159238000Y-93614606D01*
X159242886Y-93565001D01*
X159238000Y-93515396D01*
X159238000Y-93419951D01*
X159285303Y-93434300D01*
X159498000Y-93455249D01*
X159710696Y-93434300D01*
X159915219Y-93372259D01*
X160103710Y-93271509D01*
X160133000Y-93247471D01*
X160162290Y-93271509D01*
X160350780Y-93372259D01*
X160555303Y-93434300D01*
X160768000Y-93455249D01*
X160980696Y-93434300D01*
X161185219Y-93372259D01*
X161373710Y-93271509D01*
X161403000Y-93247471D01*
X161432290Y-93271509D01*
X161620780Y-93372259D01*
X161825303Y-93434300D01*
X162038000Y-93455249D01*
X162250696Y-93434300D01*
X162455219Y-93372259D01*
X162643710Y-93271509D01*
X162673000Y-93247471D01*
X162702290Y-93271509D01*
X162890780Y-93372259D01*
X163095303Y-93434300D01*
X163308000Y-93455249D01*
X163520696Y-93434300D01*
X163725219Y-93372259D01*
X163913710Y-93271509D01*
X163943000Y-93247471D01*
X163972290Y-93271509D01*
X164160780Y-93372259D01*
X164365303Y-93434300D01*
X164578000Y-93455249D01*
X164790696Y-93434300D01*
X164995219Y-93372259D01*
X165183710Y-93271509D01*
X165213000Y-93247471D01*
X165242290Y-93271509D01*
X165430780Y-93372259D01*
X165635303Y-93434300D01*
X165848000Y-93455249D01*
X166060696Y-93434300D01*
X166265219Y-93372259D01*
X166453710Y-93271509D01*
X166481792Y-93248463D01*
X166620803Y-93337702D01*
X166823999Y-93409408D01*
X166991000Y-93282502D01*
X166991000Y-91942000D01*
X166975983Y-91942000D01*
X166983000Y-91870752D01*
X166983000Y-91688000D01*
X166991000Y-91688000D01*
X166991000Y-90347498D01*
X166983000Y-90341419D01*
X166983000Y-89853761D01*
X167871000Y-88965761D01*
X167871000Y-90480854D01*
X167795408Y-90407986D01*
X167615197Y-90292298D01*
X167412001Y-90220592D01*
X167245000Y-90347498D01*
X167245000Y-91688000D01*
X167265000Y-91688000D01*
X167265000Y-91942000D01*
X167245000Y-91942000D01*
X167245000Y-93282502D01*
X167412001Y-93409408D01*
X167615197Y-93337702D01*
X167795408Y-93222014D01*
X167871000Y-93149146D01*
X167871000Y-109580854D01*
X167795408Y-109507986D01*
X167615197Y-109392298D01*
X167412001Y-109320592D01*
X167245000Y-109447498D01*
X167245000Y-110788000D01*
X167265000Y-110788000D01*
X167265000Y-111042000D01*
X167245000Y-111042000D01*
X167245000Y-112382502D01*
X167412001Y-112509408D01*
X167615197Y-112437702D01*
X167795408Y-112322014D01*
X167871000Y-112249146D01*
X167871000Y-114365000D01*
X167873440Y-114389776D01*
X167880667Y-114413601D01*
X167892403Y-114435557D01*
X167908197Y-114454803D01*
X167927443Y-114470597D01*
X167949399Y-114482333D01*
X167973224Y-114489560D01*
X167998000Y-114492000D01*
X178868000Y-114492000D01*
X178868000Y-116803293D01*
X178738113Y-116673406D01*
X178301298Y-116381536D01*
X177815935Y-116180492D01*
X177300677Y-116078000D01*
X176775323Y-116078000D01*
X176260065Y-116180492D01*
X175774702Y-116381536D01*
X175337887Y-116673406D01*
X174966406Y-117044887D01*
X174674536Y-117481702D01*
X174473492Y-117967065D01*
X174371000Y-118482323D01*
X174371000Y-119007677D01*
X174473492Y-119522935D01*
X174674536Y-120008298D01*
X174966406Y-120445113D01*
X175337887Y-120816594D01*
X175774702Y-121108464D01*
X176260065Y-121309508D01*
X176775323Y-121412000D01*
X177300677Y-121412000D01*
X177815935Y-121309508D01*
X178301298Y-121108464D01*
X178738113Y-120816594D01*
X178868000Y-120686707D01*
X178868000Y-120990908D01*
X176560617Y-123298292D01*
X176533526Y-123320525D01*
X176511293Y-123347616D01*
X176444801Y-123428637D01*
X176378872Y-123551981D01*
X176338274Y-123685816D01*
X176324565Y-123825000D01*
X176328001Y-123859885D01*
X176328000Y-125655000D01*
X126909707Y-125655000D01*
X127039594Y-125525113D01*
X127331464Y-125088298D01*
X127532508Y-124602935D01*
X127635000Y-124087677D01*
X127635000Y-123562323D01*
X127532508Y-123047065D01*
X127331464Y-122561702D01*
X127039594Y-122124887D01*
X126668113Y-121753406D01*
X126231298Y-121461536D01*
X125745935Y-121260492D01*
X125230677Y-121158000D01*
X124705323Y-121158000D01*
X124190065Y-121260492D01*
X123704702Y-121461536D01*
X123267887Y-121753406D01*
X122896406Y-122124887D01*
X122604536Y-122561702D01*
X122403492Y-123047065D01*
X122301000Y-123562323D01*
X122301000Y-124087677D01*
X122403492Y-124602935D01*
X122604536Y-125088298D01*
X122896406Y-125525113D01*
X123026293Y-125655000D01*
X111708000Y-125655000D01*
X111708000Y-73735000D01*
X124296293Y-73735000D01*
X124166406Y-73864887D01*
G04 #@! TA.AperFunction,Conductor*
D22*
G36*
X124166406Y-73864887D02*
G01*
X123874536Y-74301702D01*
X123673492Y-74787065D01*
X123571000Y-75302323D01*
X123571000Y-75827677D01*
X123673492Y-76342935D01*
X123874536Y-76828298D01*
X124166406Y-77265113D01*
X124537887Y-77636594D01*
X124974702Y-77928464D01*
X125460065Y-78129508D01*
X125891996Y-78215425D01*
X120202942Y-83904480D01*
X120169174Y-83932193D01*
X120141461Y-83965961D01*
X120141458Y-83965964D01*
X120058580Y-84066951D01*
X119976402Y-84220697D01*
X119925795Y-84387520D01*
X119908709Y-84561010D01*
X119912991Y-84604489D01*
X119912990Y-113182183D01*
X119908709Y-113225652D01*
X119912990Y-113269121D01*
X119912990Y-113269128D01*
X119925795Y-113399141D01*
X119976401Y-113565964D01*
X120058579Y-113719710D01*
X120169173Y-113854469D01*
X120202946Y-113882186D01*
X126625015Y-120304256D01*
X126639083Y-120338220D01*
X126741407Y-120491359D01*
X126871641Y-120621593D01*
X127024780Y-120723917D01*
X127194940Y-120794399D01*
X127375580Y-120830331D01*
X127559758Y-120830331D01*
X127740398Y-120794399D01*
X127910558Y-120723917D01*
X128027320Y-120645899D01*
X128655346Y-121273925D01*
X128669414Y-121307889D01*
X128771738Y-121461028D01*
X128901972Y-121591262D01*
X129055111Y-121693586D01*
X129225271Y-121764068D01*
X129405911Y-121800000D01*
X129590089Y-121800000D01*
X129770729Y-121764068D01*
X129940889Y-121693586D01*
X130094028Y-121591262D01*
X130224262Y-121461028D01*
X130326586Y-121307889D01*
X130335129Y-121287263D01*
X131919997Y-122872131D01*
X131955539Y-122915439D01*
X132128365Y-123057274D01*
X132325541Y-123162666D01*
X132539489Y-123227567D01*
X132706236Y-123243990D01*
X132706245Y-123243990D01*
X132761987Y-123249480D01*
X132817729Y-123243990D01*
X137501985Y-123243990D01*
X137461084Y-123378824D01*
X137439400Y-123598982D01*
X137439400Y-124051019D01*
X137461084Y-124271177D01*
X137546775Y-124553664D01*
X137685931Y-124814006D01*
X137873203Y-125042197D01*
X138101395Y-125229469D01*
X138361737Y-125368625D01*
X138644224Y-125454316D01*
X138938000Y-125483251D01*
X139231777Y-125454316D01*
X139514264Y-125368625D01*
X139774606Y-125229469D01*
X140002797Y-125042197D01*
X140190069Y-124814006D01*
X140208000Y-124780459D01*
X140225931Y-124814006D01*
X140413203Y-125042197D01*
X140641395Y-125229469D01*
X140901737Y-125368625D01*
X141184224Y-125454316D01*
X141478000Y-125483251D01*
X141771777Y-125454316D01*
X142054264Y-125368625D01*
X142314606Y-125229469D01*
X142542797Y-125042197D01*
X142730069Y-124814006D01*
X142748000Y-124780459D01*
X142765931Y-124814006D01*
X142953203Y-125042197D01*
X143181395Y-125229469D01*
X143441737Y-125368625D01*
X143724224Y-125454316D01*
X144018000Y-125483251D01*
X144311777Y-125454316D01*
X144594264Y-125368625D01*
X144854606Y-125229469D01*
X145082797Y-125042197D01*
X145270069Y-124814006D01*
X145288000Y-124780459D01*
X145305931Y-124814006D01*
X145493203Y-125042197D01*
X145721395Y-125229469D01*
X145981737Y-125368625D01*
X146264224Y-125454316D01*
X146558000Y-125483251D01*
X146851777Y-125454316D01*
X147134264Y-125368625D01*
X147394606Y-125229469D01*
X147622797Y-125042197D01*
X147810069Y-124814006D01*
X147828000Y-124780459D01*
X147845931Y-124814006D01*
X148033203Y-125042197D01*
X148261395Y-125229469D01*
X148521737Y-125368625D01*
X148804224Y-125454316D01*
X149098000Y-125483251D01*
X149391777Y-125454316D01*
X149674264Y-125368625D01*
X149934606Y-125229469D01*
X150162797Y-125042197D01*
X150350069Y-124814006D01*
X150371424Y-124774053D01*
X150519514Y-124976729D01*
X150735965Y-125175733D01*
X150987081Y-125328686D01*
X151263211Y-125429709D01*
X151278974Y-125432358D01*
X151511000Y-125311217D01*
X151511000Y-123952000D01*
X151765000Y-123952000D01*
X151765000Y-125311217D01*
X151997026Y-125432358D01*
X152012789Y-125429709D01*
X152288919Y-125328686D01*
X152540035Y-125175733D01*
X152756486Y-124976729D01*
X152908000Y-124769367D01*
X153059514Y-124976729D01*
X153275965Y-125175733D01*
X153527081Y-125328686D01*
X153803211Y-125429709D01*
X153818974Y-125432358D01*
X154051000Y-125311217D01*
X154051000Y-123952000D01*
X151765000Y-123952000D01*
X151511000Y-123952000D01*
X151491000Y-123952000D01*
X151491000Y-123698000D01*
X151511000Y-123698000D01*
X151511000Y-122338783D01*
X151765000Y-122338783D01*
X151765000Y-123698000D01*
X154051000Y-123698000D01*
X154051000Y-122338783D01*
X154305000Y-122338783D01*
X154305000Y-123698000D01*
X154325000Y-123698000D01*
X154325000Y-123952000D01*
X154305000Y-123952000D01*
X154305000Y-125311217D01*
X154537026Y-125432358D01*
X154552789Y-125429709D01*
X154828919Y-125328686D01*
X155080035Y-125175733D01*
X155296486Y-124976729D01*
X155444576Y-124774053D01*
X155465931Y-124814006D01*
X155653203Y-125042197D01*
X155881395Y-125229469D01*
X156141737Y-125368625D01*
X156424224Y-125454316D01*
X156718000Y-125483251D01*
X157011777Y-125454316D01*
X157294264Y-125368625D01*
X157554606Y-125229469D01*
X157782797Y-125042197D01*
X157970069Y-124814006D01*
X158109225Y-124553663D01*
X158194916Y-124271176D01*
X158216600Y-124051018D01*
X158216600Y-123598981D01*
X158194916Y-123378823D01*
X158109225Y-123096336D01*
X157970069Y-122835994D01*
X157782797Y-122607803D01*
X157554605Y-122420531D01*
X157294263Y-122281375D01*
X157011776Y-122195684D01*
X156718000Y-122166749D01*
X156424223Y-122195684D01*
X156141736Y-122281375D01*
X155881394Y-122420531D01*
X155653203Y-122607803D01*
X155465931Y-122835995D01*
X155444576Y-122875947D01*
X155296486Y-122673271D01*
X155080035Y-122474267D01*
X154828919Y-122321314D01*
X154552789Y-122220291D01*
X154537026Y-122217642D01*
X154305000Y-122338783D01*
X154051000Y-122338783D01*
X153818974Y-122217642D01*
X153803211Y-122220291D01*
X153527081Y-122321314D01*
X153275965Y-122474267D01*
X153059514Y-122673271D01*
X152908000Y-122880633D01*
X152756486Y-122673271D01*
X152540035Y-122474267D01*
X152288919Y-122321314D01*
X152012789Y-122220291D01*
X151997026Y-122217642D01*
X151765000Y-122338783D01*
X151511000Y-122338783D01*
X151278974Y-122217642D01*
X151263211Y-122220291D01*
X150987081Y-122321314D01*
X150735965Y-122474267D01*
X150519514Y-122673271D01*
X150371424Y-122875947D01*
X150350069Y-122835994D01*
X150162797Y-122607803D01*
X149934605Y-122420531D01*
X149674263Y-122281375D01*
X149391776Y-122195684D01*
X149098000Y-122166749D01*
X149049644Y-122171512D01*
X148628132Y-121750000D01*
X168631422Y-121750000D01*
X169088072Y-122206650D01*
X168841736Y-122281375D01*
X168581394Y-122420531D01*
X168353203Y-122607803D01*
X168165931Y-122835995D01*
X168148000Y-122869541D01*
X168130069Y-122835994D01*
X167942797Y-122607803D01*
X167714605Y-122420531D01*
X167454263Y-122281375D01*
X167171776Y-122195684D01*
X166878000Y-122166749D01*
X166584223Y-122195684D01*
X166301736Y-122281375D01*
X166041394Y-122420531D01*
X165813203Y-122607803D01*
X165625931Y-122835995D01*
X165608000Y-122869541D01*
X165590069Y-122835994D01*
X165402797Y-122607803D01*
X165174605Y-122420531D01*
X164914263Y-122281375D01*
X164631776Y-122195684D01*
X164338000Y-122166749D01*
X164044223Y-122195684D01*
X163761736Y-122281375D01*
X163501394Y-122420531D01*
X163273203Y-122607803D01*
X163085931Y-122835995D01*
X163068000Y-122869541D01*
X163050069Y-122835994D01*
X162862797Y-122607803D01*
X162634605Y-122420531D01*
X162374263Y-122281375D01*
X162091776Y-122195684D01*
X161798000Y-122166749D01*
X161504223Y-122195684D01*
X161221736Y-122281375D01*
X160961394Y-122420531D01*
X160733203Y-122607803D01*
X160545931Y-122835995D01*
X160406775Y-123096337D01*
X160321084Y-123378824D01*
X160299400Y-123598982D01*
X160299400Y-124051019D01*
X160321084Y-124271177D01*
X160406775Y-124553664D01*
X160545931Y-124814006D01*
X160733203Y-125042197D01*
X160961395Y-125229469D01*
X161221737Y-125368625D01*
X161504224Y-125454316D01*
X161798000Y-125483251D01*
X162091777Y-125454316D01*
X162374264Y-125368625D01*
X162634606Y-125229469D01*
X162862797Y-125042197D01*
X163050069Y-124814006D01*
X163068000Y-124780459D01*
X163085931Y-124814006D01*
X163273203Y-125042197D01*
X163501395Y-125229469D01*
X163761737Y-125368625D01*
X164044224Y-125454316D01*
X164338000Y-125483251D01*
X164631777Y-125454316D01*
X164914264Y-125368625D01*
X165174606Y-125229469D01*
X165402797Y-125042197D01*
X165590069Y-124814006D01*
X165608000Y-124780459D01*
X165625931Y-124814006D01*
X165813203Y-125042197D01*
X166041395Y-125229469D01*
X166301737Y-125368625D01*
X166584224Y-125454316D01*
X166878000Y-125483251D01*
X167171777Y-125454316D01*
X167454264Y-125368625D01*
X167714606Y-125229469D01*
X167942797Y-125042197D01*
X168130069Y-124814006D01*
X168148000Y-124780459D01*
X168165931Y-124814006D01*
X168353203Y-125042197D01*
X168581395Y-125229469D01*
X168841737Y-125368625D01*
X169124224Y-125454316D01*
X169418000Y-125483251D01*
X169711777Y-125454316D01*
X169994264Y-125368625D01*
X170254606Y-125229469D01*
X170482797Y-125042197D01*
X170670069Y-124814006D01*
X170688000Y-124780459D01*
X170705931Y-124814006D01*
X170893203Y-125042197D01*
X171121395Y-125229469D01*
X171381737Y-125368625D01*
X171664224Y-125454316D01*
X171958000Y-125483251D01*
X172251777Y-125454316D01*
X172534264Y-125368625D01*
X172794606Y-125229469D01*
X173022797Y-125042197D01*
X173210069Y-124814006D01*
X173228000Y-124780459D01*
X173245931Y-124814006D01*
X173433203Y-125042197D01*
X173661395Y-125229469D01*
X173921737Y-125368625D01*
X174204224Y-125454316D01*
X174498000Y-125483251D01*
X174791777Y-125454316D01*
X175074264Y-125368625D01*
X175334606Y-125229469D01*
X175562797Y-125042197D01*
X175750069Y-124814006D01*
X175889225Y-124553663D01*
X175974916Y-124271176D01*
X175996600Y-124051018D01*
X175996600Y-123598981D01*
X175974916Y-123378823D01*
X175889225Y-123096336D01*
X175750069Y-122835994D01*
X175562797Y-122607803D01*
X175334605Y-122420531D01*
X175074263Y-122281375D01*
X174791776Y-122195684D01*
X174498000Y-122166749D01*
X174204223Y-122195684D01*
X174139804Y-122215225D01*
X171394531Y-119469953D01*
X171366814Y-119436180D01*
X171232056Y-119325586D01*
X171078310Y-119243408D01*
X170911487Y-119192802D01*
X170781474Y-119179997D01*
X170781466Y-119179997D01*
X170737997Y-119175716D01*
X170694528Y-119179997D01*
X133304692Y-119179997D01*
X133270729Y-119165929D01*
X133090089Y-119129997D01*
X132905911Y-119129997D01*
X132725271Y-119165929D01*
X132555111Y-119236411D01*
X132401972Y-119338735D01*
X132271738Y-119468969D01*
X132169414Y-119622108D01*
X132098932Y-119792268D01*
X132090880Y-119832750D01*
X125632999Y-113374870D01*
X125632999Y-112755509D01*
X125856665Y-112800000D01*
X126139335Y-112800000D01*
X126416574Y-112744853D01*
X126677727Y-112636680D01*
X126912759Y-112479637D01*
X127112637Y-112279759D01*
X127269680Y-112044727D01*
X127377853Y-111783574D01*
X127390357Y-111720714D01*
X130713737Y-115044094D01*
X130745365Y-115082633D01*
X130899158Y-115208847D01*
X131074618Y-115302632D01*
X131265004Y-115360385D01*
X131413390Y-115375000D01*
X131413392Y-115375000D01*
X131462997Y-115379886D01*
X131512602Y-115375000D01*
X134547608Y-115375000D01*
X134695994Y-115360385D01*
X134886380Y-115302632D01*
X135061840Y-115208847D01*
X135213789Y-115084147D01*
X136248740Y-116119098D01*
X136280364Y-116157632D01*
X136434157Y-116283846D01*
X136609617Y-116377631D01*
X136800002Y-116435384D01*
X136997997Y-116454885D01*
X137047605Y-116449999D01*
X137149928Y-116449999D01*
X137149928Y-117715000D01*
X137162188Y-117839482D01*
X137198498Y-117959180D01*
X137257463Y-118069494D01*
X137336815Y-118166185D01*
X137433506Y-118245537D01*
X137543820Y-118304502D01*
X137663518Y-118340812D01*
X137788000Y-118353072D01*
X139488000Y-118353072D01*
X139612482Y-118340812D01*
X139732180Y-118304502D01*
X139842494Y-118245537D01*
X139939185Y-118166185D01*
X140018537Y-118069494D01*
X140077502Y-117959180D01*
X140099513Y-117886620D01*
X140231368Y-118018475D01*
X140474589Y-118180990D01*
X140744842Y-118292932D01*
X141031740Y-118350000D01*
X141324260Y-118350000D01*
X141611158Y-118292932D01*
X141881411Y-118180990D01*
X142124632Y-118018475D01*
X142331475Y-117811632D01*
X142448000Y-117637240D01*
X142564525Y-117811632D01*
X142771368Y-118018475D01*
X143014589Y-118180990D01*
X143284842Y-118292932D01*
X143571740Y-118350000D01*
X143864260Y-118350000D01*
X144151158Y-118292932D01*
X144421411Y-118180990D01*
X144664632Y-118018475D01*
X144871475Y-117811632D01*
X144988000Y-117637240D01*
X145104525Y-117811632D01*
X145311368Y-118018475D01*
X145554589Y-118180990D01*
X145824842Y-118292932D01*
X146111740Y-118350000D01*
X146404260Y-118350000D01*
X146691158Y-118292932D01*
X146961411Y-118180990D01*
X147204632Y-118018475D01*
X147411475Y-117811632D01*
X147528000Y-117637240D01*
X147644525Y-117811632D01*
X147851368Y-118018475D01*
X148094589Y-118180990D01*
X148364842Y-118292932D01*
X148651740Y-118350000D01*
X148944260Y-118350000D01*
X149231158Y-118292932D01*
X149501411Y-118180990D01*
X149744632Y-118018475D01*
X149951475Y-117811632D01*
X150068000Y-117637240D01*
X150184525Y-117811632D01*
X150391368Y-118018475D01*
X150634589Y-118180990D01*
X150904842Y-118292932D01*
X151191740Y-118350000D01*
X151484260Y-118350000D01*
X151771158Y-118292932D01*
X152041411Y-118180990D01*
X152284632Y-118018475D01*
X152491475Y-117811632D01*
X152608000Y-117637240D01*
X152724525Y-117811632D01*
X152931368Y-118018475D01*
X153174589Y-118180990D01*
X153444842Y-118292932D01*
X153731740Y-118350000D01*
X154024260Y-118350000D01*
X154311158Y-118292932D01*
X154581411Y-118180990D01*
X154824632Y-118018475D01*
X155031475Y-117811632D01*
X155148000Y-117637240D01*
X155264525Y-117811632D01*
X155471368Y-118018475D01*
X155714589Y-118180990D01*
X155984842Y-118292932D01*
X156271740Y-118350000D01*
X156564260Y-118350000D01*
X156851158Y-118292932D01*
X157121411Y-118180990D01*
X157364632Y-118018475D01*
X157571475Y-117811632D01*
X157688000Y-117637240D01*
X157804525Y-117811632D01*
X158011368Y-118018475D01*
X158254589Y-118180990D01*
X158524842Y-118292932D01*
X158811740Y-118350000D01*
X159104260Y-118350000D01*
X159391158Y-118292932D01*
X159661411Y-118180990D01*
X159904632Y-118018475D01*
X160111475Y-117811632D01*
X160228000Y-117637240D01*
X160344525Y-117811632D01*
X160551368Y-118018475D01*
X160794589Y-118180990D01*
X161064842Y-118292932D01*
X161351740Y-118350000D01*
X161644260Y-118350000D01*
X161931158Y-118292932D01*
X162201411Y-118180990D01*
X162444632Y-118018475D01*
X162651475Y-117811632D01*
X162768000Y-117637240D01*
X162884525Y-117811632D01*
X163091368Y-118018475D01*
X163334589Y-118180990D01*
X163604842Y-118292932D01*
X163891740Y-118350000D01*
X164184260Y-118350000D01*
X164471158Y-118292932D01*
X164741411Y-118180990D01*
X164984632Y-118018475D01*
X165191475Y-117811632D01*
X165308000Y-117637240D01*
X165424525Y-117811632D01*
X165631368Y-118018475D01*
X165874589Y-118180990D01*
X166144842Y-118292932D01*
X166431740Y-118350000D01*
X166724260Y-118350000D01*
X167011158Y-118292932D01*
X167281411Y-118180990D01*
X167524632Y-118018475D01*
X167731475Y-117811632D01*
X167893990Y-117568411D01*
X168005932Y-117298158D01*
X168063000Y-117011260D01*
X168063000Y-116718740D01*
X168005932Y-116431842D01*
X167893990Y-116161589D01*
X167731475Y-115918368D01*
X167524632Y-115711525D01*
X167281411Y-115549010D01*
X167011158Y-115437068D01*
X166724260Y-115380000D01*
X166431740Y-115380000D01*
X166144842Y-115437068D01*
X165874589Y-115549010D01*
X165631368Y-115711525D01*
X165424525Y-115918368D01*
X165308000Y-116092760D01*
X165191475Y-115918368D01*
X164984632Y-115711525D01*
X164741411Y-115549010D01*
X164471158Y-115437068D01*
X164184260Y-115380000D01*
X163981356Y-115380000D01*
X162287261Y-113685906D01*
X162255633Y-113647367D01*
X162101840Y-113521153D01*
X161926380Y-113427368D01*
X161735994Y-113369615D01*
X161587608Y-113355000D01*
X161538000Y-113350114D01*
X161488392Y-113355000D01*
X140971357Y-113355000D01*
X142607099Y-111719258D01*
X142645633Y-111687635D01*
X142771847Y-111533842D01*
X142865632Y-111358382D01*
X142923385Y-111167996D01*
X142938000Y-111019610D01*
X142942886Y-110970002D01*
X142938000Y-110920394D01*
X142938000Y-110311706D01*
X150793000Y-110311706D01*
X150793000Y-111518293D01*
X150808700Y-111677696D01*
X150870741Y-111882219D01*
X150971491Y-112070710D01*
X151107078Y-112235922D01*
X151272290Y-112371509D01*
X151460780Y-112472259D01*
X151665303Y-112534300D01*
X151878000Y-112555249D01*
X152090696Y-112534300D01*
X152295219Y-112472259D01*
X152483710Y-112371509D01*
X152513000Y-112347471D01*
X152542290Y-112371509D01*
X152730780Y-112472259D01*
X152935303Y-112534300D01*
X153148000Y-112555249D01*
X153360696Y-112534300D01*
X153565219Y-112472259D01*
X153753710Y-112371509D01*
X153783000Y-112347471D01*
X153812290Y-112371509D01*
X154000780Y-112472259D01*
X154205303Y-112534300D01*
X154418000Y-112555249D01*
X154630696Y-112534300D01*
X154835219Y-112472259D01*
X155023710Y-112371509D01*
X155053000Y-112347471D01*
X155082290Y-112371509D01*
X155270780Y-112472259D01*
X155475303Y-112534300D01*
X155688000Y-112555249D01*
X155900696Y-112534300D01*
X156105219Y-112472259D01*
X156293710Y-112371509D01*
X156323000Y-112347471D01*
X156352290Y-112371509D01*
X156540780Y-112472259D01*
X156745303Y-112534300D01*
X156958000Y-112555249D01*
X157170696Y-112534300D01*
X157375219Y-112472259D01*
X157563710Y-112371509D01*
X157593000Y-112347471D01*
X157622290Y-112371509D01*
X157810780Y-112472259D01*
X158015303Y-112534300D01*
X158228000Y-112555249D01*
X158440696Y-112534300D01*
X158645219Y-112472259D01*
X158833710Y-112371509D01*
X158863000Y-112347471D01*
X158892290Y-112371509D01*
X159080780Y-112472259D01*
X159285303Y-112534300D01*
X159498000Y-112555249D01*
X159710696Y-112534300D01*
X159915219Y-112472259D01*
X160103710Y-112371509D01*
X160133000Y-112347471D01*
X160162290Y-112371509D01*
X160350780Y-112472259D01*
X160555303Y-112534300D01*
X160768000Y-112555249D01*
X160980696Y-112534300D01*
X161185219Y-112472259D01*
X161373710Y-112371509D01*
X161403000Y-112347471D01*
X161432290Y-112371509D01*
X161620780Y-112472259D01*
X161825303Y-112534300D01*
X162038000Y-112555249D01*
X162250696Y-112534300D01*
X162455219Y-112472259D01*
X162643710Y-112371509D01*
X162673000Y-112347471D01*
X162702290Y-112371509D01*
X162890780Y-112472259D01*
X163095303Y-112534300D01*
X163308000Y-112555249D01*
X163520696Y-112534300D01*
X163725219Y-112472259D01*
X163913710Y-112371509D01*
X163943000Y-112347471D01*
X163972290Y-112371509D01*
X164160780Y-112472259D01*
X164365303Y-112534300D01*
X164578000Y-112555249D01*
X164790696Y-112534300D01*
X164995219Y-112472259D01*
X165183710Y-112371509D01*
X165213000Y-112347471D01*
X165242290Y-112371509D01*
X165430780Y-112472259D01*
X165635303Y-112534300D01*
X165848000Y-112555249D01*
X166060696Y-112534300D01*
X166265219Y-112472259D01*
X166453710Y-112371509D01*
X166481792Y-112348463D01*
X166620803Y-112437702D01*
X166823999Y-112509408D01*
X166991000Y-112382502D01*
X166991000Y-111042000D01*
X166971000Y-111042000D01*
X166971000Y-110788000D01*
X166991000Y-110788000D01*
X166991000Y-109447498D01*
X166823999Y-109320592D01*
X166620803Y-109392298D01*
X166481792Y-109481537D01*
X166453710Y-109458491D01*
X166265220Y-109357741D01*
X166060697Y-109295700D01*
X165848000Y-109274751D01*
X165635304Y-109295700D01*
X165430781Y-109357741D01*
X165242291Y-109458491D01*
X165213001Y-109482529D01*
X165183710Y-109458491D01*
X164995220Y-109357741D01*
X164790697Y-109295700D01*
X164578000Y-109274751D01*
X164365304Y-109295700D01*
X164160781Y-109357741D01*
X163972291Y-109458491D01*
X163943001Y-109482529D01*
X163913710Y-109458491D01*
X163725220Y-109357741D01*
X163520697Y-109295700D01*
X163308000Y-109274751D01*
X163095304Y-109295700D01*
X162890781Y-109357741D01*
X162702291Y-109458491D01*
X162673001Y-109482529D01*
X162643710Y-109458491D01*
X162455220Y-109357741D01*
X162250697Y-109295700D01*
X162038000Y-109274751D01*
X161825304Y-109295700D01*
X161620781Y-109357741D01*
X161432291Y-109458491D01*
X161403001Y-109482529D01*
X161373710Y-109458491D01*
X161185220Y-109357741D01*
X160980697Y-109295700D01*
X160768000Y-109274751D01*
X160555304Y-109295700D01*
X160350781Y-109357741D01*
X160162291Y-109458491D01*
X160133001Y-109482529D01*
X160103710Y-109458491D01*
X159915220Y-109357741D01*
X159710697Y-109295700D01*
X159498000Y-109274751D01*
X159285304Y-109295700D01*
X159080781Y-109357741D01*
X158892291Y-109458491D01*
X158863001Y-109482529D01*
X158833710Y-109458491D01*
X158645220Y-109357741D01*
X158440697Y-109295700D01*
X158228000Y-109274751D01*
X158015304Y-109295700D01*
X157810781Y-109357741D01*
X157622291Y-109458491D01*
X157593001Y-109482529D01*
X157563710Y-109458491D01*
X157375220Y-109357741D01*
X157170697Y-109295700D01*
X156958000Y-109274751D01*
X156745304Y-109295700D01*
X156540781Y-109357741D01*
X156352291Y-109458491D01*
X156323001Y-109482529D01*
X156293710Y-109458491D01*
X156105220Y-109357741D01*
X155900697Y-109295700D01*
X155688000Y-109274751D01*
X155475304Y-109295700D01*
X155270781Y-109357741D01*
X155082291Y-109458491D01*
X155053001Y-109482529D01*
X155023710Y-109458491D01*
X154835220Y-109357741D01*
X154630697Y-109295700D01*
X154418000Y-109274751D01*
X154205304Y-109295700D01*
X154000781Y-109357741D01*
X153812291Y-109458491D01*
X153783001Y-109482529D01*
X153753710Y-109458491D01*
X153565220Y-109357741D01*
X153360697Y-109295700D01*
X153148000Y-109274751D01*
X152935304Y-109295700D01*
X152730781Y-109357741D01*
X152542291Y-109458491D01*
X152513001Y-109482529D01*
X152483710Y-109458491D01*
X152295220Y-109357741D01*
X152090697Y-109295700D01*
X151878000Y-109274751D01*
X151665304Y-109295700D01*
X151460781Y-109357741D01*
X151272291Y-109458491D01*
X151107079Y-109594078D01*
X150971492Y-109759290D01*
X150870742Y-109947780D01*
X150808700Y-110152303D01*
X150793000Y-110311706D01*
X142938000Y-110311706D01*
X142938000Y-110283355D01*
X158907094Y-94314261D01*
X158945633Y-94282633D01*
X159071847Y-94128840D01*
X159165632Y-93953380D01*
X159223385Y-93762994D01*
X159238000Y-93614608D01*
X159238000Y-93614606D01*
X159242886Y-93565001D01*
X159238000Y-93515396D01*
X159238000Y-93419951D01*
X159285303Y-93434300D01*
X159498000Y-93455249D01*
X159710696Y-93434300D01*
X159915219Y-93372259D01*
X160103710Y-93271509D01*
X160133000Y-93247471D01*
X160162290Y-93271509D01*
X160350780Y-93372259D01*
X160555303Y-93434300D01*
X160768000Y-93455249D01*
X160980696Y-93434300D01*
X161185219Y-93372259D01*
X161373710Y-93271509D01*
X161403000Y-93247471D01*
X161432290Y-93271509D01*
X161620780Y-93372259D01*
X161825303Y-93434300D01*
X162038000Y-93455249D01*
X162250696Y-93434300D01*
X162455219Y-93372259D01*
X162643710Y-93271509D01*
X162673000Y-93247471D01*
X162702290Y-93271509D01*
X162890780Y-93372259D01*
X163095303Y-93434300D01*
X163308000Y-93455249D01*
X163520696Y-93434300D01*
X163725219Y-93372259D01*
X163913710Y-93271509D01*
X163943000Y-93247471D01*
X163972290Y-93271509D01*
X164160780Y-93372259D01*
X164365303Y-93434300D01*
X164578000Y-93455249D01*
X164790696Y-93434300D01*
X164995219Y-93372259D01*
X165183710Y-93271509D01*
X165213000Y-93247471D01*
X165242290Y-93271509D01*
X165430780Y-93372259D01*
X165635303Y-93434300D01*
X165848000Y-93455249D01*
X166060696Y-93434300D01*
X166265219Y-93372259D01*
X166453710Y-93271509D01*
X166481792Y-93248463D01*
X166620803Y-93337702D01*
X166823999Y-93409408D01*
X166991000Y-93282502D01*
X166991000Y-91942000D01*
X166975983Y-91942000D01*
X166983000Y-91870752D01*
X166983000Y-91688000D01*
X166991000Y-91688000D01*
X166991000Y-90347498D01*
X166983000Y-90341419D01*
X166983000Y-89853761D01*
X167871000Y-88965761D01*
X167871000Y-90480854D01*
X167795408Y-90407986D01*
X167615197Y-90292298D01*
X167412001Y-90220592D01*
X167245000Y-90347498D01*
X167245000Y-91688000D01*
X167265000Y-91688000D01*
X167265000Y-91942000D01*
X167245000Y-91942000D01*
X167245000Y-93282502D01*
X167412001Y-93409408D01*
X167615197Y-93337702D01*
X167795408Y-93222014D01*
X167871000Y-93149146D01*
X167871000Y-109580854D01*
X167795408Y-109507986D01*
X167615197Y-109392298D01*
X167412001Y-109320592D01*
X167245000Y-109447498D01*
X167245000Y-110788000D01*
X167265000Y-110788000D01*
X167265000Y-111042000D01*
X167245000Y-111042000D01*
X167245000Y-112382502D01*
X167412001Y-112509408D01*
X167615197Y-112437702D01*
X167795408Y-112322014D01*
X167871000Y-112249146D01*
X167871000Y-114365000D01*
X167873440Y-114389776D01*
X167880667Y-114413601D01*
X167892403Y-114435557D01*
X167908197Y-114454803D01*
X167927443Y-114470597D01*
X167949399Y-114482333D01*
X167973224Y-114489560D01*
X167998000Y-114492000D01*
X178868000Y-114492000D01*
X178868000Y-116803293D01*
X178738113Y-116673406D01*
X178301298Y-116381536D01*
X177815935Y-116180492D01*
X177300677Y-116078000D01*
X176775323Y-116078000D01*
X176260065Y-116180492D01*
X175774702Y-116381536D01*
X175337887Y-116673406D01*
X174966406Y-117044887D01*
X174674536Y-117481702D01*
X174473492Y-117967065D01*
X174371000Y-118482323D01*
X174371000Y-119007677D01*
X174473492Y-119522935D01*
X174674536Y-120008298D01*
X174966406Y-120445113D01*
X175337887Y-120816594D01*
X175774702Y-121108464D01*
X176260065Y-121309508D01*
X176775323Y-121412000D01*
X177300677Y-121412000D01*
X177815935Y-121309508D01*
X178301298Y-121108464D01*
X178738113Y-120816594D01*
X178868000Y-120686707D01*
X178868000Y-120990908D01*
X176560617Y-123298292D01*
X176533526Y-123320525D01*
X176511293Y-123347616D01*
X176444801Y-123428637D01*
X176378872Y-123551981D01*
X176338274Y-123685816D01*
X176324565Y-123825000D01*
X176328001Y-123859885D01*
X176328000Y-125655000D01*
X126909707Y-125655000D01*
X127039594Y-125525113D01*
X127331464Y-125088298D01*
X127532508Y-124602935D01*
X127635000Y-124087677D01*
X127635000Y-123562323D01*
X127532508Y-123047065D01*
X127331464Y-122561702D01*
X127039594Y-122124887D01*
X126668113Y-121753406D01*
X126231298Y-121461536D01*
X125745935Y-121260492D01*
X125230677Y-121158000D01*
X124705323Y-121158000D01*
X124190065Y-121260492D01*
X123704702Y-121461536D01*
X123267887Y-121753406D01*
X122896406Y-122124887D01*
X122604536Y-122561702D01*
X122403492Y-123047065D01*
X122301000Y-123562323D01*
X122301000Y-124087677D01*
X122403492Y-124602935D01*
X122604536Y-125088298D01*
X122896406Y-125525113D01*
X123026293Y-125655000D01*
X111708000Y-125655000D01*
X111708000Y-73735000D01*
X124296293Y-73735000D01*
X124166406Y-73864887D01*
G37*
G04 #@! TD.AperFunction*
D21*
X176328001Y-74843093D02*
X176328000Y-85944125D01*
X176324565Y-85979000D01*
X176328000Y-86013875D01*
X176328000Y-86013876D01*
X176338273Y-86118183D01*
X176378872Y-86252019D01*
X176444800Y-86375362D01*
X176533525Y-86483474D01*
X176560617Y-86505708D01*
X178292908Y-88238000D01*
X177803407Y-88238000D01*
X177300677Y-88138000D01*
X176775323Y-88138000D01*
X176272593Y-88238000D01*
X168598762Y-88238000D01*
X169747423Y-87089339D01*
X169818273Y-87136680D01*
X170079426Y-87244853D01*
X170356665Y-87300000D01*
X170639335Y-87300000D01*
X170916574Y-87244853D01*
X171177727Y-87136680D01*
X171412759Y-86979637D01*
X171534694Y-86857702D01*
X172184903Y-86857702D01*
X172256486Y-87101671D01*
X172511996Y-87222571D01*
X172786184Y-87291300D01*
X173068512Y-87305217D01*
X173348130Y-87263787D01*
X173614292Y-87168603D01*
X173739514Y-87101671D01*
X173811097Y-86857702D01*
X172998000Y-86044605D01*
X172184903Y-86857702D01*
X171534694Y-86857702D01*
X171612637Y-86779759D01*
X171746692Y-86579131D01*
X171761329Y-86606514D01*
X172005298Y-86678097D01*
X172818395Y-85865000D01*
X173177605Y-85865000D01*
X173990702Y-86678097D01*
X174234671Y-86606514D01*
X174355571Y-86351004D01*
X174424300Y-86076816D01*
X174438217Y-85794488D01*
X174396787Y-85514870D01*
X174301603Y-85248708D01*
X174234671Y-85123486D01*
X173990702Y-85051903D01*
X173177605Y-85865000D01*
X172818395Y-85865000D01*
X172005298Y-85051903D01*
X171761329Y-85123486D01*
X171747676Y-85152341D01*
X171612637Y-84950241D01*
X171534694Y-84872298D01*
X172184903Y-84872298D01*
X172998000Y-85685395D01*
X173811097Y-84872298D01*
X173739514Y-84628329D01*
X173484004Y-84507429D01*
X173209816Y-84438700D01*
X172927488Y-84424783D01*
X172647870Y-84466213D01*
X172381708Y-84561397D01*
X172256486Y-84628329D01*
X172184903Y-84872298D01*
X171534694Y-84872298D01*
X171412759Y-84750363D01*
X171177727Y-84593320D01*
X170916574Y-84485147D01*
X170639335Y-84430000D01*
X170356665Y-84430000D01*
X170079426Y-84485147D01*
X169818273Y-84593320D01*
X169613716Y-84730000D01*
X169422371Y-84730000D01*
X169366629Y-84724510D01*
X169310887Y-84730000D01*
X169310878Y-84730000D01*
X169144131Y-84746423D01*
X168930183Y-84811324D01*
X168733007Y-84916716D01*
X168560181Y-85058551D01*
X168524639Y-85101859D01*
X167766072Y-85860426D01*
X167766072Y-85015000D01*
X167753812Y-84890518D01*
X167717502Y-84770820D01*
X167658537Y-84660506D01*
X167579185Y-84563815D01*
X167482494Y-84484463D01*
X167372180Y-84425498D01*
X167252482Y-84389188D01*
X167128000Y-84376928D01*
X165428000Y-84376928D01*
X165303518Y-84389188D01*
X165183820Y-84425498D01*
X165073506Y-84484463D01*
X164976815Y-84563815D01*
X164897463Y-84660506D01*
X164838498Y-84770820D01*
X164816487Y-84843380D01*
X164684632Y-84711525D01*
X164441411Y-84549010D01*
X164171158Y-84437068D01*
X163884260Y-84380000D01*
X163591740Y-84380000D01*
X163304842Y-84437068D01*
X163034589Y-84549010D01*
X162791368Y-84711525D01*
X162584525Y-84918368D01*
X162468000Y-85092760D01*
X162351475Y-84918368D01*
X162144632Y-84711525D01*
X161901411Y-84549010D01*
X161631158Y-84437068D01*
X161344260Y-84380000D01*
X161051740Y-84380000D01*
X160764842Y-84437068D01*
X160494589Y-84549010D01*
X160251368Y-84711525D01*
X160044525Y-84918368D01*
X159928000Y-85092760D01*
X159811475Y-84918368D01*
X159604632Y-84711525D01*
X159361411Y-84549010D01*
X159091158Y-84437068D01*
X158804260Y-84380000D01*
X158511740Y-84380000D01*
X158224842Y-84437068D01*
X157954589Y-84549010D01*
X157711368Y-84711525D01*
X157504525Y-84918368D01*
X157388000Y-85092760D01*
X157271475Y-84918368D01*
X157064632Y-84711525D01*
X156821411Y-84549010D01*
X156551158Y-84437068D01*
X156264260Y-84380000D01*
X155971740Y-84380000D01*
X155684842Y-84437068D01*
X155414589Y-84549010D01*
X155171368Y-84711525D01*
X154964525Y-84918368D01*
X154848000Y-85092760D01*
X154731475Y-84918368D01*
X154524632Y-84711525D01*
X154281411Y-84549010D01*
X154011158Y-84437068D01*
X153724260Y-84380000D01*
X153431740Y-84380000D01*
X153144842Y-84437068D01*
X152874589Y-84549010D01*
X152631368Y-84711525D01*
X152424525Y-84918368D01*
X152308000Y-85092760D01*
X152191475Y-84918368D01*
X151984632Y-84711525D01*
X151741411Y-84549010D01*
X151471158Y-84437068D01*
X151184260Y-84380000D01*
X150891740Y-84380000D01*
X150604842Y-84437068D01*
X150334589Y-84549010D01*
X150091368Y-84711525D01*
X149884525Y-84918368D01*
X149768000Y-85092760D01*
X149651475Y-84918368D01*
X149444632Y-84711525D01*
X149201411Y-84549010D01*
X148931158Y-84437068D01*
X148644260Y-84380000D01*
X148351740Y-84380000D01*
X148064842Y-84437068D01*
X147794589Y-84549010D01*
X147551368Y-84711525D01*
X147344525Y-84918368D01*
X147228000Y-85092760D01*
X147111475Y-84918368D01*
X146904632Y-84711525D01*
X146661411Y-84549010D01*
X146391158Y-84437068D01*
X146104260Y-84380000D01*
X145811740Y-84380000D01*
X145524842Y-84437068D01*
X145254589Y-84549010D01*
X145011368Y-84711525D01*
X144804525Y-84918368D01*
X144688000Y-85092760D01*
X144571475Y-84918368D01*
X144364632Y-84711525D01*
X144121411Y-84549010D01*
X143851158Y-84437068D01*
X143564260Y-84380000D01*
X143271740Y-84380000D01*
X142984842Y-84437068D01*
X142761972Y-84529383D01*
X143916356Y-83375000D01*
X169547608Y-83375000D01*
X169695994Y-83360385D01*
X169886380Y-83302632D01*
X170061840Y-83208847D01*
X170215633Y-83082633D01*
X170341847Y-82928840D01*
X170435632Y-82753380D01*
X170493385Y-82562994D01*
X170512886Y-82365000D01*
X170493385Y-82167006D01*
X170435632Y-81976620D01*
X170341847Y-81801160D01*
X170215633Y-81647367D01*
X170061840Y-81521153D01*
X169886380Y-81427368D01*
X169695994Y-81369615D01*
X169547608Y-81355000D01*
X143547608Y-81355000D01*
X143498000Y-81350114D01*
X143300005Y-81369615D01*
X143165678Y-81410363D01*
X143109620Y-81427368D01*
X142934160Y-81521153D01*
X142780367Y-81647367D01*
X142748744Y-81685900D01*
X140248744Y-84185901D01*
X140154154Y-84301160D01*
X140060368Y-84476621D01*
X140002615Y-84667006D01*
X139983114Y-84865000D01*
X140002615Y-85062994D01*
X140060368Y-85253379D01*
X140154154Y-85428840D01*
X140280368Y-85582632D01*
X140434160Y-85708846D01*
X140609621Y-85802632D01*
X140800006Y-85860385D01*
X140998000Y-85879886D01*
X141195994Y-85860385D01*
X141386379Y-85802632D01*
X141561840Y-85708846D01*
X141677099Y-85614256D01*
X142082384Y-85208972D01*
X141990068Y-85431842D01*
X141933000Y-85718740D01*
X141933000Y-86011260D01*
X141990068Y-86298158D01*
X142102010Y-86568411D01*
X142264525Y-86811632D01*
X142471368Y-87018475D01*
X142714589Y-87180990D01*
X142984842Y-87292932D01*
X143271740Y-87350000D01*
X143564260Y-87350000D01*
X143851158Y-87292932D01*
X144121411Y-87180990D01*
X144364632Y-87018475D01*
X144571475Y-86811632D01*
X144688000Y-86637240D01*
X144804525Y-86811632D01*
X145011368Y-87018475D01*
X145254589Y-87180990D01*
X145524842Y-87292932D01*
X145811740Y-87350000D01*
X146104260Y-87350000D01*
X146391158Y-87292932D01*
X146661411Y-87180990D01*
X146904632Y-87018475D01*
X147111475Y-86811632D01*
X147228000Y-86637240D01*
X147344525Y-86811632D01*
X147551368Y-87018475D01*
X147794589Y-87180990D01*
X148064842Y-87292932D01*
X148351740Y-87350000D01*
X148644260Y-87350000D01*
X148931158Y-87292932D01*
X149201411Y-87180990D01*
X149444632Y-87018475D01*
X149651475Y-86811632D01*
X149768000Y-86637240D01*
X149884525Y-86811632D01*
X150091368Y-87018475D01*
X150334589Y-87180990D01*
X150604842Y-87292932D01*
X150891740Y-87350000D01*
X151184260Y-87350000D01*
X151471158Y-87292932D01*
X151741411Y-87180990D01*
X151984632Y-87018475D01*
X152191475Y-86811632D01*
X152308000Y-86637240D01*
X152424525Y-86811632D01*
X152631368Y-87018475D01*
X152874589Y-87180990D01*
X153144842Y-87292932D01*
X153431740Y-87350000D01*
X153724260Y-87350000D01*
X154011158Y-87292932D01*
X154281411Y-87180990D01*
X154524632Y-87018475D01*
X154731475Y-86811632D01*
X154848000Y-86637240D01*
X154964525Y-86811632D01*
X155171368Y-87018475D01*
X155414589Y-87180990D01*
X155684842Y-87292932D01*
X155971740Y-87350000D01*
X156264260Y-87350000D01*
X156551158Y-87292932D01*
X156821411Y-87180990D01*
X157064632Y-87018475D01*
X157271475Y-86811632D01*
X157388000Y-86637240D01*
X157504525Y-86811632D01*
X157711368Y-87018475D01*
X157954589Y-87180990D01*
X158224842Y-87292932D01*
X158511740Y-87350000D01*
X158804260Y-87350000D01*
X159091158Y-87292932D01*
X159361411Y-87180990D01*
X159604632Y-87018475D01*
X159811475Y-86811632D01*
X159928000Y-86637240D01*
X160044525Y-86811632D01*
X160251368Y-87018475D01*
X160494589Y-87180990D01*
X160764842Y-87292932D01*
X161051740Y-87350000D01*
X161344260Y-87350000D01*
X161631158Y-87292932D01*
X161901411Y-87180990D01*
X162144632Y-87018475D01*
X162351475Y-86811632D01*
X162468000Y-86637240D01*
X162584525Y-86811632D01*
X162791368Y-87018475D01*
X163034589Y-87180990D01*
X163304842Y-87292932D01*
X163591740Y-87350000D01*
X163884260Y-87350000D01*
X164171158Y-87292932D01*
X164441411Y-87180990D01*
X164684632Y-87018475D01*
X164816487Y-86886620D01*
X164838498Y-86959180D01*
X164897463Y-87069494D01*
X164976815Y-87166185D01*
X165073506Y-87245537D01*
X165183820Y-87304502D01*
X165303518Y-87340812D01*
X165428000Y-87353072D01*
X166273427Y-87353072D01*
X165084865Y-88541634D01*
X165041551Y-88577181D01*
X164899716Y-88750007D01*
X164794325Y-88947183D01*
X164794324Y-88947184D01*
X164729423Y-89161132D01*
X164722641Y-89229990D01*
X152773031Y-89229990D01*
X152723426Y-89225104D01*
X152673821Y-89229990D01*
X152673819Y-89229990D01*
X152525433Y-89244605D01*
X152335047Y-89302358D01*
X152159587Y-89396143D01*
X152005794Y-89522357D01*
X151974166Y-89560896D01*
X151198906Y-90336156D01*
X151160367Y-90367784D01*
X151034153Y-90521577D01*
X150977071Y-90628371D01*
X150940368Y-90697038D01*
X150926002Y-90744395D01*
X150870742Y-90847780D01*
X150808700Y-91052303D01*
X150793000Y-91211706D01*
X150793000Y-92418293D01*
X150808700Y-92577696D01*
X150870741Y-92782219D01*
X150971491Y-92970710D01*
X151107078Y-93135922D01*
X151272290Y-93271509D01*
X151460780Y-93372259D01*
X151665303Y-93434300D01*
X151878000Y-93455249D01*
X152090696Y-93434300D01*
X152295219Y-93372259D01*
X152483710Y-93271509D01*
X152513000Y-93247471D01*
X152542290Y-93271509D01*
X152730780Y-93372259D01*
X152935303Y-93434300D01*
X153148000Y-93455249D01*
X153360696Y-93434300D01*
X153565219Y-93372259D01*
X153753710Y-93271509D01*
X153783000Y-93247471D01*
X153812290Y-93271509D01*
X154000780Y-93372259D01*
X154205303Y-93434300D01*
X154418000Y-93455249D01*
X154630696Y-93434300D01*
X154643947Y-93430280D01*
X140383449Y-107690779D01*
X140177727Y-107553320D01*
X139916574Y-107445147D01*
X139639335Y-107390000D01*
X139356665Y-107390000D01*
X139079426Y-107445147D01*
X138818273Y-107553320D01*
X138583241Y-107710363D01*
X138383363Y-107910241D01*
X138226320Y-108145273D01*
X138118147Y-108406426D01*
X138063000Y-108683665D01*
X138063000Y-108966335D01*
X138118147Y-109243574D01*
X138226320Y-109504727D01*
X138383363Y-109739759D01*
X138583241Y-109939637D01*
X138815759Y-110095000D01*
X138583241Y-110250363D01*
X138383363Y-110450241D01*
X138234454Y-110673099D01*
X136433000Y-108871645D01*
X136433000Y-108723665D01*
X136377853Y-108446426D01*
X136269680Y-108185273D01*
X136112637Y-107950241D01*
X135912759Y-107750363D01*
X135677727Y-107593320D01*
X135416574Y-107485147D01*
X135139335Y-107430000D01*
X134856665Y-107430000D01*
X134579426Y-107485147D01*
X134318273Y-107593320D01*
X134083241Y-107750363D01*
X133883363Y-107950241D01*
X133726320Y-108185273D01*
X133618147Y-108446426D01*
X133563000Y-108723665D01*
X133563000Y-109006335D01*
X133618147Y-109283574D01*
X133726320Y-109544727D01*
X133883363Y-109779759D01*
X134083241Y-109979637D01*
X134315759Y-110135000D01*
X134083241Y-110290363D01*
X133883363Y-110490241D01*
X133726320Y-110725273D01*
X133722016Y-110735663D01*
X131933000Y-108946647D01*
X131933000Y-108683665D01*
X131877853Y-108406426D01*
X131769680Y-108145273D01*
X131612637Y-107910241D01*
X131412759Y-107710363D01*
X131177727Y-107553320D01*
X130916574Y-107445147D01*
X130639335Y-107390000D01*
X130356665Y-107390000D01*
X130079426Y-107445147D01*
X129818273Y-107553320D01*
X129583241Y-107710363D01*
X129383363Y-107910241D01*
X129226320Y-108145273D01*
X129118147Y-108406426D01*
X129063000Y-108683665D01*
X129063000Y-108966335D01*
X129118147Y-109243574D01*
X129226320Y-109504727D01*
X129383363Y-109739759D01*
X129583241Y-109939637D01*
X129815759Y-110095000D01*
X129583241Y-110250363D01*
X129383363Y-110450241D01*
X129226320Y-110685273D01*
X129222016Y-110695663D01*
X127433000Y-108906647D01*
X127433000Y-108683665D01*
X127377853Y-108406426D01*
X127269680Y-108145273D01*
X127112637Y-107910241D01*
X126912759Y-107710363D01*
X126677727Y-107553320D01*
X126416574Y-107445147D01*
X126139335Y-107390000D01*
X125856665Y-107390000D01*
X125632999Y-107434491D01*
X125632999Y-96295509D01*
X125856665Y-96340000D01*
X126139335Y-96340000D01*
X126416574Y-96284853D01*
X126677727Y-96176680D01*
X126912759Y-96019637D01*
X127112637Y-95819759D01*
X127269680Y-95584727D01*
X127377853Y-95323574D01*
X127433000Y-95046335D01*
X127433000Y-94763665D01*
X127377853Y-94486426D01*
X127269680Y-94225273D01*
X127112637Y-93990241D01*
X126912759Y-93790363D01*
X126680241Y-93635000D01*
X126882284Y-93500000D01*
X129613716Y-93500000D01*
X129815759Y-93635000D01*
X129583241Y-93790363D01*
X129383363Y-93990241D01*
X129226320Y-94225273D01*
X129118147Y-94486426D01*
X129063000Y-94763665D01*
X129063000Y-95046335D01*
X129118147Y-95323574D01*
X129226320Y-95584727D01*
X129383363Y-95819759D01*
X129583241Y-96019637D01*
X129818273Y-96176680D01*
X130079426Y-96284853D01*
X130356665Y-96340000D01*
X130639335Y-96340000D01*
X130916574Y-96284853D01*
X131177727Y-96176680D01*
X131412759Y-96019637D01*
X131612637Y-95819759D01*
X131769680Y-95584727D01*
X131877853Y-95323574D01*
X131933000Y-95046335D01*
X131933000Y-94763665D01*
X131877853Y-94486426D01*
X131769680Y-94225273D01*
X131612637Y-93990241D01*
X131412759Y-93790363D01*
X131180241Y-93635000D01*
X131382284Y-93500000D01*
X134113716Y-93500000D01*
X134315759Y-93635000D01*
X134083241Y-93790363D01*
X133883363Y-93990241D01*
X133726320Y-94225273D01*
X133618147Y-94486426D01*
X133563000Y-94763665D01*
X133563000Y-95046335D01*
X133618147Y-95323574D01*
X133726320Y-95584727D01*
X133883363Y-95819759D01*
X134083241Y-96019637D01*
X134318273Y-96176680D01*
X134579426Y-96284853D01*
X134856665Y-96340000D01*
X135139335Y-96340000D01*
X135416574Y-96284853D01*
X135677727Y-96176680D01*
X135912759Y-96019637D01*
X136112637Y-95819759D01*
X136269680Y-95584727D01*
X136377853Y-95323574D01*
X136433000Y-95046335D01*
X136433000Y-94763665D01*
X136377853Y-94486426D01*
X136269680Y-94225273D01*
X136112637Y-93990241D01*
X135912759Y-93790363D01*
X135680241Y-93635000D01*
X135882284Y-93500000D01*
X138613716Y-93500000D01*
X138815759Y-93635000D01*
X138583241Y-93790363D01*
X138383363Y-93990241D01*
X138226320Y-94225273D01*
X138118147Y-94486426D01*
X138063000Y-94763665D01*
X138063000Y-95046335D01*
X138118147Y-95323574D01*
X138226320Y-95584727D01*
X138383363Y-95819759D01*
X138583241Y-96019637D01*
X138818273Y-96176680D01*
X139079426Y-96284853D01*
X139356665Y-96340000D01*
X139639335Y-96340000D01*
X139916574Y-96284853D01*
X140177727Y-96176680D01*
X140412759Y-96019637D01*
X140612637Y-95819759D01*
X140769680Y-95584727D01*
X140877853Y-95323574D01*
X140933000Y-95046335D01*
X140933000Y-94763665D01*
X140877853Y-94486426D01*
X140769680Y-94225273D01*
X140612637Y-93990241D01*
X140412759Y-93790363D01*
X140180241Y-93635000D01*
X140412759Y-93479637D01*
X140612637Y-93279759D01*
X140769680Y-93044727D01*
X140877853Y-92783574D01*
X140933000Y-92506335D01*
X140933000Y-92223665D01*
X140877853Y-91946426D01*
X140769680Y-91685273D01*
X140612637Y-91450241D01*
X140412759Y-91250363D01*
X140177727Y-91093320D01*
X139916574Y-90985147D01*
X139639335Y-90930000D01*
X139356665Y-90930000D01*
X139079426Y-90985147D01*
X138818273Y-91093320D01*
X138613716Y-91230000D01*
X135882284Y-91230000D01*
X135677727Y-91093320D01*
X135416574Y-90985147D01*
X135139335Y-90930000D01*
X134856665Y-90930000D01*
X134579426Y-90985147D01*
X134318273Y-91093320D01*
X134113716Y-91230000D01*
X131382284Y-91230000D01*
X131177727Y-91093320D01*
X130916574Y-90985147D01*
X130639335Y-90930000D01*
X130356665Y-90930000D01*
X130079426Y-90985147D01*
X129818273Y-91093320D01*
X129613716Y-91230000D01*
X126882284Y-91230000D01*
X126677727Y-91093320D01*
X126416574Y-90985147D01*
X126139335Y-90930000D01*
X125856665Y-90930000D01*
X125579426Y-90985147D01*
X125318273Y-91093320D01*
X125083241Y-91250363D01*
X124883363Y-91450241D01*
X124726320Y-91685273D01*
X124618147Y-91946426D01*
X124570150Y-92187718D01*
X123734859Y-93023010D01*
X123691551Y-93058552D01*
X123549716Y-93231378D01*
X123533233Y-93262216D01*
X123444323Y-93428555D01*
X123379422Y-93642503D01*
X123357508Y-93865001D01*
X123363000Y-93920763D01*
X123362999Y-113478421D01*
X122383000Y-112498422D01*
X122383000Y-86767578D01*
X126716913Y-82433665D01*
X129263000Y-82433665D01*
X129263000Y-82716335D01*
X129318147Y-82993574D01*
X129426320Y-83254727D01*
X129583363Y-83489759D01*
X129783241Y-83689637D01*
X130015759Y-83845000D01*
X129783241Y-84000363D01*
X129583363Y-84200241D01*
X129426320Y-84435273D01*
X129318147Y-84696426D01*
X129263000Y-84973665D01*
X129263000Y-85256335D01*
X129318147Y-85533574D01*
X129426320Y-85794727D01*
X129583363Y-86029759D01*
X129783241Y-86229637D01*
X130018273Y-86386680D01*
X130279426Y-86494853D01*
X130556665Y-86550000D01*
X130839335Y-86550000D01*
X131116574Y-86494853D01*
X131377727Y-86386680D01*
X131612759Y-86229637D01*
X131812637Y-86029759D01*
X131969680Y-85794727D01*
X132077853Y-85533574D01*
X132133000Y-85256335D01*
X132133000Y-84973665D01*
X132077853Y-84696426D01*
X131969680Y-84435273D01*
X131812637Y-84200241D01*
X131612759Y-84000363D01*
X131380241Y-83845000D01*
X131612759Y-83689637D01*
X131812637Y-83489759D01*
X131969680Y-83254727D01*
X132077853Y-82993574D01*
X132133000Y-82716335D01*
X132133000Y-82433665D01*
X132123055Y-82383665D01*
X134063000Y-82383665D01*
X134063000Y-82666335D01*
X134118147Y-82943574D01*
X134226320Y-83204727D01*
X134383363Y-83439759D01*
X134583241Y-83639637D01*
X134815759Y-83795000D01*
X134583241Y-83950363D01*
X134383363Y-84150241D01*
X134226320Y-84385273D01*
X134118147Y-84646426D01*
X134063000Y-84923665D01*
X134063000Y-85206335D01*
X134118147Y-85483574D01*
X134226320Y-85744727D01*
X134383363Y-85979759D01*
X134583241Y-86179637D01*
X134818273Y-86336680D01*
X135079426Y-86444853D01*
X135356665Y-86500000D01*
X135639335Y-86500000D01*
X135916574Y-86444853D01*
X136177727Y-86336680D01*
X136412759Y-86179637D01*
X136612637Y-85979759D01*
X136769680Y-85744727D01*
X136877853Y-85483574D01*
X136933000Y-85206335D01*
X136933000Y-84923665D01*
X136877853Y-84646426D01*
X136769680Y-84385273D01*
X136612637Y-84150241D01*
X136412759Y-83950363D01*
X136180241Y-83795000D01*
X136412759Y-83639637D01*
X136612637Y-83439759D01*
X136769680Y-83204727D01*
X136877853Y-82943574D01*
X136933000Y-82666335D01*
X136933000Y-82383665D01*
X136877853Y-82106426D01*
X136769680Y-81845273D01*
X136612637Y-81610241D01*
X136412759Y-81410363D01*
X136177727Y-81253320D01*
X135916574Y-81145147D01*
X135639335Y-81090000D01*
X135356665Y-81090000D01*
X135079426Y-81145147D01*
X134818273Y-81253320D01*
X134583241Y-81410363D01*
X134383363Y-81610241D01*
X134226320Y-81845273D01*
X134118147Y-82106426D01*
X134063000Y-82383665D01*
X132123055Y-82383665D01*
X132077853Y-82156426D01*
X131969680Y-81895273D01*
X131812637Y-81660241D01*
X131612759Y-81460363D01*
X131377727Y-81303320D01*
X131116574Y-81195147D01*
X130839335Y-81140000D01*
X130556665Y-81140000D01*
X130279426Y-81195147D01*
X130018273Y-81303320D01*
X129783241Y-81460363D01*
X129583363Y-81660241D01*
X129426320Y-81895273D01*
X129318147Y-82156426D01*
X129263000Y-82433665D01*
X126716913Y-82433665D01*
X131975804Y-77174775D01*
X132040224Y-77194316D01*
X132334000Y-77223251D01*
X132627777Y-77194316D01*
X132910264Y-77108625D01*
X133170606Y-76969469D01*
X133398797Y-76782197D01*
X133586069Y-76554006D01*
X133604000Y-76520459D01*
X133621931Y-76554006D01*
X133809203Y-76782197D01*
X134037395Y-76969469D01*
X134297737Y-77108625D01*
X134580224Y-77194316D01*
X134874000Y-77223251D01*
X135167777Y-77194316D01*
X135450264Y-77108625D01*
X135710606Y-76969469D01*
X135938797Y-76782197D01*
X136126069Y-76554006D01*
X136147424Y-76514053D01*
X136295514Y-76716729D01*
X136511965Y-76915733D01*
X136763081Y-77068686D01*
X137039211Y-77169709D01*
X137054974Y-77172358D01*
X137287000Y-77051217D01*
X137287000Y-75692000D01*
X137267000Y-75692000D01*
X137267000Y-75438000D01*
X137287000Y-75438000D01*
X137287000Y-74078783D01*
X137541000Y-74078783D01*
X137541000Y-75438000D01*
X137561000Y-75438000D01*
X137561000Y-75692000D01*
X137541000Y-75692000D01*
X137541000Y-77051217D01*
X137773026Y-77172358D01*
X137788789Y-77169709D01*
X138064919Y-77068686D01*
X138316035Y-76915733D01*
X138532486Y-76716729D01*
X138680576Y-76514053D01*
X138701931Y-76554006D01*
X138889203Y-76782197D01*
X139117395Y-76969469D01*
X139377737Y-77108625D01*
X139660224Y-77194316D01*
X139954000Y-77223251D01*
X140247777Y-77194316D01*
X140530264Y-77108625D01*
X140790606Y-76969469D01*
X141018797Y-76782197D01*
X141206069Y-76554006D01*
X141224000Y-76520459D01*
X141241931Y-76554006D01*
X141429203Y-76782197D01*
X141657395Y-76969469D01*
X141917737Y-77108625D01*
X142200224Y-77194316D01*
X142494000Y-77223251D01*
X142787777Y-77194316D01*
X143070264Y-77108625D01*
X143330606Y-76969469D01*
X143558797Y-76782197D01*
X143746069Y-76554006D01*
X143764000Y-76520459D01*
X143781931Y-76554006D01*
X143969203Y-76782197D01*
X144197395Y-76969469D01*
X144457737Y-77108625D01*
X144740224Y-77194316D01*
X145034000Y-77223251D01*
X145327777Y-77194316D01*
X145610264Y-77108625D01*
X145870606Y-76969469D01*
X146098797Y-76782197D01*
X146286069Y-76554006D01*
X146304000Y-76520459D01*
X146321931Y-76554006D01*
X146509203Y-76782197D01*
X146737395Y-76969469D01*
X146997737Y-77108625D01*
X147280224Y-77194316D01*
X147574000Y-77223251D01*
X147867777Y-77194316D01*
X148150264Y-77108625D01*
X148410606Y-76969469D01*
X148638797Y-76782197D01*
X148826069Y-76554006D01*
X148844000Y-76520459D01*
X148861931Y-76554006D01*
X149049203Y-76782197D01*
X149277395Y-76969469D01*
X149537737Y-77108625D01*
X149820224Y-77194316D01*
X150114000Y-77223251D01*
X150407777Y-77194316D01*
X150690264Y-77108625D01*
X150950606Y-76969469D01*
X151178797Y-76782197D01*
X151366069Y-76554006D01*
X151384000Y-76520459D01*
X151401931Y-76554006D01*
X151589203Y-76782197D01*
X151817395Y-76969469D01*
X152077737Y-77108625D01*
X152360224Y-77194316D01*
X152654000Y-77223251D01*
X152947777Y-77194316D01*
X153230264Y-77108625D01*
X153490606Y-76969469D01*
X153718797Y-76782197D01*
X153906069Y-76554006D01*
X154045225Y-76293663D01*
X154130916Y-76011176D01*
X154152600Y-75791018D01*
X154152600Y-75338982D01*
X155219400Y-75338982D01*
X155219400Y-75791019D01*
X155241084Y-76011177D01*
X155326775Y-76293664D01*
X155465931Y-76554006D01*
X155653203Y-76782197D01*
X155881395Y-76969469D01*
X156141737Y-77108625D01*
X156424224Y-77194316D01*
X156718000Y-77223251D01*
X157011777Y-77194316D01*
X157294264Y-77108625D01*
X157554606Y-76969469D01*
X157782797Y-76782197D01*
X157970069Y-76554006D01*
X157988000Y-76520459D01*
X158005931Y-76554006D01*
X158193203Y-76782197D01*
X158421395Y-76969469D01*
X158681737Y-77108625D01*
X158964224Y-77194316D01*
X159258000Y-77223251D01*
X159551777Y-77194316D01*
X159834264Y-77108625D01*
X160094606Y-76969469D01*
X160322797Y-76782197D01*
X160510069Y-76554006D01*
X160528000Y-76520459D01*
X160545931Y-76554006D01*
X160733203Y-76782197D01*
X160961395Y-76969469D01*
X161221737Y-77108625D01*
X161504224Y-77194316D01*
X161798000Y-77223251D01*
X162091777Y-77194316D01*
X162374264Y-77108625D01*
X162634606Y-76969469D01*
X162862797Y-76782197D01*
X163050069Y-76554006D01*
X163068000Y-76520459D01*
X163085931Y-76554006D01*
X163273203Y-76782197D01*
X163501395Y-76969469D01*
X163761737Y-77108625D01*
X164044224Y-77194316D01*
X164338000Y-77223251D01*
X164631777Y-77194316D01*
X164914264Y-77108625D01*
X165174606Y-76969469D01*
X165402797Y-76782197D01*
X165590069Y-76554006D01*
X165608000Y-76520459D01*
X165625931Y-76554006D01*
X165813203Y-76782197D01*
X166041395Y-76969469D01*
X166301737Y-77108625D01*
X166584224Y-77194316D01*
X166878000Y-77223251D01*
X167171777Y-77194316D01*
X167454264Y-77108625D01*
X167714606Y-76969469D01*
X167942797Y-76782197D01*
X168130069Y-76554006D01*
X168148000Y-76520459D01*
X168165931Y-76554006D01*
X168353203Y-76782197D01*
X168581395Y-76969469D01*
X168841737Y-77108625D01*
X169124224Y-77194316D01*
X169418000Y-77223251D01*
X169711777Y-77194316D01*
X169994264Y-77108625D01*
X170254606Y-76969469D01*
X170482797Y-76782197D01*
X170670069Y-76554006D01*
X170688000Y-76520459D01*
X170705931Y-76554006D01*
X170893203Y-76782197D01*
X171121395Y-76969469D01*
X171381737Y-77108625D01*
X171664224Y-77194316D01*
X171958000Y-77223251D01*
X172251777Y-77194316D01*
X172534264Y-77108625D01*
X172794606Y-76969469D01*
X173022797Y-76782197D01*
X173210069Y-76554006D01*
X173228000Y-76520459D01*
X173245931Y-76554006D01*
X173433203Y-76782197D01*
X173661395Y-76969469D01*
X173921737Y-77108625D01*
X174204224Y-77194316D01*
X174498000Y-77223251D01*
X174791777Y-77194316D01*
X175074264Y-77108625D01*
X175334606Y-76969469D01*
X175562797Y-76782197D01*
X175750069Y-76554006D01*
X175889225Y-76293663D01*
X175974916Y-76011176D01*
X175996600Y-75791018D01*
X175996600Y-75338981D01*
X175974916Y-75118823D01*
X175889225Y-74836336D01*
X175750069Y-74575994D01*
X175562797Y-74347803D01*
X175334605Y-74160531D01*
X175074263Y-74021375D01*
X174791776Y-73935684D01*
X174498000Y-73906749D01*
X174204223Y-73935684D01*
X173921736Y-74021375D01*
X173661394Y-74160531D01*
X173433203Y-74347803D01*
X173245931Y-74575995D01*
X173228000Y-74609541D01*
X173210069Y-74575994D01*
X173022797Y-74347803D01*
X172794605Y-74160531D01*
X172534263Y-74021375D01*
X172251776Y-73935684D01*
X171958000Y-73906749D01*
X171664223Y-73935684D01*
X171381736Y-74021375D01*
X171121394Y-74160531D01*
X170893203Y-74347803D01*
X170705931Y-74575995D01*
X170688000Y-74609541D01*
X170670069Y-74575994D01*
X170482797Y-74347803D01*
X170254605Y-74160531D01*
X169994263Y-74021375D01*
X169711776Y-73935684D01*
X169418000Y-73906749D01*
X169124223Y-73935684D01*
X168841736Y-74021375D01*
X168581394Y-74160531D01*
X168353203Y-74347803D01*
X168165931Y-74575995D01*
X168148000Y-74609541D01*
X168130069Y-74575994D01*
X167942797Y-74347803D01*
X167714605Y-74160531D01*
X167454263Y-74021375D01*
X167171776Y-73935684D01*
X166878000Y-73906749D01*
X166584223Y-73935684D01*
X166301736Y-74021375D01*
X166041394Y-74160531D01*
X165813203Y-74347803D01*
X165625931Y-74575995D01*
X165608000Y-74609541D01*
X165590069Y-74575994D01*
X165402797Y-74347803D01*
X165174605Y-74160531D01*
X164914263Y-74021375D01*
X164631776Y-73935684D01*
X164338000Y-73906749D01*
X164044223Y-73935684D01*
X163761736Y-74021375D01*
X163501394Y-74160531D01*
X163273203Y-74347803D01*
X163085931Y-74575995D01*
X163068000Y-74609541D01*
X163050069Y-74575994D01*
X162862797Y-74347803D01*
X162634605Y-74160531D01*
X162374263Y-74021375D01*
X162091776Y-73935684D01*
X161798000Y-73906749D01*
X161504223Y-73935684D01*
X161221736Y-74021375D01*
X160961394Y-74160531D01*
X160733203Y-74347803D01*
X160545931Y-74575995D01*
X160528000Y-74609541D01*
X160510069Y-74575994D01*
X160322797Y-74347803D01*
X160094605Y-74160531D01*
X159834263Y-74021375D01*
X159551776Y-73935684D01*
X159258000Y-73906749D01*
X158964223Y-73935684D01*
X158681736Y-74021375D01*
X158421394Y-74160531D01*
X158193203Y-74347803D01*
X158005931Y-74575995D01*
X157988000Y-74609541D01*
X157970069Y-74575994D01*
X157782797Y-74347803D01*
X157554605Y-74160531D01*
X157294263Y-74021375D01*
X157011776Y-73935684D01*
X156718000Y-73906749D01*
X156424223Y-73935684D01*
X156141736Y-74021375D01*
X155881394Y-74160531D01*
X155653203Y-74347803D01*
X155465931Y-74575995D01*
X155326775Y-74836337D01*
X155241084Y-75118824D01*
X155219400Y-75338982D01*
X154152600Y-75338982D01*
X154152600Y-75338981D01*
X154130916Y-75118823D01*
X154045225Y-74836336D01*
X153906069Y-74575994D01*
X153718797Y-74347803D01*
X153490605Y-74160531D01*
X153230263Y-74021375D01*
X152947776Y-73935684D01*
X152654000Y-73906749D01*
X152360223Y-73935684D01*
X152077736Y-74021375D01*
X151817394Y-74160531D01*
X151589203Y-74347803D01*
X151401931Y-74575995D01*
X151384000Y-74609541D01*
X151366069Y-74575994D01*
X151178797Y-74347803D01*
X150950605Y-74160531D01*
X150690263Y-74021375D01*
X150407776Y-73935684D01*
X150114000Y-73906749D01*
X149820223Y-73935684D01*
X149537736Y-74021375D01*
X149277394Y-74160531D01*
X149049203Y-74347803D01*
X148861931Y-74575995D01*
X148844000Y-74609541D01*
X148826069Y-74575994D01*
X148638797Y-74347803D01*
X148410605Y-74160531D01*
X148150263Y-74021375D01*
X147867776Y-73935684D01*
X147574000Y-73906749D01*
X147280223Y-73935684D01*
X146997736Y-74021375D01*
X146737394Y-74160531D01*
X146509203Y-74347803D01*
X146321931Y-74575995D01*
X146304000Y-74609541D01*
X146286069Y-74575994D01*
X146098797Y-74347803D01*
X145870605Y-74160531D01*
X145610263Y-74021375D01*
X145327776Y-73935684D01*
X145034000Y-73906749D01*
X144740223Y-73935684D01*
X144457736Y-74021375D01*
X144197394Y-74160531D01*
X143969203Y-74347803D01*
X143781931Y-74575995D01*
X143764000Y-74609541D01*
X143746069Y-74575994D01*
X143558797Y-74347803D01*
X143330605Y-74160531D01*
X143070263Y-74021375D01*
X142787776Y-73935684D01*
X142494000Y-73906749D01*
X142200223Y-73935684D01*
X141917736Y-74021375D01*
X141657394Y-74160531D01*
X141429203Y-74347803D01*
X141241931Y-74575995D01*
X141224000Y-74609541D01*
X141206069Y-74575994D01*
X141018797Y-74347803D01*
X140790605Y-74160531D01*
X140530263Y-74021375D01*
X140247776Y-73935684D01*
X139954000Y-73906749D01*
X139660223Y-73935684D01*
X139377736Y-74021375D01*
X139117394Y-74160531D01*
X138889203Y-74347803D01*
X138701931Y-74575995D01*
X138680576Y-74615947D01*
X138532486Y-74413271D01*
X138316035Y-74214267D01*
X138064919Y-74061314D01*
X137788789Y-73960291D01*
X137773026Y-73957642D01*
X137541000Y-74078783D01*
X137287000Y-74078783D01*
X137054974Y-73957642D01*
X137039211Y-73960291D01*
X136763081Y-74061314D01*
X136511965Y-74214267D01*
X136295514Y-74413271D01*
X136147424Y-74615947D01*
X136126069Y-74575994D01*
X135938797Y-74347803D01*
X135710605Y-74160531D01*
X135450263Y-74021375D01*
X135167776Y-73935684D01*
X134874000Y-73906749D01*
X134580223Y-73935684D01*
X134297736Y-74021375D01*
X134037394Y-74160531D01*
X133809203Y-74347803D01*
X133621931Y-74575995D01*
X133604000Y-74609541D01*
X133586069Y-74575994D01*
X133398797Y-74347803D01*
X133170605Y-74160531D01*
X132910263Y-74021375D01*
X132627776Y-73935684D01*
X132334000Y-73906749D01*
X132040223Y-73935684D01*
X131757736Y-74021375D01*
X131497394Y-74160531D01*
X131269203Y-74347803D01*
X131081931Y-74575995D01*
X131064000Y-74609541D01*
X131046069Y-74575994D01*
X130858797Y-74347803D01*
X130630605Y-74160531D01*
X130370263Y-74021375D01*
X130087776Y-73935684D01*
X129794000Y-73906749D01*
X129500223Y-73935684D01*
X129217736Y-74021375D01*
X128957394Y-74160531D01*
X128729203Y-74347803D01*
X128657001Y-74435781D01*
X128601464Y-74301702D01*
X128309594Y-73864887D01*
X128179707Y-73735000D01*
X175219909Y-73735000D01*
X176328001Y-74843093D01*
G04 #@! TA.AperFunction,Conductor*
D22*
G36*
X176328001Y-74843093D02*
G01*
X176328000Y-85944125D01*
X176324565Y-85979000D01*
X176328000Y-86013875D01*
X176328000Y-86013876D01*
X176338273Y-86118183D01*
X176378872Y-86252019D01*
X176444800Y-86375362D01*
X176533525Y-86483474D01*
X176560617Y-86505708D01*
X178292908Y-88238000D01*
X177803407Y-88238000D01*
X177300677Y-88138000D01*
X176775323Y-88138000D01*
X176272593Y-88238000D01*
X168598762Y-88238000D01*
X169747423Y-87089339D01*
X169818273Y-87136680D01*
X170079426Y-87244853D01*
X170356665Y-87300000D01*
X170639335Y-87300000D01*
X170916574Y-87244853D01*
X171177727Y-87136680D01*
X171412759Y-86979637D01*
X171534694Y-86857702D01*
X172184903Y-86857702D01*
X172256486Y-87101671D01*
X172511996Y-87222571D01*
X172786184Y-87291300D01*
X173068512Y-87305217D01*
X173348130Y-87263787D01*
X173614292Y-87168603D01*
X173739514Y-87101671D01*
X173811097Y-86857702D01*
X172998000Y-86044605D01*
X172184903Y-86857702D01*
X171534694Y-86857702D01*
X171612637Y-86779759D01*
X171746692Y-86579131D01*
X171761329Y-86606514D01*
X172005298Y-86678097D01*
X172818395Y-85865000D01*
X173177605Y-85865000D01*
X173990702Y-86678097D01*
X174234671Y-86606514D01*
X174355571Y-86351004D01*
X174424300Y-86076816D01*
X174438217Y-85794488D01*
X174396787Y-85514870D01*
X174301603Y-85248708D01*
X174234671Y-85123486D01*
X173990702Y-85051903D01*
X173177605Y-85865000D01*
X172818395Y-85865000D01*
X172005298Y-85051903D01*
X171761329Y-85123486D01*
X171747676Y-85152341D01*
X171612637Y-84950241D01*
X171534694Y-84872298D01*
X172184903Y-84872298D01*
X172998000Y-85685395D01*
X173811097Y-84872298D01*
X173739514Y-84628329D01*
X173484004Y-84507429D01*
X173209816Y-84438700D01*
X172927488Y-84424783D01*
X172647870Y-84466213D01*
X172381708Y-84561397D01*
X172256486Y-84628329D01*
X172184903Y-84872298D01*
X171534694Y-84872298D01*
X171412759Y-84750363D01*
X171177727Y-84593320D01*
X170916574Y-84485147D01*
X170639335Y-84430000D01*
X170356665Y-84430000D01*
X170079426Y-84485147D01*
X169818273Y-84593320D01*
X169613716Y-84730000D01*
X169422371Y-84730000D01*
X169366629Y-84724510D01*
X169310887Y-84730000D01*
X169310878Y-84730000D01*
X169144131Y-84746423D01*
X168930183Y-84811324D01*
X168733007Y-84916716D01*
X168560181Y-85058551D01*
X168524639Y-85101859D01*
X167766072Y-85860426D01*
X167766072Y-85015000D01*
X167753812Y-84890518D01*
X167717502Y-84770820D01*
X167658537Y-84660506D01*
X167579185Y-84563815D01*
X167482494Y-84484463D01*
X167372180Y-84425498D01*
X167252482Y-84389188D01*
X167128000Y-84376928D01*
X165428000Y-84376928D01*
X165303518Y-84389188D01*
X165183820Y-84425498D01*
X165073506Y-84484463D01*
X164976815Y-84563815D01*
X164897463Y-84660506D01*
X164838498Y-84770820D01*
X164816487Y-84843380D01*
X164684632Y-84711525D01*
X164441411Y-84549010D01*
X164171158Y-84437068D01*
X163884260Y-84380000D01*
X163591740Y-84380000D01*
X163304842Y-84437068D01*
X163034589Y-84549010D01*
X162791368Y-84711525D01*
X162584525Y-84918368D01*
X162468000Y-85092760D01*
X162351475Y-84918368D01*
X162144632Y-84711525D01*
X161901411Y-84549010D01*
X161631158Y-84437068D01*
X161344260Y-84380000D01*
X161051740Y-84380000D01*
X160764842Y-84437068D01*
X160494589Y-84549010D01*
X160251368Y-84711525D01*
X160044525Y-84918368D01*
X159928000Y-85092760D01*
X159811475Y-84918368D01*
X159604632Y-84711525D01*
X159361411Y-84549010D01*
X159091158Y-84437068D01*
X158804260Y-84380000D01*
X158511740Y-84380000D01*
X158224842Y-84437068D01*
X157954589Y-84549010D01*
X157711368Y-84711525D01*
X157504525Y-84918368D01*
X157388000Y-85092760D01*
X157271475Y-84918368D01*
X157064632Y-84711525D01*
X156821411Y-84549010D01*
X156551158Y-84437068D01*
X156264260Y-84380000D01*
X155971740Y-84380000D01*
X155684842Y-84437068D01*
X155414589Y-84549010D01*
X155171368Y-84711525D01*
X154964525Y-84918368D01*
X154848000Y-85092760D01*
X154731475Y-84918368D01*
X154524632Y-84711525D01*
X154281411Y-84549010D01*
X154011158Y-84437068D01*
X153724260Y-84380000D01*
X153431740Y-84380000D01*
X153144842Y-84437068D01*
X152874589Y-84549010D01*
X152631368Y-84711525D01*
X152424525Y-84918368D01*
X152308000Y-85092760D01*
X152191475Y-84918368D01*
X151984632Y-84711525D01*
X151741411Y-84549010D01*
X151471158Y-84437068D01*
X151184260Y-84380000D01*
X150891740Y-84380000D01*
X150604842Y-84437068D01*
X150334589Y-84549010D01*
X150091368Y-84711525D01*
X149884525Y-84918368D01*
X149768000Y-85092760D01*
X149651475Y-84918368D01*
X149444632Y-84711525D01*
X149201411Y-84549010D01*
X148931158Y-84437068D01*
X148644260Y-84380000D01*
X148351740Y-84380000D01*
X148064842Y-84437068D01*
X147794589Y-84549010D01*
X147551368Y-84711525D01*
X147344525Y-84918368D01*
X147228000Y-85092760D01*
X147111475Y-84918368D01*
X146904632Y-84711525D01*
X146661411Y-84549010D01*
X146391158Y-84437068D01*
X146104260Y-84380000D01*
X145811740Y-84380000D01*
X145524842Y-84437068D01*
X145254589Y-84549010D01*
X145011368Y-84711525D01*
X144804525Y-84918368D01*
X144688000Y-85092760D01*
X144571475Y-84918368D01*
X144364632Y-84711525D01*
X144121411Y-84549010D01*
X143851158Y-84437068D01*
X143564260Y-84380000D01*
X143271740Y-84380000D01*
X142984842Y-84437068D01*
X142761972Y-84529383D01*
X143916356Y-83375000D01*
X169547608Y-83375000D01*
X169695994Y-83360385D01*
X169886380Y-83302632D01*
X170061840Y-83208847D01*
X170215633Y-83082633D01*
X170341847Y-82928840D01*
X170435632Y-82753380D01*
X170493385Y-82562994D01*
X170512886Y-82365000D01*
X170493385Y-82167006D01*
X170435632Y-81976620D01*
X170341847Y-81801160D01*
X170215633Y-81647367D01*
X170061840Y-81521153D01*
X169886380Y-81427368D01*
X169695994Y-81369615D01*
X169547608Y-81355000D01*
X143547608Y-81355000D01*
X143498000Y-81350114D01*
X143300005Y-81369615D01*
X143165678Y-81410363D01*
X143109620Y-81427368D01*
X142934160Y-81521153D01*
X142780367Y-81647367D01*
X142748744Y-81685900D01*
X140248744Y-84185901D01*
X140154154Y-84301160D01*
X140060368Y-84476621D01*
X140002615Y-84667006D01*
X139983114Y-84865000D01*
X140002615Y-85062994D01*
X140060368Y-85253379D01*
X140154154Y-85428840D01*
X140280368Y-85582632D01*
X140434160Y-85708846D01*
X140609621Y-85802632D01*
X140800006Y-85860385D01*
X140998000Y-85879886D01*
X141195994Y-85860385D01*
X141386379Y-85802632D01*
X141561840Y-85708846D01*
X141677099Y-85614256D01*
X142082384Y-85208972D01*
X141990068Y-85431842D01*
X141933000Y-85718740D01*
X141933000Y-86011260D01*
X141990068Y-86298158D01*
X142102010Y-86568411D01*
X142264525Y-86811632D01*
X142471368Y-87018475D01*
X142714589Y-87180990D01*
X142984842Y-87292932D01*
X143271740Y-87350000D01*
X143564260Y-87350000D01*
X143851158Y-87292932D01*
X144121411Y-87180990D01*
X144364632Y-87018475D01*
X144571475Y-86811632D01*
X144688000Y-86637240D01*
X144804525Y-86811632D01*
X145011368Y-87018475D01*
X145254589Y-87180990D01*
X145524842Y-87292932D01*
X145811740Y-87350000D01*
X146104260Y-87350000D01*
X146391158Y-87292932D01*
X146661411Y-87180990D01*
X146904632Y-87018475D01*
X147111475Y-86811632D01*
X147228000Y-86637240D01*
X147344525Y-86811632D01*
X147551368Y-87018475D01*
X147794589Y-87180990D01*
X148064842Y-87292932D01*
X148351740Y-87350000D01*
X148644260Y-87350000D01*
X148931158Y-87292932D01*
X149201411Y-87180990D01*
X149444632Y-87018475D01*
X149651475Y-86811632D01*
X149768000Y-86637240D01*
X149884525Y-86811632D01*
X150091368Y-87018475D01*
X150334589Y-87180990D01*
X150604842Y-87292932D01*
X150891740Y-87350000D01*
X151184260Y-87350000D01*
X151471158Y-87292932D01*
X151741411Y-87180990D01*
X151984632Y-87018475D01*
X152191475Y-86811632D01*
X152308000Y-86637240D01*
X152424525Y-86811632D01*
X152631368Y-87018475D01*
X152874589Y-87180990D01*
X153144842Y-87292932D01*
X153431740Y-87350000D01*
X153724260Y-87350000D01*
X154011158Y-87292932D01*
X154281411Y-87180990D01*
X154524632Y-87018475D01*
X154731475Y-86811632D01*
X154848000Y-86637240D01*
X154964525Y-86811632D01*
X155171368Y-87018475D01*
X155414589Y-87180990D01*
X155684842Y-87292932D01*
X155971740Y-87350000D01*
X156264260Y-87350000D01*
X156551158Y-87292932D01*
X156821411Y-87180990D01*
X157064632Y-87018475D01*
X157271475Y-86811632D01*
X157388000Y-86637240D01*
X157504525Y-86811632D01*
X157711368Y-87018475D01*
X157954589Y-87180990D01*
X158224842Y-87292932D01*
X158511740Y-87350000D01*
X158804260Y-87350000D01*
X159091158Y-87292932D01*
X159361411Y-87180990D01*
X159604632Y-87018475D01*
X159811475Y-86811632D01*
X159928000Y-86637240D01*
X160044525Y-86811632D01*
X160251368Y-87018475D01*
X160494589Y-87180990D01*
X160764842Y-87292932D01*
X161051740Y-87350000D01*
X161344260Y-87350000D01*
X161631158Y-87292932D01*
X161901411Y-87180990D01*
X162144632Y-87018475D01*
X162351475Y-86811632D01*
X162468000Y-86637240D01*
X162584525Y-86811632D01*
X162791368Y-87018475D01*
X163034589Y-87180990D01*
X163304842Y-87292932D01*
X163591740Y-87350000D01*
X163884260Y-87350000D01*
X164171158Y-87292932D01*
X164441411Y-87180990D01*
X164684632Y-87018475D01*
X164816487Y-86886620D01*
X164838498Y-86959180D01*
X164897463Y-87069494D01*
X164976815Y-87166185D01*
X165073506Y-87245537D01*
X165183820Y-87304502D01*
X165303518Y-87340812D01*
X165428000Y-87353072D01*
X166273427Y-87353072D01*
X165084865Y-88541634D01*
X165041551Y-88577181D01*
X164899716Y-88750007D01*
X164794325Y-88947183D01*
X164794324Y-88947184D01*
X164729423Y-89161132D01*
X164722641Y-89229990D01*
X152773031Y-89229990D01*
X152723426Y-89225104D01*
X152673821Y-89229990D01*
X152673819Y-89229990D01*
X152525433Y-89244605D01*
X152335047Y-89302358D01*
X152159587Y-89396143D01*
X152005794Y-89522357D01*
X151974166Y-89560896D01*
X151198906Y-90336156D01*
X151160367Y-90367784D01*
X151034153Y-90521577D01*
X150977071Y-90628371D01*
X150940368Y-90697038D01*
X150926002Y-90744395D01*
X150870742Y-90847780D01*
X150808700Y-91052303D01*
X150793000Y-91211706D01*
X150793000Y-92418293D01*
X150808700Y-92577696D01*
X150870741Y-92782219D01*
X150971491Y-92970710D01*
X151107078Y-93135922D01*
X151272290Y-93271509D01*
X151460780Y-93372259D01*
X151665303Y-93434300D01*
X151878000Y-93455249D01*
X152090696Y-93434300D01*
X152295219Y-93372259D01*
X152483710Y-93271509D01*
X152513000Y-93247471D01*
X152542290Y-93271509D01*
X152730780Y-93372259D01*
X152935303Y-93434300D01*
X153148000Y-93455249D01*
X153360696Y-93434300D01*
X153565219Y-93372259D01*
X153753710Y-93271509D01*
X153783000Y-93247471D01*
X153812290Y-93271509D01*
X154000780Y-93372259D01*
X154205303Y-93434300D01*
X154418000Y-93455249D01*
X154630696Y-93434300D01*
X154643947Y-93430280D01*
X140383449Y-107690779D01*
X140177727Y-107553320D01*
X139916574Y-107445147D01*
X139639335Y-107390000D01*
X139356665Y-107390000D01*
X139079426Y-107445147D01*
X138818273Y-107553320D01*
X138583241Y-107710363D01*
X138383363Y-107910241D01*
X138226320Y-108145273D01*
X138118147Y-108406426D01*
X138063000Y-108683665D01*
X138063000Y-108966335D01*
X138118147Y-109243574D01*
X138226320Y-109504727D01*
X138383363Y-109739759D01*
X138583241Y-109939637D01*
X138815759Y-110095000D01*
X138583241Y-110250363D01*
X138383363Y-110450241D01*
X138234454Y-110673099D01*
X136433000Y-108871645D01*
X136433000Y-108723665D01*
X136377853Y-108446426D01*
X136269680Y-108185273D01*
X136112637Y-107950241D01*
X135912759Y-107750363D01*
X135677727Y-107593320D01*
X135416574Y-107485147D01*
X135139335Y-107430000D01*
X134856665Y-107430000D01*
X134579426Y-107485147D01*
X134318273Y-107593320D01*
X134083241Y-107750363D01*
X133883363Y-107950241D01*
X133726320Y-108185273D01*
X133618147Y-108446426D01*
X133563000Y-108723665D01*
X133563000Y-109006335D01*
X133618147Y-109283574D01*
X133726320Y-109544727D01*
X133883363Y-109779759D01*
X134083241Y-109979637D01*
X134315759Y-110135000D01*
X134083241Y-110290363D01*
X133883363Y-110490241D01*
X133726320Y-110725273D01*
X133722016Y-110735663D01*
X131933000Y-108946647D01*
X131933000Y-108683665D01*
X131877853Y-108406426D01*
X131769680Y-108145273D01*
X131612637Y-107910241D01*
X131412759Y-107710363D01*
X131177727Y-107553320D01*
X130916574Y-107445147D01*
X130639335Y-107390000D01*
X130356665Y-107390000D01*
X130079426Y-107445147D01*
X129818273Y-107553320D01*
X129583241Y-107710363D01*
X129383363Y-107910241D01*
X129226320Y-108145273D01*
X129118147Y-108406426D01*
X129063000Y-108683665D01*
X129063000Y-108966335D01*
X129118147Y-109243574D01*
X129226320Y-109504727D01*
X129383363Y-109739759D01*
X129583241Y-109939637D01*
X129815759Y-110095000D01*
X129583241Y-110250363D01*
X129383363Y-110450241D01*
X129226320Y-110685273D01*
X129222016Y-110695663D01*
X127433000Y-108906647D01*
X127433000Y-108683665D01*
X127377853Y-108406426D01*
X127269680Y-108145273D01*
X127112637Y-107910241D01*
X126912759Y-107710363D01*
X126677727Y-107553320D01*
X126416574Y-107445147D01*
X126139335Y-107390000D01*
X125856665Y-107390000D01*
X125632999Y-107434491D01*
X125632999Y-96295509D01*
X125856665Y-96340000D01*
X126139335Y-96340000D01*
X126416574Y-96284853D01*
X126677727Y-96176680D01*
X126912759Y-96019637D01*
X127112637Y-95819759D01*
X127269680Y-95584727D01*
X127377853Y-95323574D01*
X127433000Y-95046335D01*
X127433000Y-94763665D01*
X127377853Y-94486426D01*
X127269680Y-94225273D01*
X127112637Y-93990241D01*
X126912759Y-93790363D01*
X126680241Y-93635000D01*
X126882284Y-93500000D01*
X129613716Y-93500000D01*
X129815759Y-93635000D01*
X129583241Y-93790363D01*
X129383363Y-93990241D01*
X129226320Y-94225273D01*
X129118147Y-94486426D01*
X129063000Y-94763665D01*
X129063000Y-95046335D01*
X129118147Y-95323574D01*
X129226320Y-95584727D01*
X129383363Y-95819759D01*
X129583241Y-96019637D01*
X129818273Y-96176680D01*
X130079426Y-96284853D01*
X130356665Y-96340000D01*
X130639335Y-96340000D01*
X130916574Y-96284853D01*
X131177727Y-96176680D01*
X131412759Y-96019637D01*
X131612637Y-95819759D01*
X131769680Y-95584727D01*
X131877853Y-95323574D01*
X131933000Y-95046335D01*
X131933000Y-94763665D01*
X131877853Y-94486426D01*
X131769680Y-94225273D01*
X131612637Y-93990241D01*
X131412759Y-93790363D01*
X131180241Y-93635000D01*
X131382284Y-93500000D01*
X134113716Y-93500000D01*
X134315759Y-93635000D01*
X134083241Y-93790363D01*
X133883363Y-93990241D01*
X133726320Y-94225273D01*
X133618147Y-94486426D01*
X133563000Y-94763665D01*
X133563000Y-95046335D01*
X133618147Y-95323574D01*
X133726320Y-95584727D01*
X133883363Y-95819759D01*
X134083241Y-96019637D01*
X134318273Y-96176680D01*
X134579426Y-96284853D01*
X134856665Y-96340000D01*
X135139335Y-96340000D01*
X135416574Y-96284853D01*
X135677727Y-96176680D01*
X135912759Y-96019637D01*
X136112637Y-95819759D01*
X136269680Y-95584727D01*
X136377853Y-95323574D01*
X136433000Y-95046335D01*
X136433000Y-94763665D01*
X136377853Y-94486426D01*
X136269680Y-94225273D01*
X136112637Y-93990241D01*
X135912759Y-93790363D01*
X135680241Y-93635000D01*
X135882284Y-93500000D01*
X138613716Y-93500000D01*
X138815759Y-93635000D01*
X138583241Y-93790363D01*
X138383363Y-93990241D01*
X138226320Y-94225273D01*
X138118147Y-94486426D01*
X138063000Y-94763665D01*
X138063000Y-95046335D01*
X138118147Y-95323574D01*
X138226320Y-95584727D01*
X138383363Y-95819759D01*
X138583241Y-96019637D01*
X138818273Y-96176680D01*
X139079426Y-96284853D01*
X139356665Y-96340000D01*
X139639335Y-96340000D01*
X139916574Y-96284853D01*
X140177727Y-96176680D01*
X140412759Y-96019637D01*
X140612637Y-95819759D01*
X140769680Y-95584727D01*
X140877853Y-95323574D01*
X140933000Y-95046335D01*
X140933000Y-94763665D01*
X140877853Y-94486426D01*
X140769680Y-94225273D01*
X140612637Y-93990241D01*
X140412759Y-93790363D01*
X140180241Y-93635000D01*
X140412759Y-93479637D01*
X140612637Y-93279759D01*
X140769680Y-93044727D01*
X140877853Y-92783574D01*
X140933000Y-92506335D01*
X140933000Y-92223665D01*
X140877853Y-91946426D01*
X140769680Y-91685273D01*
X140612637Y-91450241D01*
X140412759Y-91250363D01*
X140177727Y-91093320D01*
X139916574Y-90985147D01*
X139639335Y-90930000D01*
X139356665Y-90930000D01*
X139079426Y-90985147D01*
X138818273Y-91093320D01*
X138613716Y-91230000D01*
X135882284Y-91230000D01*
X135677727Y-91093320D01*
X135416574Y-90985147D01*
X135139335Y-90930000D01*
X134856665Y-90930000D01*
X134579426Y-90985147D01*
X134318273Y-91093320D01*
X134113716Y-91230000D01*
X131382284Y-91230000D01*
X131177727Y-91093320D01*
X130916574Y-90985147D01*
X130639335Y-90930000D01*
X130356665Y-90930000D01*
X130079426Y-90985147D01*
X129818273Y-91093320D01*
X129613716Y-91230000D01*
X126882284Y-91230000D01*
X126677727Y-91093320D01*
X126416574Y-90985147D01*
X126139335Y-90930000D01*
X125856665Y-90930000D01*
X125579426Y-90985147D01*
X125318273Y-91093320D01*
X125083241Y-91250363D01*
X124883363Y-91450241D01*
X124726320Y-91685273D01*
X124618147Y-91946426D01*
X124570150Y-92187718D01*
X123734859Y-93023010D01*
X123691551Y-93058552D01*
X123549716Y-93231378D01*
X123533233Y-93262216D01*
X123444323Y-93428555D01*
X123379422Y-93642503D01*
X123357508Y-93865001D01*
X123363000Y-93920763D01*
X123362999Y-113478421D01*
X122383000Y-112498422D01*
X122383000Y-86767578D01*
X126716913Y-82433665D01*
X129263000Y-82433665D01*
X129263000Y-82716335D01*
X129318147Y-82993574D01*
X129426320Y-83254727D01*
X129583363Y-83489759D01*
X129783241Y-83689637D01*
X130015759Y-83845000D01*
X129783241Y-84000363D01*
X129583363Y-84200241D01*
X129426320Y-84435273D01*
X129318147Y-84696426D01*
X129263000Y-84973665D01*
X129263000Y-85256335D01*
X129318147Y-85533574D01*
X129426320Y-85794727D01*
X129583363Y-86029759D01*
X129783241Y-86229637D01*
X130018273Y-86386680D01*
X130279426Y-86494853D01*
X130556665Y-86550000D01*
X130839335Y-86550000D01*
X131116574Y-86494853D01*
X131377727Y-86386680D01*
X131612759Y-86229637D01*
X131812637Y-86029759D01*
X131969680Y-85794727D01*
X132077853Y-85533574D01*
X132133000Y-85256335D01*
X132133000Y-84973665D01*
X132077853Y-84696426D01*
X131969680Y-84435273D01*
X131812637Y-84200241D01*
X131612759Y-84000363D01*
X131380241Y-83845000D01*
X131612759Y-83689637D01*
X131812637Y-83489759D01*
X131969680Y-83254727D01*
X132077853Y-82993574D01*
X132133000Y-82716335D01*
X132133000Y-82433665D01*
X132123055Y-82383665D01*
X134063000Y-82383665D01*
X134063000Y-82666335D01*
X134118147Y-82943574D01*
X134226320Y-83204727D01*
X134383363Y-83439759D01*
X134583241Y-83639637D01*
X134815759Y-83795000D01*
X134583241Y-83950363D01*
X134383363Y-84150241D01*
X134226320Y-84385273D01*
X134118147Y-84646426D01*
X134063000Y-84923665D01*
X134063000Y-85206335D01*
X134118147Y-85483574D01*
X134226320Y-85744727D01*
X134383363Y-85979759D01*
X134583241Y-86179637D01*
X134818273Y-86336680D01*
X135079426Y-86444853D01*
X135356665Y-86500000D01*
X135639335Y-86500000D01*
X135916574Y-86444853D01*
X136177727Y-86336680D01*
X136412759Y-86179637D01*
X136612637Y-85979759D01*
X136769680Y-85744727D01*
X136877853Y-85483574D01*
X136933000Y-85206335D01*
X136933000Y-84923665D01*
X136877853Y-84646426D01*
X136769680Y-84385273D01*
X136612637Y-84150241D01*
X136412759Y-83950363D01*
X136180241Y-83795000D01*
X136412759Y-83639637D01*
X136612637Y-83439759D01*
X136769680Y-83204727D01*
X136877853Y-82943574D01*
X136933000Y-82666335D01*
X136933000Y-82383665D01*
X136877853Y-82106426D01*
X136769680Y-81845273D01*
X136612637Y-81610241D01*
X136412759Y-81410363D01*
X136177727Y-81253320D01*
X135916574Y-81145147D01*
X135639335Y-81090000D01*
X135356665Y-81090000D01*
X135079426Y-81145147D01*
X134818273Y-81253320D01*
X134583241Y-81410363D01*
X134383363Y-81610241D01*
X134226320Y-81845273D01*
X134118147Y-82106426D01*
X134063000Y-82383665D01*
X132123055Y-82383665D01*
X132077853Y-82156426D01*
X131969680Y-81895273D01*
X131812637Y-81660241D01*
X131612759Y-81460363D01*
X131377727Y-81303320D01*
X131116574Y-81195147D01*
X130839335Y-81140000D01*
X130556665Y-81140000D01*
X130279426Y-81195147D01*
X130018273Y-81303320D01*
X129783241Y-81460363D01*
X129583363Y-81660241D01*
X129426320Y-81895273D01*
X129318147Y-82156426D01*
X129263000Y-82433665D01*
X126716913Y-82433665D01*
X131975804Y-77174775D01*
X132040224Y-77194316D01*
X132334000Y-77223251D01*
X132627777Y-77194316D01*
X132910264Y-77108625D01*
X133170606Y-76969469D01*
X133398797Y-76782197D01*
X133586069Y-76554006D01*
X133604000Y-76520459D01*
X133621931Y-76554006D01*
X133809203Y-76782197D01*
X134037395Y-76969469D01*
X134297737Y-77108625D01*
X134580224Y-77194316D01*
X134874000Y-77223251D01*
X135167777Y-77194316D01*
X135450264Y-77108625D01*
X135710606Y-76969469D01*
X135938797Y-76782197D01*
X136126069Y-76554006D01*
X136147424Y-76514053D01*
X136295514Y-76716729D01*
X136511965Y-76915733D01*
X136763081Y-77068686D01*
X137039211Y-77169709D01*
X137054974Y-77172358D01*
X137287000Y-77051217D01*
X137287000Y-75692000D01*
X137267000Y-75692000D01*
X137267000Y-75438000D01*
X137287000Y-75438000D01*
X137287000Y-74078783D01*
X137541000Y-74078783D01*
X137541000Y-75438000D01*
X137561000Y-75438000D01*
X137561000Y-75692000D01*
X137541000Y-75692000D01*
X137541000Y-77051217D01*
X137773026Y-77172358D01*
X137788789Y-77169709D01*
X138064919Y-77068686D01*
X138316035Y-76915733D01*
X138532486Y-76716729D01*
X138680576Y-76514053D01*
X138701931Y-76554006D01*
X138889203Y-76782197D01*
X139117395Y-76969469D01*
X139377737Y-77108625D01*
X139660224Y-77194316D01*
X139954000Y-77223251D01*
X140247777Y-77194316D01*
X140530264Y-77108625D01*
X140790606Y-76969469D01*
X141018797Y-76782197D01*
X141206069Y-76554006D01*
X141224000Y-76520459D01*
X141241931Y-76554006D01*
X141429203Y-76782197D01*
X141657395Y-76969469D01*
X141917737Y-77108625D01*
X142200224Y-77194316D01*
X142494000Y-77223251D01*
X142787777Y-77194316D01*
X143070264Y-77108625D01*
X143330606Y-76969469D01*
X143558797Y-76782197D01*
X143746069Y-76554006D01*
X143764000Y-76520459D01*
X143781931Y-76554006D01*
X143969203Y-76782197D01*
X144197395Y-76969469D01*
X144457737Y-77108625D01*
X144740224Y-77194316D01*
X145034000Y-77223251D01*
X145327777Y-77194316D01*
X145610264Y-77108625D01*
X145870606Y-76969469D01*
X146098797Y-76782197D01*
X146286069Y-76554006D01*
X146304000Y-76520459D01*
X146321931Y-76554006D01*
X146509203Y-76782197D01*
X146737395Y-76969469D01*
X146997737Y-77108625D01*
X147280224Y-77194316D01*
X147574000Y-77223251D01*
X147867777Y-77194316D01*
X148150264Y-77108625D01*
X148410606Y-76969469D01*
X148638797Y-76782197D01*
X148826069Y-76554006D01*
X148844000Y-76520459D01*
X148861931Y-76554006D01*
X149049203Y-76782197D01*
X149277395Y-76969469D01*
X149537737Y-77108625D01*
X149820224Y-77194316D01*
X150114000Y-77223251D01*
X150407777Y-77194316D01*
X150690264Y-77108625D01*
X150950606Y-76969469D01*
X151178797Y-76782197D01*
X151366069Y-76554006D01*
X151384000Y-76520459D01*
X151401931Y-76554006D01*
X151589203Y-76782197D01*
X151817395Y-76969469D01*
X152077737Y-77108625D01*
X152360224Y-77194316D01*
X152654000Y-77223251D01*
X152947777Y-77194316D01*
X153230264Y-77108625D01*
X153490606Y-76969469D01*
X153718797Y-76782197D01*
X153906069Y-76554006D01*
X154045225Y-76293663D01*
X154130916Y-76011176D01*
X154152600Y-75791018D01*
X154152600Y-75338982D01*
X155219400Y-75338982D01*
X155219400Y-75791019D01*
X155241084Y-76011177D01*
X155326775Y-76293664D01*
X155465931Y-76554006D01*
X155653203Y-76782197D01*
X155881395Y-76969469D01*
X156141737Y-77108625D01*
X156424224Y-77194316D01*
X156718000Y-77223251D01*
X157011777Y-77194316D01*
X157294264Y-77108625D01*
X157554606Y-76969469D01*
X157782797Y-76782197D01*
X157970069Y-76554006D01*
X157988000Y-76520459D01*
X158005931Y-76554006D01*
X158193203Y-76782197D01*
X158421395Y-76969469D01*
X158681737Y-77108625D01*
X158964224Y-77194316D01*
X159258000Y-77223251D01*
X159551777Y-77194316D01*
X159834264Y-77108625D01*
X160094606Y-76969469D01*
X160322797Y-76782197D01*
X160510069Y-76554006D01*
X160528000Y-76520459D01*
X160545931Y-76554006D01*
X160733203Y-76782197D01*
X160961395Y-76969469D01*
X161221737Y-77108625D01*
X161504224Y-77194316D01*
X161798000Y-77223251D01*
X162091777Y-77194316D01*
X162374264Y-77108625D01*
X162634606Y-76969469D01*
X162862797Y-76782197D01*
X163050069Y-76554006D01*
X163068000Y-76520459D01*
X163085931Y-76554006D01*
X163273203Y-76782197D01*
X163501395Y-76969469D01*
X163761737Y-77108625D01*
X164044224Y-77194316D01*
X164338000Y-77223251D01*
X164631777Y-77194316D01*
X164914264Y-77108625D01*
X165174606Y-76969469D01*
X165402797Y-76782197D01*
X165590069Y-76554006D01*
X165608000Y-76520459D01*
X165625931Y-76554006D01*
X165813203Y-76782197D01*
X166041395Y-76969469D01*
X166301737Y-77108625D01*
X166584224Y-77194316D01*
X166878000Y-77223251D01*
X167171777Y-77194316D01*
X167454264Y-77108625D01*
X167714606Y-76969469D01*
X167942797Y-76782197D01*
X168130069Y-76554006D01*
X168148000Y-76520459D01*
X168165931Y-76554006D01*
X168353203Y-76782197D01*
X168581395Y-76969469D01*
X168841737Y-77108625D01*
X169124224Y-77194316D01*
X169418000Y-77223251D01*
X169711777Y-77194316D01*
X169994264Y-77108625D01*
X170254606Y-76969469D01*
X170482797Y-76782197D01*
X170670069Y-76554006D01*
X170688000Y-76520459D01*
X170705931Y-76554006D01*
X170893203Y-76782197D01*
X171121395Y-76969469D01*
X171381737Y-77108625D01*
X171664224Y-77194316D01*
X171958000Y-77223251D01*
X172251777Y-77194316D01*
X172534264Y-77108625D01*
X172794606Y-76969469D01*
X173022797Y-76782197D01*
X173210069Y-76554006D01*
X173228000Y-76520459D01*
X173245931Y-76554006D01*
X173433203Y-76782197D01*
X173661395Y-76969469D01*
X173921737Y-77108625D01*
X174204224Y-77194316D01*
X174498000Y-77223251D01*
X174791777Y-77194316D01*
X175074264Y-77108625D01*
X175334606Y-76969469D01*
X175562797Y-76782197D01*
X175750069Y-76554006D01*
X175889225Y-76293663D01*
X175974916Y-76011176D01*
X175996600Y-75791018D01*
X175996600Y-75338981D01*
X175974916Y-75118823D01*
X175889225Y-74836336D01*
X175750069Y-74575994D01*
X175562797Y-74347803D01*
X175334605Y-74160531D01*
X175074263Y-74021375D01*
X174791776Y-73935684D01*
X174498000Y-73906749D01*
X174204223Y-73935684D01*
X173921736Y-74021375D01*
X173661394Y-74160531D01*
X173433203Y-74347803D01*
X173245931Y-74575995D01*
X173228000Y-74609541D01*
X173210069Y-74575994D01*
X173022797Y-74347803D01*
X172794605Y-74160531D01*
X172534263Y-74021375D01*
X172251776Y-73935684D01*
X171958000Y-73906749D01*
X171664223Y-73935684D01*
X171381736Y-74021375D01*
X171121394Y-74160531D01*
X170893203Y-74347803D01*
X170705931Y-74575995D01*
X170688000Y-74609541D01*
X170670069Y-74575994D01*
X170482797Y-74347803D01*
X170254605Y-74160531D01*
X169994263Y-74021375D01*
X169711776Y-73935684D01*
X169418000Y-73906749D01*
X169124223Y-73935684D01*
X168841736Y-74021375D01*
X168581394Y-74160531D01*
X168353203Y-74347803D01*
X168165931Y-74575995D01*
X168148000Y-74609541D01*
X168130069Y-74575994D01*
X167942797Y-74347803D01*
X167714605Y-74160531D01*
X167454263Y-74021375D01*
X167171776Y-73935684D01*
X166878000Y-73906749D01*
X166584223Y-73935684D01*
X166301736Y-74021375D01*
X166041394Y-74160531D01*
X165813203Y-74347803D01*
X165625931Y-74575995D01*
X165608000Y-74609541D01*
X165590069Y-74575994D01*
X165402797Y-74347803D01*
X165174605Y-74160531D01*
X164914263Y-74021375D01*
X164631776Y-73935684D01*
X164338000Y-73906749D01*
X164044223Y-73935684D01*
X163761736Y-74021375D01*
X163501394Y-74160531D01*
X163273203Y-74347803D01*
X163085931Y-74575995D01*
X163068000Y-74609541D01*
X163050069Y-74575994D01*
X162862797Y-74347803D01*
X162634605Y-74160531D01*
X162374263Y-74021375D01*
X162091776Y-73935684D01*
X161798000Y-73906749D01*
X161504223Y-73935684D01*
X161221736Y-74021375D01*
X160961394Y-74160531D01*
X160733203Y-74347803D01*
X160545931Y-74575995D01*
X160528000Y-74609541D01*
X160510069Y-74575994D01*
X160322797Y-74347803D01*
X160094605Y-74160531D01*
X159834263Y-74021375D01*
X159551776Y-73935684D01*
X159258000Y-73906749D01*
X158964223Y-73935684D01*
X158681736Y-74021375D01*
X158421394Y-74160531D01*
X158193203Y-74347803D01*
X158005931Y-74575995D01*
X157988000Y-74609541D01*
X157970069Y-74575994D01*
X157782797Y-74347803D01*
X157554605Y-74160531D01*
X157294263Y-74021375D01*
X157011776Y-73935684D01*
X156718000Y-73906749D01*
X156424223Y-73935684D01*
X156141736Y-74021375D01*
X155881394Y-74160531D01*
X155653203Y-74347803D01*
X155465931Y-74575995D01*
X155326775Y-74836337D01*
X155241084Y-75118824D01*
X155219400Y-75338982D01*
X154152600Y-75338982D01*
X154152600Y-75338981D01*
X154130916Y-75118823D01*
X154045225Y-74836336D01*
X153906069Y-74575994D01*
X153718797Y-74347803D01*
X153490605Y-74160531D01*
X153230263Y-74021375D01*
X152947776Y-73935684D01*
X152654000Y-73906749D01*
X152360223Y-73935684D01*
X152077736Y-74021375D01*
X151817394Y-74160531D01*
X151589203Y-74347803D01*
X151401931Y-74575995D01*
X151384000Y-74609541D01*
X151366069Y-74575994D01*
X151178797Y-74347803D01*
X150950605Y-74160531D01*
X150690263Y-74021375D01*
X150407776Y-73935684D01*
X150114000Y-73906749D01*
X149820223Y-73935684D01*
X149537736Y-74021375D01*
X149277394Y-74160531D01*
X149049203Y-74347803D01*
X148861931Y-74575995D01*
X148844000Y-74609541D01*
X148826069Y-74575994D01*
X148638797Y-74347803D01*
X148410605Y-74160531D01*
X148150263Y-74021375D01*
X147867776Y-73935684D01*
X147574000Y-73906749D01*
X147280223Y-73935684D01*
X146997736Y-74021375D01*
X146737394Y-74160531D01*
X146509203Y-74347803D01*
X146321931Y-74575995D01*
X146304000Y-74609541D01*
X146286069Y-74575994D01*
X146098797Y-74347803D01*
X145870605Y-74160531D01*
X145610263Y-74021375D01*
X145327776Y-73935684D01*
X145034000Y-73906749D01*
X144740223Y-73935684D01*
X144457736Y-74021375D01*
X144197394Y-74160531D01*
X143969203Y-74347803D01*
X143781931Y-74575995D01*
X143764000Y-74609541D01*
X143746069Y-74575994D01*
X143558797Y-74347803D01*
X143330605Y-74160531D01*
X143070263Y-74021375D01*
X142787776Y-73935684D01*
X142494000Y-73906749D01*
X142200223Y-73935684D01*
X141917736Y-74021375D01*
X141657394Y-74160531D01*
X141429203Y-74347803D01*
X141241931Y-74575995D01*
X141224000Y-74609541D01*
X141206069Y-74575994D01*
X141018797Y-74347803D01*
X140790605Y-74160531D01*
X140530263Y-74021375D01*
X140247776Y-73935684D01*
X139954000Y-73906749D01*
X139660223Y-73935684D01*
X139377736Y-74021375D01*
X139117394Y-74160531D01*
X138889203Y-74347803D01*
X138701931Y-74575995D01*
X138680576Y-74615947D01*
X138532486Y-74413271D01*
X138316035Y-74214267D01*
X138064919Y-74061314D01*
X137788789Y-73960291D01*
X137773026Y-73957642D01*
X137541000Y-74078783D01*
X137287000Y-74078783D01*
X137054974Y-73957642D01*
X137039211Y-73960291D01*
X136763081Y-74061314D01*
X136511965Y-74214267D01*
X136295514Y-74413271D01*
X136147424Y-74615947D01*
X136126069Y-74575994D01*
X135938797Y-74347803D01*
X135710605Y-74160531D01*
X135450263Y-74021375D01*
X135167776Y-73935684D01*
X134874000Y-73906749D01*
X134580223Y-73935684D01*
X134297736Y-74021375D01*
X134037394Y-74160531D01*
X133809203Y-74347803D01*
X133621931Y-74575995D01*
X133604000Y-74609541D01*
X133586069Y-74575994D01*
X133398797Y-74347803D01*
X133170605Y-74160531D01*
X132910263Y-74021375D01*
X132627776Y-73935684D01*
X132334000Y-73906749D01*
X132040223Y-73935684D01*
X131757736Y-74021375D01*
X131497394Y-74160531D01*
X131269203Y-74347803D01*
X131081931Y-74575995D01*
X131064000Y-74609541D01*
X131046069Y-74575994D01*
X130858797Y-74347803D01*
X130630605Y-74160531D01*
X130370263Y-74021375D01*
X130087776Y-73935684D01*
X129794000Y-73906749D01*
X129500223Y-73935684D01*
X129217736Y-74021375D01*
X128957394Y-74160531D01*
X128729203Y-74347803D01*
X128657001Y-74435781D01*
X128601464Y-74301702D01*
X128309594Y-73864887D01*
X128179707Y-73735000D01*
X175219909Y-73735000D01*
X176328001Y-74843093D01*
G37*
G04 #@! TD.AperFunction*
G04 #@! TD*
M02*
