G04 #@! TF.GenerationSoftware,KiCad,Pcbnew,5.1.9-73d0e3b20d~88~ubuntu20.04.1*
G04 #@! TF.CreationDate,2021-11-24T19:01:58+09:00*
G04 #@! TF.ProjectId,ES920LRB-Arduino-Shield,45533932-304c-4524-922d-41726475696e,v1.6*
G04 #@! TF.SameCoordinates,Original*
G04 #@! TF.FileFunction,Legend,Top*
G04 #@! TF.FilePolarity,Positive*
%FSLAX46Y46*%
G04 Gerber Fmt 4.6, Leading zero omitted, Abs format (unit mm)*
G04 Created by KiCad (PCBNEW 5.1.9-73d0e3b20d~88~ubuntu20.04.1) date 2021-11-24 19:01:58*
%MOMM*%
%LPD*%
G01*
G04 APERTURE LIST*
%ADD10C,0.150000*%
%ADD11C,0.120000*%
%ADD12C,0.010000*%
G04 APERTURE END LIST*
D10*
X117275380Y-79152976D02*
X117323000Y-79200595D01*
X117370619Y-79295833D01*
X117370619Y-79533928D01*
X117323000Y-79629166D01*
X117275380Y-79676785D01*
X117180142Y-79724404D01*
X117084904Y-79724404D01*
X116942047Y-79676785D01*
X116370619Y-79105357D01*
X116370619Y-79724404D01*
X116370619Y-80676785D02*
X116370619Y-80105357D01*
X116370619Y-80391071D02*
X117370619Y-80391071D01*
X117227761Y-80295833D01*
X117132523Y-80200595D01*
X117084904Y-80105357D01*
X116370619Y-81629166D02*
X116370619Y-81057738D01*
X116370619Y-81343452D02*
X117370619Y-81343452D01*
X117227761Y-81248214D01*
X117132523Y-81152976D01*
X117084904Y-81057738D01*
X116370619Y-82581547D02*
X116370619Y-82010119D01*
X116370619Y-82295833D02*
X117370619Y-82295833D01*
X117227761Y-82200595D01*
X117132523Y-82105357D01*
X117084904Y-82010119D01*
X117275380Y-82962500D02*
X117323000Y-83010119D01*
X117370619Y-83105357D01*
X117370619Y-83343452D01*
X117323000Y-83438690D01*
X117275380Y-83486309D01*
X117180142Y-83533928D01*
X117084904Y-83533928D01*
X116942047Y-83486309D01*
X116370619Y-82914880D01*
X116370619Y-83533928D01*
X117037285Y-84391071D02*
X116370619Y-84391071D01*
X117418238Y-84152976D02*
X116703952Y-83914880D01*
X116703952Y-84533928D01*
X117370619Y-85533928D02*
X116370619Y-85867261D01*
X117370619Y-86200595D01*
X116370619Y-87057738D02*
X116370619Y-86486309D01*
X116370619Y-86772023D02*
X117370619Y-86772023D01*
X117227761Y-86676785D01*
X117132523Y-86581547D01*
X117084904Y-86486309D01*
X116465857Y-87486309D02*
X116418238Y-87533928D01*
X116370619Y-87486309D01*
X116418238Y-87438690D01*
X116465857Y-87486309D01*
X116370619Y-87486309D01*
X117370619Y-88391071D02*
X117370619Y-88200595D01*
X117323000Y-88105357D01*
X117275380Y-88057738D01*
X117132523Y-87962500D01*
X116942047Y-87914880D01*
X116561095Y-87914880D01*
X116465857Y-87962500D01*
X116418238Y-88010119D01*
X116370619Y-88105357D01*
X116370619Y-88295833D01*
X116418238Y-88391071D01*
X116465857Y-88438690D01*
X116561095Y-88486309D01*
X116799190Y-88486309D01*
X116894428Y-88438690D01*
X116942047Y-88391071D01*
X116989666Y-88295833D01*
X116989666Y-88105357D01*
X116942047Y-88010119D01*
X116894428Y-87962500D01*
X116799190Y-87914880D01*
X115244428Y-79200595D02*
X115244428Y-79533928D01*
X114720619Y-79676785D02*
X114720619Y-79200595D01*
X115720619Y-79200595D01*
X115720619Y-79676785D01*
X114768238Y-80057738D02*
X114720619Y-80200595D01*
X114720619Y-80438690D01*
X114768238Y-80533928D01*
X114815857Y-80581547D01*
X114911095Y-80629166D01*
X115006333Y-80629166D01*
X115101571Y-80581547D01*
X115149190Y-80533928D01*
X115196809Y-80438690D01*
X115244428Y-80248214D01*
X115292047Y-80152976D01*
X115339666Y-80105357D01*
X115434904Y-80057738D01*
X115530142Y-80057738D01*
X115625380Y-80105357D01*
X115673000Y-80152976D01*
X115720619Y-80248214D01*
X115720619Y-80486309D01*
X115673000Y-80629166D01*
X114720619Y-81105357D02*
X114720619Y-81295833D01*
X114768238Y-81391071D01*
X114815857Y-81438690D01*
X114958714Y-81533928D01*
X115149190Y-81581547D01*
X115530142Y-81581547D01*
X115625380Y-81533928D01*
X115673000Y-81486309D01*
X115720619Y-81391071D01*
X115720619Y-81200595D01*
X115673000Y-81105357D01*
X115625380Y-81057738D01*
X115530142Y-81010119D01*
X115292047Y-81010119D01*
X115196809Y-81057738D01*
X115149190Y-81105357D01*
X115101571Y-81200595D01*
X115101571Y-81391071D01*
X115149190Y-81486309D01*
X115196809Y-81533928D01*
X115292047Y-81581547D01*
X115625380Y-81962500D02*
X115673000Y-82010119D01*
X115720619Y-82105357D01*
X115720619Y-82343452D01*
X115673000Y-82438690D01*
X115625380Y-82486309D01*
X115530142Y-82533928D01*
X115434904Y-82533928D01*
X115292047Y-82486309D01*
X114720619Y-81914880D01*
X114720619Y-82533928D01*
X115720619Y-83152976D02*
X115720619Y-83248214D01*
X115673000Y-83343452D01*
X115625380Y-83391071D01*
X115530142Y-83438690D01*
X115339666Y-83486309D01*
X115101571Y-83486309D01*
X114911095Y-83438690D01*
X114815857Y-83391071D01*
X114768238Y-83343452D01*
X114720619Y-83248214D01*
X114720619Y-83152976D01*
X114768238Y-83057738D01*
X114815857Y-83010119D01*
X114911095Y-82962500D01*
X115101571Y-82914880D01*
X115339666Y-82914880D01*
X115530142Y-82962500D01*
X115625380Y-83010119D01*
X115673000Y-83057738D01*
X115720619Y-83152976D01*
X114720619Y-84391071D02*
X114720619Y-83914880D01*
X115720619Y-83914880D01*
X114720619Y-85295833D02*
X115196809Y-84962500D01*
X114720619Y-84724404D02*
X115720619Y-84724404D01*
X115720619Y-85105357D01*
X115673000Y-85200595D01*
X115625380Y-85248214D01*
X115530142Y-85295833D01*
X115387285Y-85295833D01*
X115292047Y-85248214D01*
X115244428Y-85200595D01*
X115196809Y-85105357D01*
X115196809Y-84724404D01*
X115244428Y-86057738D02*
X115196809Y-86200595D01*
X115149190Y-86248214D01*
X115053952Y-86295833D01*
X114911095Y-86295833D01*
X114815857Y-86248214D01*
X114768238Y-86200595D01*
X114720619Y-86105357D01*
X114720619Y-85724404D01*
X115720619Y-85724404D01*
X115720619Y-86057738D01*
X115673000Y-86152976D01*
X115625380Y-86200595D01*
X115530142Y-86248214D01*
X115434904Y-86248214D01*
X115339666Y-86200595D01*
X115292047Y-86152976D01*
X115244428Y-86057738D01*
X115244428Y-85724404D01*
X115101571Y-86724404D02*
X115101571Y-87486309D01*
X115006333Y-87914880D02*
X115006333Y-88391071D01*
X114720619Y-87819642D02*
X115720619Y-88152976D01*
X114720619Y-88486309D01*
X114720619Y-88819642D02*
X115387285Y-88819642D01*
X115196809Y-88819642D02*
X115292047Y-88867261D01*
X115339666Y-88914880D01*
X115387285Y-89010119D01*
X115387285Y-89105357D01*
X114720619Y-89867261D02*
X115720619Y-89867261D01*
X114768238Y-89867261D02*
X114720619Y-89772023D01*
X114720619Y-89581547D01*
X114768238Y-89486309D01*
X114815857Y-89438690D01*
X114911095Y-89391071D01*
X115196809Y-89391071D01*
X115292047Y-89438690D01*
X115339666Y-89486309D01*
X115387285Y-89581547D01*
X115387285Y-89772023D01*
X115339666Y-89867261D01*
X115387285Y-90772023D02*
X114720619Y-90772023D01*
X115387285Y-90343452D02*
X114863476Y-90343452D01*
X114768238Y-90391071D01*
X114720619Y-90486309D01*
X114720619Y-90629166D01*
X114768238Y-90724404D01*
X114815857Y-90772023D01*
X114720619Y-91248214D02*
X115387285Y-91248214D01*
X115720619Y-91248214D02*
X115673000Y-91200595D01*
X115625380Y-91248214D01*
X115673000Y-91295833D01*
X115720619Y-91248214D01*
X115625380Y-91248214D01*
X115387285Y-91724404D02*
X114720619Y-91724404D01*
X115292047Y-91724404D02*
X115339666Y-91772023D01*
X115387285Y-91867261D01*
X115387285Y-92010119D01*
X115339666Y-92105357D01*
X115244428Y-92152976D01*
X114720619Y-92152976D01*
X114720619Y-92772023D02*
X114768238Y-92676785D01*
X114815857Y-92629166D01*
X114911095Y-92581547D01*
X115196809Y-92581547D01*
X115292047Y-92629166D01*
X115339666Y-92676785D01*
X115387285Y-92772023D01*
X115387285Y-92914880D01*
X115339666Y-93010119D01*
X115292047Y-93057738D01*
X115196809Y-93105357D01*
X114911095Y-93105357D01*
X114815857Y-93057738D01*
X114768238Y-93010119D01*
X114720619Y-92914880D01*
X114720619Y-92772023D01*
X114625380Y-93295833D02*
X114625380Y-94057738D01*
X115720619Y-94295833D02*
X114911095Y-94295833D01*
X114815857Y-94343452D01*
X114768238Y-94391071D01*
X114720619Y-94486309D01*
X114720619Y-94676785D01*
X114768238Y-94772023D01*
X114815857Y-94819642D01*
X114911095Y-94867261D01*
X115720619Y-94867261D01*
X115387285Y-95343452D02*
X114720619Y-95343452D01*
X115292047Y-95343452D02*
X115339666Y-95391071D01*
X115387285Y-95486309D01*
X115387285Y-95629166D01*
X115339666Y-95724404D01*
X115244428Y-95772023D01*
X114720619Y-95772023D01*
X114720619Y-96391071D02*
X114768238Y-96295833D01*
X114815857Y-96248214D01*
X114911095Y-96200595D01*
X115196809Y-96200595D01*
X115292047Y-96248214D01*
X115339666Y-96295833D01*
X115387285Y-96391071D01*
X115387285Y-96533928D01*
X115339666Y-96629166D01*
X115292047Y-96676785D01*
X115196809Y-96724404D01*
X114911095Y-96724404D01*
X114815857Y-96676785D01*
X114768238Y-96629166D01*
X114720619Y-96533928D01*
X114720619Y-96391071D01*
X115101571Y-97152976D02*
X115101571Y-97914880D01*
X114768238Y-98343452D02*
X114720619Y-98486309D01*
X114720619Y-98724404D01*
X114768238Y-98819642D01*
X114815857Y-98867261D01*
X114911095Y-98914880D01*
X115006333Y-98914880D01*
X115101571Y-98867261D01*
X115149190Y-98819642D01*
X115196809Y-98724404D01*
X115244428Y-98533928D01*
X115292047Y-98438690D01*
X115339666Y-98391071D01*
X115434904Y-98343452D01*
X115530142Y-98343452D01*
X115625380Y-98391071D01*
X115673000Y-98438690D01*
X115720619Y-98533928D01*
X115720619Y-98772023D01*
X115673000Y-98914880D01*
X114720619Y-99343452D02*
X115720619Y-99343452D01*
X114720619Y-99772023D02*
X115244428Y-99772023D01*
X115339666Y-99724404D01*
X115387285Y-99629166D01*
X115387285Y-99486309D01*
X115339666Y-99391071D01*
X115292047Y-99343452D01*
X114720619Y-100248214D02*
X115387285Y-100248214D01*
X115720619Y-100248214D02*
X115673000Y-100200595D01*
X115625380Y-100248214D01*
X115673000Y-100295833D01*
X115720619Y-100248214D01*
X115625380Y-100248214D01*
X114768238Y-101105357D02*
X114720619Y-101010119D01*
X114720619Y-100819642D01*
X114768238Y-100724404D01*
X114863476Y-100676785D01*
X115244428Y-100676785D01*
X115339666Y-100724404D01*
X115387285Y-100819642D01*
X115387285Y-101010119D01*
X115339666Y-101105357D01*
X115244428Y-101152976D01*
X115149190Y-101152976D01*
X115053952Y-100676785D01*
X114720619Y-101724404D02*
X114768238Y-101629166D01*
X114863476Y-101581547D01*
X115720619Y-101581547D01*
X114720619Y-102533928D02*
X115720619Y-102533928D01*
X114768238Y-102533928D02*
X114720619Y-102438690D01*
X114720619Y-102248214D01*
X114768238Y-102152976D01*
X114815857Y-102105357D01*
X114911095Y-102057738D01*
X115196809Y-102057738D01*
X115292047Y-102105357D01*
X115339666Y-102152976D01*
X115387285Y-102248214D01*
X115387285Y-102438690D01*
X115339666Y-102533928D01*
X139390380Y-120999285D02*
X139390380Y-121570714D01*
X139390380Y-121285000D02*
X138390380Y-121285000D01*
X138533238Y-121380238D01*
X138628476Y-121475476D01*
X138676095Y-121570714D01*
D11*
G04 #@! TO.C,M1*
X168068000Y-90315000D02*
X150928000Y-90315000D01*
X150928000Y-90315000D02*
X150928000Y-112415000D01*
X150928000Y-112415000D02*
X168068000Y-112415000D01*
X168068000Y-112415000D02*
X168068000Y-105048333D01*
X168068000Y-105048333D02*
X167708000Y-105048333D01*
X167708000Y-105048333D02*
X167708000Y-97681667D01*
X167708000Y-97681667D02*
X168068000Y-97681667D01*
X168068000Y-97681667D02*
X168068000Y-90315000D01*
X150998000Y-109915000D02*
X173998000Y-109915000D01*
X174048000Y-109865000D02*
X174048000Y-92865000D01*
X173998000Y-92815000D02*
X150998000Y-92815000D01*
X150948000Y-92865000D02*
X150948000Y-109865000D01*
G04 #@! TO.C,JP6*
X164598000Y-81265000D02*
X162598000Y-81265000D01*
X164598000Y-78465000D02*
X164598000Y-81265000D01*
X162598000Y-78465000D02*
X164598000Y-78465000D01*
X162598000Y-81265000D02*
X162598000Y-78465000D01*
G04 #@! TO.C,JP5*
X168298000Y-81265000D02*
X166298000Y-81265000D01*
X168298000Y-78465000D02*
X168298000Y-81265000D01*
X166298000Y-78465000D02*
X168298000Y-78465000D01*
X166298000Y-81265000D02*
X166298000Y-78465000D01*
G04 #@! TO.C,JP4*
X169998000Y-81265000D02*
X169998000Y-78465000D01*
X169998000Y-78465000D02*
X171998000Y-78465000D01*
X171998000Y-78465000D02*
X171998000Y-81265000D01*
X171998000Y-81265000D02*
X169998000Y-81265000D01*
G04 #@! TO.C,R10*
X127368000Y-92365000D02*
G75*
G03*
X127368000Y-92365000I-1370000J0D01*
G01*
X125998000Y-93735000D02*
X125998000Y-93805000D01*
G04 #@! TO.C,R9*
X131868000Y-92365000D02*
G75*
G03*
X131868000Y-92365000I-1370000J0D01*
G01*
X130498000Y-93735000D02*
X130498000Y-93805000D01*
G04 #@! TO.C,R8*
X136368000Y-92365000D02*
G75*
G03*
X136368000Y-92365000I-1370000J0D01*
G01*
X134998000Y-93735000D02*
X134998000Y-93805000D01*
G04 #@! TO.C,R7*
X140868000Y-92365000D02*
G75*
G03*
X140868000Y-92365000I-1370000J0D01*
G01*
X139498000Y-93735000D02*
X139498000Y-93805000D01*
G04 #@! TO.C,R6*
X136868000Y-82525000D02*
G75*
G03*
X136868000Y-82525000I-1370000J0D01*
G01*
X135498000Y-83895000D02*
X135498000Y-83965000D01*
G04 #@! TO.C,R4*
X140868000Y-111365000D02*
G75*
G03*
X140868000Y-111365000I-1370000J0D01*
G01*
X139498000Y-109995000D02*
X139498000Y-109925000D01*
G04 #@! TO.C,Q4*
X138738000Y-100785000D02*
X138738000Y-101715000D01*
X138738000Y-103945000D02*
X138738000Y-103015000D01*
X138738000Y-103945000D02*
X140898000Y-103945000D01*
X138738000Y-100785000D02*
X140198000Y-100785000D01*
G04 #@! TO.C,Q3*
X133238000Y-100785000D02*
X133238000Y-101715000D01*
X133238000Y-103945000D02*
X133238000Y-103015000D01*
X133238000Y-103945000D02*
X135398000Y-103945000D01*
X133238000Y-100785000D02*
X134698000Y-100785000D01*
G04 #@! TO.C,Q2*
X127738000Y-100785000D02*
X127738000Y-101715000D01*
X127738000Y-103945000D02*
X127738000Y-103015000D01*
X127738000Y-103945000D02*
X129898000Y-103945000D01*
X127738000Y-100785000D02*
X129198000Y-100785000D01*
G04 #@! TO.C,Q1*
X122238000Y-100785000D02*
X122238000Y-101715000D01*
X122238000Y-103945000D02*
X122238000Y-103015000D01*
X122238000Y-103945000D02*
X124398000Y-103945000D01*
X122238000Y-100785000D02*
X123698000Y-100785000D01*
D12*
G04 #@! TO.C,L1*
G36*
X120697211Y-83912305D02*
G01*
X120673456Y-83932733D01*
X119395461Y-83932733D01*
X119249777Y-83932691D01*
X119108779Y-83932566D01*
X118973388Y-83932365D01*
X118844529Y-83932091D01*
X118723122Y-83931750D01*
X118610092Y-83931345D01*
X118506361Y-83930883D01*
X118412851Y-83930366D01*
X118330485Y-83929801D01*
X118260185Y-83929192D01*
X118202874Y-83928544D01*
X118159476Y-83927860D01*
X118130911Y-83927147D01*
X118118104Y-83926409D01*
X118117467Y-83926202D01*
X118124317Y-83920705D01*
X118144325Y-83906207D01*
X118176677Y-83883271D01*
X118220558Y-83852463D01*
X118275153Y-83814347D01*
X118339649Y-83769488D01*
X118413231Y-83718449D01*
X118495085Y-83661797D01*
X118584396Y-83600096D01*
X118680350Y-83533909D01*
X118782132Y-83463803D01*
X118888929Y-83390341D01*
X118999926Y-83314088D01*
X119039004Y-83287264D01*
X119151655Y-83210010D01*
X119260700Y-83135332D01*
X119365298Y-83063800D01*
X119464610Y-82995984D01*
X119557796Y-82932454D01*
X119644017Y-82873781D01*
X119722432Y-82820533D01*
X119792203Y-82773282D01*
X119852488Y-82732597D01*
X119902448Y-82699049D01*
X119941244Y-82673207D01*
X119968035Y-82655641D01*
X119981982Y-82646922D01*
X119983589Y-82646096D01*
X120021282Y-82638435D01*
X120064986Y-82639414D01*
X120106450Y-82648553D01*
X120119833Y-82654033D01*
X120134104Y-82662379D01*
X120160547Y-82679310D01*
X120197472Y-82703689D01*
X120243188Y-82734379D01*
X120296004Y-82770241D01*
X120354230Y-82810138D01*
X120416173Y-82852933D01*
X120437333Y-82867630D01*
X120720967Y-83064900D01*
X120720967Y-83891877D01*
X120697211Y-83912305D01*
G37*
X120697211Y-83912305D02*
X120673456Y-83932733D01*
X119395461Y-83932733D01*
X119249777Y-83932691D01*
X119108779Y-83932566D01*
X118973388Y-83932365D01*
X118844529Y-83932091D01*
X118723122Y-83931750D01*
X118610092Y-83931345D01*
X118506361Y-83930883D01*
X118412851Y-83930366D01*
X118330485Y-83929801D01*
X118260185Y-83929192D01*
X118202874Y-83928544D01*
X118159476Y-83927860D01*
X118130911Y-83927147D01*
X118118104Y-83926409D01*
X118117467Y-83926202D01*
X118124317Y-83920705D01*
X118144325Y-83906207D01*
X118176677Y-83883271D01*
X118220558Y-83852463D01*
X118275153Y-83814347D01*
X118339649Y-83769488D01*
X118413231Y-83718449D01*
X118495085Y-83661797D01*
X118584396Y-83600096D01*
X118680350Y-83533909D01*
X118782132Y-83463803D01*
X118888929Y-83390341D01*
X118999926Y-83314088D01*
X119039004Y-83287264D01*
X119151655Y-83210010D01*
X119260700Y-83135332D01*
X119365298Y-83063800D01*
X119464610Y-82995984D01*
X119557796Y-82932454D01*
X119644017Y-82873781D01*
X119722432Y-82820533D01*
X119792203Y-82773282D01*
X119852488Y-82732597D01*
X119902448Y-82699049D01*
X119941244Y-82673207D01*
X119968035Y-82655641D01*
X119981982Y-82646922D01*
X119983589Y-82646096D01*
X120021282Y-82638435D01*
X120064986Y-82639414D01*
X120106450Y-82648553D01*
X120119833Y-82654033D01*
X120134104Y-82662379D01*
X120160547Y-82679310D01*
X120197472Y-82703689D01*
X120243188Y-82734379D01*
X120296004Y-82770241D01*
X120354230Y-82810138D01*
X120416173Y-82852933D01*
X120437333Y-82867630D01*
X120720967Y-83064900D01*
X120720967Y-83891877D01*
X120697211Y-83912305D01*
G36*
X120371510Y-81646133D02*
G01*
X120353103Y-81742357D01*
X120320792Y-81833175D01*
X120275112Y-81917191D01*
X120216599Y-81993008D01*
X120145786Y-82059232D01*
X120063210Y-82114466D01*
X120035167Y-82129207D01*
X119953111Y-82163553D01*
X119868250Y-82186082D01*
X119776344Y-82197713D01*
X119709200Y-82199867D01*
X119636309Y-82197801D01*
X119574128Y-82190659D01*
X119516859Y-82177148D01*
X119458707Y-82155973D01*
X119407284Y-82132465D01*
X119322988Y-82082187D01*
X119249553Y-82019365D01*
X119187778Y-81945074D01*
X119138461Y-81860392D01*
X119102402Y-81766392D01*
X119086365Y-81700357D01*
X119082130Y-81671541D01*
X119078876Y-81633585D01*
X119076532Y-81584774D01*
X119075029Y-81523395D01*
X119074298Y-81447732D01*
X119074200Y-81400455D01*
X119074200Y-81164133D01*
X118923917Y-81164429D01*
X118833423Y-81166158D01*
X118756953Y-81171352D01*
X118691842Y-81180599D01*
X118635428Y-81194490D01*
X118585045Y-81213612D01*
X118538030Y-81238555D01*
X118511769Y-81255567D01*
X118475955Y-81287139D01*
X118441198Y-81330010D01*
X118411271Y-81378765D01*
X118389944Y-81427990D01*
X118388491Y-81432534D01*
X118375617Y-81493009D01*
X118371074Y-81559612D01*
X118374851Y-81625649D01*
X118386935Y-81684428D01*
X118388967Y-81690748D01*
X118421335Y-81761301D01*
X118467264Y-81822274D01*
X118525898Y-81872972D01*
X118596383Y-81912698D01*
X118677863Y-81940757D01*
X118703427Y-81946613D01*
X118739150Y-81953165D01*
X118772381Y-81957936D01*
X118796441Y-81959981D01*
X118798072Y-81960000D01*
X118820499Y-81961786D01*
X118836083Y-81968824D01*
X118846022Y-81983632D01*
X118851519Y-82008731D01*
X118853772Y-82046639D01*
X118854067Y-82077520D01*
X118853662Y-82125538D01*
X118851096Y-82159031D01*
X118844347Y-82180410D01*
X118831388Y-82192082D01*
X118810195Y-82196456D01*
X118778745Y-82195940D01*
X118755822Y-82194408D01*
X118649354Y-82179560D01*
X118548132Y-82151105D01*
X118454130Y-82109992D01*
X118369326Y-82057167D01*
X118295694Y-81993577D01*
X118264320Y-81958810D01*
X118232308Y-81913972D01*
X118200719Y-81859012D01*
X118172875Y-81800493D01*
X118152098Y-81744977D01*
X118147033Y-81727167D01*
X118138815Y-81683072D01*
X118133069Y-81628519D01*
X118130081Y-81569842D01*
X118130139Y-81513375D01*
X118133528Y-81465451D01*
X118134783Y-81456472D01*
X118158555Y-81356591D01*
X118196800Y-81264991D01*
X118248826Y-81182416D01*
X118313942Y-81109613D01*
X118391457Y-81047326D01*
X118480678Y-80996301D01*
X118580915Y-80957284D01*
X118604300Y-80950406D01*
X118617915Y-80946707D01*
X118631068Y-80943527D01*
X118645091Y-80940826D01*
X118661319Y-80938565D01*
X118681086Y-80936704D01*
X118705724Y-80935204D01*
X118736567Y-80934025D01*
X118774950Y-80933128D01*
X118822206Y-80932472D01*
X118879668Y-80932020D01*
X118948670Y-80931730D01*
X119030547Y-80931563D01*
X119126630Y-80931480D01*
X119238255Y-80931441D01*
X119243534Y-80931440D01*
X119311267Y-80931430D01*
X119311267Y-81162419D01*
X119311267Y-81378431D01*
X119311710Y-81461936D01*
X119313084Y-81530101D01*
X119315458Y-81584496D01*
X119318899Y-81626691D01*
X119323398Y-81657847D01*
X119346037Y-81736938D01*
X119381446Y-81804965D01*
X119429383Y-81861660D01*
X119489604Y-81906756D01*
X119561869Y-81939986D01*
X119585674Y-81947547D01*
X119633569Y-81956477D01*
X119691597Y-81959839D01*
X119754001Y-81957908D01*
X119815022Y-81950964D01*
X119868901Y-81939283D01*
X119888228Y-81932953D01*
X119960468Y-81897647D01*
X120022074Y-81850193D01*
X120071650Y-81791932D01*
X120107797Y-81724207D01*
X120109243Y-81720556D01*
X120121065Y-81677760D01*
X120128659Y-81624488D01*
X120131786Y-81566721D01*
X120130209Y-81510440D01*
X120123691Y-81461626D01*
X120120113Y-81447116D01*
X120092028Y-81373879D01*
X120052973Y-81312350D01*
X120001998Y-81261630D01*
X119938156Y-81220820D01*
X119860500Y-81189022D01*
X119841799Y-81183244D01*
X119822905Y-81179041D01*
X119796390Y-81175562D01*
X119760493Y-81172706D01*
X119713451Y-81170368D01*
X119653503Y-81168445D01*
X119578886Y-81166834D01*
X119554683Y-81166418D01*
X119311267Y-81162419D01*
X119311267Y-80931430D01*
X119355908Y-80931423D01*
X119452696Y-80931458D01*
X119535245Y-80931584D01*
X119604901Y-80931840D01*
X119663013Y-80932264D01*
X119710926Y-80932895D01*
X119749988Y-80933774D01*
X119781546Y-80934938D01*
X119806946Y-80936426D01*
X119827537Y-80938278D01*
X119844665Y-80940533D01*
X119859676Y-80943229D01*
X119873919Y-80946405D01*
X119888739Y-80950101D01*
X119888772Y-80950109D01*
X119991825Y-80983797D01*
X120084027Y-81029219D01*
X120164643Y-81085743D01*
X120232943Y-81152733D01*
X120288193Y-81229556D01*
X120329662Y-81315577D01*
X120337965Y-81338976D01*
X120364477Y-81443046D01*
X120375480Y-81545897D01*
X120371510Y-81646133D01*
G37*
X120371510Y-81646133D02*
X120353103Y-81742357D01*
X120320792Y-81833175D01*
X120275112Y-81917191D01*
X120216599Y-81993008D01*
X120145786Y-82059232D01*
X120063210Y-82114466D01*
X120035167Y-82129207D01*
X119953111Y-82163553D01*
X119868250Y-82186082D01*
X119776344Y-82197713D01*
X119709200Y-82199867D01*
X119636309Y-82197801D01*
X119574128Y-82190659D01*
X119516859Y-82177148D01*
X119458707Y-82155973D01*
X119407284Y-82132465D01*
X119322988Y-82082187D01*
X119249553Y-82019365D01*
X119187778Y-81945074D01*
X119138461Y-81860392D01*
X119102402Y-81766392D01*
X119086365Y-81700357D01*
X119082130Y-81671541D01*
X119078876Y-81633585D01*
X119076532Y-81584774D01*
X119075029Y-81523395D01*
X119074298Y-81447732D01*
X119074200Y-81400455D01*
X119074200Y-81164133D01*
X118923917Y-81164429D01*
X118833423Y-81166158D01*
X118756953Y-81171352D01*
X118691842Y-81180599D01*
X118635428Y-81194490D01*
X118585045Y-81213612D01*
X118538030Y-81238555D01*
X118511769Y-81255567D01*
X118475955Y-81287139D01*
X118441198Y-81330010D01*
X118411271Y-81378765D01*
X118389944Y-81427990D01*
X118388491Y-81432534D01*
X118375617Y-81493009D01*
X118371074Y-81559612D01*
X118374851Y-81625649D01*
X118386935Y-81684428D01*
X118388967Y-81690748D01*
X118421335Y-81761301D01*
X118467264Y-81822274D01*
X118525898Y-81872972D01*
X118596383Y-81912698D01*
X118677863Y-81940757D01*
X118703427Y-81946613D01*
X118739150Y-81953165D01*
X118772381Y-81957936D01*
X118796441Y-81959981D01*
X118798072Y-81960000D01*
X118820499Y-81961786D01*
X118836083Y-81968824D01*
X118846022Y-81983632D01*
X118851519Y-82008731D01*
X118853772Y-82046639D01*
X118854067Y-82077520D01*
X118853662Y-82125538D01*
X118851096Y-82159031D01*
X118844347Y-82180410D01*
X118831388Y-82192082D01*
X118810195Y-82196456D01*
X118778745Y-82195940D01*
X118755822Y-82194408D01*
X118649354Y-82179560D01*
X118548132Y-82151105D01*
X118454130Y-82109992D01*
X118369326Y-82057167D01*
X118295694Y-81993577D01*
X118264320Y-81958810D01*
X118232308Y-81913972D01*
X118200719Y-81859012D01*
X118172875Y-81800493D01*
X118152098Y-81744977D01*
X118147033Y-81727167D01*
X118138815Y-81683072D01*
X118133069Y-81628519D01*
X118130081Y-81569842D01*
X118130139Y-81513375D01*
X118133528Y-81465451D01*
X118134783Y-81456472D01*
X118158555Y-81356591D01*
X118196800Y-81264991D01*
X118248826Y-81182416D01*
X118313942Y-81109613D01*
X118391457Y-81047326D01*
X118480678Y-80996301D01*
X118580915Y-80957284D01*
X118604300Y-80950406D01*
X118617915Y-80946707D01*
X118631068Y-80943527D01*
X118645091Y-80940826D01*
X118661319Y-80938565D01*
X118681086Y-80936704D01*
X118705724Y-80935204D01*
X118736567Y-80934025D01*
X118774950Y-80933128D01*
X118822206Y-80932472D01*
X118879668Y-80932020D01*
X118948670Y-80931730D01*
X119030547Y-80931563D01*
X119126630Y-80931480D01*
X119238255Y-80931441D01*
X119243534Y-80931440D01*
X119311267Y-80931430D01*
X119311267Y-81162419D01*
X119311267Y-81378431D01*
X119311710Y-81461936D01*
X119313084Y-81530101D01*
X119315458Y-81584496D01*
X119318899Y-81626691D01*
X119323398Y-81657847D01*
X119346037Y-81736938D01*
X119381446Y-81804965D01*
X119429383Y-81861660D01*
X119489604Y-81906756D01*
X119561869Y-81939986D01*
X119585674Y-81947547D01*
X119633569Y-81956477D01*
X119691597Y-81959839D01*
X119754001Y-81957908D01*
X119815022Y-81950964D01*
X119868901Y-81939283D01*
X119888228Y-81932953D01*
X119960468Y-81897647D01*
X120022074Y-81850193D01*
X120071650Y-81791932D01*
X120107797Y-81724207D01*
X120109243Y-81720556D01*
X120121065Y-81677760D01*
X120128659Y-81624488D01*
X120131786Y-81566721D01*
X120130209Y-81510440D01*
X120123691Y-81461626D01*
X120120113Y-81447116D01*
X120092028Y-81373879D01*
X120052973Y-81312350D01*
X120001998Y-81261630D01*
X119938156Y-81220820D01*
X119860500Y-81189022D01*
X119841799Y-81183244D01*
X119822905Y-81179041D01*
X119796390Y-81175562D01*
X119760493Y-81172706D01*
X119713451Y-81170368D01*
X119653503Y-81168445D01*
X119578886Y-81166834D01*
X119554683Y-81166418D01*
X119311267Y-81162419D01*
X119311267Y-80931430D01*
X119355908Y-80931423D01*
X119452696Y-80931458D01*
X119535245Y-80931584D01*
X119604901Y-80931840D01*
X119663013Y-80932264D01*
X119710926Y-80932895D01*
X119749988Y-80933774D01*
X119781546Y-80934938D01*
X119806946Y-80936426D01*
X119827537Y-80938278D01*
X119844665Y-80940533D01*
X119859676Y-80943229D01*
X119873919Y-80946405D01*
X119888739Y-80950101D01*
X119888772Y-80950109D01*
X119991825Y-80983797D01*
X120084027Y-81029219D01*
X120164643Y-81085743D01*
X120232943Y-81152733D01*
X120288193Y-81229556D01*
X120329662Y-81315577D01*
X120337965Y-81338976D01*
X120364477Y-81443046D01*
X120375480Y-81545897D01*
X120371510Y-81646133D01*
G36*
X120435874Y-85274899D02*
G01*
X120373668Y-85317895D01*
X120314949Y-85358309D01*
X120261368Y-85395016D01*
X120214576Y-85426894D01*
X120176223Y-85452820D01*
X120147959Y-85471669D01*
X120131435Y-85482320D01*
X120128957Y-85483779D01*
X120082525Y-85500476D01*
X120032451Y-85503507D01*
X119999626Y-85497318D01*
X119989174Y-85491532D01*
X119965946Y-85476926D01*
X119930934Y-85454176D01*
X119885129Y-85423960D01*
X119829522Y-85386955D01*
X119765106Y-85343836D01*
X119692872Y-85295282D01*
X119613811Y-85241968D01*
X119528915Y-85184572D01*
X119439176Y-85123770D01*
X119345585Y-85060239D01*
X119249134Y-84994656D01*
X119150814Y-84927698D01*
X119051617Y-84860042D01*
X118952535Y-84792364D01*
X118854558Y-84725342D01*
X118758680Y-84659651D01*
X118665890Y-84595970D01*
X118577182Y-84534974D01*
X118493545Y-84477340D01*
X118415973Y-84423746D01*
X118345456Y-84374868D01*
X118282987Y-84331383D01*
X118229556Y-84293968D01*
X118186155Y-84263299D01*
X118153777Y-84240053D01*
X118133411Y-84224908D01*
X118126051Y-84218540D01*
X118126041Y-84218483D01*
X118134340Y-84217754D01*
X118158644Y-84217049D01*
X118198023Y-84216372D01*
X118251549Y-84215728D01*
X118318291Y-84215122D01*
X118397323Y-84214558D01*
X118487713Y-84214041D01*
X118588534Y-84213576D01*
X118698857Y-84213168D01*
X118817752Y-84212820D01*
X118944291Y-84212538D01*
X119077544Y-84212327D01*
X119216583Y-84212191D01*
X119360478Y-84212134D01*
X119386203Y-84212133D01*
X119574713Y-84212177D01*
X119746707Y-84212309D01*
X119902601Y-84212534D01*
X120042813Y-84212854D01*
X120167758Y-84213272D01*
X120277855Y-84213792D01*
X120373519Y-84214415D01*
X120455168Y-84215146D01*
X120523219Y-84215988D01*
X120578087Y-84216942D01*
X120620191Y-84218014D01*
X120649947Y-84219204D01*
X120667771Y-84220517D01*
X120673315Y-84221490D01*
X120694481Y-84232488D01*
X120708279Y-84246030D01*
X120708446Y-84246334D01*
X120710396Y-84258472D01*
X120712122Y-84286529D01*
X120713605Y-84329493D01*
X120714824Y-84386349D01*
X120715760Y-84456086D01*
X120716394Y-84537689D01*
X120716704Y-84630147D01*
X120716733Y-84671092D01*
X120716733Y-85080364D01*
X120435874Y-85274899D01*
G37*
X120435874Y-85274899D02*
X120373668Y-85317895D01*
X120314949Y-85358309D01*
X120261368Y-85395016D01*
X120214576Y-85426894D01*
X120176223Y-85452820D01*
X120147959Y-85471669D01*
X120131435Y-85482320D01*
X120128957Y-85483779D01*
X120082525Y-85500476D01*
X120032451Y-85503507D01*
X119999626Y-85497318D01*
X119989174Y-85491532D01*
X119965946Y-85476926D01*
X119930934Y-85454176D01*
X119885129Y-85423960D01*
X119829522Y-85386955D01*
X119765106Y-85343836D01*
X119692872Y-85295282D01*
X119613811Y-85241968D01*
X119528915Y-85184572D01*
X119439176Y-85123770D01*
X119345585Y-85060239D01*
X119249134Y-84994656D01*
X119150814Y-84927698D01*
X119051617Y-84860042D01*
X118952535Y-84792364D01*
X118854558Y-84725342D01*
X118758680Y-84659651D01*
X118665890Y-84595970D01*
X118577182Y-84534974D01*
X118493545Y-84477340D01*
X118415973Y-84423746D01*
X118345456Y-84374868D01*
X118282987Y-84331383D01*
X118229556Y-84293968D01*
X118186155Y-84263299D01*
X118153777Y-84240053D01*
X118133411Y-84224908D01*
X118126051Y-84218540D01*
X118126041Y-84218483D01*
X118134340Y-84217754D01*
X118158644Y-84217049D01*
X118198023Y-84216372D01*
X118251549Y-84215728D01*
X118318291Y-84215122D01*
X118397323Y-84214558D01*
X118487713Y-84214041D01*
X118588534Y-84213576D01*
X118698857Y-84213168D01*
X118817752Y-84212820D01*
X118944291Y-84212538D01*
X119077544Y-84212327D01*
X119216583Y-84212191D01*
X119360478Y-84212134D01*
X119386203Y-84212133D01*
X119574713Y-84212177D01*
X119746707Y-84212309D01*
X119902601Y-84212534D01*
X120042813Y-84212854D01*
X120167758Y-84213272D01*
X120277855Y-84213792D01*
X120373519Y-84214415D01*
X120455168Y-84215146D01*
X120523219Y-84215988D01*
X120578087Y-84216942D01*
X120620191Y-84218014D01*
X120649947Y-84219204D01*
X120667771Y-84220517D01*
X120673315Y-84221490D01*
X120694481Y-84232488D01*
X120708279Y-84246030D01*
X120708446Y-84246334D01*
X120710396Y-84258472D01*
X120712122Y-84286529D01*
X120713605Y-84329493D01*
X120714824Y-84386349D01*
X120715760Y-84456086D01*
X120716394Y-84537689D01*
X120716704Y-84630147D01*
X120716733Y-84671092D01*
X120716733Y-85080364D01*
X120435874Y-85274899D01*
G36*
X120373210Y-87962867D02*
G01*
X120372888Y-88014836D01*
X120371785Y-88053916D01*
X120369440Y-88084149D01*
X120365391Y-88109577D01*
X120359174Y-88134240D01*
X120350443Y-88161833D01*
X120310737Y-88256341D01*
X120258313Y-88339708D01*
X120193136Y-88411970D01*
X120115167Y-88473161D01*
X120024369Y-88523318D01*
X119924785Y-88561217D01*
X119848900Y-88584804D01*
X119291904Y-88587498D01*
X119177750Y-88588002D01*
X119079175Y-88588315D01*
X118994825Y-88588414D01*
X118923347Y-88588276D01*
X118863388Y-88587879D01*
X118813593Y-88587200D01*
X118772609Y-88586217D01*
X118739082Y-88584906D01*
X118711659Y-88583246D01*
X118688987Y-88581212D01*
X118669711Y-88578784D01*
X118657782Y-88576883D01*
X118556177Y-88551637D01*
X118462520Y-88512873D01*
X118378042Y-88461610D01*
X118303975Y-88398867D01*
X118241549Y-88325662D01*
X118191996Y-88243012D01*
X118160909Y-88166067D01*
X118136583Y-88063977D01*
X118127735Y-87958567D01*
X118134708Y-87853985D01*
X118134882Y-87852800D01*
X118157516Y-87754698D01*
X118194860Y-87662888D01*
X118245741Y-87579002D01*
X118308982Y-87504675D01*
X118383408Y-87441542D01*
X118466227Y-87392028D01*
X118527621Y-87364278D01*
X118584528Y-87344410D01*
X118643711Y-87330514D01*
X118711931Y-87320682D01*
X118723537Y-87319421D01*
X118762301Y-87317822D01*
X118762301Y-87551093D01*
X118755084Y-87551673D01*
X118667306Y-87566295D01*
X118588984Y-87593292D01*
X118521108Y-87631926D01*
X118464670Y-87681459D01*
X118420660Y-87741152D01*
X118390069Y-87810267D01*
X118385040Y-87827400D01*
X118375534Y-87880545D01*
X118372006Y-87941741D01*
X118374364Y-88004095D01*
X118382515Y-88060712D01*
X118388499Y-88083961D01*
X118402311Y-88120619D01*
X118420230Y-88157818D01*
X118433546Y-88180102D01*
X118468728Y-88221324D01*
X118515154Y-88261071D01*
X118567345Y-88295220D01*
X118618139Y-88319037D01*
X118634291Y-88324667D01*
X118650000Y-88329150D01*
X118667446Y-88332646D01*
X118688810Y-88335316D01*
X118716273Y-88337321D01*
X118752015Y-88338822D01*
X118798217Y-88339978D01*
X118857060Y-88340951D01*
X118928150Y-88341870D01*
X119184267Y-88344984D01*
X119184267Y-88113371D01*
X119184026Y-88034911D01*
X119183103Y-87971008D01*
X119181196Y-87919289D01*
X119178003Y-87877380D01*
X119173222Y-87842910D01*
X119166552Y-87813505D01*
X119157690Y-87786792D01*
X119146336Y-87760399D01*
X119136939Y-87741231D01*
X119098360Y-87683249D01*
X119047099Y-87634227D01*
X118985510Y-87595332D01*
X118915945Y-87567733D01*
X118840758Y-87552598D01*
X118762301Y-87551093D01*
X118762301Y-87317822D01*
X118806597Y-87315994D01*
X118892001Y-87321931D01*
X118971990Y-87336597D01*
X118988719Y-87341114D01*
X119070580Y-87372604D01*
X119149215Y-87417740D01*
X119221570Y-87473999D01*
X119284585Y-87538858D01*
X119335205Y-87609793D01*
X119352202Y-87641133D01*
X119370784Y-87680220D01*
X119385858Y-87715805D01*
X119397830Y-87750353D01*
X119407103Y-87786325D01*
X119414081Y-87826185D01*
X119419170Y-87872397D01*
X119422773Y-87927424D01*
X119425295Y-87993728D01*
X119427140Y-88073772D01*
X119427616Y-88100450D01*
X119431909Y-88352333D01*
X119590977Y-88352333D01*
X119672478Y-88351349D01*
X119740020Y-88348111D01*
X119796476Y-88342195D01*
X119844723Y-88333174D01*
X119887633Y-88320622D01*
X119928082Y-88304115D01*
X119933417Y-88301605D01*
X119997409Y-88262052D01*
X120050889Y-88210578D01*
X120092769Y-88149330D01*
X120121959Y-88080455D01*
X120137371Y-88006101D01*
X120137915Y-87928416D01*
X120134924Y-87904181D01*
X120115371Y-87827868D01*
X120082062Y-87761213D01*
X120035404Y-87704590D01*
X119975805Y-87658374D01*
X119903670Y-87622938D01*
X119819406Y-87598657D01*
X119798930Y-87594789D01*
X119764007Y-87587975D01*
X119734840Y-87580818D01*
X119715958Y-87574491D01*
X119712147Y-87572332D01*
X119707436Y-87560218D01*
X119703888Y-87535466D01*
X119701566Y-87502335D01*
X119700534Y-87465085D01*
X119700855Y-87427977D01*
X119702592Y-87395268D01*
X119705808Y-87371220D01*
X119709027Y-87361733D01*
X119723606Y-87353338D01*
X119751208Y-87350317D01*
X119788972Y-87352179D01*
X119834034Y-87358430D01*
X119883534Y-87368580D01*
X119934609Y-87382137D01*
X119984396Y-87398610D01*
X120027899Y-87416513D01*
X120118724Y-87466158D01*
X120195608Y-87525035D01*
X120259302Y-87593953D01*
X120310556Y-87673723D01*
X120349711Y-87763981D01*
X120358866Y-87791270D01*
X120365301Y-87814835D01*
X120369485Y-87838647D01*
X120371887Y-87866675D01*
X120372976Y-87902891D01*
X120373222Y-87951266D01*
X120373210Y-87962867D01*
G37*
X120373210Y-87962867D02*
X120372888Y-88014836D01*
X120371785Y-88053916D01*
X120369440Y-88084149D01*
X120365391Y-88109577D01*
X120359174Y-88134240D01*
X120350443Y-88161833D01*
X120310737Y-88256341D01*
X120258313Y-88339708D01*
X120193136Y-88411970D01*
X120115167Y-88473161D01*
X120024369Y-88523318D01*
X119924785Y-88561217D01*
X119848900Y-88584804D01*
X119291904Y-88587498D01*
X119177750Y-88588002D01*
X119079175Y-88588315D01*
X118994825Y-88588414D01*
X118923347Y-88588276D01*
X118863388Y-88587879D01*
X118813593Y-88587200D01*
X118772609Y-88586217D01*
X118739082Y-88584906D01*
X118711659Y-88583246D01*
X118688987Y-88581212D01*
X118669711Y-88578784D01*
X118657782Y-88576883D01*
X118556177Y-88551637D01*
X118462520Y-88512873D01*
X118378042Y-88461610D01*
X118303975Y-88398867D01*
X118241549Y-88325662D01*
X118191996Y-88243012D01*
X118160909Y-88166067D01*
X118136583Y-88063977D01*
X118127735Y-87958567D01*
X118134708Y-87853985D01*
X118134882Y-87852800D01*
X118157516Y-87754698D01*
X118194860Y-87662888D01*
X118245741Y-87579002D01*
X118308982Y-87504675D01*
X118383408Y-87441542D01*
X118466227Y-87392028D01*
X118527621Y-87364278D01*
X118584528Y-87344410D01*
X118643711Y-87330514D01*
X118711931Y-87320682D01*
X118723537Y-87319421D01*
X118762301Y-87317822D01*
X118762301Y-87551093D01*
X118755084Y-87551673D01*
X118667306Y-87566295D01*
X118588984Y-87593292D01*
X118521108Y-87631926D01*
X118464670Y-87681459D01*
X118420660Y-87741152D01*
X118390069Y-87810267D01*
X118385040Y-87827400D01*
X118375534Y-87880545D01*
X118372006Y-87941741D01*
X118374364Y-88004095D01*
X118382515Y-88060712D01*
X118388499Y-88083961D01*
X118402311Y-88120619D01*
X118420230Y-88157818D01*
X118433546Y-88180102D01*
X118468728Y-88221324D01*
X118515154Y-88261071D01*
X118567345Y-88295220D01*
X118618139Y-88319037D01*
X118634291Y-88324667D01*
X118650000Y-88329150D01*
X118667446Y-88332646D01*
X118688810Y-88335316D01*
X118716273Y-88337321D01*
X118752015Y-88338822D01*
X118798217Y-88339978D01*
X118857060Y-88340951D01*
X118928150Y-88341870D01*
X119184267Y-88344984D01*
X119184267Y-88113371D01*
X119184026Y-88034911D01*
X119183103Y-87971008D01*
X119181196Y-87919289D01*
X119178003Y-87877380D01*
X119173222Y-87842910D01*
X119166552Y-87813505D01*
X119157690Y-87786792D01*
X119146336Y-87760399D01*
X119136939Y-87741231D01*
X119098360Y-87683249D01*
X119047099Y-87634227D01*
X118985510Y-87595332D01*
X118915945Y-87567733D01*
X118840758Y-87552598D01*
X118762301Y-87551093D01*
X118762301Y-87317822D01*
X118806597Y-87315994D01*
X118892001Y-87321931D01*
X118971990Y-87336597D01*
X118988719Y-87341114D01*
X119070580Y-87372604D01*
X119149215Y-87417740D01*
X119221570Y-87473999D01*
X119284585Y-87538858D01*
X119335205Y-87609793D01*
X119352202Y-87641133D01*
X119370784Y-87680220D01*
X119385858Y-87715805D01*
X119397830Y-87750353D01*
X119407103Y-87786325D01*
X119414081Y-87826185D01*
X119419170Y-87872397D01*
X119422773Y-87927424D01*
X119425295Y-87993728D01*
X119427140Y-88073772D01*
X119427616Y-88100450D01*
X119431909Y-88352333D01*
X119590977Y-88352333D01*
X119672478Y-88351349D01*
X119740020Y-88348111D01*
X119796476Y-88342195D01*
X119844723Y-88333174D01*
X119887633Y-88320622D01*
X119928082Y-88304115D01*
X119933417Y-88301605D01*
X119997409Y-88262052D01*
X120050889Y-88210578D01*
X120092769Y-88149330D01*
X120121959Y-88080455D01*
X120137371Y-88006101D01*
X120137915Y-87928416D01*
X120134924Y-87904181D01*
X120115371Y-87827868D01*
X120082062Y-87761213D01*
X120035404Y-87704590D01*
X119975805Y-87658374D01*
X119903670Y-87622938D01*
X119819406Y-87598657D01*
X119798930Y-87594789D01*
X119764007Y-87587975D01*
X119734840Y-87580818D01*
X119715958Y-87574491D01*
X119712147Y-87572332D01*
X119707436Y-87560218D01*
X119703888Y-87535466D01*
X119701566Y-87502335D01*
X119700534Y-87465085D01*
X119700855Y-87427977D01*
X119702592Y-87395268D01*
X119705808Y-87371220D01*
X119709027Y-87361733D01*
X119723606Y-87353338D01*
X119751208Y-87350317D01*
X119788972Y-87352179D01*
X119834034Y-87358430D01*
X119883534Y-87368580D01*
X119934609Y-87382137D01*
X119984396Y-87398610D01*
X120027899Y-87416513D01*
X120118724Y-87466158D01*
X120195608Y-87525035D01*
X120259302Y-87593953D01*
X120310556Y-87673723D01*
X120349711Y-87763981D01*
X120358866Y-87791270D01*
X120365301Y-87814835D01*
X120369485Y-87838647D01*
X120371887Y-87866675D01*
X120372976Y-87902891D01*
X120373222Y-87951266D01*
X120373210Y-87962867D01*
G36*
X120949197Y-79789345D02*
G01*
X120948417Y-79790712D01*
X120944757Y-79794592D01*
X120938045Y-79797748D01*
X120926602Y-79800272D01*
X120908750Y-79802256D01*
X120882808Y-79803791D01*
X120847099Y-79804970D01*
X120799943Y-79805884D01*
X120739661Y-79806625D01*
X120664575Y-79807284D01*
X120641730Y-79807458D01*
X120344200Y-79809683D01*
X120344200Y-79995361D01*
X120344261Y-80060702D01*
X120343719Y-80111061D01*
X120341488Y-80148382D01*
X120336479Y-80174610D01*
X120327607Y-80191689D01*
X120313784Y-80201564D01*
X120293923Y-80206180D01*
X120266938Y-80207480D01*
X120231741Y-80207409D01*
X120225667Y-80207400D01*
X120189173Y-80207510D01*
X120161038Y-80206548D01*
X120140179Y-80202569D01*
X120125512Y-80193631D01*
X120115953Y-80177794D01*
X120110418Y-80153113D01*
X120107825Y-80117646D01*
X120107090Y-80069452D01*
X120107128Y-80006587D01*
X120107133Y-79994923D01*
X120107133Y-79808806D01*
X119423450Y-79811673D01*
X119298504Y-79812222D01*
X119189323Y-79812773D01*
X119094741Y-79813352D01*
X119013590Y-79813988D01*
X118944702Y-79814708D01*
X118886911Y-79815541D01*
X118839048Y-79816513D01*
X118799947Y-79817652D01*
X118768439Y-79818987D01*
X118743358Y-79820545D01*
X118723537Y-79822353D01*
X118707806Y-79824440D01*
X118695000Y-79826834D01*
X118685181Y-79829227D01*
X118604267Y-79857333D01*
X118537395Y-79894487D01*
X118484064Y-79941066D01*
X118443771Y-79997449D01*
X118432956Y-80018912D01*
X118421060Y-80049376D01*
X118413407Y-80081772D01*
X118408803Y-80122065D01*
X118407253Y-80147395D01*
X118404660Y-80183647D01*
X118401035Y-80213975D01*
X118396966Y-80234058D01*
X118394769Y-80239150D01*
X118382690Y-80243922D01*
X118357931Y-80247358D01*
X118324691Y-80249448D01*
X118287171Y-80250184D01*
X118249570Y-80249559D01*
X118216089Y-80247563D01*
X118190929Y-80244190D01*
X118178427Y-80239573D01*
X118172704Y-80224881D01*
X118169375Y-80197264D01*
X118168336Y-80160543D01*
X118169481Y-80118542D01*
X118172705Y-80075082D01*
X118177903Y-80033986D01*
X118184970Y-79999077D01*
X118185043Y-79998798D01*
X118216767Y-79908524D01*
X118261834Y-79828629D01*
X118320151Y-79759191D01*
X118391622Y-79700285D01*
X118476152Y-79651987D01*
X118573648Y-79614376D01*
X118684014Y-79587526D01*
X118696426Y-79585321D01*
X118712859Y-79582883D01*
X118732653Y-79580761D01*
X118756987Y-79578934D01*
X118787043Y-79577383D01*
X118824002Y-79576087D01*
X118869045Y-79575024D01*
X118923354Y-79574174D01*
X118988109Y-79573518D01*
X119064491Y-79573034D01*
X119153682Y-79572701D01*
X119256863Y-79572500D01*
X119375215Y-79572410D01*
X119439376Y-79572400D01*
X120107133Y-79572400D01*
X120107133Y-79433180D01*
X120107223Y-79376404D01*
X120108544Y-79334350D01*
X120112676Y-79304812D01*
X120121201Y-79285581D01*
X120135697Y-79274452D01*
X120157745Y-79269216D01*
X120188926Y-79267667D01*
X120225667Y-79267600D01*
X120266311Y-79267724D01*
X120296416Y-79269569D01*
X120317561Y-79275342D01*
X120331328Y-79287250D01*
X120339295Y-79307500D01*
X120343043Y-79338300D01*
X120344152Y-79381856D01*
X120344200Y-79433180D01*
X120344200Y-79572400D01*
X120842228Y-79572400D01*
X120862031Y-79596285D01*
X120874275Y-79614225D01*
X120890944Y-79642853D01*
X120909380Y-79677476D01*
X120919704Y-79698180D01*
X120937317Y-79735842D01*
X120947505Y-79761658D01*
X120951165Y-79778526D01*
X120949197Y-79789345D01*
G37*
X120949197Y-79789345D02*
X120948417Y-79790712D01*
X120944757Y-79794592D01*
X120938045Y-79797748D01*
X120926602Y-79800272D01*
X120908750Y-79802256D01*
X120882808Y-79803791D01*
X120847099Y-79804970D01*
X120799943Y-79805884D01*
X120739661Y-79806625D01*
X120664575Y-79807284D01*
X120641730Y-79807458D01*
X120344200Y-79809683D01*
X120344200Y-79995361D01*
X120344261Y-80060702D01*
X120343719Y-80111061D01*
X120341488Y-80148382D01*
X120336479Y-80174610D01*
X120327607Y-80191689D01*
X120313784Y-80201564D01*
X120293923Y-80206180D01*
X120266938Y-80207480D01*
X120231741Y-80207409D01*
X120225667Y-80207400D01*
X120189173Y-80207510D01*
X120161038Y-80206548D01*
X120140179Y-80202569D01*
X120125512Y-80193631D01*
X120115953Y-80177794D01*
X120110418Y-80153113D01*
X120107825Y-80117646D01*
X120107090Y-80069452D01*
X120107128Y-80006587D01*
X120107133Y-79994923D01*
X120107133Y-79808806D01*
X119423450Y-79811673D01*
X119298504Y-79812222D01*
X119189323Y-79812773D01*
X119094741Y-79813352D01*
X119013590Y-79813988D01*
X118944702Y-79814708D01*
X118886911Y-79815541D01*
X118839048Y-79816513D01*
X118799947Y-79817652D01*
X118768439Y-79818987D01*
X118743358Y-79820545D01*
X118723537Y-79822353D01*
X118707806Y-79824440D01*
X118695000Y-79826834D01*
X118685181Y-79829227D01*
X118604267Y-79857333D01*
X118537395Y-79894487D01*
X118484064Y-79941066D01*
X118443771Y-79997449D01*
X118432956Y-80018912D01*
X118421060Y-80049376D01*
X118413407Y-80081772D01*
X118408803Y-80122065D01*
X118407253Y-80147395D01*
X118404660Y-80183647D01*
X118401035Y-80213975D01*
X118396966Y-80234058D01*
X118394769Y-80239150D01*
X118382690Y-80243922D01*
X118357931Y-80247358D01*
X118324691Y-80249448D01*
X118287171Y-80250184D01*
X118249570Y-80249559D01*
X118216089Y-80247563D01*
X118190929Y-80244190D01*
X118178427Y-80239573D01*
X118172704Y-80224881D01*
X118169375Y-80197264D01*
X118168336Y-80160543D01*
X118169481Y-80118542D01*
X118172705Y-80075082D01*
X118177903Y-80033986D01*
X118184970Y-79999077D01*
X118185043Y-79998798D01*
X118216767Y-79908524D01*
X118261834Y-79828629D01*
X118320151Y-79759191D01*
X118391622Y-79700285D01*
X118476152Y-79651987D01*
X118573648Y-79614376D01*
X118684014Y-79587526D01*
X118696426Y-79585321D01*
X118712859Y-79582883D01*
X118732653Y-79580761D01*
X118756987Y-79578934D01*
X118787043Y-79577383D01*
X118824002Y-79576087D01*
X118869045Y-79575024D01*
X118923354Y-79574174D01*
X118988109Y-79573518D01*
X119064491Y-79573034D01*
X119153682Y-79572701D01*
X119256863Y-79572500D01*
X119375215Y-79572410D01*
X119439376Y-79572400D01*
X120107133Y-79572400D01*
X120107133Y-79433180D01*
X120107223Y-79376404D01*
X120108544Y-79334350D01*
X120112676Y-79304812D01*
X120121201Y-79285581D01*
X120135697Y-79274452D01*
X120157745Y-79269216D01*
X120188926Y-79267667D01*
X120225667Y-79267600D01*
X120266311Y-79267724D01*
X120296416Y-79269569D01*
X120317561Y-79275342D01*
X120331328Y-79287250D01*
X120339295Y-79307500D01*
X120343043Y-79338300D01*
X120344152Y-79381856D01*
X120344200Y-79433180D01*
X120344200Y-79572400D01*
X120842228Y-79572400D01*
X120862031Y-79596285D01*
X120874275Y-79614225D01*
X120890944Y-79642853D01*
X120909380Y-79677476D01*
X120919704Y-79698180D01*
X120937317Y-79735842D01*
X120947505Y-79761658D01*
X120951165Y-79778526D01*
X120949197Y-79789345D01*
G36*
X120352216Y-86735026D02*
G01*
X120349201Y-86767200D01*
X120341765Y-86788780D01*
X120328499Y-86801878D01*
X120307993Y-86808607D01*
X120278838Y-86811078D01*
X120239625Y-86811406D01*
X120229900Y-86811400D01*
X120188026Y-86811227D01*
X120156948Y-86809245D01*
X120135059Y-86803259D01*
X120120749Y-86791073D01*
X120112410Y-86770491D01*
X120108433Y-86739319D01*
X120107210Y-86695360D01*
X120107134Y-86643845D01*
X120106099Y-86573949D01*
X120102588Y-86517433D01*
X120095987Y-86470848D01*
X120085684Y-86430744D01*
X120071067Y-86393671D01*
X120058172Y-86368103D01*
X120015606Y-86306985D01*
X119960224Y-86255238D01*
X119894247Y-86214447D01*
X119819899Y-86186200D01*
X119794900Y-86180111D01*
X119782267Y-86178001D01*
X119764838Y-86176142D01*
X119741600Y-86174520D01*
X119711541Y-86173121D01*
X119673646Y-86171928D01*
X119626902Y-86170928D01*
X119570296Y-86170106D01*
X119502815Y-86169447D01*
X119423446Y-86168936D01*
X119331175Y-86168559D01*
X119224989Y-86168300D01*
X119103874Y-86168145D01*
X118969927Y-86168080D01*
X118815599Y-86167953D01*
X118678183Y-86167634D01*
X118557658Y-86167123D01*
X118454003Y-86166420D01*
X118367197Y-86165524D01*
X118297220Y-86164435D01*
X118244052Y-86163153D01*
X118207670Y-86161678D01*
X118188056Y-86160009D01*
X118184644Y-86159169D01*
X118177629Y-86153904D01*
X118172948Y-86144982D01*
X118170138Y-86129329D01*
X118168738Y-86103872D01*
X118168287Y-86065537D01*
X118168267Y-86050139D01*
X118168830Y-86003358D01*
X118170689Y-85971113D01*
X118174096Y-85951039D01*
X118179302Y-85940771D01*
X118180012Y-85940126D01*
X118186733Y-85938401D01*
X118202922Y-85936901D01*
X118229269Y-85935621D01*
X118266467Y-85934555D01*
X118315204Y-85933696D01*
X118376171Y-85933039D01*
X118450060Y-85932577D01*
X118537561Y-85932305D01*
X118639365Y-85932217D01*
X118756162Y-85932305D01*
X118888642Y-85932565D01*
X119007629Y-85932896D01*
X119823500Y-85935415D01*
X119886768Y-85954859D01*
X119987362Y-85993741D01*
X120076887Y-86044968D01*
X120154811Y-86108096D01*
X120220601Y-86182683D01*
X120273725Y-86268286D01*
X120280656Y-86282233D01*
X120302996Y-86332220D01*
X120320041Y-86379929D01*
X120332548Y-86429125D01*
X120341274Y-86483577D01*
X120346976Y-86547050D01*
X120350411Y-86623310D01*
X120350621Y-86630442D01*
X120352220Y-86690144D01*
X120352216Y-86735026D01*
G37*
X120352216Y-86735026D02*
X120349201Y-86767200D01*
X120341765Y-86788780D01*
X120328499Y-86801878D01*
X120307993Y-86808607D01*
X120278838Y-86811078D01*
X120239625Y-86811406D01*
X120229900Y-86811400D01*
X120188026Y-86811227D01*
X120156948Y-86809245D01*
X120135059Y-86803259D01*
X120120749Y-86791073D01*
X120112410Y-86770491D01*
X120108433Y-86739319D01*
X120107210Y-86695360D01*
X120107134Y-86643845D01*
X120106099Y-86573949D01*
X120102588Y-86517433D01*
X120095987Y-86470848D01*
X120085684Y-86430744D01*
X120071067Y-86393671D01*
X120058172Y-86368103D01*
X120015606Y-86306985D01*
X119960224Y-86255238D01*
X119894247Y-86214447D01*
X119819899Y-86186200D01*
X119794900Y-86180111D01*
X119782267Y-86178001D01*
X119764838Y-86176142D01*
X119741600Y-86174520D01*
X119711541Y-86173121D01*
X119673646Y-86171928D01*
X119626902Y-86170928D01*
X119570296Y-86170106D01*
X119502815Y-86169447D01*
X119423446Y-86168936D01*
X119331175Y-86168559D01*
X119224989Y-86168300D01*
X119103874Y-86168145D01*
X118969927Y-86168080D01*
X118815599Y-86167953D01*
X118678183Y-86167634D01*
X118557658Y-86167123D01*
X118454003Y-86166420D01*
X118367197Y-86165524D01*
X118297220Y-86164435D01*
X118244052Y-86163153D01*
X118207670Y-86161678D01*
X118188056Y-86160009D01*
X118184644Y-86159169D01*
X118177629Y-86153904D01*
X118172948Y-86144982D01*
X118170138Y-86129329D01*
X118168738Y-86103872D01*
X118168287Y-86065537D01*
X118168267Y-86050139D01*
X118168830Y-86003358D01*
X118170689Y-85971113D01*
X118174096Y-85951039D01*
X118179302Y-85940771D01*
X118180012Y-85940126D01*
X118186733Y-85938401D01*
X118202922Y-85936901D01*
X118229269Y-85935621D01*
X118266467Y-85934555D01*
X118315204Y-85933696D01*
X118376171Y-85933039D01*
X118450060Y-85932577D01*
X118537561Y-85932305D01*
X118639365Y-85932217D01*
X118756162Y-85932305D01*
X118888642Y-85932565D01*
X119007629Y-85932896D01*
X119823500Y-85935415D01*
X119886768Y-85954859D01*
X119987362Y-85993741D01*
X120076887Y-86044968D01*
X120154811Y-86108096D01*
X120220601Y-86182683D01*
X120273725Y-86268286D01*
X120280656Y-86282233D01*
X120302996Y-86332220D01*
X120320041Y-86379929D01*
X120332548Y-86429125D01*
X120341274Y-86483577D01*
X120346976Y-86547050D01*
X120350411Y-86623310D01*
X120350621Y-86630442D01*
X120352220Y-86690144D01*
X120352216Y-86735026D01*
G36*
X122118726Y-84087252D02*
G01*
X122109610Y-84107807D01*
X122101173Y-84114856D01*
X122080082Y-84130607D01*
X122047632Y-84154159D01*
X122005114Y-84184611D01*
X121953823Y-84221061D01*
X121895051Y-84262609D01*
X121830092Y-84308353D01*
X121760240Y-84357393D01*
X121686787Y-84408827D01*
X121611027Y-84461753D01*
X121534253Y-84515272D01*
X121457758Y-84568481D01*
X121382836Y-84620479D01*
X121310781Y-84670366D01*
X121242884Y-84717240D01*
X121180441Y-84760200D01*
X121124743Y-84798345D01*
X121077084Y-84830773D01*
X121038758Y-84856585D01*
X121011058Y-84874877D01*
X120995277Y-84884750D01*
X120992568Y-84886149D01*
X120990342Y-84885872D01*
X120988376Y-84882586D01*
X120986654Y-84875326D01*
X120985158Y-84863124D01*
X120983874Y-84845015D01*
X120982786Y-84820032D01*
X120981879Y-84787209D01*
X120981135Y-84745579D01*
X120980540Y-84694176D01*
X120980077Y-84632035D01*
X120979732Y-84558188D01*
X120979488Y-84471670D01*
X120979328Y-84371513D01*
X120979239Y-84256753D01*
X120979203Y-84126422D01*
X120979200Y-84068200D01*
X120979216Y-83931404D01*
X120979276Y-83810571D01*
X120979396Y-83704728D01*
X120979592Y-83612903D01*
X120979881Y-83534126D01*
X120980278Y-83467424D01*
X120980801Y-83411827D01*
X120981466Y-83366362D01*
X120982289Y-83330058D01*
X120983286Y-83301944D01*
X120984475Y-83281048D01*
X120985870Y-83266399D01*
X120987490Y-83257025D01*
X120989349Y-83251954D01*
X120991465Y-83250215D01*
X120992985Y-83250411D01*
X121003799Y-83256665D01*
X121027017Y-83271623D01*
X121061351Y-83294394D01*
X121105514Y-83324086D01*
X121158217Y-83359807D01*
X121218172Y-83400667D01*
X121284091Y-83445774D01*
X121354684Y-83494235D01*
X121428665Y-83545161D01*
X121504745Y-83597659D01*
X121581635Y-83650838D01*
X121658047Y-83703807D01*
X121732693Y-83755673D01*
X121804285Y-83805546D01*
X121871535Y-83852534D01*
X121933154Y-83895745D01*
X121987854Y-83934289D01*
X122034346Y-83967273D01*
X122071343Y-83993806D01*
X122097556Y-84012997D01*
X122111698Y-84023954D01*
X122113821Y-84026029D01*
X122121589Y-84055270D01*
X122118726Y-84087252D01*
G37*
X122118726Y-84087252D02*
X122109610Y-84107807D01*
X122101173Y-84114856D01*
X122080082Y-84130607D01*
X122047632Y-84154159D01*
X122005114Y-84184611D01*
X121953823Y-84221061D01*
X121895051Y-84262609D01*
X121830092Y-84308353D01*
X121760240Y-84357393D01*
X121686787Y-84408827D01*
X121611027Y-84461753D01*
X121534253Y-84515272D01*
X121457758Y-84568481D01*
X121382836Y-84620479D01*
X121310781Y-84670366D01*
X121242884Y-84717240D01*
X121180441Y-84760200D01*
X121124743Y-84798345D01*
X121077084Y-84830773D01*
X121038758Y-84856585D01*
X121011058Y-84874877D01*
X120995277Y-84884750D01*
X120992568Y-84886149D01*
X120990342Y-84885872D01*
X120988376Y-84882586D01*
X120986654Y-84875326D01*
X120985158Y-84863124D01*
X120983874Y-84845015D01*
X120982786Y-84820032D01*
X120981879Y-84787209D01*
X120981135Y-84745579D01*
X120980540Y-84694176D01*
X120980077Y-84632035D01*
X120979732Y-84558188D01*
X120979488Y-84471670D01*
X120979328Y-84371513D01*
X120979239Y-84256753D01*
X120979203Y-84126422D01*
X120979200Y-84068200D01*
X120979216Y-83931404D01*
X120979276Y-83810571D01*
X120979396Y-83704728D01*
X120979592Y-83612903D01*
X120979881Y-83534126D01*
X120980278Y-83467424D01*
X120980801Y-83411827D01*
X120981466Y-83366362D01*
X120982289Y-83330058D01*
X120983286Y-83301944D01*
X120984475Y-83281048D01*
X120985870Y-83266399D01*
X120987490Y-83257025D01*
X120989349Y-83251954D01*
X120991465Y-83250215D01*
X120992985Y-83250411D01*
X121003799Y-83256665D01*
X121027017Y-83271623D01*
X121061351Y-83294394D01*
X121105514Y-83324086D01*
X121158217Y-83359807D01*
X121218172Y-83400667D01*
X121284091Y-83445774D01*
X121354684Y-83494235D01*
X121428665Y-83545161D01*
X121504745Y-83597659D01*
X121581635Y-83650838D01*
X121658047Y-83703807D01*
X121732693Y-83755673D01*
X121804285Y-83805546D01*
X121871535Y-83852534D01*
X121933154Y-83895745D01*
X121987854Y-83934289D01*
X122034346Y-83967273D01*
X122071343Y-83993806D01*
X122097556Y-84012997D01*
X122111698Y-84023954D01*
X122113821Y-84026029D01*
X122121589Y-84055270D01*
X122118726Y-84087252D01*
D11*
G04 #@! TO.C,C1*
X169628000Y-84495000D02*
X173868000Y-84495000D01*
X169628000Y-87235000D02*
X173868000Y-87235000D01*
X169628000Y-84495000D02*
X169628000Y-85200000D01*
X169628000Y-86530000D02*
X169628000Y-87235000D01*
X173868000Y-84495000D02*
X173868000Y-85200000D01*
X173868000Y-86530000D02*
X173868000Y-87235000D01*
G04 #@! TO.C,J2*
X167908000Y-118195000D02*
X167908000Y-115535000D01*
X139908000Y-118195000D02*
X167908000Y-118195000D01*
X139908000Y-115535000D02*
X167908000Y-115535000D01*
X139908000Y-118195000D02*
X139908000Y-115535000D01*
X138638000Y-118195000D02*
X137308000Y-118195000D01*
X137308000Y-118195000D02*
X137308000Y-116865000D01*
G04 #@! TO.C,J1*
X142088000Y-84535000D02*
X142088000Y-87195000D01*
X165008000Y-84535000D02*
X142088000Y-84535000D01*
X165008000Y-87195000D02*
X142088000Y-87195000D01*
X165008000Y-84535000D02*
X165008000Y-87195000D01*
X166278000Y-84535000D02*
X167608000Y-84535000D01*
X167608000Y-84535000D02*
X167608000Y-85865000D01*
G04 #@! TO.C,R5*
X132068000Y-82575000D02*
G75*
G03*
X132068000Y-82575000I-1370000J0D01*
G01*
X130698000Y-83945000D02*
X130698000Y-84015000D01*
G04 #@! TO.C,R3*
X136368000Y-111405000D02*
G75*
G03*
X136368000Y-111405000I-1370000J0D01*
G01*
X134998000Y-110035000D02*
X134998000Y-109965000D01*
G04 #@! TO.C,R2*
X131868000Y-111365000D02*
G75*
G03*
X131868000Y-111365000I-1370000J0D01*
G01*
X130498000Y-109995000D02*
X130498000Y-109925000D01*
G04 #@! TO.C,R1*
X127368000Y-111365000D02*
G75*
G03*
X127368000Y-111365000I-1370000J0D01*
G01*
X125998000Y-109995000D02*
X125998000Y-109925000D01*
G04 #@! TO.C,JP3*
X175698000Y-81265000D02*
X173698000Y-81265000D01*
X175698000Y-78465000D02*
X175698000Y-81265000D01*
X173698000Y-78465000D02*
X175698000Y-78465000D01*
X173698000Y-81265000D02*
X173698000Y-78465000D01*
G04 #@! TO.C,JP2*
X160198000Y-81265000D02*
X158198000Y-81265000D01*
X160198000Y-78465000D02*
X160198000Y-81265000D01*
X158198000Y-78465000D02*
X160198000Y-78465000D01*
X158198000Y-81265000D02*
X158198000Y-78465000D01*
G04 #@! TO.C,JP1*
X156498000Y-81265000D02*
X154498000Y-81265000D01*
X156498000Y-78465000D02*
X156498000Y-81265000D01*
X154498000Y-78465000D02*
X156498000Y-78465000D01*
X154498000Y-81265000D02*
X154498000Y-78465000D01*
D10*
G04 #@! TO.C,P1*
X140208000Y-125095000D02*
X157988000Y-125095000D01*
X157988000Y-125095000D02*
X157988000Y-122555000D01*
X157988000Y-122555000D02*
X140208000Y-122555000D01*
X137388000Y-125375000D02*
X138938000Y-125375000D01*
X140208000Y-125095000D02*
X140208000Y-122555000D01*
X138938000Y-122275000D02*
X137388000Y-122275000D01*
X137388000Y-122275000D02*
X137388000Y-125375000D01*
G04 #@! TO.C,P2*
X163068000Y-125095000D02*
X175768000Y-125095000D01*
X175768000Y-125095000D02*
X175768000Y-122555000D01*
X175768000Y-122555000D02*
X163068000Y-122555000D01*
X160248000Y-125375000D02*
X161798000Y-125375000D01*
X163068000Y-125095000D02*
X163068000Y-122555000D01*
X161798000Y-122275000D02*
X160248000Y-122275000D01*
X160248000Y-122275000D02*
X160248000Y-125375000D01*
G04 #@! TO.C,P3*
X131064000Y-76835000D02*
X153924000Y-76835000D01*
X153924000Y-76835000D02*
X153924000Y-74295000D01*
X153924000Y-74295000D02*
X131064000Y-74295000D01*
X128244000Y-77115000D02*
X129794000Y-77115000D01*
X131064000Y-76835000D02*
X131064000Y-74295000D01*
X129794000Y-74015000D02*
X128244000Y-74015000D01*
X128244000Y-74015000D02*
X128244000Y-77115000D01*
G04 #@! TO.C,P4*
X157988000Y-76835000D02*
X175768000Y-76835000D01*
X175768000Y-76835000D02*
X175768000Y-74295000D01*
X175768000Y-74295000D02*
X157988000Y-74295000D01*
X155168000Y-77115000D02*
X156718000Y-77115000D01*
X157988000Y-76835000D02*
X157988000Y-74295000D01*
X156718000Y-74015000D02*
X155168000Y-74015000D01*
X155168000Y-74015000D02*
X155168000Y-77115000D01*
G04 #@! TO.C,P5*
X127254000Y-123825000D02*
G75*
G03*
X127254000Y-123825000I-2286000J0D01*
G01*
G04 #@! TO.C,P6*
X179324000Y-118745000D02*
G75*
G03*
X179324000Y-118745000I-2286000J0D01*
G01*
G04 #@! TO.C,P7*
X128524000Y-75565000D02*
G75*
G03*
X128524000Y-75565000I-2286000J0D01*
G01*
G04 #@! TO.C,P8*
X179324000Y-90805000D02*
G75*
G03*
X179324000Y-90805000I-2286000J0D01*
G01*
G04 #@! TO.C,M1*
X169520380Y-102174523D02*
X168520380Y-102174523D01*
X169234666Y-101841190D01*
X168520380Y-101507857D01*
X169520380Y-101507857D01*
X169520380Y-100507857D02*
X169520380Y-101079285D01*
X169520380Y-100793571D02*
X168520380Y-100793571D01*
X168663238Y-100888809D01*
X168758476Y-100984047D01*
X168806095Y-101079285D01*
G04 #@! TO.C,JP6*
X161250380Y-80698333D02*
X161964666Y-80698333D01*
X162107523Y-80745952D01*
X162202761Y-80841190D01*
X162250380Y-80984047D01*
X162250380Y-81079285D01*
X162250380Y-80222142D02*
X161250380Y-80222142D01*
X161250380Y-79841190D01*
X161298000Y-79745952D01*
X161345619Y-79698333D01*
X161440857Y-79650714D01*
X161583714Y-79650714D01*
X161678952Y-79698333D01*
X161726571Y-79745952D01*
X161774190Y-79841190D01*
X161774190Y-80222142D01*
X161250380Y-78793571D02*
X161250380Y-78984047D01*
X161298000Y-79079285D01*
X161345619Y-79126904D01*
X161488476Y-79222142D01*
X161678952Y-79269761D01*
X162059904Y-79269761D01*
X162155142Y-79222142D01*
X162202761Y-79174523D01*
X162250380Y-79079285D01*
X162250380Y-78888809D01*
X162202761Y-78793571D01*
X162155142Y-78745952D01*
X162059904Y-78698333D01*
X161821809Y-78698333D01*
X161726571Y-78745952D01*
X161678952Y-78793571D01*
X161631333Y-78888809D01*
X161631333Y-79079285D01*
X161678952Y-79174523D01*
X161726571Y-79222142D01*
X161821809Y-79269761D01*
G04 #@! TO.C,JP5*
X164950380Y-80698333D02*
X165664666Y-80698333D01*
X165807523Y-80745952D01*
X165902761Y-80841190D01*
X165950380Y-80984047D01*
X165950380Y-81079285D01*
X165950380Y-80222142D02*
X164950380Y-80222142D01*
X164950380Y-79841190D01*
X164998000Y-79745952D01*
X165045619Y-79698333D01*
X165140857Y-79650714D01*
X165283714Y-79650714D01*
X165378952Y-79698333D01*
X165426571Y-79745952D01*
X165474190Y-79841190D01*
X165474190Y-80222142D01*
X164950380Y-78745952D02*
X164950380Y-79222142D01*
X165426571Y-79269761D01*
X165378952Y-79222142D01*
X165331333Y-79126904D01*
X165331333Y-78888809D01*
X165378952Y-78793571D01*
X165426571Y-78745952D01*
X165521809Y-78698333D01*
X165759904Y-78698333D01*
X165855142Y-78745952D01*
X165902761Y-78793571D01*
X165950380Y-78888809D01*
X165950380Y-79126904D01*
X165902761Y-79222142D01*
X165855142Y-79269761D01*
G04 #@! TO.C,JP4*
X168650380Y-80698333D02*
X169364666Y-80698333D01*
X169507523Y-80745952D01*
X169602761Y-80841190D01*
X169650380Y-80984047D01*
X169650380Y-81079285D01*
X169650380Y-80222142D02*
X168650380Y-80222142D01*
X168650380Y-79841190D01*
X168698000Y-79745952D01*
X168745619Y-79698333D01*
X168840857Y-79650714D01*
X168983714Y-79650714D01*
X169078952Y-79698333D01*
X169126571Y-79745952D01*
X169174190Y-79841190D01*
X169174190Y-80222142D01*
X168983714Y-78793571D02*
X169650380Y-78793571D01*
X168602761Y-79031666D02*
X169317047Y-79269761D01*
X169317047Y-78650714D01*
G04 #@! TO.C,R10*
X128820380Y-94277857D02*
X128344190Y-94611190D01*
X128820380Y-94849285D02*
X127820380Y-94849285D01*
X127820380Y-94468333D01*
X127868000Y-94373095D01*
X127915619Y-94325476D01*
X128010857Y-94277857D01*
X128153714Y-94277857D01*
X128248952Y-94325476D01*
X128296571Y-94373095D01*
X128344190Y-94468333D01*
X128344190Y-94849285D01*
X128820380Y-93325476D02*
X128820380Y-93896904D01*
X128820380Y-93611190D02*
X127820380Y-93611190D01*
X127963238Y-93706428D01*
X128058476Y-93801666D01*
X128106095Y-93896904D01*
X127820380Y-92706428D02*
X127820380Y-92611190D01*
X127868000Y-92515952D01*
X127915619Y-92468333D01*
X128010857Y-92420714D01*
X128201333Y-92373095D01*
X128439428Y-92373095D01*
X128629904Y-92420714D01*
X128725142Y-92468333D01*
X128772761Y-92515952D01*
X128820380Y-92611190D01*
X128820380Y-92706428D01*
X128772761Y-92801666D01*
X128725142Y-92849285D01*
X128629904Y-92896904D01*
X128439428Y-92944523D01*
X128201333Y-92944523D01*
X128010857Y-92896904D01*
X127915619Y-92849285D01*
X127868000Y-92801666D01*
X127820380Y-92706428D01*
G04 #@! TO.C,R9*
X133320380Y-93801666D02*
X132844190Y-94135000D01*
X133320380Y-94373095D02*
X132320380Y-94373095D01*
X132320380Y-93992142D01*
X132368000Y-93896904D01*
X132415619Y-93849285D01*
X132510857Y-93801666D01*
X132653714Y-93801666D01*
X132748952Y-93849285D01*
X132796571Y-93896904D01*
X132844190Y-93992142D01*
X132844190Y-94373095D01*
X133320380Y-93325476D02*
X133320380Y-93135000D01*
X133272761Y-93039761D01*
X133225142Y-92992142D01*
X133082285Y-92896904D01*
X132891809Y-92849285D01*
X132510857Y-92849285D01*
X132415619Y-92896904D01*
X132368000Y-92944523D01*
X132320380Y-93039761D01*
X132320380Y-93230238D01*
X132368000Y-93325476D01*
X132415619Y-93373095D01*
X132510857Y-93420714D01*
X132748952Y-93420714D01*
X132844190Y-93373095D01*
X132891809Y-93325476D01*
X132939428Y-93230238D01*
X132939428Y-93039761D01*
X132891809Y-92944523D01*
X132844190Y-92896904D01*
X132748952Y-92849285D01*
G04 #@! TO.C,R8*
X137820380Y-93801666D02*
X137344190Y-94135000D01*
X137820380Y-94373095D02*
X136820380Y-94373095D01*
X136820380Y-93992142D01*
X136868000Y-93896904D01*
X136915619Y-93849285D01*
X137010857Y-93801666D01*
X137153714Y-93801666D01*
X137248952Y-93849285D01*
X137296571Y-93896904D01*
X137344190Y-93992142D01*
X137344190Y-94373095D01*
X137248952Y-93230238D02*
X137201333Y-93325476D01*
X137153714Y-93373095D01*
X137058476Y-93420714D01*
X137010857Y-93420714D01*
X136915619Y-93373095D01*
X136868000Y-93325476D01*
X136820380Y-93230238D01*
X136820380Y-93039761D01*
X136868000Y-92944523D01*
X136915619Y-92896904D01*
X137010857Y-92849285D01*
X137058476Y-92849285D01*
X137153714Y-92896904D01*
X137201333Y-92944523D01*
X137248952Y-93039761D01*
X137248952Y-93230238D01*
X137296571Y-93325476D01*
X137344190Y-93373095D01*
X137439428Y-93420714D01*
X137629904Y-93420714D01*
X137725142Y-93373095D01*
X137772761Y-93325476D01*
X137820380Y-93230238D01*
X137820380Y-93039761D01*
X137772761Y-92944523D01*
X137725142Y-92896904D01*
X137629904Y-92849285D01*
X137439428Y-92849285D01*
X137344190Y-92896904D01*
X137296571Y-92944523D01*
X137248952Y-93039761D01*
G04 #@! TO.C,R7*
X142320380Y-93801666D02*
X141844190Y-94135000D01*
X142320380Y-94373095D02*
X141320380Y-94373095D01*
X141320380Y-93992142D01*
X141368000Y-93896904D01*
X141415619Y-93849285D01*
X141510857Y-93801666D01*
X141653714Y-93801666D01*
X141748952Y-93849285D01*
X141796571Y-93896904D01*
X141844190Y-93992142D01*
X141844190Y-94373095D01*
X141320380Y-93468333D02*
X141320380Y-92801666D01*
X142320380Y-93230238D01*
G04 #@! TO.C,R6*
X138320380Y-83961666D02*
X137844190Y-84295000D01*
X138320380Y-84533095D02*
X137320380Y-84533095D01*
X137320380Y-84152142D01*
X137368000Y-84056904D01*
X137415619Y-84009285D01*
X137510857Y-83961666D01*
X137653714Y-83961666D01*
X137748952Y-84009285D01*
X137796571Y-84056904D01*
X137844190Y-84152142D01*
X137844190Y-84533095D01*
X137320380Y-83104523D02*
X137320380Y-83295000D01*
X137368000Y-83390238D01*
X137415619Y-83437857D01*
X137558476Y-83533095D01*
X137748952Y-83580714D01*
X138129904Y-83580714D01*
X138225142Y-83533095D01*
X138272761Y-83485476D01*
X138320380Y-83390238D01*
X138320380Y-83199761D01*
X138272761Y-83104523D01*
X138225142Y-83056904D01*
X138129904Y-83009285D01*
X137891809Y-83009285D01*
X137796571Y-83056904D01*
X137748952Y-83104523D01*
X137701333Y-83199761D01*
X137701333Y-83390238D01*
X137748952Y-83485476D01*
X137796571Y-83533095D01*
X137891809Y-83580714D01*
G04 #@! TO.C,R4*
X137580380Y-110261666D02*
X137104190Y-110595000D01*
X137580380Y-110833095D02*
X136580380Y-110833095D01*
X136580380Y-110452142D01*
X136628000Y-110356904D01*
X136675619Y-110309285D01*
X136770857Y-110261666D01*
X136913714Y-110261666D01*
X137008952Y-110309285D01*
X137056571Y-110356904D01*
X137104190Y-110452142D01*
X137104190Y-110833095D01*
X136913714Y-109404523D02*
X137580380Y-109404523D01*
X136532761Y-109642619D02*
X137247047Y-109880714D01*
X137247047Y-109261666D01*
G04 #@! TO.C,Q4*
X139402761Y-105412619D02*
X139307523Y-105365000D01*
X139212285Y-105269761D01*
X139069428Y-105126904D01*
X138974190Y-105079285D01*
X138878952Y-105079285D01*
X138926571Y-105317380D02*
X138831333Y-105269761D01*
X138736095Y-105174523D01*
X138688476Y-104984047D01*
X138688476Y-104650714D01*
X138736095Y-104460238D01*
X138831333Y-104365000D01*
X138926571Y-104317380D01*
X139117047Y-104317380D01*
X139212285Y-104365000D01*
X139307523Y-104460238D01*
X139355142Y-104650714D01*
X139355142Y-104984047D01*
X139307523Y-105174523D01*
X139212285Y-105269761D01*
X139117047Y-105317380D01*
X138926571Y-105317380D01*
X140212285Y-104650714D02*
X140212285Y-105317380D01*
X139974190Y-104269761D02*
X139736095Y-104984047D01*
X140355142Y-104984047D01*
G04 #@! TO.C,Q3*
X133902761Y-105412619D02*
X133807523Y-105365000D01*
X133712285Y-105269761D01*
X133569428Y-105126904D01*
X133474190Y-105079285D01*
X133378952Y-105079285D01*
X133426571Y-105317380D02*
X133331333Y-105269761D01*
X133236095Y-105174523D01*
X133188476Y-104984047D01*
X133188476Y-104650714D01*
X133236095Y-104460238D01*
X133331333Y-104365000D01*
X133426571Y-104317380D01*
X133617047Y-104317380D01*
X133712285Y-104365000D01*
X133807523Y-104460238D01*
X133855142Y-104650714D01*
X133855142Y-104984047D01*
X133807523Y-105174523D01*
X133712285Y-105269761D01*
X133617047Y-105317380D01*
X133426571Y-105317380D01*
X134188476Y-104317380D02*
X134807523Y-104317380D01*
X134474190Y-104698333D01*
X134617047Y-104698333D01*
X134712285Y-104745952D01*
X134759904Y-104793571D01*
X134807523Y-104888809D01*
X134807523Y-105126904D01*
X134759904Y-105222142D01*
X134712285Y-105269761D01*
X134617047Y-105317380D01*
X134331333Y-105317380D01*
X134236095Y-105269761D01*
X134188476Y-105222142D01*
G04 #@! TO.C,Q2*
X128402761Y-105412619D02*
X128307523Y-105365000D01*
X128212285Y-105269761D01*
X128069428Y-105126904D01*
X127974190Y-105079285D01*
X127878952Y-105079285D01*
X127926571Y-105317380D02*
X127831333Y-105269761D01*
X127736095Y-105174523D01*
X127688476Y-104984047D01*
X127688476Y-104650714D01*
X127736095Y-104460238D01*
X127831333Y-104365000D01*
X127926571Y-104317380D01*
X128117047Y-104317380D01*
X128212285Y-104365000D01*
X128307523Y-104460238D01*
X128355142Y-104650714D01*
X128355142Y-104984047D01*
X128307523Y-105174523D01*
X128212285Y-105269761D01*
X128117047Y-105317380D01*
X127926571Y-105317380D01*
X128736095Y-104412619D02*
X128783714Y-104365000D01*
X128878952Y-104317380D01*
X129117047Y-104317380D01*
X129212285Y-104365000D01*
X129259904Y-104412619D01*
X129307523Y-104507857D01*
X129307523Y-104603095D01*
X129259904Y-104745952D01*
X128688476Y-105317380D01*
X129307523Y-105317380D01*
G04 #@! TO.C,Q1*
X122902761Y-105412619D02*
X122807523Y-105365000D01*
X122712285Y-105269761D01*
X122569428Y-105126904D01*
X122474190Y-105079285D01*
X122378952Y-105079285D01*
X122426571Y-105317380D02*
X122331333Y-105269761D01*
X122236095Y-105174523D01*
X122188476Y-104984047D01*
X122188476Y-104650714D01*
X122236095Y-104460238D01*
X122331333Y-104365000D01*
X122426571Y-104317380D01*
X122617047Y-104317380D01*
X122712285Y-104365000D01*
X122807523Y-104460238D01*
X122855142Y-104650714D01*
X122855142Y-104984047D01*
X122807523Y-105174523D01*
X122712285Y-105269761D01*
X122617047Y-105317380D01*
X122426571Y-105317380D01*
X123807523Y-105317380D02*
X123236095Y-105317380D01*
X123521809Y-105317380D02*
X123521809Y-104317380D01*
X123426571Y-104460238D01*
X123331333Y-104555476D01*
X123236095Y-104603095D01*
G04 #@! TO.C,C1*
X171581333Y-83722142D02*
X171533714Y-83769761D01*
X171390857Y-83817380D01*
X171295619Y-83817380D01*
X171152761Y-83769761D01*
X171057523Y-83674523D01*
X171009904Y-83579285D01*
X170962285Y-83388809D01*
X170962285Y-83245952D01*
X171009904Y-83055476D01*
X171057523Y-82960238D01*
X171152761Y-82865000D01*
X171295619Y-82817380D01*
X171390857Y-82817380D01*
X171533714Y-82865000D01*
X171581333Y-82912619D01*
X172533714Y-83817380D02*
X171962285Y-83817380D01*
X172248000Y-83817380D02*
X172248000Y-82817380D01*
X172152761Y-82960238D01*
X172057523Y-83055476D01*
X171962285Y-83103095D01*
G04 #@! TO.C,J2*
X135760380Y-117198333D02*
X136474666Y-117198333D01*
X136617523Y-117245952D01*
X136712761Y-117341190D01*
X136760380Y-117484047D01*
X136760380Y-117579285D01*
X135855619Y-116769761D02*
X135808000Y-116722142D01*
X135760380Y-116626904D01*
X135760380Y-116388809D01*
X135808000Y-116293571D01*
X135855619Y-116245952D01*
X135950857Y-116198333D01*
X136046095Y-116198333D01*
X136188952Y-116245952D01*
X136760380Y-116817380D01*
X136760380Y-116198333D01*
G04 #@! TO.C,J1*
X168060380Y-86198333D02*
X168774666Y-86198333D01*
X168917523Y-86245952D01*
X169012761Y-86341190D01*
X169060380Y-86484047D01*
X169060380Y-86579285D01*
X169060380Y-85198333D02*
X169060380Y-85769761D01*
X169060380Y-85484047D02*
X168060380Y-85484047D01*
X168203238Y-85579285D01*
X168298476Y-85674523D01*
X168346095Y-85769761D01*
G04 #@! TO.C,R5*
X133520380Y-84011666D02*
X133044190Y-84345000D01*
X133520380Y-84583095D02*
X132520380Y-84583095D01*
X132520380Y-84202142D01*
X132568000Y-84106904D01*
X132615619Y-84059285D01*
X132710857Y-84011666D01*
X132853714Y-84011666D01*
X132948952Y-84059285D01*
X132996571Y-84106904D01*
X133044190Y-84202142D01*
X133044190Y-84583095D01*
X132520380Y-83106904D02*
X132520380Y-83583095D01*
X132996571Y-83630714D01*
X132948952Y-83583095D01*
X132901333Y-83487857D01*
X132901333Y-83249761D01*
X132948952Y-83154523D01*
X132996571Y-83106904D01*
X133091809Y-83059285D01*
X133329904Y-83059285D01*
X133425142Y-83106904D01*
X133472761Y-83154523D01*
X133520380Y-83249761D01*
X133520380Y-83487857D01*
X133472761Y-83583095D01*
X133425142Y-83630714D01*
G04 #@! TO.C,R3*
X133080380Y-110301666D02*
X132604190Y-110635000D01*
X133080380Y-110873095D02*
X132080380Y-110873095D01*
X132080380Y-110492142D01*
X132128000Y-110396904D01*
X132175619Y-110349285D01*
X132270857Y-110301666D01*
X132413714Y-110301666D01*
X132508952Y-110349285D01*
X132556571Y-110396904D01*
X132604190Y-110492142D01*
X132604190Y-110873095D01*
X132080380Y-109968333D02*
X132080380Y-109349285D01*
X132461333Y-109682619D01*
X132461333Y-109539761D01*
X132508952Y-109444523D01*
X132556571Y-109396904D01*
X132651809Y-109349285D01*
X132889904Y-109349285D01*
X132985142Y-109396904D01*
X133032761Y-109444523D01*
X133080380Y-109539761D01*
X133080380Y-109825476D01*
X133032761Y-109920714D01*
X132985142Y-109968333D01*
G04 #@! TO.C,R2*
X128580380Y-110261666D02*
X128104190Y-110595000D01*
X128580380Y-110833095D02*
X127580380Y-110833095D01*
X127580380Y-110452142D01*
X127628000Y-110356904D01*
X127675619Y-110309285D01*
X127770857Y-110261666D01*
X127913714Y-110261666D01*
X128008952Y-110309285D01*
X128056571Y-110356904D01*
X128104190Y-110452142D01*
X128104190Y-110833095D01*
X127675619Y-109880714D02*
X127628000Y-109833095D01*
X127580380Y-109737857D01*
X127580380Y-109499761D01*
X127628000Y-109404523D01*
X127675619Y-109356904D01*
X127770857Y-109309285D01*
X127866095Y-109309285D01*
X128008952Y-109356904D01*
X128580380Y-109928333D01*
X128580380Y-109309285D01*
G04 #@! TO.C,R1*
X124080380Y-110261666D02*
X123604190Y-110595000D01*
X124080380Y-110833095D02*
X123080380Y-110833095D01*
X123080380Y-110452142D01*
X123128000Y-110356904D01*
X123175619Y-110309285D01*
X123270857Y-110261666D01*
X123413714Y-110261666D01*
X123508952Y-110309285D01*
X123556571Y-110356904D01*
X123604190Y-110452142D01*
X123604190Y-110833095D01*
X124080380Y-109309285D02*
X124080380Y-109880714D01*
X124080380Y-109595000D02*
X123080380Y-109595000D01*
X123223238Y-109690238D01*
X123318476Y-109785476D01*
X123366095Y-109880714D01*
G04 #@! TO.C,JP3*
X172350380Y-80698333D02*
X173064666Y-80698333D01*
X173207523Y-80745952D01*
X173302761Y-80841190D01*
X173350380Y-80984047D01*
X173350380Y-81079285D01*
X173350380Y-80222142D02*
X172350380Y-80222142D01*
X172350380Y-79841190D01*
X172398000Y-79745952D01*
X172445619Y-79698333D01*
X172540857Y-79650714D01*
X172683714Y-79650714D01*
X172778952Y-79698333D01*
X172826571Y-79745952D01*
X172874190Y-79841190D01*
X172874190Y-80222142D01*
X172350380Y-79317380D02*
X172350380Y-78698333D01*
X172731333Y-79031666D01*
X172731333Y-78888809D01*
X172778952Y-78793571D01*
X172826571Y-78745952D01*
X172921809Y-78698333D01*
X173159904Y-78698333D01*
X173255142Y-78745952D01*
X173302761Y-78793571D01*
X173350380Y-78888809D01*
X173350380Y-79174523D01*
X173302761Y-79269761D01*
X173255142Y-79317380D01*
G04 #@! TO.C,JP2*
X156850380Y-80698333D02*
X157564666Y-80698333D01*
X157707523Y-80745952D01*
X157802761Y-80841190D01*
X157850380Y-80984047D01*
X157850380Y-81079285D01*
X157850380Y-80222142D02*
X156850380Y-80222142D01*
X156850380Y-79841190D01*
X156898000Y-79745952D01*
X156945619Y-79698333D01*
X157040857Y-79650714D01*
X157183714Y-79650714D01*
X157278952Y-79698333D01*
X157326571Y-79745952D01*
X157374190Y-79841190D01*
X157374190Y-80222142D01*
X156945619Y-79269761D02*
X156898000Y-79222142D01*
X156850380Y-79126904D01*
X156850380Y-78888809D01*
X156898000Y-78793571D01*
X156945619Y-78745952D01*
X157040857Y-78698333D01*
X157136095Y-78698333D01*
X157278952Y-78745952D01*
X157850380Y-79317380D01*
X157850380Y-78698333D01*
G04 #@! TO.C,JP1*
X153150380Y-80698333D02*
X153864666Y-80698333D01*
X154007523Y-80745952D01*
X154102761Y-80841190D01*
X154150380Y-80984047D01*
X154150380Y-81079285D01*
X154150380Y-80222142D02*
X153150380Y-80222142D01*
X153150380Y-79841190D01*
X153198000Y-79745952D01*
X153245619Y-79698333D01*
X153340857Y-79650714D01*
X153483714Y-79650714D01*
X153578952Y-79698333D01*
X153626571Y-79745952D01*
X153674190Y-79841190D01*
X153674190Y-80222142D01*
X154150380Y-78698333D02*
X154150380Y-79269761D01*
X154150380Y-78984047D02*
X153150380Y-78984047D01*
X153293238Y-79079285D01*
X153388476Y-79174523D01*
X153436095Y-79269761D01*
G04 #@! TO.C,P1*
X147089904Y-121737380D02*
X147089904Y-120737380D01*
X147470857Y-120737380D01*
X147566095Y-120785000D01*
X147613714Y-120832619D01*
X147661333Y-120927857D01*
X147661333Y-121070714D01*
X147613714Y-121165952D01*
X147566095Y-121213571D01*
X147470857Y-121261190D01*
X147089904Y-121261190D01*
X148613714Y-121737380D02*
X148042285Y-121737380D01*
X148328000Y-121737380D02*
X148328000Y-120737380D01*
X148232761Y-120880238D01*
X148137523Y-120975476D01*
X148042285Y-121023095D01*
G04 #@! TO.C,P2*
X167663904Y-121737380D02*
X167663904Y-120737380D01*
X168044857Y-120737380D01*
X168140095Y-120785000D01*
X168187714Y-120832619D01*
X168235333Y-120927857D01*
X168235333Y-121070714D01*
X168187714Y-121165952D01*
X168140095Y-121213571D01*
X168044857Y-121261190D01*
X167663904Y-121261190D01*
X168616285Y-120832619D02*
X168663904Y-120785000D01*
X168759142Y-120737380D01*
X168997238Y-120737380D01*
X169092476Y-120785000D01*
X169140095Y-120832619D01*
X169187714Y-120927857D01*
X169187714Y-121023095D01*
X169140095Y-121165952D01*
X168568666Y-121737380D01*
X169187714Y-121737380D01*
G04 #@! TO.C,P3*
X140485904Y-78811380D02*
X140485904Y-77811380D01*
X140866857Y-77811380D01*
X140962095Y-77859000D01*
X141009714Y-77906619D01*
X141057333Y-78001857D01*
X141057333Y-78144714D01*
X141009714Y-78239952D01*
X140962095Y-78287571D01*
X140866857Y-78335190D01*
X140485904Y-78335190D01*
X141390666Y-77811380D02*
X142009714Y-77811380D01*
X141676380Y-78192333D01*
X141819238Y-78192333D01*
X141914476Y-78239952D01*
X141962095Y-78287571D01*
X142009714Y-78382809D01*
X142009714Y-78620904D01*
X141962095Y-78716142D01*
X141914476Y-78763761D01*
X141819238Y-78811380D01*
X141533523Y-78811380D01*
X141438285Y-78763761D01*
X141390666Y-78716142D01*
G04 #@! TO.C,P4*
X164869904Y-78811380D02*
X164869904Y-77811380D01*
X165250857Y-77811380D01*
X165346095Y-77859000D01*
X165393714Y-77906619D01*
X165441333Y-78001857D01*
X165441333Y-78144714D01*
X165393714Y-78239952D01*
X165346095Y-78287571D01*
X165250857Y-78335190D01*
X164869904Y-78335190D01*
X166298476Y-78144714D02*
X166298476Y-78811380D01*
X166060380Y-77763761D02*
X165822285Y-78478047D01*
X166441333Y-78478047D01*
G04 #@! TD*
M02*
